# Wavefront OBJ exported by MilkShape 3D

mtllib Anchor.mtl

v 2.366162 84.597565 0.952121
v 9.398828 84.597565 0.952116
v 9.398828 85.724693 9.129901
v 2.366162 89.192619 11.793051
v 2.366162 97.540123 10.891130
v 9.398828 100.182953 7.567722
v 9.398828 99.055817 -0.610066
v 2.366162 95.587875 -3.595532
v 9.398828 91.263153 -3.595532
v 9.398828 84.597565 0.952116
v 2.366162 84.597565 0.952121
v 2.366162 88.415062 1.290815
v 2.366162 84.597565 0.952121
v 9.398828 84.597565 0.952116
v 9.398828 88.516975 7.358497
v 9.398828 85.724693 9.129901
v 2.366162 89.192619 11.793051
v 2.366162 93.222588 9.355917
v 2.366162 97.540123 10.891130
v 9.398828 100.182953 7.567722
v 9.398828 97.802330 4.246759
v 9.398828 99.055817 -0.610066
v 2.366162 95.587875 -3.595532
v 2.366162 93.407234 -0.674273
v 9.398828 91.263153 -3.595532
v 9.398828 88.526939 1.287127
v 2.366162 100.737755 3.358000
v 2.366162 100.737755 3.358000
v 9.398828 93.517372 12.437694
v 9.398828 93.517372 12.437694
v 2.366162 84.042793 5.161851
v 2.366162 84.042793 5.161851
v 2.366162 87.240417 -2.371280
v 2.366162 87.240417 -2.371280
v 2.366162 97.802315 4.246753
v 9.398828 93.222588 9.355917
v 2.366162 88.516983 7.358500
v 9.398828 93.407234 -0.674273
v 2.366162 100.182953 7.567722
v 2.366162 100.182953 7.567722
v 9.398828 97.540146 10.891136
v 9.398828 97.540146 10.891136
v 9.398828 87.240425 -2.371276
v 9.398828 87.240425 -2.371276
v 9.398828 100.737762 3.358004
v 9.398828 100.737762 3.358004
v 9.398828 84.042793 5.161851
v 9.398828 84.042793 5.161851
v 2.366162 85.724678 9.129894
v 2.366162 85.724678 9.129894
v 2.366162 93.517365 12.437687
v 2.366162 93.517365 12.437687
v 2.366162 87.378273 6.041383
v 2.366162 68.619568 6.041383
v 9.398828 87.378273 6.041383
v 9.398828 68.619568 6.041383
v 9.398828 87.378273 3.041950
v 9.398828 68.619568 3.041950
v 2.366162 87.378273 3.041950
v 2.366162 68.619568 3.041950
v 2.366162 68.649323 10.625002
v 2.366162 64.592712 10.625002
v 9.398828 68.649323 10.625002
v 9.398828 64.592712 10.625002
v 9.398828 68.649323 -1.860806
v 9.398828 64.592712 -1.860806
v 2.366162 68.649323 -1.860806
v 2.366162 64.592712 -1.860806
v 2.366162 72.336823 19.125002
v 2.366162 68.530212 20.250002
v 9.398828 72.336823 19.125002
v 9.398828 68.530212 20.250002
v 9.398828 68.649323 10.625002
v 9.398828 64.592712 10.625002
v 2.366162 68.649323 10.625002
v 2.366162 64.592712 10.625002
v 6.058046 79.621017 25.423309
v 6.058046 79.621017 25.423309
v 6.058046 79.621017 25.423309
v 6.058046 79.621017 25.423309
v 9.398828 72.336823 19.125002
v 9.398828 68.530212 20.250002
v 2.366162 72.336823 19.125002
v 2.366162 68.530212 20.250002
v 2.366162 73.086823 -10.000002
v 2.366162 69.280212 -11.125002
v 9.398828 73.086823 -10.000002
v 9.398828 69.280212 -11.125002
v 9.398828 68.649323 -1.875002
v 9.398828 64.592712 -1.875002
v 2.366162 68.649323 -1.875002
v 2.366162 64.592712 -1.875002
v 6.058046 80.371017 -16.298309
v 6.058046 80.371017 -16.298309
v 6.058046 80.371017 -16.298309
v 6.058046 80.371017 -16.298309
v 9.398828 73.086823 -10.000002
v 9.398828 69.280212 -11.125002
v 2.366162 73.086823 -10.000002
v 2.366162 69.280212 -11.125002
v 2.366162 80.768105 10.131890
v 2.366162 79.223938 10.131890
v 9.398828 80.768105 10.131890
v 9.398828 79.223938 10.131890
v 9.398828 80.768105 -0.867694
v 9.398828 79.223938 -0.867694
v 2.366162 80.768105 -0.867694
v 2.366162 79.223938 -0.867694
# 108 vertices

vt 0.850171 0.503884
vt 0.897682 0.503884
vt 0.897682 0.508627
vt 0.850171 0.508626
vt 0.850171 0.518405
vt 0.897682 0.530599
vt 0.850171 0.530599
vt 0.850171 0.550958
vt 0.897682 0.550958
vt 0.897682 0.546216
vt 0.850171 0.536437
vt 0.897682 0.524243
vt 0.850171 0.512900
vt 0.897682 0.512900
vt 0.850171 0.516500
vt 0.897682 0.516528
vt 0.850171 0.541942
vt 0.897682 0.549394
vt 0.897682 0.542681
vt 0.850171 0.549394
vt 0.850171 0.505448
vt 0.897682 0.505448
vt 0.850171 0.460396
vt 0.897682 0.460396
vt 0.850171 0.449042
vt 0.897682 0.449042
vt 0.850171 0.470877
vt 0.897682 0.470877
vt 0.875113 0.491416
vt 0.897682 0.472992
vt 0.850171 0.462259
vt 0.850171 0.472992
vt 0.897682 0.462259
vt 0.875113 0.493531
vt 0.850171 0.494651
vt 0.850171 0.490297
vt 0.897682 0.494651
vt 0.897682 0.490297
# 38 texture coordinates

vn 0.000000 -0.990910 0.134529
vn 0.040828 -0.751797 0.658129
vn 0.000001 -0.790967 0.611859
vn 0.052606 -0.390189 0.919231
vn 0.040826 0.048819 0.997973
vn -0.000001 0.109313 0.994007
vn -0.037701 0.980977 -0.190428
vn -0.000001 0.990910 -0.134529
vn 0.025950 0.737268 -0.675101
vn -0.006036 0.373204 -0.927730
vn 0.044077 -0.030188 -0.998572
vn -0.023612 -0.531604 -0.846664
vn 0.000001 -0.562329 -0.826913
vn -1.000000 0.000000 0.000000
vn 1.000000 0.000000 0.000000
vn -0.000002 0.591571 0.806253
vn -0.000001 0.920505 0.390731
vn -0.000000 -0.991428 -0.130654
vn -0.000000 -0.782688 -0.622414
vn 0.000000 0.000000 1.000000
vn 0.000000 0.000000 -1.000000
vn 0.000000 1.000000 0.000000
vn 0.000000 -1.000000 0.000000
vn 0.000000 0.283420 0.958996
vn 0.000000 0.917392 -0.397986
vn 0.000000 -0.925547 0.378633
vn 0.000000 0.000000 0.000000
vn 0.924533 0.108012 0.365476
vn 0.000000 -0.283420 -0.958996
vn -0.910028 0.117491 0.397549
vn 0.000000 0.654061 -0.756442
vn 0.000000 -0.422724 0.906258
vn 0.000000 0.283420 -0.958996
vn 0.000000 0.877637 0.479325
vn 0.000000 -0.892003 -0.452029
vn 0.924533 0.108012 -0.365476
vn 0.000000 -0.283420 0.958996
vn -0.910028 0.117491 -0.397549
vn 0.000000 0.654061 0.756442
vn 0.000000 -0.422724 -0.906258
# 40 normals

g Regroup00
usemtl Material02
s 1
f 32/1/1 47/2/1 3/3/2
f 50/4/3 3/3/2 4/5/4
f 3/3/2 30/6/5 4/5/4
f 4/5/4 30/6/5 51/7/6
f 28/8/7 45/9/8 7/10/9
f 28/8/7 7/10/9 8/11/10
f 8/11/10 7/10/9 9/12/11
f 8/11/10 9/12/11 33/13/12
f 9/12/11 44/14/13 33/13/12
f 31/1/14 37/15/14 12/15/14
f 48/2/15 26/16/15 15/16/15
f 48/2/15 15/16/15 16/3/15
f 17/5/14 37/15/14 49/4/14
f 16/3/15 15/16/15 29/6/15
f 52/7/14 18/7/14 17/5/14
f 19/17/14 35/17/14 18/7/14
f 20/18/15 36/6/15 21/19/15
f 46/9/15 21/19/15 22/10/15
f 23/11/14 24/7/14 27/8/14
f 22/10/15 38/6/15 25/12/15
f 34/13/14 12/15/14 24/7/14
f 34/13/14 24/7/14 23/11/14
f 25/12/15 38/6/15 26/16/15
f 25/12/15 26/16/15 43/14/15
f 19/17/14 40/20/14 35/17/14
f 5/17/16 6/18/17 39/20/17
f 41/19/15 29/6/15 36/6/15
f 42/19/16 5/17/16 30/6/5
f 13/21/14 31/1/14 12/15/14
f 1/21/18 2/22/18 32/1/1
f 11/21/19 33/13/12 10/22/19
f 13/21/14 12/15/14 34/13/14
f 24/7/14 35/17/14 27/8/14
f 15/16/15 36/6/15 29/6/15
f 18/7/14 37/15/14 17/5/14
f 21/19/15 38/6/15 22/10/15
f 28/8/7 39/20/17 6/18/17
f 27/8/14 35/17/14 40/20/14
f 20/18/15 41/19/15 36/6/15
f 6/18/17 5/17/16 42/19/16
f 14/22/15 43/14/15 26/16/15
f 10/22/19 33/13/12 44/14/13
f 6/18/17 45/9/8 28/8/7
f 20/18/15 21/19/15 46/9/15
f 2/22/18 47/2/1 32/1/1
f 14/22/15 26/16/15 48/2/15
f 31/1/14 49/4/14 37/15/14
f 32/1/1 3/3/2 50/4/3
f 5/17/16 51/7/6 30/6/5
f 19/17/14 18/7/14 52/7/14
f 53/13/20 54/23/20 55/14/20
f 54/23/20 56/24/20 55/14/20
s 2
f 55/14/15 56/24/15 57/14/15
f 56/24/15 58/24/15 57/14/15
s 1
f 57/14/21 58/24/21 59/13/21
f 58/24/21 60/23/21 59/13/21
s 2
f 59/13/14 60/23/14 53/13/14
f 60/23/14 54/23/14 53/13/14
s 3
f 59/13/22 53/13/22 57/14/22
f 53/13/22 55/14/22 57/14/22
f 54/23/23 60/23/23 56/24/23
f 60/23/23 58/24/23 56/24/23
s 1
f 61/23/20 62/25/20 63/24/20
f 62/25/20 64/26/20 63/24/20
s 2
f 63/24/15 64/26/15 65/24/15
f 64/26/15 66/26/15 65/24/15
s 1
f 65/24/21 66/26/21 67/23/21
f 66/26/21 68/25/21 67/23/21
s 2
f 67/23/14 68/25/14 61/23/14
f 68/25/14 62/25/14 61/23/14
s 3
f 67/23/22 61/23/22 65/24/22
f 61/23/22 63/24/22 65/24/22
f 62/25/23 68/25/23 64/26/23
f 68/25/23 66/26/23 64/26/23
s 1
f 69/27/24 70/23/24 71/28/24
f 70/23/24 72/24/24 71/28/24
s 2
f 71/28/15 72/24/15 73/24/15
f 72/24/15 74/26/15 73/24/15
s 1
f 73/24/21 74/26/21 75/23/21
f 74/26/21 76/25/21 75/23/21
s 2
f 75/23/14 76/25/14 69/27/14
f 76/25/14 70/23/14 69/27/14
s 3
f 75/23/25 69/27/25 73/24/25
f 69/27/25 71/28/25 73/24/25
f 70/23/26 76/25/26 72/24/26
f 76/25/26 74/26/26 72/24/26
s 1
f 77/29/27 78/29/27 79/29/27
f 78/29/27 80/29/27 79/29/27
s 2
f 79/29/27 80/29/28 81/28/28
f 80/29/28 82/24/28 81/28/28
s 1
f 81/28/29 82/24/29 83/27/29
f 82/24/29 84/23/29 83/27/29
s 2
f 83/27/30 84/23/30 77/29/30
f 84/23/30 78/29/27 77/29/30
s 3
f 83/27/31 77/29/31 81/28/31
f 77/29/31 79/29/27 81/28/31
f 78/29/27 84/23/32 80/29/32
f 84/23/32 82/24/32 80/29/32
s 1
f 87/30/33 86/31/33 85/32/33
f 87/30/33 88/33/33 86/31/33
s 2
f 89/24/15 88/33/15 87/30/15
f 89/24/15 90/26/15 88/33/15
s 1
f 91/23/20 90/26/20 89/24/20
f 91/23/20 92/25/20 90/26/20
s 2
f 85/32/14 92/25/14 91/23/14
f 85/32/14 86/31/14 92/25/14
s 3
f 89/24/34 85/32/34 91/23/34
f 89/24/34 87/30/34 85/32/34
f 88/33/35 92/25/35 86/31/35
f 88/33/35 90/26/35 92/25/35
s 1
f 95/34/27 94/34/27 93/34/27
f 95/34/27 96/34/27 94/34/27
s 2
f 97/30/36 96/34/36 95/34/27
f 97/30/36 98/33/36 96/34/36
s 1
f 99/32/37 98/33/37 97/30/37
f 99/32/37 100/31/37 98/33/37
s 2
f 93/34/38 100/31/38 99/32/38
f 93/34/38 94/34/27 100/31/38
s 3
f 97/30/39 93/34/39 99/32/39
f 97/30/39 95/34/27 93/34/39
f 96/34/40 100/31/40 94/34/27
f 96/34/40 98/33/40 100/31/40
s 1
f 101/35/20 102/36/20 103/37/20
f 102/36/20 104/38/20 103/37/20
s 2
f 103/37/15 104/38/15 105/37/15
f 104/38/15 106/38/15 105/37/15
s 1
f 105/37/21 106/38/21 107/35/21
f 106/38/21 108/36/21 107/35/21
s 2
f 107/35/14 108/36/14 101/35/14
f 108/36/14 102/36/14 101/35/14
s 3
f 107/35/22 101/35/22 105/37/22
f 101/35/22 103/37/22 105/37/22
f 102/36/23 108/36/23 104/38/23
f 108/36/23 106/38/23 104/38/23
# 134 triangles in group

# 134 triangles total

