# Wavefront OBJ exported by MilkShape 3D

mtllib Axe.mtl

v -8.400000 18.176163 0.442241
v -8.400000 0.689035 0.442241
v -7.000000 18.176163 0.442241
v -7.000000 0.689035 0.442241
v -7.000000 18.176163 -0.442260
v -7.000000 0.689035 -0.442260
v -8.400000 18.176163 -0.442260
v -8.400000 0.689035 -0.442260
v -7.699998 20.106472 8.580450
v -7.699998 11.401344 8.580450
v -7.699998 20.106472 8.580450
v -7.699998 11.401344 8.580450
v -7.164560 19.039982 6.801126
v -7.164560 12.761963 6.801126
v -8.235437 19.039982 6.801126
v -8.235437 12.761963 6.801126
v -7.699998 20.106472 8.580450
v -7.699998 11.401344 8.580450
v -7.699998 20.106472 8.580450
v -7.699998 11.401344 8.580450
v -8.235437 19.039982 6.801126
v -8.235437 12.761963 6.801126
v -7.164560 19.039982 6.801126
v -7.164560 12.761963 6.801126
v -8.235437 18.058270 3.383106
v -8.235437 13.508371 3.383106
v -7.164560 18.058270 3.383106
v -7.164560 13.508371 3.383106
v -7.164560 17.930387 0.135295
v -7.164560 13.812728 0.135295
v -8.235437 17.930387 0.135295
v -8.235437 13.812728 0.135295
v -7.164560 18.058270 3.383106
v -7.164560 13.508371 3.383106
v -8.235437 18.058270 3.383106
v -8.235437 13.508371 3.383106
v -8.235437 17.930387 0.135295
v -8.235437 13.812728 0.135295
v -7.164560 17.930387 0.135295
v -7.164560 13.812728 0.135295
v -8.235437 19.039982 6.801126
v -8.235437 12.761963 6.801126
v -7.164560 19.039982 6.801126
v -7.164560 12.761963 6.801126
v -7.164560 18.058270 3.383106
v -7.164560 13.508371 3.383106
v -8.235437 18.058270 3.383106
v -8.235437 13.508371 3.383106
v -7.164560 19.039982 6.801126
v -7.164560 12.761963 6.801126
v -8.235437 19.039982 6.801126
v -8.235437 12.761963 6.801126
v -8.235437 18.058270 3.383106
v -8.235437 13.508371 3.383106
v -7.164560 18.058270 3.383106
v -7.164560 13.508371 3.383106
# 56 vertices

vt 0.866327 0.954162
vt 0.866327 0.857086
vt 0.960558 0.954162
vt 0.960558 0.857086
vt 0.828125 0.564453
vt 0.828125 0.501380
vt 0.960748 0.564453
vt 0.960748 0.501380
vt 0.960748 0.554750
vt 0.828125 0.554750
vt 0.041096 0.361198
vt 0.041096 0.295789
vt 0.159332 0.361198
vt 0.159332 0.295789
vt 0.159332 0.359359
vt 0.159332 0.300164
vt 0.041096 0.359359
vt 0.041096 0.300164
vt 0.041096 0.375311
vt 0.041096 0.285059
vt 0.159332 0.375311
vt 0.159332 0.285059
# 22 texture coordinates

vn 0.000000 0.000000 1.000000
vn 1.000000 0.000000 0.000000
vn 0.000000 0.000000 -1.000000
vn -1.000000 0.000000 0.000000
vn 0.000000 1.000000 0.000000
vn 0.000000 -1.000000 0.000000
vn 0.000000 0.000000 0.000000
vn 0.957583 0.000000 0.288158
vn -0.957583 0.000000 0.288159
vn 0.000000 0.857728 -0.514104
vn 0.000000 -0.794367 -0.607438
vn 0.000000 0.999226 -0.039344
vn 0.000000 -0.995638 -0.093303
vn 0.000000 0.961142 -0.276056
vn 0.000000 -0.976977 -0.213347
# 15 normals

g Box01
usemtl Material01
s 1
f 1/1/1 2/2/1 3/3/1
f 2/2/1 4/4/1 3/3/1
s 2
f 3/3/2 4/4/2 5/3/2
f 4/4/2 6/4/2 5/3/2
s 1
f 5/3/3 6/4/3 7/1/3
f 6/4/3 8/2/3 7/1/3
s 2
f 7/1/4 8/2/4 1/1/4
f 8/2/4 2/2/4 1/1/4
s 3
f 7/1/5 1/1/5 5/3/5
f 1/1/5 3/3/5 5/3/5
f 2/2/6 8/2/6 4/4/6
f 8/2/6 6/4/6 4/4/6
# 12 triangles in group

g Duplicate05
usemtl Material01
s 1
f 9/5/7 10/6/7 11/7/7
f 10/6/7 12/8/7 11/7/7
s 2
f 11/7/8 12/8/8 13/7/8
f 12/8/8 14/8/8 13/7/8
s 1
f 13/7/3 14/8/3 15/5/3
f 14/8/3 16/6/3 15/5/3
s 2
f 15/5/9 16/6/9 9/5/9
f 16/6/9 10/6/9 9/5/9
s 3
f 15/5/10 9/5/10 13/7/10
f 9/5/10 11/7/7 13/7/10
f 10/6/7 16/6/11 12/8/11
f 16/6/11 14/8/11 12/8/11
s 1
f 17/9/7 18/8/7 19/10/7
f 18/8/7 20/6/7 19/10/7
f 21/10/1 22/6/1 23/9/1
f 22/6/1 24/8/1 23/9/1
# 16 triangles in group

g Regroup01
usemtl Material01
f 25/11/1 26/12/1 27/13/1
f 26/12/1 28/14/1 27/13/1
s 2
f 27/13/2 28/14/2 29/15/2
f 28/14/2 30/16/2 29/15/2
s 1
f 29/15/3 30/16/3 31/17/3
f 30/16/3 32/18/3 31/17/3
s 2
f 31/17/4 32/18/4 25/11/4
f 32/18/4 26/12/4 25/11/4
s 3
f 31/17/12 25/11/12 29/15/12
f 25/11/12 27/13/12 29/15/12
f 26/12/13 32/18/13 28/14/13
f 32/18/13 30/16/13 28/14/13
s 1
f 33/13/3 34/14/3 35/11/3
f 34/14/3 36/12/3 35/11/3
f 37/17/1 38/18/1 39/15/1
f 38/18/1 40/16/1 39/15/1
f 41/19/1 42/20/1 43/21/1
f 42/20/1 44/22/1 43/21/1
s 2
f 43/21/2 44/22/2 45/13/2
f 44/22/2 46/14/2 45/13/2
s 1
f 45/13/3 46/14/3 47/11/3
f 46/14/3 48/12/3 47/11/3
s 2
f 47/11/4 48/12/4 41/19/4
f 48/12/4 42/20/4 41/19/4
s 3
f 47/11/14 41/19/14 45/13/14
f 41/19/14 43/21/14 45/13/14
f 42/20/15 48/12/15 44/22/15
f 48/12/15 46/14/15 44/22/15
s 1
f 49/21/3 50/22/3 51/19/3
f 50/22/3 52/20/3 51/19/3
f 53/11/1 54/12/1 55/13/1
f 54/12/1 56/14/1 55/13/1
# 32 triangles in group

# 60 triangles total

