# Wavefront OBJ exported by MilkShape 3D

mtllib Barrel only.mtl

v 4.821638 8.020573 6.196728
v 4.179105 8.020576 8.441483
v 2.423677 8.020576 10.084750
v 0.025716 8.020576 10.686229
v -2.372245 8.020576 10.084750
v -4.127675 8.020576 8.441483
v -4.770206 8.020275 6.196731
v -4.127675 8.020575 3.951974
v -2.372245 8.020578 2.308697
v 0.025716 8.020575 1.707224
v 2.423677 8.020578 2.308697
v 4.179105 8.020575 3.951974
v 0.015842 8.020279 6.193881
v 4.821638 23.345804 6.196754
v 4.179105 23.345800 8.535037
v 2.423677 23.345806 10.246780
v 0.025716 23.345806 10.873320
v -2.372245 23.345806 10.246780
v -4.127675 23.345800 8.535037
v -4.770206 23.345804 6.196754
v -4.127675 23.345806 3.858466
v -2.372245 23.345802 2.146724
v 0.025716 23.345800 1.520189
v 2.423677 23.345802 2.146724
v 4.179105 23.345806 3.858466
v 0.025716 23.345804 6.196754
v 4.821638 8.020573 6.196728
v 7.468625 11.922910 6.164639
v 4.179105 8.020576 8.441483
v 6.471467 11.922911 9.165776
v 2.423677 8.020576 10.084750
v 3.747170 11.922911 11.362761
v 0.025716 8.020576 10.686229
v 0.025716 11.922909 12.166908
v -2.372245 8.020576 10.084750
v -3.695739 11.922911 11.362761
v -4.127675 8.020576 8.441483
v -6.420033 11.922911 9.165776
v -4.770206 8.020275 6.196731
v -7.417197 11.922910 6.164639
v -4.770206 23.345804 6.196754
v -4.127675 8.020575 3.951974
v -6.420033 11.922910 3.163508
v -6.420033 19.457630 3.163507
v -4.127675 23.345806 3.858466
v -2.372245 8.020578 2.308697
v -3.695739 11.922909 0.966521
v -2.372245 23.345802 2.146724
v 0.025716 8.020575 1.707224
v 0.025716 11.922910 0.162369
v 0.025716 19.457624 0.162370
v 0.025716 23.345800 1.520189
v 2.423677 8.020578 2.308697
v 3.747170 11.922909 0.966521
v 4.179105 8.020575 3.951974
v 6.471467 11.922910 3.163508
v 6.471467 19.457630 3.163507
v 7.468625 11.922910 6.164639
v 7.468625 19.457626 6.164636
v 6.471467 11.922911 9.165776
v 6.471467 19.457628 9.165773
v 3.747170 11.922911 11.362761
v 3.747170 19.457628 11.362766
v 0.025716 11.922909 12.166908
v 0.025716 19.457626 12.166912
v -3.695739 11.922911 11.362761
v -3.695739 19.457628 11.362766
v -6.420033 11.922911 9.165776
v -6.420033 19.457628 9.165773
v -7.417197 11.922910 6.164639
v -7.417197 19.457626 6.164636
v -6.420033 11.922910 3.163508
v -6.420033 19.457630 3.163507
v -3.695739 11.922909 0.966521
v -3.695739 19.457626 0.966516
v 0.025716 11.922910 0.162369
v 0.025716 19.457624 0.162370
v 3.747170 11.922909 0.966521
v 3.747170 19.457626 0.966516
v 6.471467 19.457630 3.163507
v 7.468625 19.457626 6.164636
v 4.821638 23.345804 6.196754
v 6.471467 19.457628 9.165773
v 4.179105 23.345800 8.535037
v 3.747170 19.457628 11.362766
v 2.423677 23.345806 10.246780
v 0.025716 19.457626 12.166912
v 0.025716 23.345806 10.873320
v -3.695739 19.457628 11.362766
v -2.372245 23.345806 10.246780
v -6.420033 19.457628 9.165773
v -4.127675 23.345800 8.535037
v -7.417197 19.457626 6.164636
v -4.770206 23.345804 6.196754
v -6.420033 19.457630 3.163507
v -3.695739 19.457626 0.966516
v -2.372245 23.345802 2.146724
v 0.025716 19.457624 0.162370
v 0.025716 23.345800 1.520189
v 3.747170 19.457626 0.966516
v 2.423677 23.345802 2.146724
v 6.471467 19.457630 3.163507
v 4.179105 23.345806 3.858466
# 103 vertices

vt 0.289244 0.056585
vt 0.151031 0.117811
vt 0.288675 0.513870
vt 0.049852 0.285083
vt 0.012818 0.513581
vt 0.049852 0.742078
vt 0.151031 0.909350
vt 0.289244 0.970576
vt 0.427457 0.909350
vt 0.528636 0.742078
vt 0.565670 0.513581
vt 0.528636 0.285083
vt 0.427457 0.117811
vt 0.528636 0.275560
vt 0.427457 0.101318
vt 0.289244 0.037541
vt 0.151031 0.101318
vt 0.049852 0.275560
vt 0.049852 0.751596
vt 0.151031 0.925838
vt 0.289244 0.989615
vt 0.427457 0.925838
vt 0.528636 0.751596
vt 0.822474 0.020962
vt 0.821588 0.265468
vt 0.884428 0.020962
vt 0.904418 0.265468
vt 0.965053 0.265468
vt 0.929781 0.020962
vt 0.946381 0.020962
vt 0.987247 0.265468
vt 0.760520 0.020962
vt 0.738759 0.265468
vt 0.822474 0.981186
vt 0.757939 0.981186
vt 0.738759 0.737567
vt 0.678123 0.265468
vt 0.715166 0.020962
vt 0.710696 0.981186
vt 0.698566 0.020962
vt 0.655929 0.265468
vt 0.693404 0.981186
vt 0.655929 0.737567
vt 0.821588 0.737567
vt 0.904418 0.737567
vt 0.965053 0.737567
vt 0.987247 0.737567
vt 0.678123 0.737567
vt 0.887010 0.981186
vt 0.934253 0.981186
vt 0.951545 0.981186
# 51 texture coordinates

vn -0.000000 -1.000000 0.000066
vn 0.000000 1.000000 0.000001
vn 0.827578 -0.561351 0.000245
vn 0.887462 -0.456012 -0.066812
vn 0.719884 -0.503497 0.477764
vn 0.705337 -0.506406 0.496038
vn 0.410877 -0.411183 0.813701
vn 0.433880 -0.409912 0.802322
vn 0.000000 -0.368067 0.929799
vn 0.000000 -0.354756 0.934959
vn -0.410877 -0.411183 0.813701
vn -0.433880 -0.409912 0.802322
vn -0.719881 -0.503484 0.477781
vn -0.705337 -0.506405 0.496038
vn -0.832679 -0.553755 0.000284
vn -0.827597 -0.561322 0.000246
vn -0.717189 -0.509374 -0.475582
vn -0.702607 -0.512480 -0.493668
vn -0.821045 0.524390 -0.225612
vn -0.737221 0.513195 -0.439472
vn -0.408651 -0.422217 -0.809158
vn -0.431607 -0.420811 -0.797893
vn -0.440752 0.410328 -0.798354
vn 0.000000 -0.381171 -0.924504
vn 0.072836 -0.248896 -0.965788
vn -0.239491 0.320098 -0.916614
vn -0.014721 0.166620 -0.985911
vn 0.425078 -0.287655 -0.858233
vn 0.431607 -0.420811 -0.797893
vn 0.717191 -0.509387 -0.475565
vn 0.790273 -0.267120 -0.551466
vn 0.821669 -0.000000 -0.569964
vn 0.993923 0.000000 0.110080
vn 1.000000 -0.000000 -0.000000
vn 0.821670 -0.000000 0.569964
vn 0.431121 -0.000000 0.902294
vn 0.000000 -0.000001 1.000000
vn -0.431121 -0.000000 0.902294
vn -0.821669 -0.000000 0.569964
vn -1.000000 0.000000 -0.000000
vn -0.821669 -0.000000 -0.569965
vn -0.431121 -0.000000 -0.902294
vn -0.071842 -0.000000 -0.997416
vn -0.211211 0.000000 -0.977441
vn 0.431121 -0.000001 -0.902294
vn 0.826628 0.562748 0.000326
vn 0.835278 0.549827 0.000276
vn 0.725991 0.498053 0.474215
vn 0.739807 0.507777 0.441416
vn 0.420038 0.387512 0.820611
vn 0.396713 0.375458 0.837645
vn 0.000000 0.327523 0.944843
vn 0.000000 0.315686 0.948864
vn -0.420038 0.387512 0.820611
vn -0.396713 0.375458 0.837645
vn -0.725991 0.498053 0.474215
vn -0.739807 0.507776 0.441416
vn -0.830199 0.552003 0.077866
vn -0.826628 0.562748 0.000326
vn -0.708296 0.493989 -0.504274
vn -0.394668 0.387257 -0.833228
vn 0.081437 0.344048 -0.935414
vn 0.239491 0.320098 -0.916614
vn 0.417822 0.398940 -0.816255
vn 0.394667 0.387257 -0.833229
vn 0.723303 0.503969 -0.472068
vn 0.737221 0.513195 -0.439472
# 67 normals

g Barrel
usemtl Material02
s 1
f 4/1/1 5/2/1 13/3/1
f 5/2/1 6/4/1 13/3/1
f 13/3/1 6/4/1 7/5/1
f 13/3/1 7/5/1 8/6/1
f 13/3/1 8/6/1 9/7/1
f 13/3/1 9/7/1 10/8/1
f 13/3/1 10/8/1 11/9/1
f 12/10/1 13/3/1 11/9/1
f 1/11/1 13/3/1 12/10/1
f 2/12/1 13/3/1 1/11/1
f 3/13/1 13/3/1 2/12/1
f 4/1/1 13/3/1 3/13/1
s 2
f 14/11/2 26/3/2 15/14/2
f 15/14/2 26/3/2 16/15/2
f 16/15/2 26/3/2 17/16/2
f 17/16/2 26/3/2 18/17/2
f 18/17/2 26/3/2 19/18/2
f 19/18/2 26/3/2 20/5/2
f 20/5/2 26/3/2 21/19/2
f 21/19/2 26/3/2 22/20/2
f 22/20/2 26/3/2 23/21/2
f 23/21/2 26/3/2 24/22/2
f 24/22/2 26/3/2 25/23/2
f 25/23/2 26/3/2 14/11/2
s 1
f 27/24/3 28/25/4 29/26/5
f 28/25/4 30/27/6 29/26/5
f 29/26/5 30/27/6 32/28/7
f 29/26/5 32/28/7 31/29/8
f 31/29/8 32/28/7 33/30/9
f 32/28/7 34/31/10 33/30/9
f 33/30/9 34/31/10 36/28/11
f 33/30/9 36/28/11 35/29/12
f 35/29/12 36/28/11 37/26/13
f 36/28/11 38/27/14 37/26/13
f 37/26/13 38/27/14 40/25/15
f 37/26/13 40/25/15 39/24/16
f 39/24/16 40/25/15 42/32/17
f 40/25/15 43/33/18 42/32/17
f 41/34/19 45/35/20 44/36/20
f 42/32/17 43/33/18 47/37/21
f 42/32/17 47/37/21 46/38/22
f 44/36/20 45/35/20 48/39/23
f 46/38/22 47/37/21 49/40/24
f 47/37/21 50/41/25 49/40/24
f 48/39/23 52/42/26 51/43/27
f 49/40/24 50/41/25 54/37/28
f 49/40/24 54/37/28 53/38/29
f 50/41/25 51/43/27 54/37/28
f 53/38/29 54/37/28 55/32/30
f 54/37/28 56/33/31 55/32/30
f 54/37/28 57/36/32 56/33/31
f 55/32/30 56/33/31 28/25/4
f 55/32/30 28/25/4 27/24/3
f 56/33/31 57/36/32 28/25/4
f 58/25/33 59/44/34 61/45/35
f 58/25/33 61/45/35 60/27/35
f 60/27/35 61/45/35 62/28/36
f 61/45/35 63/46/36 62/28/36
f 62/28/36 63/46/36 65/47/37
f 62/28/36 65/47/37 64/31/37
f 64/31/37 65/47/37 66/28/38
f 65/47/37 67/46/38 66/28/38
f 66/28/38 67/46/38 69/45/39
f 66/28/38 69/45/39 68/27/39
f 68/27/39 69/45/39 70/25/40
f 69/45/39 71/44/40 70/25/40
f 70/25/40 71/44/40 73/36/41
f 70/25/40 73/36/41 72/33/41
f 72/33/41 73/36/41 74/37/42
f 73/36/41 75/48/42 74/37/42
f 74/37/42 75/48/42 77/43/43
f 74/37/42 77/43/43 76/41/44
f 77/43/43 79/48/45 78/37/45
f 78/37/45 79/48/45 80/36/32
f 80/36/32 59/44/34 58/25/33
f 81/44/46 82/34/47 83/45/48
f 82/34/47 84/49/49 83/45/48
f 83/45/48 84/49/49 86/50/50
f 83/45/48 86/50/50 85/46/51
f 85/46/51 86/50/50 87/47/52
f 86/50/50 88/51/53 87/47/52
f 87/47/52 88/51/53 90/50/54
f 87/47/52 90/50/54 89/46/55
f 89/46/55 90/50/54 91/45/56
f 90/50/54 92/49/57 91/45/56
f 91/45/56 92/49/57 94/34/58
f 91/45/56 94/34/58 93/44/59
f 93/44/59 94/34/58 95/36/60
f 95/36/60 97/39/61 96/48/61
f 96/48/61 97/39/61 98/43/62
f 98/43/62 99/42/63 101/39/64
f 98/43/62 101/39/64 100/48/65
f 100/48/65 101/39/64 102/36/66
f 101/39/64 103/35/67 102/36/66
f 102/36/66 103/35/67 82/34/47
f 102/36/66 82/34/47 81/44/46
# 96 triangles in group

# 96 triangles total

