# Wavefront OBJ exported by MilkShape 3D

v 6.637955 14.972359 0.000000
v 6.637955 -8.027641 0.000000
v 14.769683 -4.659369 0.000000
v 12.387955 -4.659369 5.750000
v 6.637954 -4.659369 8.131728
v 0.887954 -4.659369 5.750000
v -1.493773 -4.659369 -0.000001
v 0.887954 -4.659369 -5.750000
v 6.637955 -4.659369 -8.131728
v 12.387954 -4.659369 -5.750001
v 18.137955 3.472359 0.000000
v 14.769683 3.472359 8.131728
v 6.637954 3.472359 11.500000
v -1.493773 3.472359 8.131728
v -4.862045 3.472359 -0.000001
v -1.493773 3.472359 -8.131727
v 6.637955 3.472359 -11.500000
v 14.769681 3.472359 -8.131729
v 14.769683 11.604087 0.000000
v 12.387955 11.604087 5.750000
v 6.637954 11.604087 8.131728
v 0.887955 11.604087 5.750000
v -1.493773 11.604087 -0.000001
v 0.887955 11.604087 -5.750000
v 6.637955 11.604087 -8.131728
v 12.387953 11.604087 -5.750000
# 26 vertices

vt 0.000000 0.000000
vt 0.000000 0.250000
vt 0.125000 0.250000
vt 0.000000 1.000000
vt 0.125000 0.750000
vt 0.000000 0.750000
vt 0.125000 0.000000
vt 0.250000 0.250000
vt 0.125000 1.000000
vt 0.250000 0.750000
vt 0.250000 0.000000
vt 0.375000 0.250000
vt 0.250000 1.000000
vt 0.375000 0.750000
vt 0.375000 0.000000
vt 0.500000 0.250000
vt 0.375000 1.000000
vt 0.500000 0.750000
vt 0.500000 0.000000
vt 0.625000 0.250000
vt 0.500000 1.000000
vt 0.625000 0.750000
vt 0.625000 0.000000
vt 0.750000 0.250000
vt 0.625000 1.000000
vt 0.750000 0.750000
vt 0.750000 0.000000
vt 0.875000 0.250000
vt 0.750000 1.000000
vt 0.875000 0.750000
vt 0.875000 0.000000
vt 1.000000 0.250000
vt 0.875000 1.000000
vt 1.000000 0.750000
vt 0.000000 0.500000
vt 0.125000 0.500000
vt 0.250000 0.500000
vt 0.375000 0.500000
vt 0.500000 0.500000
vt 0.625000 0.500000
vt 0.750000 0.500000
vt 0.875000 0.500000
vt 1.000000 0.500000
# 43 texture coordinates

vn 0.000000 -1.000000 0.000000
vn 0.707107 -0.707107 0.000000
vn 0.500000 -0.707107 0.500000
vn 0.000000 1.000000 0.000000
vn 0.500000 0.707107 0.500000
vn 0.707107 0.707107 0.000000
vn -0.000000 -0.707107 0.707107
vn -0.000000 0.707107 0.707107
vn -0.500000 -0.707107 0.500000
vn -0.500000 0.707107 0.500000
vn -0.707107 -0.707107 -0.000000
vn -0.707107 0.707107 -0.000000
vn -0.500000 -0.707107 -0.500000
vn -0.500000 0.707107 -0.500000
vn 0.000000 -0.707107 -0.707107
vn 0.000000 0.707107 -0.707107
vn 0.500000 -0.707107 -0.500000
vn 0.500000 0.707107 -0.500000
vn 1.000000 0.000000 0.000000
vn 0.707107 0.000000 0.707107
vn -0.000000 0.000000 1.000000
vn -0.707107 0.000000 0.707107
vn -1.000000 0.000000 -0.000000
vn -0.707107 0.000000 -0.707107
vn 0.000000 0.000000 -1.000000
vn 0.707107 0.000000 -0.707107
# 26 normals

g Sphere02
s 1
f 2/1/1 3/2/2 4/3/3
f 1/4/4 20/5/5 19/6/6
f 2/7/1 4/3/3 5/8/7
f 1/9/4 21/10/8 20/5/5
f 2/11/1 5/8/7 6/12/9
f 1/13/4 22/14/10 21/10/8
f 2/15/1 6/12/9 7/16/11
f 1/17/4 23/18/12 22/14/10
f 2/19/1 7/16/11 8/20/13
f 1/21/4 24/22/14 23/18/12
f 2/23/1 8/20/13 9/24/15
f 1/25/4 25/26/16 24/22/14
f 2/27/1 9/24/15 10/28/17
f 1/29/4 26/30/18 25/26/16
f 2/31/1 10/28/17 3/32/2
f 1/33/4 19/34/6 26/30/18
f 3/2/2 11/35/19 12/36/20
f 3/2/2 12/36/20 4/3/3
f 4/3/3 12/36/20 5/8/7
f 12/36/20 13/37/21 5/8/7
f 5/8/7 13/37/21 14/38/22
f 5/8/7 14/38/22 6/12/9
f 6/12/9 14/38/22 7/16/11
f 14/38/22 15/39/23 7/16/11
f 7/16/11 15/39/23 16/40/24
f 7/16/11 16/40/24 8/20/13
f 8/20/13 16/40/24 9/24/15
f 16/40/24 17/41/25 9/24/15
f 9/24/15 17/41/25 18/42/26
f 9/24/15 18/42/26 10/28/17
f 10/28/17 18/42/26 3/32/2
f 18/42/26 11/43/19 3/32/2
f 11/35/19 19/6/6 12/36/20
f 19/6/6 20/5/5 12/36/20
f 12/36/20 20/5/5 21/10/8
f 12/36/20 21/10/8 13/37/21
f 13/37/21 21/10/8 14/38/22
f 21/10/8 22/14/10 14/38/22
f 14/38/22 22/14/10 23/18/12
f 14/38/22 23/18/12 15/39/23
f 15/39/23 23/18/12 16/40/24
f 23/18/12 24/22/14 16/40/24
f 16/40/24 24/22/14 25/26/16
f 16/40/24 25/26/16 17/41/25
f 17/41/25 25/26/16 18/42/26
f 25/26/16 26/30/18 18/42/26
f 18/42/26 26/30/18 19/34/6
f 18/42/26 19/34/6 11/43/19
# 48 triangles in group

# 48 triangles total

