# Wavefront OBJ exported by MilkShape 3D

mtllib Cactus.mtl

v -0.375763 8.946684 2.477062
v -2.394537 8.946684 2.428806
v -3.841143 8.946684 0.848572
v -3.966519 8.946684 -1.274551
v -2.598872 8.946684 -2.760268
v -0.580961 8.946684 -2.711632
v 0.855038 8.946684 -1.144826
v 0.991022 8.946684 0.991727
v -0.716015 10.962294 1.693703
v -2.168339 10.962294 1.673308
v -3.238202 10.962294 0.561630
v -3.274352 10.962294 -0.932298
v -2.280155 10.962294 -1.991183
v -0.827829 10.962294 -1.970785
v 0.221699 10.962294 -0.907012
v 0.278185 10.962294 0.634818
v -1.514481 11.333910 -0.170052
v -0.365999 -11.333912 2.500049
v -0.375763 8.946684 2.477062
v -2.386408 -11.333912 2.447962
v -2.394537 8.946684 2.428806
v -3.833700 -11.333912 0.866103
v -3.841143 8.946684 0.848572
v -3.966229 -11.333912 -1.273859
v -3.966519 8.946684 -1.274551
v -2.600204 -11.333912 -2.763407
v -2.598872 8.946684 -2.760268
v -0.580675 -11.333912 -2.710944
v -0.580961 8.946684 -2.711632
v 0.887180 -11.333912 -1.137806
v 0.855038 8.946684 -1.144826
v 0.999149 -11.333912 1.010884
v 0.991022 8.946684 0.991727
v -1.490545 8.946684 -0.149206
v -3.199822 3.743507 -4.215821
v -4.430725 3.743507 -4.211226
v -5.300095 3.743507 -5.131693
v -5.356806 3.743507 -6.392930
v -4.530360 3.743507 -7.350377
v -3.268071 3.743507 -7.279544
v -2.402772 3.743507 -6.361537
v -2.341995 3.743507 -5.097841
v -3.394786 5.045834 -4.663889
v -4.280544 5.045834 -4.652297
v -4.921232 5.045834 -5.292516
v -4.913355 5.045834 -6.143099
v -4.289715 5.045834 -6.772206
v -3.403958 5.045834 -6.783798
v -2.786628 5.045834 -6.198597
v -2.771154 5.045834 -5.293001
v -3.857773 5.285942 -5.743926
v -3.250122 -1.703678 -4.334331
v -3.199822 3.743507 -4.215821
v -4.481964 -1.703678 -4.331932
v -4.430725 3.743507 -4.211226
v -5.300095 -1.703678 -5.131693
v -5.300095 3.743507 -5.131693
v -5.356806 -1.057552 -6.392930
v -5.356806 3.743507 -6.392930
v -4.530360 -0.007603 -7.350377
v -4.530360 3.743507 -7.350377
v -3.268071 -1.057552 -7.279544
v -3.268071 3.743507 -7.279544
v -2.387523 -1.703678 -6.368006
v -2.402772 3.743507 -6.361537
v -2.393229 -1.703678 -5.218545
v -2.341995 3.743507 -5.097841
v -3.849882 3.743507 -5.747275
v -3.627376 -2.017673 -5.420545
v -2.227695 -2.005463 -2.123101
v -4.588852 -1.607887 -5.012425
v -3.189171 -1.597713 -1.714981
v -4.962147 -0.618595 -4.853971
v -3.562468 -0.609264 -1.556528
v -4.588852 0.370720 -5.012425
v -3.189169 0.371078 -1.714974
v -3.627379 0.780502 -5.420551
v -2.227697 0.778843 -2.123103
v -2.666399 0.370720 -5.828457
v -1.266720 0.371078 -2.531013
v -2.281440 -0.618595 -5.991868
v -0.895782 -0.609264 -2.688460
v -2.666399 -1.607887 -5.828457
v -1.266720 -1.597713 -2.531014
v -2.227697 -0.609264 -2.123103
v 0.742445 6.369770 4.984004
v 1.926022 6.334408 4.847038
v 2.689831 6.243164 5.465986
v 2.645866 6.151024 6.437047
v 1.776686 6.106274 7.268437
v 0.568851 6.147953 7.350377
v -0.191254 6.238911 6.732879
v -0.151014 6.331345 5.760351
v 0.948069 7.627157 5.435356
v 1.800400 7.602314 5.330359
v 2.366270 7.537802 5.756955
v 2.292286 7.477001 6.416833
v 1.643698 7.449940 6.971861
v 0.791367 7.474781 7.076854
v 0.243641 7.534666 6.690340
v 0.299463 7.600096 5.990356
v 1.318583 7.775030 6.245070
v 0.338520 -4.427956 4.026671
v 0.742445 6.369770 4.984004
v 1.522816 -4.463497 3.891302
v 1.926022 6.334408 4.847038
v 2.246807 -4.544609 4.422293
v 2.689831 6.243164 5.465986
v 2.229237 -3.994164 5.455516
v 2.645866 6.151024 6.437047
v 1.402933 -2.994705 6.387923
v 1.776686 6.106274 7.268437
v 0.152218 -3.997223 6.368840
v 0.568851 6.147953 7.350377
v -0.649450 -4.548870 5.695830
v -0.191254 6.238911 6.732879
v -0.554207 -4.466560 4.804634
v -0.151014 6.331345 5.760351
v 1.247744 6.241032 6.100109
v 0.603516 -4.829109 4.797152
v -0.877899 -4.433819 1.467163
v 1.576344 -4.420158 4.416183
v 0.093002 -4.026398 1.081656
v 1.987955 -3.435741 4.348151
v 0.503859 -3.042625 1.011858
v 1.657158 -2.452389 4.606560
v 0.173405 -2.068394 1.271081
v 0.717798 -2.046257 5.066394
v -0.764177 -1.664768 1.735074
v -0.254528 -2.455212 5.447169
v -1.734585 -2.072208 2.120372
v -0.677734 -3.439674 5.520320
v -2.142767 -3.047909 2.189901
v -0.335335 -4.422981 5.256790
v -1.814993 -4.030205 1.930934
v -0.820871 -3.045269 1.601512
v 2.083460 6.743507 -1.258145
v 2.228910 6.743507 -2.480439
v 3.248472 6.743507 -3.231147
v 4.507217 6.743507 -3.133733
v 5.356806 6.743507 -2.196757
v 5.132668 6.743507 -0.952516
v 4.116045 6.743507 -0.205538
v 2.854364 6.743507 -0.299225
v 2.551950 8.045834 -1.397056
v 2.648394 8.045834 -2.277626
v 3.361919 8.045834 -2.835511
v 4.205206 8.045834 -2.724026
v 4.753613 8.045834 -2.028375
v 4.657187 8.045834 -1.147799
v 4.001102 8.045834 -0.606401
v 3.100367 8.045834 -0.701401
v 3.680367 8.285942 -1.724960
v 2.207224 1.296322 -1.293638
v 2.083460 6.743507 -1.258145
v 2.354963 1.296322 -2.516585
v 2.228910 6.743507 -2.480439
v 3.248472 1.296322 -3.231147
v 3.248472 6.743507 -3.231147
v 4.507217 1.942448 -3.133733
v 4.507217 6.743507 -3.133733
v 5.356806 2.992397 -2.196757
v 5.356806 6.743507 -2.196757
v 5.132668 1.942448 -0.952516
v 5.132668 6.743507 -0.952516
v 4.120609 1.296322 -0.189623
v 4.116045 6.743507 -0.205538
v 2.980412 1.296322 -0.335372
v 2.854364 6.743507 -0.299225
v 3.682726 6.743507 -1.716726
v 3.331316 0.982327 -1.535701
v -0.112139 0.994537 -0.548309
v 3.043419 1.392113 -2.539744
v -0.400042 1.402287 -1.552356
v 2.931631 2.381405 -2.929564
v -0.511824 2.390736 -1.942181
v 3.043419 3.370720 -2.539744
v -0.400045 3.371078 -1.552353
v 3.331314 3.780502 -1.535703
v -0.112135 3.778843 -0.548309
v 3.619083 3.370720 -0.532169
v 0.175625 3.371078 0.455225
v 3.734348 2.381405 -0.130155
v 0.286697 2.390736 0.842576
v 3.619083 1.392113 -0.532169
v 0.175629 1.402287 0.455225
v -0.112135 2.390736 -0.548309
# 187 vertices

vt 0.717113 0.732414
vt 0.714040 0.741235
vt 0.698881 0.732414
vt 0.700924 0.741235
vt 0.691262 0.741235
vt 0.685817 0.732414
vt 0.684684 0.732414
vt 0.699914 0.741235
vt 0.697036 0.732414
vt 0.715260 0.732414
vt 0.713030 0.741235
vt 0.722509 0.741235
vt 0.728229 0.732414
vt 0.729457 0.732414
vt 0.706829 0.742862
vt 0.707045 0.732414
vt 0.717201 0.643655
vt 0.698955 0.643655
vt 0.685884 0.643655
vt 0.684687 0.643655
vt 0.697024 0.643655
vt 0.715263 0.643655
vt 0.728519 0.643655
vt 0.729530 0.643655
vt 0.691609 0.709642
vt 0.689848 0.715342
vt 0.680492 0.709642
vt 0.681848 0.715342
vt 0.676062 0.715342
vt 0.672641 0.709642
vt 0.695340 0.715342
vt 0.698807 0.709642
vt 0.685666 0.716393
vt 0.685738 0.709642
vt 0.691154 0.685802
vt 0.680029 0.685802
vt 0.672641 0.685802
vt 0.672128 0.688630
vt 0.679592 0.693225
vt 0.690992 0.688630
vt 0.698945 0.685802
vt 0.700388 0.684482
vt 0.700388 0.690592
vt 0.687747 0.684428
vt 0.688333 0.690592
vt 0.675693 0.690551
vt 0.691705 0.694882
vt 0.679064 0.694881
vt 0.700388 0.696667
vt 0.687747 0.696674
vt 0.709067 0.694882
vt 0.696426 0.694881
vt 0.712417 0.690592
vt 0.709067 0.686266
vt 0.696426 0.686221
vt 0.727212 0.721136
vt 0.729069 0.726639
vt 0.737901 0.720981
vt 0.736767 0.726530
vt 0.741877 0.726248
vt 0.744799 0.720582
vt 0.735351 0.725863
vt 0.736552 0.719983
vt 0.725644 0.720165
vt 0.727654 0.725972
vt 0.722707 0.726234
vt 0.718779 0.720563
vt 0.732415 0.727286
vt 0.731775 0.720572
vt 0.723564 0.673880
vt 0.734260 0.673724
vt 0.740798 0.673369
vt 0.740639 0.675778
vt 0.733177 0.680152
vt 0.721881 0.675765
vt 0.714641 0.673350
vt 0.712578 0.673854
vt 0.713093 0.679931
vt 0.725957 0.672124
vt 0.725057 0.679942
vt 0.738460 0.678222
vt 0.722073 0.684206
vt 0.735473 0.682526
vt 0.713605 0.685972
vt 0.726989 0.684303
vt 0.704841 0.684190
vt 0.718208 0.682513
vt 0.701155 0.679919
vt 0.714386 0.678205
vt 0.704115 0.675620
vt 0.717478 0.673901
vt 0.739323 0.722772
vt 0.743554 0.728471
vt 0.740636 0.722772
vt 0.750869 0.728471
vt 0.749844 0.722772
vt 0.761212 0.722772
vt 0.758485 0.728471
vt 0.763438 0.728471
vt 0.768885 0.722772
vt 0.766861 0.722772
vt 0.756641 0.728471
vt 0.757680 0.722772
vt 0.746285 0.722772
vt 0.748507 0.728471
vt 0.753745 0.729522
vt 0.753766 0.722772
vt 0.740441 0.698932
vt 0.741775 0.698932
vt 0.749844 0.698932
vt 0.761212 0.701760
vt 0.768885 0.706355
vt 0.766861 0.701760
vt 0.757721 0.698932
vt 0.747423 0.698932
vt 0.719494 0.697611
vt 0.719494 0.703721
vt 0.716894 0.699396
vt 0.750593 0.697558
vt 0.715884 0.703721
vt 0.746983 0.703681
vt 0.716894 0.708012
vt 0.747992 0.708011
vt 0.719494 0.709796
vt 0.750593 0.709804
vt 0.722093 0.708012
vt 0.753191 0.708011
vt 0.723096 0.703721
vt 0.754232 0.703681
vt 0.722093 0.699396
vt 0.753191 0.699351
# 131 texture coordinates

vn 0.359663 0.390133 0.847607
vn 0.290514 0.668322 0.684797
vn -0.381802 0.358968 0.851686
vn -0.251162 0.780307 0.572747
vn -0.854713 0.328261 0.402131
vn -0.874551 0.314194 0.369382
vn -0.879166 0.351674 -0.321546
vn -0.840139 0.356966 -0.408339
vn -0.292783 0.662610 -0.689367
vn -0.361241 0.381738 -0.850753
vn 0.379222 0.355303 -0.854371
vn 0.247553 0.778557 -0.576686
vn 0.712352 0.631591 -0.306017
vn 0.872087 0.317917 -0.372012
vn 0.876694 0.362569 0.316149
vn 0.584623 0.781822 0.216726
vn 0.069393 0.997582 -0.003787
vn 0.000000 1.000000 0.000000
vn 0.390820 0.001231 0.920466
vn -0.414366 0.000736 0.910110
vn -0.920757 0.000087 0.390136
vn -0.942306 -0.000056 -0.334754
vn -0.941908 -0.000025 -0.335870
vn -0.390641 0.000066 -0.920543
vn 0.412093 0.000279 -0.911142
vn 0.413700 -0.000025 -0.910413
vn 0.920252 0.000748 -0.391325
vn 0.941899 0.001075 0.335895
vn 0.942705 0.000693 0.333626
vn 0.365764 0.351284 0.861868
vn 0.299986 0.640403 0.707030
vn -0.365069 0.332972 0.869399
vn -0.242005 0.767763 0.593273
vn -0.855934 0.319714 0.406398
vn -0.877915 0.301346 0.372098
vn -0.872617 0.362385 -0.327440
vn -0.824013 0.358764 -0.438510
vn -0.289471 0.672075 -0.681558
vn -0.352268 0.433361 -0.829522
vn 0.370503 0.365783 -0.853774
vn 0.230924 0.773960 -0.589627
vn 0.715812 0.625800 -0.309817
vn 0.876461 0.304950 -0.372588
vn 0.877987 0.336442 0.340507
vn 0.593112 0.769275 0.237558
vn 0.072646 0.997349 -0.004223
vn 0.390707 -0.023628 0.920212
vn -0.308016 -0.262311 0.914505
vn -0.394101 -0.016655 0.918916
vn -0.916788 -0.002243 0.399368
vn -0.417551 -0.897928 -0.139201
vn -0.708738 -0.419857 -0.566931
vn -0.944876 0.000000 -0.327428
vn -0.384794 -0.172751 -0.906692
vn 0.042401 -0.512166 -0.857839
vn 0.421865 0.000000 -0.906659
vn 0.924349 -0.000723 -0.381547
vn 0.422089 -0.751584 -0.506915
vn 0.902842 0.045347 0.427575
vn 0.935177 -0.016635 0.353790
vn 0.390731 0.000002 0.920505
vn 0.001413 -0.999994 0.003103
vn -0.644778 -0.712793 0.276021
vn -0.645217 0.713300 0.273675
vn 0.644113 0.714760 -0.272464
vn 0.645106 0.713311 -0.273908
vn 0.921441 0.000722 -0.388518
vn 0.922159 -0.000002 -0.386811
vn 0.645495 -0.714256 -0.270507
vn 0.646867 -0.712301 -0.272380
vn -0.375674 0.366918 -0.851023
vn -0.306168 0.653013 -0.692701
vn 0.271189 0.362927 -0.891482
vn 0.200714 0.790309 -0.578901
vn 0.852420 0.325528 -0.409160
vn 0.882084 0.301759 -0.361758
vn 0.864252 0.237736 0.443340
vn 0.803201 0.210435 0.557302
vn 0.346487 0.509324 0.787741
vn 0.391962 0.235111 0.889432
vn -0.250073 0.235764 0.939084
vn -0.128387 0.681913 0.720077
vn -0.676081 0.628584 0.384444
vn -0.855756 0.301032 0.420787
vn -0.843470 0.366522 -0.392709
vn -0.563038 0.792240 -0.235251
vn -0.035752 0.994946 0.093830
vn 0.040844 0.994521 0.096223
vn -0.401735 0.095774 -0.910734
vn 0.186298 -0.163734 -0.968754
vn 0.282329 0.074114 -0.956450
vn 0.907254 0.002301 -0.420577
vn 0.401468 -0.907021 0.127028
vn 0.660223 -0.451696 0.600063
vn 0.909692 -0.076842 0.408113
vn 0.401522 -0.104518 0.909866
vn 0.392517 -0.232247 0.889939
vn 0.034497 -0.530827 0.846778
vn -0.305959 -0.079225 0.948743
vn -0.382212 -0.766667 0.515884
vn -0.856587 0.143617 -0.495613
vn -0.900613 0.071572 -0.428687
vn -0.404597 0.104519 -0.908503
vn -0.042257 -0.994168 -0.099215
vn 0.610933 -0.707409 -0.355434
vn 0.913673 0.002528 -0.406443
vn 0.669627 0.710611 -0.215943
vn -0.610200 0.709676 0.352159
vn -0.611230 0.708143 0.353456
vn -0.914653 -0.000823 0.404240
vn -0.915409 -0.001356 0.402524
vn -0.669950 -0.711259 0.212786
vn -0.671219 -0.709443 0.214839
vn -0.900018 0.351286 0.258003
vn -0.738319 0.640404 0.211583
vn -0.818426 0.332972 -0.468304
vn -0.559356 0.767764 -0.312504
vn -0.299053 0.319715 -0.899083
vn -0.262332 0.301343 -0.916719
vn 0.431347 0.362387 -0.826206
vn 0.535665 0.358768 -0.764427
vn 0.711756 0.672074 -0.204255
vn 0.866269 0.433362 -0.248547
vn 0.802257 0.365782 0.471791
vn 0.557090 0.773959 0.301061
vn 0.220270 0.625799 0.748236
vn 0.262995 0.304957 0.915333
vn -0.444968 0.336444 0.829945
vn -0.308069 0.769275 0.559740
vn -0.004662 0.997349 0.072620
vn -0.960968 -0.023630 0.275648
vn -0.870150 -0.262312 -0.417172
vn -0.864036 -0.016656 -0.503154
vn -0.284661 -0.002243 -0.958626
vn 0.189050 -0.897928 -0.397474
vn 0.649080 -0.419856 -0.634362
vn 0.440140 0.000000 -0.897929
vn 0.961291 0.000000 -0.275536
vn 0.946829 -0.172750 -0.271426
vn 0.846278 -0.512166 0.146629
vn 0.848489 0.000000 0.529213
vn 0.266051 -0.000724 0.963959
vn 0.451695 -0.751584 0.480721
vn -0.534419 0.045346 0.844003
vn -0.465123 -0.016636 0.885090
vn -0.961261 0.000003 0.275640
vn -0.003253 -0.999994 0.001022
vn -0.195384 -0.712792 -0.673611
vn -0.275905 0.000723 -0.961185
vn -0.193002 0.713300 -0.673760
vn 0.191935 0.714761 0.672516
vn 0.193248 0.713310 0.673680
vn 0.273326 0.000722 0.961921
vn 0.271542 -0.000002 0.962427
vn 0.189824 -0.714257 0.673650
vn 0.191517 -0.712300 0.675241
# 156 normals

g Regroup03
usemtl Material01
s 1
f 1/1/1 9/2/2 2/3/3
f 9/2/2 10/4/4 2/3/3
f 2/3/3 10/4/4 11/5/5
f 2/3/3 11/5/5 3/6/6
f 3/6/6 11/5/5 4/7/7
f 11/5/5 12/5/8 4/7/7
f 4/7/7 12/5/8 13/8/9
f 4/7/7 13/8/9 5/9/10
f 5/9/10 13/8/9 6/10/11
f 13/8/9 14/11/12 6/10/11
f 6/10/11 14/11/12 15/12/13
f 6/10/11 15/12/13 7/13/14
f 7/13/14 15/12/13 8/14/15
f 15/12/13 16/12/16 8/14/15
f 8/14/15 16/12/16 9/2/2
f 8/14/15 9/2/2 1/1/1
f 11/5/5 12/5/8 17/15/17
f 11/5/5 10/4/4 17/15/17
f 10/4/4 9/2/2 17/15/17
f 9/2/2 16/12/16 17/15/17
f 16/12/16 15/12/13 17/15/17
f 17/15/17 15/12/13 14/11/12
f 17/15/17 14/11/12 13/8/9
f 17/15/17 13/8/9 12/5/8
s 2
f 19/1/18 34/16/18 21/3/18
s 1
f 18/17/19 19/1/19 20/18/20
f 19/1/19 21/3/20 20/18/20
s 2
f 21/3/18 34/16/18 23/6/18
s 1
f 20/18/20 21/3/20 23/6/21
f 20/18/20 23/6/21 22/19/21
s 2
f 23/6/18 34/16/18 25/7/18
s 1
f 22/19/21 23/6/21 24/20/22
f 23/6/21 25/7/23 24/20/22
s 2
f 25/7/18 34/16/18 27/9/18
s 1
f 24/20/22 25/7/23 27/9/24
f 24/20/22 27/9/24 26/21/24
s 2
f 27/9/18 34/16/18 29/10/18
s 1
f 26/21/24 27/9/24 28/22/25
f 27/9/24 29/10/26 28/22/25
s 2
f 29/10/18 34/16/18 31/13/18
s 1
f 28/22/25 29/10/26 31/13/27
f 28/22/25 31/13/27 30/23/27
s 2
f 31/13/18 34/16/18 33/14/18
s 1
f 30/23/27 31/13/27 32/24/28
f 31/13/27 33/14/29 32/24/28
s 2
f 33/14/18 34/16/18 19/1/18
s 1
f 32/24/28 33/14/29 19/1/19
f 32/24/28 19/1/19 18/17/19
f 35/25/30 43/26/31 36/27/32
f 43/26/31 44/28/33 36/27/32
f 36/27/32 44/28/33 45/29/34
f 36/27/32 45/29/34 37/30/35
f 37/30/35 45/29/34 38/30/36
f 45/29/34 46/29/37 38/30/36
f 38/30/36 46/29/37 47/28/38
f 38/30/36 47/28/38 39/27/39
f 39/27/39 47/28/38 40/25/40
f 47/28/38 48/26/41 40/25/40
f 40/25/40 48/26/41 49/31/42
f 40/25/40 49/31/42 41/32/43
f 41/32/43 49/31/42 42/32/44
f 49/31/42 50/31/45 42/32/44
f 42/32/44 50/31/45 43/26/31
f 42/32/44 43/26/31 35/25/30
f 45/29/34 46/29/37 51/33/46
f 45/29/34 44/28/33 51/33/46
f 44/28/33 43/26/31 51/33/46
f 43/26/31 50/31/45 51/33/46
f 50/31/45 49/31/42 51/33/46
f 51/33/46 49/31/42 48/26/41
f 51/33/46 48/26/41 47/28/38
f 51/33/46 47/28/38 46/29/37
s 2
f 53/25/18 68/34/18 55/27/18
s 1
f 52/35/47 53/25/47 54/36/48
f 53/25/47 55/27/49 54/36/48
s 2
f 55/27/18 68/34/18 57/30/18
s 1
f 54/36/48 55/27/49 57/30/50
f 54/36/48 57/30/50 56/37/51
s 2
f 57/30/18 68/34/18 59/30/18
s 1
f 56/37/51 57/30/50 58/38/52
f 57/30/50 59/30/53 58/38/52
s 2
f 59/30/18 68/34/18 61/27/18
s 1
f 58/38/52 59/30/53 61/27/24
f 58/38/52 61/27/24 60/39/54
s 2
f 61/27/18 68/34/18 63/25/18
s 1
f 60/39/54 61/27/24 62/40/55
f 61/27/24 63/25/56 62/40/55
s 2
f 63/25/18 68/34/18 65/32/18
s 1
f 62/40/55 63/25/56 65/32/57
f 62/40/55 65/32/57 64/41/58
s 2
f 65/32/18 68/34/18 67/32/18
s 1
f 64/41/58 65/32/57 66/41/59
f 65/32/57 67/32/60 66/41/59
s 2
f 67/32/18 68/34/18 53/25/18
s 1
f 66/41/59 67/32/60 53/25/47
f 66/41/59 53/25/47 52/35/47
s 2
f 70/42/61 85/43/61 72/35/61
s 1
f 69/44/62 70/42/62 71/36/63
f 70/42/62 72/35/63 71/36/63
s 2
f 72/35/61 85/43/61 74/45/61
s 1
f 71/36/63 72/35/63 74/45/21
f 71/36/63 74/45/21 73/46/21
s 2
f 74/45/61 85/43/61 76/47/61
s 1
f 73/46/21 74/45/21 75/48/64
f 74/45/21 76/47/64 75/48/64
s 2
f 76/47/61 85/43/61 78/49/61
s 1
f 75/48/64 76/47/64 78/49/18
f 75/48/64 78/49/18 77/50/18
s 2
f 78/49/61 85/43/61 80/51/61
s 1
f 77/50/18 78/49/18 79/52/65
f 78/49/18 80/51/66 79/52/65
s 2
f 80/51/61 85/43/61 82/53/61
s 1
f 79/52/65 80/51/66 82/53/67
f 79/52/65 82/53/67 81/43/68
s 2
f 82/53/61 85/43/61 84/54/61
s 1
f 81/43/68 82/53/67 83/55/69
f 82/53/67 84/54/70 83/55/69
s 2
f 84/54/61 85/43/61 70/42/61
s 1
f 83/55/69 84/54/70 70/42/62
f 83/55/69 70/42/62 69/44/62
f 60/39/54 62/40/55 58/38/52
f 62/40/55 64/41/58 66/41/59
f 58/38/52 54/36/48 56/37/51
f 56/37/51 58/38/52 62/40/55
f 56/37/51 62/40/55 64/41/58
f 54/36/48 54/36/48 56/37/51
f 64/41/58 54/36/48 56/37/51
f 54/36/48 66/41/59 64/41/58
f 86/56/71 94/57/72 87/58/73
f 94/57/72 95/59/74 87/58/73
f 87/58/73 95/59/74 96/60/75
f 87/58/73 96/60/75 88/61/76
f 88/61/76 96/60/75 89/61/77
f 96/60/75 97/60/78 89/61/77
f 89/61/77 97/60/78 98/62/79
f 89/61/77 98/62/79 90/63/80
f 90/63/80 98/62/79 91/64/81
f 98/62/79 99/65/82 91/64/81
f 91/64/81 99/65/82 100/66/83
f 91/64/81 100/66/83 92/67/84
f 92/67/84 100/66/83 93/67/85
f 100/66/83 101/66/86 93/67/85
f 93/67/85 101/66/86 94/57/72
f 93/67/85 94/57/72 86/56/71
f 96/60/75 97/60/78 102/68/87
f 96/60/75 95/59/74 102/68/87
f 95/59/74 94/57/72 102/68/87
f 94/57/72 101/66/86 102/68/87
f 101/66/86 100/66/83 102/68/87
f 102/68/87 100/66/83 99/65/82
f 102/68/87 99/65/82 98/62/79
f 102/68/87 98/62/79 97/60/78
s 2
f 104/56/88 119/69/88 106/58/88
s 1
f 103/70/89 104/56/89 105/71/90
f 104/56/89 106/58/91 105/71/90
s 2
f 106/58/88 119/69/88 108/61/88
s 1
f 105/71/90 106/58/91 108/61/92
f 105/71/90 108/61/92 107/72/93
s 2
f 108/61/88 119/69/88 110/61/88
s 1
f 107/72/93 108/61/92 109/73/94
f 108/61/92 110/61/95 109/73/94
s 2
f 110/61/88 119/69/88 112/63/88
s 1
f 109/73/94 110/61/95 112/63/96
f 109/73/94 112/63/96 111/74/97
s 2
f 112/63/88 119/69/88 114/64/88
s 1
f 111/74/97 112/63/96 113/75/98
f 112/63/96 114/64/99 113/75/98
s 2
f 114/64/88 119/69/88 116/67/88
s 1
f 113/75/98 114/64/99 116/67/50
f 113/75/98 116/67/50 115/76/100
s 2
f 116/67/88 119/69/88 118/67/88
s 1
f 115/76/100 116/67/50 117/76/101
f 116/67/50 118/67/102 117/76/101
s 2
f 118/67/88 119/69/88 104/56/88
s 1
f 117/76/101 118/67/102 104/56/89
f 117/76/101 104/56/89 103/70/89
s 2
f 121/77/103 136/78/103 123/75/103
s 1
f 120/79/104 121/77/104 122/71/105
f 121/77/104 123/75/105 122/71/105
s 2
f 123/75/103 136/78/103 125/80/103
s 1
f 122/71/105 123/75/105 125/80/106
f 122/71/105 125/80/106 124/81/106
s 2
f 125/80/103 136/78/103 127/82/103
s 1
f 124/81/106 125/80/106 126/83/107
f 125/80/106 127/82/107 126/83/107
s 2
f 127/82/103 136/78/103 129/84/103
s 1
f 126/83/107 127/82/107 129/84/88
f 126/83/107 129/84/88 128/85/88
s 2
f 129/84/103 136/78/103 131/86/103
s 1
f 128/85/88 129/84/88 130/87/108
f 129/84/88 131/86/109 130/87/108
s 2
f 131/86/103 136/78/103 133/88/103
s 1
f 130/87/108 131/86/109 133/88/110
f 130/87/108 133/88/110 132/89/111
s 2
f 133/88/103 136/78/103 135/90/103
s 1
f 132/89/111 133/88/110 134/91/112
f 133/88/110 135/90/113 134/91/112
s 2
f 135/90/103 136/78/103 121/77/103
s 1
f 134/91/112 135/90/113 121/77/104
f 134/91/112 121/77/104 120/79/104
f 111/74/97 113/75/98 109/73/94
f 113/75/98 115/76/100 117/76/101
f 109/73/94 105/71/90 107/72/93
f 107/72/93 109/73/94 113/75/98
f 107/72/93 113/75/98 115/76/100
f 105/71/90 105/71/90 107/72/93
f 115/76/100 105/71/90 107/72/93
f 105/71/90 117/76/101 115/76/100
f 137/92/114 145/93/115 138/94/116
f 145/93/115 146/93/117 138/94/116
f 138/94/116 146/93/117 147/95/118
f 138/94/116 147/95/118 139/96/119
f 139/96/119 147/95/118 140/97/120
f 147/95/118 148/98/121 140/97/120
f 140/97/120 148/98/121 149/99/122
f 140/97/120 149/99/122 141/100/123
f 141/100/123 149/99/122 142/101/124
f 149/99/122 150/99/125 142/101/124
f 142/101/124 150/99/125 151/102/126
f 142/101/124 151/102/126 143/103/127
f 143/103/127 151/102/126 144/104/128
f 151/102/126 152/105/129 144/104/128
f 144/104/128 152/105/129 145/93/115
f 144/104/128 145/93/115 137/92/114
f 147/95/118 148/98/121 153/106/130
f 147/95/118 146/93/117 153/106/130
f 146/93/117 145/93/115 153/106/130
f 145/93/115 152/105/129 153/106/130
f 152/105/129 151/102/126 153/106/130
f 153/106/130 151/102/126 150/99/125
f 153/106/130 150/99/125 149/99/122
f 153/106/130 149/99/122 148/98/121
s 2
f 155/92/18 170/107/18 157/94/18
s 1
f 154/108/131 155/92/131 156/109/132
f 155/92/131 157/94/133 156/109/132
s 2
f 157/94/18 170/107/18 159/96/18
s 1
f 156/109/132 157/94/133 159/96/134
f 156/109/132 159/96/134 158/110/135
s 2
f 159/96/18 170/107/18 161/97/18
s 1
f 158/110/135 159/96/134 160/111/136
f 159/96/134 161/97/137 160/111/136
s 2
f 161/97/18 170/107/18 163/100/18
s 1
f 160/111/136 161/97/137 163/100/138
f 160/111/136 163/100/138 162/112/139
s 2
f 163/100/18 170/107/18 165/101/18
s 1
f 162/112/139 163/100/138 164/113/140
f 163/100/138 165/101/141 164/113/140
s 2
f 165/101/18 170/107/18 167/103/18
s 1
f 164/113/140 165/101/141 167/103/142
f 164/113/140 167/103/142 166/114/143
s 2
f 167/103/18 170/107/18 169/104/18
s 1
f 166/114/143 167/103/142 168/115/144
f 167/103/142 169/104/145 168/115/144
s 2
f 169/104/18 170/107/18 155/92/18
s 1
f 168/115/144 169/104/145 155/92/131
f 168/115/144 155/92/131 154/108/131
s 2
f 172/116/146 187/117/146 174/118/146
s 1
f 171/119/147 172/116/147 173/115/148
f 172/116/147 174/118/148 173/115/148
s 2
f 174/118/146 187/117/146 176/120/146
s 1
f 173/115/148 174/118/148 176/120/149
f 173/115/148 176/120/149 175/121/149
s 2
f 176/120/146 187/117/146 178/122/146
s 1
f 175/121/149 176/120/149 177/123/150
f 176/120/149 178/122/150 177/123/150
s 2
f 178/122/146 187/117/146 180/124/146
s 1
f 177/123/150 178/122/150 180/124/18
f 177/123/150 180/124/18 179/125/18
s 2
f 180/124/146 187/117/146 182/126/146
s 1
f 179/125/18 180/124/18 181/127/151
f 180/124/18 182/126/152 181/127/151
s 2
f 182/126/146 187/117/146 184/128/146
s 1
f 181/127/151 182/126/152 184/128/153
f 181/127/151 184/128/153 183/129/154
s 2
f 184/128/146 187/117/146 186/130/146
s 1
f 183/129/154 184/128/153 185/131/155
f 184/128/153 186/130/156 185/131/155
s 2
f 186/130/146 187/117/146 172/116/146
s 1
f 185/131/155 186/130/156 172/116/147
f 185/131/155 172/116/147 171/119/147
f 162/112/139 164/113/140 160/111/136
f 164/113/140 166/114/143 168/115/144
f 160/111/136 156/109/132 158/110/135
f 158/110/135 160/111/136 164/113/140
f 158/110/135 164/113/140 166/114/143
f 156/109/132 156/109/132 158/110/135
f 166/114/143 156/109/132 158/110/135
f 156/109/132 168/115/144 166/114/143
# 288 triangles in group

# 288 triangles total

