# Wavefront OBJ exported by MilkShape 3D

mtllib Church.mtl

v -4.168377 15.543606 1.973660
v 3.915155 15.543606 1.973660
v -4.168377 7.901646 1.973660
v 3.915155 7.901646 1.973660
v -7.088938 -0.206717 7.259372
v 6.764290 -0.206717 7.259372
v -7.088938 -11.848032 7.259372
v 6.764290 -11.848032 7.259372
v -2.625531 -17.963844 14.116515
v 3.515167 -17.963844 14.116515
v -2.625531 -26.590908 14.116515
v 3.515167 -26.590908 14.116515
v 0.109428 29.149998 -3.026338
v -6.698858 17.186844 3.598662
v 0.109428 29.149998 -3.026338
v 7.004936 17.186844 3.598662
v 0.109428 29.149998 -3.026338
v 7.004936 17.186844 -9.651338
v 0.109428 29.149998 -3.026338
v -6.698858 17.186844 -9.651338
v -5.006042 -26.711918 14.928124
v -5.006042 -28.059406 14.928124
v 5.493958 -26.711918 14.928124
v 5.493958 -28.059406 14.928124
v 5.493958 -26.711918 6.999555
v 5.493958 -28.059406 6.999555
v -5.006042 -26.711918 6.999555
v -5.006042 -28.059406 6.999555
v -5.006042 -28.059406 17.213837
v -5.006042 -29.149998 17.213837
v 5.493958 -28.059406 17.213837
v 5.493958 -29.149998 17.213837
v 5.493958 -28.059406 6.856696
v 5.493958 -29.149998 6.856696
v -5.006042 -28.059406 6.856696
v -5.006042 -29.149998 6.856696
v -0.488323 7.882793 7.015666
v -17.108191 -10.084347 7.015666
v 0.107595 7.055706 7.015666
v -15.850618 -10.084347 7.015666
v 0.107595 7.055706 -17.213837
v -15.850618 -10.084347 -17.213837
v -0.488323 7.882793 -17.213837
v -17.108191 -10.084347 -17.213837
v 0.541857 7.882793 7.015666
v 17.108189 -9.834347 7.015666
v -0.488323 7.882793 7.015666
v 15.850620 -9.834347 7.015666
v -0.488323 7.882793 -17.213837
v 15.850620 -9.834347 -17.213837
v 0.541857 7.882793 -17.213837
v 17.108189 -9.834347 -17.213837
v -4.988235 17.186844 1.599225
v -4.988235 1.826305 1.599225
v 4.913481 17.186844 1.599225
v 4.913481 1.826305 1.599225
v 4.913481 17.186844 -7.651900
v 4.913481 1.826305 -7.651900
v -4.988235 17.186844 -7.651900
v -4.988235 1.826305 -7.651900
v -15.880324 -9.808334 7.015666
v -15.880324 -29.149998 7.015666
v 15.788086 -9.808334 7.015666
v 15.788086 -29.149998 7.015666
v 15.788086 -9.808334 -17.213837
v 15.788086 -29.149998 -17.213837
v -15.880324 -9.808334 -17.213837
v -15.880324 -29.149998 -17.213837
v -0.042088 7.066662 7.015666
v -15.880324 -9.808334 7.015666
v -0.042088 7.066662 7.015666
v 15.788086 -9.808334 7.015666
v -0.042088 7.066662 -17.213837
v 15.788086 -9.808334 -17.213837
v -0.042088 7.066662 -17.213837
v -15.880324 -9.808334 -17.213837
v -0.076157 -11.700779 13.870597
v -5.026404 -17.388908 13.870597
v 0.159410 -12.104084 13.870597
v -4.638008 -17.388908 13.870597
v 0.159410 -12.104084 6.931231
v -4.638008 -17.388908 6.931231
v -0.076157 -11.700779 6.931231
v -5.026404 -17.388908 6.931231
v 0.330973 -11.700779 13.870597
v 5.541044 -17.266991 13.870597
v -0.076157 -11.700779 13.870597
v 5.152655 -17.266991 13.870597
v -0.076157 -11.700779 6.931231
v 5.152655 -17.266991 6.931231
v 0.330973 -11.700779 6.931231
v 5.541044 -17.266991 6.931231
v -4.647209 -17.254299 13.870597
v -4.647209 -26.711918 13.870597
v 5.133305 -17.254299 13.870597
v 5.133305 -26.711918 13.870597
v 5.133305 -17.254299 6.931231
v 5.133305 -26.711918 6.931231
v -4.647209 -17.254299 6.931231
v -4.647209 -26.711918 6.931231
v 0.100214 -12.098743 13.870597
v -4.647209 -17.254299 13.870597
v 0.100214 -12.098743 13.870597
v 5.133305 -17.254299 13.870597
v 0.100214 -12.098743 6.931231
v 5.133305 -17.254299 6.931231
v 0.100214 -12.098743 6.931231
v -4.647209 -17.254299 6.931231
# 108 vertices

vt 0.014195 0.459043
vt 0.014195 0.007552
vt 0.479689 0.007552
vt 0.479689 0.459043
vt -0.039912 0.999985
vt -0.039912 0.458883
vt 0.589283 0.458883
vt 0.589283 0.999985
vt 0.557792 0.514095
vt 0.557792 -0.006166
vt 0.986493 -0.006166
vt 0.986493 0.514095
vt 0.512225 0.276280
vt 0.477608 0.239364
vt 0.547286 0.239364
vt 0.547286 0.313195
vt 0.477608 0.313195
vt 0.882911 0.472746
vt 0.947358 0.472746
vt 0.947358 0.543394
vt 0.882911 0.543394
vt 0.882911 0.452380
vt 0.947358 0.452380
vt 0.947358 0.544667
vt 0.882911 0.544667
vt 0.511011 0.258664
vt 0.470565 0.258664
vt 0.512881 0.258664
vt 0.473649 0.258664
vt 0.512881 0.345312
vt 0.473649 0.345312
vt 0.511011 0.345312
vt 0.470565 0.345312
vt 0.554484 0.258664
vt 0.514244 0.258664
vt 0.551400 0.258664
vt 0.551400 0.345312
vt 0.514244 0.345312
vt 0.554484 0.345312
vt 0.080697 0.274835
vt 0.121429 0.274835
vt 0.121429 0.311437
vt 0.080697 0.311437
vt 0.037797 0.245491
vt 0.139609 0.245491
vt 0.139609 0.341357
vt 0.037797 0.341357
vt 0.088703 0.245491
vt 0.088703 0.341357
# 49 texture coordinates

vn 0.000000 0.000000 1.000000
vn 0.000000 0.000000 0.000000
vn 0.000000 0.484458 0.874815
vn 0.866383 0.499379 0.000000
vn 0.000000 0.484458 -0.874815
vn -0.869112 0.494616 0.000000
vn 0.000000 -1.000000 0.000000
vn 1.000000 0.000000 0.000000
vn 0.000000 0.000000 -1.000000
vn -1.000000 0.000000 0.000000
vn 0.000000 1.000000 0.000000
vn 0.731889 -0.681424 0.000000
vn -0.734094 0.679048 0.000000
vn 0.811341 0.584573 0.000000
vn -0.735121 -0.677936 0.000000
vn 0.730431 0.682986 0.000000
vn 0.729324 0.684168 0.000000
vn -0.729151 0.684353 0.000000
vn 0.740426 -0.672138 0.000000
vn -0.754340 0.656484 0.000000
vn 0.863494 0.504359 0.000000
vn -0.728852 -0.684672 0.000000
vn 0.715554 0.698557 0.000000
vn -0.735624 0.677390 0.000000
# 24 normals

g Regroup15
usemtl Material02
s 1
f 13/13/2 14/14/3 15/13/3
f 14/14/3 16/15/3 15/13/3
s 2
f 15/13/2 16/15/4 17/13/4
f 16/15/4 18/16/4 17/13/4
s 1
f 17/13/2 18/16/5 19/13/5
f 18/16/5 20/17/5 19/13/5
s 2
f 19/13/2 20/17/6 13/13/6
f 20/17/6 14/14/6 13/13/6
s 3
f 19/13/2 13/13/2 17/13/2
f 13/13/2 15/13/2 17/13/2
f 14/14/7 20/17/7 16/15/7
f 20/17/7 18/16/7 16/15/7
s 1
f 21/18/1 22/18/1 23/19/1
f 22/18/1 24/19/1 23/19/1
s 2
f 23/19/8 24/19/8 25/20/8
f 24/19/8 26/20/8 25/20/8
s 1
f 25/20/9 26/20/9 27/21/9
f 26/20/9 28/21/9 27/21/9
s 2
f 27/21/10 28/21/10 21/18/10
f 28/21/10 22/18/10 21/18/10
s 3
f 27/21/11 21/18/11 25/20/11
f 21/18/11 23/19/11 25/20/11
f 22/18/7 28/21/7 24/19/7
f 28/21/7 26/20/7 24/19/7
s 1
f 29/22/1 30/22/1 31/23/1
f 30/22/1 32/23/1 31/23/1
s 2
f 31/23/8 32/23/8 33/24/8
f 32/23/8 34/24/8 33/24/8
s 1
f 33/24/9 34/24/9 35/25/9
f 34/24/9 36/25/9 35/25/9
s 2
f 35/25/10 36/25/10 29/22/10
f 36/25/10 30/22/10 29/22/10
s 3
f 35/25/11 29/22/11 33/24/11
f 29/22/11 31/23/11 33/24/11
f 30/22/7 36/25/7 32/23/7
f 36/25/7 34/24/7 32/23/7
s 1
f 37/26/1 38/27/1 39/28/1
f 38/27/1 40/29/1 39/28/1
s 2
f 39/28/12 40/29/12 41/30/12
f 40/29/12 42/31/12 41/30/12
s 1
f 41/30/9 42/31/9 43/32/9
f 42/31/9 44/33/9 43/32/9
s 2
f 43/32/13 44/33/13 37/26/13
f 44/33/13 38/27/13 37/26/13
s 3
f 43/32/14 37/26/14 41/30/14
f 37/26/14 39/28/14 41/30/14
f 38/27/7 44/33/7 40/29/7
f 44/33/7 42/31/7 40/29/7
s 1
f 47/26/1 46/34/1 45/35/1
f 47/26/1 48/36/1 46/34/1
s 2
f 49/32/15 48/36/15 47/26/15
f 49/32/15 50/37/15 48/36/15
s 1
f 51/38/9 50/37/9 49/32/9
f 51/38/9 52/39/9 50/37/9
s 2
f 45/35/16 52/39/16 51/38/16
f 45/35/16 46/34/16 52/39/16
s 3
f 49/32/11 45/35/11 51/38/11
f 49/32/11 47/26/11 45/35/11
f 48/36/7 52/39/7 46/34/7
f 48/36/7 50/37/7 52/39/7
s 1
f 53/40/1 54/40/1 55/41/1
f 54/40/1 56/41/1 55/41/1
s 2
f 55/41/8 56/41/8 57/42/8
f 56/41/8 58/42/8 57/42/8
s 1
f 57/42/9 58/42/9 59/43/9
f 58/42/9 60/43/9 59/43/9
s 2
f 59/43/10 60/43/10 53/40/10
f 60/43/10 54/40/10 53/40/10
s 3
f 59/43/11 53/40/11 57/42/11
f 53/40/11 55/41/11 57/42/11
f 54/40/7 60/43/7 56/41/7
f 60/43/7 58/42/7 56/41/7
s 1
f 61/44/1 62/44/1 63/45/1
f 62/44/1 64/45/1 63/45/1
s 2
f 63/45/8 64/45/8 65/46/8
f 64/45/8 66/46/8 65/46/8
s 1
f 65/46/9 66/46/9 67/47/9
f 66/46/9 68/47/9 67/47/9
s 2
f 67/47/10 68/47/10 61/44/10
f 68/47/10 62/44/10 61/44/10
s 3
f 67/47/11 61/44/11 65/46/11
f 61/44/11 63/45/11 65/46/11
f 62/44/7 68/47/7 64/45/7
f 68/47/7 66/46/7 64/45/7
s 1
f 69/48/2 70/44/1 71/48/1
f 70/44/1 72/45/1 71/48/1
s 2
f 71/48/17 72/45/17 73/49/17
f 72/45/17 74/46/17 73/49/17
s 1
f 73/49/2 74/46/9 75/49/9
f 74/46/9 76/47/9 75/49/9
s 2
f 75/49/18 76/47/18 69/48/18
f 76/47/18 70/44/18 69/48/18
s 3
f 75/49/2 69/48/2 73/49/2
f 69/48/2 71/48/2 73/49/2
f 70/44/7 76/47/7 72/45/7
f 76/47/7 74/46/7 72/45/7
s 1
f 77/26/1 78/27/1 79/28/1
f 78/27/1 80/29/1 79/28/1
s 2
f 79/28/19 80/29/19 81/30/19
f 80/29/19 82/31/19 81/30/19
s 1
f 81/30/9 82/31/9 83/32/9
f 82/31/9 84/33/9 83/32/9
s 2
f 83/32/20 84/33/20 77/26/20
f 84/33/20 78/27/20 77/26/20
s 3
f 83/32/21 77/26/21 81/30/21
f 77/26/21 79/28/21 81/30/21
f 78/27/7 84/33/7 80/29/7
f 84/33/7 82/31/7 80/29/7
s 1
f 87/26/1 86/34/1 85/35/1
f 87/26/1 88/36/1 86/34/1
s 2
f 89/32/22 88/36/22 87/26/22
f 89/32/22 90/37/22 88/36/22
s 1
f 91/38/9 90/37/9 89/32/9
f 91/38/9 92/39/9 90/37/9
s 2
f 85/35/16 92/39/16 91/38/16
f 85/35/16 86/34/16 92/39/16
s 3
f 89/32/11 85/35/11 91/38/11
f 89/32/11 87/26/11 85/35/11
f 88/36/7 92/39/7 86/34/7
f 88/36/7 90/37/7 92/39/7
s 1
f 93/44/1 94/44/1 95/45/1
f 94/44/1 96/45/1 95/45/1
s 2
f 95/45/8 96/45/8 97/46/8
f 96/45/8 98/46/8 97/46/8
s 1
f 97/46/9 98/46/9 99/47/9
f 98/46/9 100/47/9 99/47/9
s 2
f 99/47/10 100/47/10 93/44/10
f 100/47/10 94/44/10 93/44/10
s 3
f 99/47/11 93/44/11 97/46/11
f 93/44/11 95/45/11 97/46/11
f 94/44/7 100/47/7 96/45/7
f 100/47/7 98/46/7 96/45/7
s 1
f 101/48/2 102/44/1 103/48/1
f 102/44/1 104/45/1 103/48/1
s 2
f 103/48/23 104/45/23 105/49/23
f 104/45/23 106/46/23 105/49/23
s 1
f 105/49/2 106/46/9 107/49/9
f 106/46/9 108/47/9 107/49/9
s 2
f 107/49/24 108/47/24 101/48/24
f 108/47/24 102/44/24 101/48/24
s 3
f 107/49/2 101/48/2 105/49/2
f 101/48/2 103/48/2 105/49/2
f 102/44/7 108/47/7 104/45/7
f 108/47/7 106/46/7 104/45/7
# 144 triangles in group

g Regroup14
usemtl Material04
s 1
f 5/5/1 7/6/1 8/7/1
f 5/5/1 8/7/1 6/8/1
f 9/9/1 11/10/1 12/11/1
f 9/9/1 12/11/1 10/12/1
# 4 triangles in group

g Plane02
usemtl Material03
f 1/1/1 3/2/1 4/3/1
f 1/1/1 4/3/1 2/4/1
# 2 triangles in group

# 150 triangles total

