# Wavefront OBJ exported by MilkShape 3D

mtllib Corn.mtl

v -0.309027 3.712524 0.477540
v -0.309027 0.439531 0.477540
v -0.309027 3.712524 0.477540
v -0.309027 0.439531 0.477540
v 0.789667 3.712524 -0.477540
v 0.789667 0.439531 -0.477540
v 0.789667 3.712524 -0.477540
v 0.789667 0.439531 -0.477540
v -0.237220 3.712524 -0.549347
v -0.237220 0.439531 -0.549347
v -0.237220 3.712524 -0.549347
v -0.237220 0.439531 -0.549347
v 0.717860 3.712524 0.549347
v 0.717860 0.439531 0.549347
v 0.717860 3.712524 0.549347
v 0.717860 0.439531 0.549347
# 16 vertices

vt 0.238526 0.584110
vt 0.238526 0.013913
vt 0.007819 0.584110
vt 0.007819 0.013913
# 4 texture coordinates

vn 0.000000 0.000000 0.000000
vn 0.656059 0.000000 0.754710
vn -0.656059 0.000000 -0.754710
vn -0.754710 0.000000 0.656059
vn 0.754710 0.000000 -0.656059
# 5 normals

g Box03
usemtl Material01
s 1
f 1/1/1 2/2/1 3/1/1
f 2/2/1 4/2/1 3/1/1
s 2
f 3/1/2 4/2/2 5/3/2
f 4/2/2 6/4/2 5/3/2
s 1
f 5/3/1 6/4/1 7/3/1
f 6/4/1 8/4/1 7/3/1
s 2
f 7/3/3 8/4/3 1/1/3
f 8/4/3 2/2/3 1/1/3
s 3
f 7/3/1 1/1/1 5/3/1
f 1/1/1 3/1/1 5/3/1
f 2/2/1 8/4/1 4/2/1
f 8/4/1 6/4/1 4/2/1
# 12 triangles in group

g Duplicate09
usemtl Material01
s 1
f 9/1/1 10/2/1 11/1/1
f 10/2/1 12/2/1 11/1/1
s 2
f 11/1/4 12/2/4 13/3/4
f 12/2/4 14/4/4 13/3/4
s 1
f 13/3/1 14/4/1 15/3/1
f 14/4/1 16/4/1 15/3/1
s 2
f 15/3/5 16/4/5 9/1/5
f 16/4/5 10/2/5 9/1/5
s 3
f 15/3/1 9/1/1 13/3/1
f 9/1/1 11/1/1 13/3/1
f 10/2/1 16/4/1 12/2/1
f 16/4/1 14/4/1 12/2/1
# 12 triangles in group

# 24 triangles total

