# Wavefront OBJ exported by MilkShape 3D

mtllib Cross.mtl

v -0.605170 1.375241 -0.554919
v -0.605170 1.232384 -0.554919
v 1.001973 1.375241 -0.554919
v 1.001973 1.232384 -0.554919
v 1.001973 1.375241 -0.803571
v 1.001973 1.232384 -0.803571
v -0.605170 1.375241 -0.803571
v -0.605170 1.232384 -0.803571
v 0.277895 2.107384 -0.554919
v 0.086650 2.107384 -0.554919
v 0.277895 -0.419114 -0.554919
v 0.086650 -0.419114 -0.554919
v 0.277895 -0.419114 -0.803571
v 0.086650 -0.419114 -0.803571
v 0.277895 2.107384 -0.803571
v 0.086650 2.107384 -0.803571
# 16 vertices

vt 0.829795 0.521064
vt 0.829795 0.514019
vt 0.906197 0.521064
vt 0.906197 0.514019
vt 0.871775 0.557173
vt 0.862684 0.557173
vt 0.871775 0.432568
vt 0.862684 0.432568
# 8 texture coordinates

vn 0.000000 0.000000 1.000000
vn 1.000000 0.000000 0.000000
vn 0.000000 0.000000 -1.000000
vn -1.000000 0.000000 0.000000
vn 0.000000 1.000000 0.000000
vn 0.000000 -1.000000 -0.000000
# 6 normals

g Regroup01
usemtl Material01
s 1
f 1/1/1 2/2/1 3/3/1
f 2/2/1 4/4/1 3/3/1
s 2
f 3/3/2 4/4/2 5/3/2
f 4/4/2 6/4/2 5/3/2
s 1
f 5/3/3 6/4/3 7/1/3
f 6/4/3 8/2/3 7/1/3
s 2
f 7/1/4 8/2/4 1/1/4
f 8/2/4 2/2/4 1/1/4
s 3
f 7/1/5 1/1/5 5/3/5
f 1/1/5 3/3/5 5/3/5
f 2/2/6 8/2/6 4/4/6
f 8/2/6 6/4/6 4/4/6
s 1
f 9/5/1 10/6/1 11/7/1
f 10/6/1 12/8/1 11/7/1
s 2
f 11/7/6 12/8/6 13/7/6
f 12/8/6 14/8/6 13/7/6
s 1
f 13/7/3 14/8/3 15/5/3
f 14/8/3 16/6/3 15/5/3
s 2
f 15/5/5 16/6/5 9/5/5
f 16/6/5 10/6/5 9/5/5
s 3
f 15/5/2 9/5/2 13/7/2
f 9/5/2 11/7/2 13/7/2
f 10/6/4 16/6/4 12/8/4
f 16/6/4 14/8/4 12/8/4
# 24 triangles in group

# 24 triangles total

