# Wavefront OBJ exported by MilkShape 3D

mtllib Dark Cloud.mtl

v 3.153178 0.023810 1.501997
v 0.620385 0.023810 1.501997
v -1.912407 0.023810 1.501997
v 3.153178 0.000000 -0.787020
v 0.620385 0.637255 -0.787020
v -1.912407 0.000000 -0.787020
v 3.153178 -0.095238 -2.993222
v 0.620385 -0.095238 -2.993222
v -1.912407 -0.095238 -2.993222
v 2.121951 0.886555 4.179604
v 0.932876 0.886555 1.943280
v -0.256198 0.886555 -0.293045
v 4.143034 0.862745 3.104975
v 2.953959 1.500000 0.868651
v 1.764885 0.862745 -1.367673
v 6.090998 0.767507 2.069227
v 4.901922 0.767507 -0.167099
v 3.712847 0.767507 -2.403424
v 2.032998 0.505602 5.039015
v -0.114935 0.505602 3.696838
v -2.262872 0.505602 2.354660
v 3.245996 0.481792 3.097815
v 1.098061 1.119047 1.755637
v -1.049870 0.481792 0.413458
v 4.415104 0.386554 1.226847
v 2.267172 0.386554 -0.115330
v 0.119238 0.386554 -1.457507
# 27 vertices

vt 1.000000 0.000000
vt 1.000000 0.500000
vt 0.500000 0.500000
vt 0.500000 0.000000
vt 0.000000 0.500000
vt 0.000000 0.000000
vt 1.000000 1.000000
vt 0.500000 1.000000
vt 0.000000 1.000000
# 9 texture coordinates

vn 0.124054 0.984180 0.126489
vn 0.243915 0.969449 -0.025960
vn -0.000000 0.999606 -0.028055
vn 0.000000 0.965915 0.258860
vn -0.243915 0.969449 -0.025960
vn -0.124055 0.984180 0.126489
vn 0.123994 0.975534 -0.181543
vn 0.000000 0.949058 -0.315102
vn -0.123994 0.975534 -0.181543
vn -0.053443 0.984180 0.168917
vn 0.137432 0.969449 0.203177
vn 0.024771 0.999606 -0.013171
vn -0.228560 0.965915 0.121527
vn -0.091590 0.969449 -0.227552
vn -0.169923 0.984180 -0.050150
vn 0.218504 0.975535 0.024251
vn 0.278218 0.949058 -0.147931
vn 0.102081 0.975535 -0.194710
vn 0.038175 0.984180 0.173008
vn 0.220608 0.969449 0.107239
vn 0.014867 0.999606 -0.023792
vn -0.137175 0.965915 0.219526
vn -0.193095 0.969449 -0.151271
vn -0.172233 0.984180 0.041530
vn 0.201356 0.975535 -0.088250
vn 0.166978 0.949058 -0.267221
vn -0.008950 0.975535 -0.219664
# 27 normals

g Regroup02
usemtl Material01
s 1
f 1/1/1 4/2/2 5/3/3
f 1/1/1 5/3/3 2/4/4
f 5/3/3 6/5/5 3/6/6
f 5/3/3 3/6/6 2/4/4
f 7/7/7 8/8/8 5/3/3
f 7/7/7 5/3/3 4/2/2
f 5/3/3 8/8/8 9/9/9
f 5/3/3 9/9/9 6/5/5
f 10/1/10 13/2/11 14/3/12
f 10/1/10 14/3/12 11/4/13
f 14/3/12 15/5/14 12/6/15
f 14/3/12 12/6/15 11/4/13
f 16/7/16 17/8/17 14/3/12
f 16/7/16 14/3/12 13/2/11
f 14/3/12 17/8/17 18/9/18
f 14/3/12 18/9/18 15/5/14
f 19/1/19 22/2/20 23/3/21
f 19/1/19 23/3/21 20/4/22
f 23/3/21 24/5/23 21/6/24
f 23/3/21 21/6/24 20/4/22
f 25/7/25 26/8/26 23/3/21
f 25/7/25 23/3/21 22/2/20
f 23/3/21 26/8/26 27/9/27
f 23/3/21 27/9/27 24/5/23
# 24 triangles in group

# 24 triangles total

