# Wavefront OBJ exported by MilkShape 3D

mtllib Flag1.mtl

v -4.978189 12.416142 -0.062500
v -11.528531 12.416142 -0.062500
v -4.978189 5.162098 -0.062500
v -11.528531 5.162098 -0.062500
v -4.978189 12.416142 0.133929
v -11.528531 12.416142 0.133929
v -4.978189 5.162098 0.133929
v -11.528531 5.162098 0.133929
v -0.325099 4.418303 0.000000
v -0.392909 8.754736 0.000000
v -11.936405 4.418303 0.000000
v -12.004203 8.531278 0.000000
v -17.399693 4.418303 0.000000
v -16.183374 8.450848 0.000000
v -17.399693 4.418303 0.062500
v -16.183374 8.450848 0.062500
v -3.722556 4.418303 0.062500
v -3.790369 8.689355 0.062500
v -0.325099 4.418303 0.062500
v -0.392909 8.754736 0.062500
v -0.392909 8.754736 0.000000
v -0.460721 13.038005 0.000000
v -12.004203 8.531278 0.000000
v -12.072023 12.814539 0.000000
v -16.325500 8.448113 0.000000
v -17.103958 12.717699 0.000000
v -16.325500 8.448113 0.062500
v -17.103958 12.717699 0.062500
v -3.790369 8.689355 0.062500
v -3.858176 12.972617 0.062500
v -0.392909 8.754736 0.062500
v -0.460721 13.038005 0.062500
v 0.432285 -4.959055 0.128247
v 0.432285 -4.959055 -0.078250
v 0.432283 13.067858 0.128247
v 0.432283 13.067858 -0.078250
v -0.346409 13.178967 0.128250
v -0.346409 13.178967 -0.078250
v -0.346409 -4.847946 0.128250
v -0.346409 -4.847946 -0.078250
# 40 vertices

vt 1.000000 1.000000
vt 1.000000 0.000000
vt 0.000000 0.000000
vt 0.000000 1.000000
vt 0.112604 0.894235
vt 0.144748 0.894235
vt 0.144748 0.937627
vt 0.112604 0.937627
vt 0.112604 0.850842
vt 0.144748 0.850842
vt 0.891583 0.823771
vt 0.891583 0.887899
vt 0.887407 0.887899
vt 0.887407 0.823771
# 14 texture coordinates

vn 0.000000 0.000000 -1.000000
vn 0.000000 0.000000 1.000000
vn 1.000000 0.000000 0.000000
vn 0.141256 0.989973 0.000000
vn -1.000000 -0.000000 0.000000
vn -0.141255 -0.989973 0.000000
# 6 normals

g Regroup01
usemtl Material07
s 1
f 11/5/1 12/6/1 10/7/1
f 11/5/1 10/7/1 9/8/1
f 11/5/1 13/9/1 14/10/1
f 11/5/1 14/10/1 12/6/1
f 17/5/2 18/6/2 16/7/2
f 17/5/2 16/7/2 15/8/2
f 17/5/2 19/9/2 20/10/2
f 17/5/2 20/10/2 18/6/2
f 23/5/1 24/6/1 22/7/1
f 23/5/1 22/7/1 21/8/1
f 23/5/1 25/9/1 26/10/1
f 23/5/1 26/10/1 24/6/1
f 29/5/2 30/6/2 28/7/2
f 29/5/2 28/7/2 27/8/2
f 29/5/2 31/9/2 32/10/2
f 29/5/2 32/10/2 30/6/2
# 16 triangles in group

g Regroup02
usemtl Material01
f 33/11/3 34/11/3 35/12/3
f 34/11/3 36/12/3 35/12/3
s 2
f 35/12/4 36/12/4 37/13/4
f 36/12/4 38/13/4 37/13/4
s 1
f 37/13/5 38/13/5 39/14/5
f 38/13/5 40/14/5 39/14/5
s 2
f 39/14/6 40/14/6 33/11/6
f 40/14/6 34/11/6 33/11/6
s 3
f 39/14/2 33/11/2 37/13/2
f 33/11/2 35/12/2 37/13/2
f 34/11/1 40/14/1 36/12/1
f 40/14/1 38/13/1 36/12/1
# 12 triangles in group

g Flag
usemtl Material02
s 1
f 1/1/1 3/2/1 4/3/1
f 1/1/1 4/3/1 2/4/1
f 8/3/2 7/2/2 5/1/2
f 6/4/2 8/3/2 5/1/2
# 4 triangles in group

# 32 triangles total

