# Wavefront OBJ exported by MilkShape 3D

mtllib Flash.mtl

v 13.418812 14.491488 19.656498
v -13.520129 -14.396989 19.656498
v 13.520158 14.396984 19.656498
v -13.418783 -14.491496 19.656498
v 13.520158 14.396984 -19.656498
v -13.418783 -14.491496 -19.656498
v 13.418812 14.491488 -19.656498
v -13.520129 -14.396989 -19.656498
v -14.328602 13.456383 19.750017
v -14.328602 13.456385 -19.750013
v -14.423100 13.355042 19.750023
v -14.423105 13.355024 -19.750027
v 14.328610 -13.456365 19.750017
v 14.328605 -13.456377 -19.750029
v 14.423117 -13.355028 19.750019
v 14.423116 -13.355027 -19.750013
# 16 vertices

vt 1.000000 1.000000
vt 1.000000 0.000000
vt 0.000000 1.000000
vt 0.000000 0.000000
# 4 texture coordinates

vn 0.000000 0.000000 1.000000
vn 0.731354 -0.681998 0.000000
vn 0.000000 0.000000 -1.000000
vn -0.731354 0.681998 0.000000
vn 0.681986 0.731366 0.000000
vn -0.682000 -0.731352 0.000000
# 6 normals

g Regroup01
usemtl Material02
s 1
f 1/1/1 2/2/1 3/1/1
f 2/2/1 4/2/1 3/1/1
s 2
f 3/1/2 4/2/2 5/3/2
f 4/2/2 6/4/2 5/3/2
s 1
f 5/3/3 6/4/3 7/3/3
f 6/4/3 8/4/3 7/3/3
s 2
f 7/3/4 8/4/4 1/1/4
f 8/4/4 2/2/4 1/1/4
s 3
f 7/3/5 1/1/5 5/3/5
f 1/1/5 3/1/5 5/3/5
f 2/2/6 8/4/6 4/2/6
f 8/4/6 6/4/6 4/2/6
s 1
f 9/2/4 10/4/4 11/2/4
f 10/4/4 12/4/4 11/2/4
s 2
f 11/2/6 12/4/6 13/1/6
f 12/4/6 14/3/6 13/1/6
s 1
f 13/1/2 14/3/2 15/1/2
f 14/3/2 16/3/2 15/1/2
s 2
f 15/1/5 16/3/5 9/2/5
f 16/3/5 10/4/5 9/2/5
s 3
f 15/1/1 9/2/1 13/1/1
f 9/2/1 11/2/1 13/1/1
f 10/4/3 16/3/3 12/4/3
f 16/3/3 14/3/3 12/4/3
# 24 triangles in group

# 24 triangles total

