# Wavefront OBJ exported by MilkShape 3D

mtllib Flowers.mtl

v 1.011422 1.462486 -1.896814
v 0.849770 -0.109921 -1.748825
v 1.011422 1.462486 -1.896814
v 1.116420 -0.109921 -1.748825
v 1.011422 1.462486 -1.896814
v 1.116420 -0.109921 -2.044803
v 1.011422 1.462486 -1.896814
v 0.849770 -0.109921 -2.044803
v 5.430480 1.255590 0.300050
v 5.337796 0.028009 0.448039
v 5.430480 1.255590 0.300050
v 5.604447 0.028009 0.448039
v 5.430480 1.255590 0.300050
v 5.604447 0.028009 0.152061
v 5.430480 1.255590 0.300050
v 5.337796 0.028009 0.152061
v 1.162199 1.462486 2.218649
v 1.000547 -0.109921 2.366637
v 1.162199 1.462486 2.218649
v 1.267196 -0.109921 2.366637
v 1.162199 1.462486 2.218649
v 1.267196 -0.109921 2.070660
v 1.162199 1.462486 2.218649
v 1.000547 -0.109921 2.070660
v -3.523719 1.147471 0.558600
v -4.106882 -0.144404 1.051039
v -3.523719 1.147471 0.558600
v -3.873665 -0.144404 0.921765
v -3.523719 1.147471 0.558600
v -4.017158 -0.144404 0.662896
v -3.523719 1.147471 0.558600
v -4.250376 -0.144404 0.792171
v 2.851080 1.477739 -0.089897
v 1.000276 1.348318 -0.089897
v -1.037572 1.205817 -0.089897
v 2.851080 1.477739 -1.819810
v 0.930519 2.001054 -1.819810
v -1.037572 1.205817 -1.819810
v 2.851080 1.477739 -3.601006
v 1.000276 1.348318 -3.601006
v -1.037572 1.205817 -3.601006
v 7.306899 1.132911 2.003853
v 5.456094 1.003490 2.003853
v 3.418246 0.860990 2.003853
v 7.306899 1.132911 0.273940
v 5.386337 1.656226 0.273940
v 3.418246 0.860990 0.273940
v 7.306899 1.132911 -1.507256
v 5.456094 1.003490 -1.507256
v 3.418246 0.860990 -1.507256
v 3.069830 1.477739 4.035103
v 1.219026 1.348318 4.035103
v -0.818822 1.205817 4.035103
v 3.069830 1.477739 2.305190
v 1.149269 2.001054 2.305190
v -0.818822 1.205817 2.305190
v 3.069830 1.477739 0.523994
v 1.219026 1.348318 0.523994
v -0.818822 1.205817 0.523994
v -1.053477 1.053242 1.230734
v -2.688326 1.268155 2.081208
v -4.488395 1.504787 3.017631
v -1.867243 0.850348 -0.282282
v -3.492096 1.715084 0.475674
v -5.302162 1.301892 1.504615
v -2.705132 0.641438 -1.840151
v -4.339982 0.856351 -0.989677
v -6.140052 1.092982 -0.053254
# 68 vertices

vt 0.713255 0.929745
vt 0.728428 0.878109
vt 0.698081 0.878109
vt 0.399784 0.600106
vt 0.399784 0.798623
vt 0.211693 0.798623
vt 0.211693 0.600106
vt 0.004593 0.798623
vt 0.004593 0.600106
vt 0.399784 1.003025
vt 0.211693 1.003025
vt 0.004593 1.003025
vt 0.998830 0.587299
vt 0.998830 0.790319
vt 0.798681 0.790319
vt 0.798681 0.587299
vt 0.578304 0.790319
vt 0.578304 0.587299
vt 0.998830 0.999357
vt 0.798681 0.999357
vt 0.578304 0.999357
vt 0.407596 0.014168
vt 0.407596 0.212686
vt 0.219505 0.212686
vt 0.219505 0.014168
vt 0.012406 0.212686
vt 0.012406 0.014168
vt 0.407596 0.417088
vt 0.219505 0.417088
vt 0.012406 0.417088
vt 0.999410 -0.003563
vt 0.999410 0.214386
vt 0.797685 0.214386
vt 0.797685 -0.003563
vt 0.575574 0.214386
vt 0.575574 -0.003563
vt 0.999410 0.438796
vt 0.797685 0.438796
vt 0.575574 0.438796
# 39 texture coordinates

vn 0.000000 0.000000 0.000000
vn 0.000000 0.093703 0.995600
vn 0.997778 0.066627 0.000000
vn 0.000000 0.093702 -0.995600
vn -0.994757 0.102266 0.000000
vn 0.000000 -1.000000 0.000000
vn 0.000000 0.119687 0.992812
vn 0.990107 0.140314 0.000000
vn 0.000000 0.119687 -0.992812
vn -0.997162 0.075287 0.000000
vn 0.481661 0.113798 0.868938
vn 0.819414 -0.349649 -0.454210
vn -0.481660 0.113822 -0.868935
vn -0.756700 0.501467 0.419448
vn 0.101866 0.977873 0.182724
vn 0.262896 0.964824 0.000000
vn -0.064326 0.997926 0.002381
vn -0.065224 0.932749 0.354578
vn -0.374637 0.927171 0.000000
vn -0.226285 0.956829 0.182411
vn 0.101660 0.978774 -0.177950
vn -0.065458 0.936094 -0.345604
vn -0.226215 0.957742 -0.177645
vn 0.281649 0.956896 -0.070884
vn 0.335288 0.893045 -0.300089
vn 0.053463 0.985951 -0.158248
vn 0.211256 0.963822 0.162537
vn -0.227103 0.973834 -0.008445
vn -0.008152 0.996820 0.079272
vn 0.111903 0.915511 -0.386416
vn -0.117957 0.885008 -0.450385
vn -0.177365 0.955468 -0.235844
# 32 normals

g Regroup09
usemtl Material02
s 1
f 1/1/1 2/2/2 3/1/2
f 2/2/2 4/2/2 3/1/2
s 2
f 3/1/1 4/2/3 5/1/3
f 4/2/3 6/3/3 5/1/3
s 1
f 5/1/1 6/3/4 7/1/4
f 6/3/4 8/3/4 7/1/4
s 2
f 7/1/1 8/3/5 1/1/5
f 8/3/5 2/2/5 1/1/5
s 3
f 7/1/1 1/1/1 5/1/1
f 1/1/1 3/1/1 5/1/1
f 2/2/6 8/3/6 4/2/6
f 8/3/6 6/3/6 4/2/6
s 1
f 9/1/1 10/2/7 11/1/7
f 10/2/7 12/2/7 11/1/7
s 2
f 11/1/1 12/2/8 13/1/8
f 12/2/8 14/3/8 13/1/8
s 1
f 13/1/1 14/3/9 15/1/9
f 14/3/9 16/3/9 15/1/9
s 2
f 15/1/1 16/3/10 9/1/10
f 16/3/10 10/2/10 9/1/10
s 3
f 15/1/1 9/1/1 13/1/1
f 9/1/1 11/1/1 13/1/1
f 10/2/6 16/3/6 12/2/6
f 16/3/6 14/3/6 12/2/6
s 1
f 17/1/1 18/2/2 19/1/2
f 18/2/2 20/2/2 19/1/2
s 2
f 19/1/1 20/2/3 21/1/3
f 20/2/3 22/3/3 21/1/3
s 1
f 21/1/1 22/3/4 23/1/4
f 22/3/4 24/3/4 23/1/4
s 2
f 23/1/1 24/3/5 17/1/5
f 24/3/5 18/2/5 17/1/5
s 3
f 23/1/1 17/1/1 21/1/1
f 17/1/1 19/1/1 21/1/1
f 18/2/6 24/3/6 20/2/6
f 24/3/6 22/3/6 20/2/6
s 1
f 25/1/1 26/2/11 27/1/11
f 26/2/11 28/2/11 27/1/11
s 2
f 27/1/1 28/2/12 29/1/12
f 28/2/12 30/3/12 29/1/12
s 1
f 29/1/1 30/3/13 31/1/13
f 30/3/13 32/3/13 31/1/13
s 2
f 31/1/1 32/3/14 25/1/14
f 32/3/14 26/2/14 25/1/14
s 3
f 31/1/1 25/1/1 29/1/1
f 25/1/1 27/1/1 29/1/1
f 26/2/6 32/3/6 28/2/6
f 32/3/6 30/3/6 28/2/6
# 48 triangles in group

g Regroup10
usemtl Material01
s 1
f 33/4/15 36/5/16 37/6/17
f 33/4/15 37/6/17 34/7/18
f 37/6/17 38/8/19 35/9/20
f 37/6/17 35/9/20 34/7/18
f 39/10/21 40/11/22 37/6/17
f 39/10/21 37/6/17 36/5/16
f 37/6/17 40/11/22 41/12/23
f 37/6/17 41/12/23 38/8/19
f 42/13/15 45/14/16 46/15/17
f 42/13/15 46/15/17 43/16/18
f 46/15/17 47/17/19 44/18/20
f 46/15/17 44/18/20 43/16/18
f 48/19/21 49/20/22 46/15/17
f 48/19/21 46/15/17 45/14/16
f 46/15/17 49/20/22 50/21/23
f 46/15/17 50/21/23 47/17/19
f 51/22/15 54/23/16 55/24/17
f 51/22/15 55/24/17 52/25/18
f 55/24/17 56/26/19 53/27/20
f 55/24/17 53/27/20 52/25/18
f 57/28/21 58/29/22 55/24/17
f 57/28/21 55/24/17 54/23/16
f 55/24/17 58/29/22 59/30/23
f 55/24/17 59/30/23 56/26/19
f 60/31/24 63/32/25 64/33/26
f 60/31/24 64/33/26 61/34/27
f 64/33/26 65/35/28 62/36/29
f 64/33/26 62/36/29 61/34/27
f 66/37/30 67/38/31 64/33/26
f 66/37/30 64/33/26 63/32/25
f 64/33/26 67/38/31 68/39/32
f 64/33/26 68/39/32 65/35/28
# 32 triangles in group

# 80 triangles total

