# Wavefront OBJ exported by MilkShape 3D

mtllib Horse Head.mtl

v -3.606097 10.185643 11.892906
v -6.965842 4.780520 12.864422
v 2.524310 12.717375 11.229561
v -1.038602 6.035703 12.657864
v 2.524310 12.750591 -11.955479
v -1.038602 6.018065 -13.311213
v -3.606097 10.195231 -12.585102
v -6.965842 4.755453 -13.507229
v -9.670498 -13.650723 7.769847
v -10.884637 -15.777178 7.719556
v -7.455101 -12.560867 7.674738
v -8.742661 -15.291948 7.742085
v -7.455101 -12.573983 -8.342966
v -8.742661 -15.285551 -8.426971
v -9.670498 -13.651563 -8.441570
v -10.884637 -15.769575 -8.408951
v 14.027527 34.175068 -0.230952
v 0.498841 25.242702 0.548779
v 14.027527 34.175068 -0.230952
v 9.913353 15.421280 0.548779
v 14.027527 34.175068 -0.230952
v 9.913353 15.421280 -1.010683
v 14.027527 34.175068 -0.230952
v 0.498841 25.242702 -1.010683
v 22.681217 30.021389 -0.230952
v 9.998838 18.978642 0.548779
v 22.681217 30.021389 -0.230952
v 14.391699 7.992707 0.548779
v 22.681217 30.021389 -0.230952
v 14.391699 7.992707 -1.010683
v 22.681217 30.021389 -0.230952
v 9.998838 18.978642 -1.010683
v 32.576187 17.729191 -0.230952
v 11.753209 15.665826 0.548779
v 32.576187 17.729191 -0.230952
v 15.704521 2.889932 0.548779
v 32.576187 17.729191 -0.230952
v 15.704521 2.889932 -1.010683
v 32.576187 17.729191 -0.230952
v 11.753209 15.665826 -1.010683
v 36.581985 10.405396 -0.230952
v 15.856928 9.066836 0.548779
v 36.581985 10.405396 -0.230952
v 12.874939 0.707942 0.548779
v 36.581985 10.405396 -0.230952
v 12.874939 0.707942 -1.010683
v 36.581985 10.405396 -0.230952
v 15.856928 9.066836 -1.010683
v 36.504768 4.014904 -0.230952
v 14.824640 4.808683 0.548779
v 36.504768 4.014904 -0.230952
v 19.347382 -2.895781 0.548779
v 36.504768 4.014904 -0.230952
v 19.347382 -2.895781 -1.010683
v 36.504768 4.014904 -0.230952
v 14.824640 4.808683 -1.010683
v 39.224838 -4.880319 -0.230952
v 18.499792 -0.647448 0.548779
v 39.224838 -4.880319 -0.230952
v 18.517801 -7.577771 0.548779
v 39.224838 -4.880319 -0.230952
v 18.517801 -7.577771 -1.010683
v 39.224838 -4.880319 -0.230952
v 18.499792 -0.647448 -1.010683
v 15.938236 1.158262 -7.897619
v 11.604862 -1.174990 -7.897619
v 27.938244 -11.508362 -7.897619
v 23.938234 -15.958954 -11.984247
v 43.271584 -23.508406 -7.897619
v 37.271584 -25.498041 -11.984247
v 21.604952 -27.094780 -11.984247
v 20.604862 -23.300573 -11.984247
v 17.271614 -34.175068 -4.047449
v 12.938236 -18.856125 -11.984247
v 3.938236 -16.174988 -4.047449
v 13.271610 -12.008331 -11.984247
v 2.604897 -3.175071 -4.047449
v -16.338228 -18.322823 -1.343897
v -13.838228 2.721588 -3.385905
v -5.338228 19.363907 -3.385905
v 1.161772 26.454803 -7.214274
v 11.161779 21.954803 -7.214274
v 17.161772 1.954803 -7.214274
v 0.661772 -10.545197 -7.214274
v -2.338228 -19.045197 -6.516093
v -12.338228 -22.145844 -2.798098
v 1.161802 26.454758 6.785726
v -5.338198 19.363861 2.710180
v 0.161802 20.242508 9.211752
v 6.161802 20.242508 9.211752
v 11.161810 21.954758 6.785726
v 11.495062 3.082588 12.176619
v 17.161802 1.954758 6.785726
v 0.661802 -10.545242 6.785726
v 0.161802 -5.480591 10.781698
v -5.171572 -13.928932 7.399465
v -2.338198 -19.045242 5.384367
v -11.171572 -18.037453 7.641820
v -12.338198 -22.145897 2.432493
v -16.338198 -18.322876 0.716543
v -12.504946 -13.928932 7.399465
v -5.504946 -5.892685 7.952314
v 1.828428 7.788132 13.393774
v -13.838198 2.721550 2.710180
v -8.171572 1.762550 12.176619
v 1.161802 26.421432 -7.247607
v -5.338198 19.332169 -3.400424
v 0.161802 20.209518 -9.673632
v 6.161802 20.209518 -9.673632
v 11.161810 21.921432 -7.247607
v 11.495062 3.049599 -12.638491
v 17.161802 1.921432 -7.247607
v 0.661802 -10.578568 -7.247607
v 0.161802 -5.516281 -11.243570
v -5.171572 -13.928932 -7.861346
v -2.338198 -19.078568 -6.544428
v -11.171572 -18.070450 -8.103693
v -12.338198 -22.177269 -2.810549
v -16.338198 -18.354248 -1.348795
v -12.504946 -13.928932 -7.861346
v -5.504946 -5.928726 -8.414194
v 1.828428 7.754807 -13.855677
v -13.838198 2.689850 -3.400424
v -8.171572 1.729553 -12.638491
v -1.027466 31.754807 -7.010688
v -2.105064 21.978245 -4.961568
v -1.027466 31.754807 -7.010688
v 3.293884 22.885948 -5.444199
v -1.027466 31.754807 -7.010688
v 3.293884 20.819950 -9.329754
v -1.027466 31.754807 -7.010688
v -2.105064 19.912258 -8.847122
v -1.027466 32.504807 6.576561
v -2.105064 21.978245 3.832996
v -1.027466 32.504807 6.576561
v 3.293884 22.885948 4.315628
v -1.027466 32.504807 6.576561
v 3.293884 20.819950 8.201183
v -1.027466 32.504807 6.576561
v -2.105064 19.912258 7.718551
v 3.938244 -16.175041 -4.047448
v 17.271584 -34.175041 -4.047448
v 15.938244 1.158293 -7.897619
v 27.938244 -11.508377 -7.897619
v 43.271584 -23.508375 -7.897619
v 2.604904 -3.175040 -4.047448
v 15.938236 1.158262 8.435713
v 11.604862 -1.174990 8.435713
v 27.938244 -11.508362 8.435713
v 23.938234 -15.958954 13.855677
v 43.271584 -23.508406 8.435713
v 37.271584 -25.498041 13.855677
v 21.604952 -27.094780 13.855677
v 20.604862 -23.300573 13.855677
v 17.271614 -34.175068 4.735369
v 12.938236 -18.856125 13.855677
v 3.938236 -16.174988 4.735369
v 13.271610 -12.008331 13.855677
v 2.604897 -3.175071 4.735369
v -4.373980 19.726074 -0.564286
v -4.373980 19.726074 -0.564286
v -43.271584 31.684345 -0.564286
v -5.135730 18.351828 2.039058
v -5.135730 18.351828 2.039058
v -43.271584 31.684345 -0.564286
v -6.659235 15.603346 2.039058
v -6.659235 15.603346 2.039058
v -43.271584 31.684345 -0.564286
v -7.420994 14.229106 -0.564286
v -7.420994 14.229106 -0.564286
v -43.271584 31.684345 -0.564286
v -6.659235 15.603346 -3.167629
v -6.659235 15.603346 -3.167629
v -43.271584 31.684345 -0.564286
v -5.135730 18.351828 -3.167629
v -5.135730 18.351828 -3.167629
v -43.271584 31.684345 -0.564286
v -43.271584 31.684345 -0.564286
v -5.897490 16.977579 -0.564286
# 179 vertices

vt 0.696758 0.508089
vt 0.669229 0.453207
vt 0.746989 0.533795
vt 0.717796 0.465952
vt 0.673882 0.560063
vt 0.641506 0.531468
vt 0.664036 0.500027
vt 0.694591 0.546766
vt 0.664241 0.511415
vt 0.674753 0.476246
vt 0.718271 0.507415
vt 0.668439 0.500810
vt 0.677895 0.459911
vt 0.727858 0.483970
vt 0.678260 0.479685
vt 0.671124 0.452926
vt 0.727673 0.463512
vt 0.675789 0.466053
vt 0.686613 0.441389
vt 0.734183 0.435036
vt 0.684585 0.448587
vt 0.684628 0.426401
vt 0.847449 0.489003
vt 0.832440 0.503088
vt 0.836422 0.506268
vt 0.843774 0.482937
vt 0.861540 0.472646
vt 0.856026 0.469935
vt 0.840710 0.472930
vt 0.841630 0.467758
vt 0.837647 0.458108
vt 0.833665 0.478988
vt 0.825395 0.482642
vt 0.833972 0.488322
vt 0.824170 0.500362
vt 0.822844 0.540749
vt 0.816871 0.531083
vt 0.821925 0.532281
vt 0.827438 0.532281
vt 0.832033 0.534615
vt 0.832339 0.508891
vt 0.837547 0.507354
vt 0.822384 0.490316
vt 0.821925 0.497219
vt 0.817024 0.485704
vt 0.819627 0.478730
vt 0.811510 0.480104
vt 0.810438 0.474504
vt 0.806762 0.479715
vt 0.810285 0.485704
vt 0.816717 0.496657
vt 0.823456 0.515305
vt 0.809060 0.508399
vt 0.814267 0.507092
vt 0.820832 0.547973
vt 0.819842 0.534647
vt 0.824803 0.535884
vt 0.824803 0.533068
vt 0.819842 0.531831
vt 0.820832 0.548995
vt 0.723948 0.120920
vt 0.721200 0.110306
vt 0.718453 0.099692
vt 0.661798 0.166938
vt 0.715705 0.089079
vt 0.712958 0.078465
# 66 texture coordinates

vn 0.045150 0.149470 0.987735
vn 0.016856 0.182345 0.983090
vn -0.011470 0.214873 0.976575
vn 0.882328 -0.470634 -0.000674
vn 0.883083 -0.469216 -0.000178
vn 0.883836 -0.467797 0.000318
vn 0.023655 0.185308 -0.982396
vn 0.010104 0.177276 -0.984109
vn -0.003450 0.169201 -0.985576
vn -0.850822 0.525454 0.000206
vn -0.850082 0.526651 -0.000148
vn -0.849339 0.527847 -0.000502
vn -0.384778 0.923009 0.000362
vn -0.383183 0.923672 0.000843
vn -0.381587 0.924332 0.001324
vn 0.207202 -0.978298 0.000930
vn 0.208323 -0.978060 0.000664
vn 0.075493 -0.066634 0.994917
vn 0.028806 -0.016789 0.999444
vn -0.018017 0.033136 0.999288
vn 0.904523 -0.426426 0.000349
vn 0.903930 -0.427680 0.000090
vn 0.903336 -0.428934 -0.000170
vn 0.038250 0.012793 -0.999186
vn 0.016297 0.000321 -0.999867
vn -0.005666 -0.012151 -0.999910
vn -0.867564 0.497326 -0.000026
vn -0.868417 0.495834 0.000234
vn -0.437405 0.899265 -0.000047
vn -0.439428 0.898278 -0.000391
vn -0.441448 0.897286 -0.000735
vn 0.220940 -0.975287 -0.000460
vn 0.000000 0.000000 0.000000
vn 0.035254 0.033794 0.998807
vn 0.976772 -0.214283 0.000000
vn 0.035254 0.033794 -0.998807
vn -0.550990 0.834512 0.000000
vn -0.721903 -0.691994 0.000000
vn 0.045549 0.018213 0.998796
vn 0.935927 -0.352195 0.000000
vn 0.045549 0.018213 -0.998796
vn -0.656673 0.754176 0.000000
vn -0.928521 -0.371280 0.000000
vn 0.036306 0.011229 0.999278
vn 0.660432 -0.750886 0.000000
vn 0.036306 0.011229 -0.999278
vn -0.098608 0.995126 0.000000
vn -0.955352 -0.295470 0.000000
vn 0.038478 -0.013727 0.999165
vn 0.378603 -0.925559 0.000000
vn 0.038478 -0.013727 -0.999165
vn -0.064452 0.997921 0.000000
vn -0.941861 0.336004 0.000000
vn 0.036722 0.021557 0.999093
vn 0.373614 -0.927584 0.000000
vn 0.036722 0.021557 -0.999093
vn 0.036589 0.999330 0.000000
vn -0.862389 -0.506247 0.000000
vn 0.037616 0.000098 0.999292
vn 0.129176 -0.991622 0.000000
vn 0.037616 0.000098 -0.999292
vn 0.200108 0.979774 0.000000
vn -0.999997 -0.002599 0.000000
vn 0.226627 0.321600 -0.919355
vn 0.003341 0.294038 -0.955788
vn 0.000000 0.000000 -1.000000
vn 0.167509 0.210733 -0.963085
vn 0.232495 0.436123 -0.869335
vn 0.061364 0.465414 -0.882963
vn -0.155302 0.006920 -0.987843
vn -0.430974 -0.113598 -0.895185
vn -0.594647 -0.412556 -0.690067
vn -0.352511 -0.210501 -0.911825
vn -0.666530 -0.177915 -0.723936
vn -0.340519 0.128654 -0.931394
vn -0.539364 0.099949 -0.836120
vn -0.189942 0.452973 0.871055
vn -0.744657 0.384753 0.545391
vn -0.375222 0.370207 0.849797
vn 0.164284 0.343101 0.924820
vn 0.437925 0.337769 0.833147
vn 0.392462 -0.125612 0.911150
vn 0.646612 -0.229049 0.727619
vn 0.366786 -0.503197 0.782471
vn -0.005888 -0.382711 0.923849
vn 0.071456 -0.199839 0.977220
vn 0.180690 -0.450176 0.874467
vn -0.282765 -0.400035 0.871789
vn -0.343542 -0.698465 0.627795
vn -0.807923 -0.219939 0.546706
vn -0.449789 0.014287 0.893021
vn -0.418775 -0.211644 0.883082
vn -0.003840 0.091184 0.995827
vn -0.768155 0.053274 0.638044
vn -0.571688 -0.029385 0.819945
vn -0.425414 0.904999 0.000006
vn 0.033418 0.999442 0.000003
vn -0.794703 0.606998 0.000007
vn -0.846257 0.532775 0.000008
vn 0.644286 0.764784 0.000001
vn 0.842606 0.538531 -0.000000
vn 0.996127 -0.087928 -0.000002
vn 0.856180 -0.516678 -0.000004
vn 0.744779 -0.667312 -0.000004
vn 0.862218 -0.506537 -0.000004
vn 0.802786 -0.596268 -0.000004
vn 0.564821 -0.825214 -0.000007
vn -0.037428 -0.999299 -0.000007
vn -0.412029 -0.911171 -0.000009
vn -0.872829 -0.488026 0.000002
vn -0.983853 -0.178979 0.000006
vn -0.937725 0.347377 0.000007
vn -0.972356 0.233501 0.000010
vn -0.369934 0.369299 -0.852507
vn -0.736596 0.384231 -0.556590
vn -0.185380 0.452469 -0.872300
vn 0.164289 0.343110 -0.924816
vn 0.437937 0.337781 -0.833136
vn 0.392513 -0.125623 -0.911127
vn 0.646607 -0.229039 -0.727626
vn 0.356727 -0.484740 -0.798607
vn -0.006293 -0.382864 -0.923783
vn 0.051237 -0.167305 -0.984573
vn 0.127075 -0.392875 -0.910770
vn -0.300478 -0.379483 -0.875046
vn -0.356002 -0.698690 -0.620560
vn -0.800058 -0.226295 -0.555606
vn -0.443181 0.012252 -0.896349
vn -0.414447 -0.213913 -0.884576
vn -0.003841 0.091194 -0.995826
vn -0.566503 -0.030514 -0.823495
vn -0.760694 0.048601 -0.647289
vn 0.053990 0.199135 0.978484
vn 0.892826 0.397681 -0.211452
vn -0.114914 0.162427 -0.980006
vn -0.993751 0.098551 -0.052400
vn 0.187053 -0.867363 0.461185
vn 0.044880 0.247648 -0.967810
vn 0.911139 0.363861 0.193470
vn -0.105059 0.098731 0.989553
vn -0.994855 0.089447 0.047560
vn 0.187052 -0.867363 -0.461186
vn 0.000000 0.000000 1.000000
vn 0.029876 0.373464 0.927164
vn 0.275224 0.390529 0.878486
vn 0.208923 0.258760 0.943077
vn 0.288468 0.495873 0.819082
vn -0.162279 0.003384 0.986739
vn 0.068338 0.518309 0.852458
vn -0.459046 -0.120997 0.880134
vn -0.628394 -0.440539 0.641129
vn -0.382033 -0.228466 0.895463
vn -0.713246 -0.186606 0.675617
vn -0.362312 0.172344 0.915984
vn -0.570075 0.146327 0.808457
vn 0.691094 0.722765 0.000000
vn 0.654457 0.756100 0.000000
vn 0.725952 0.687745 0.000000
vn 0.616309 0.787505 0.000000
vn -0.895589 -0.444882 0.000001
vn -0.961410 -0.275120 0.000001
vn -0.803557 -0.595227 0.000002
vn -0.994781 -0.102030 -0.000001
vn 0.874621 -0.484808 0.000000
vn 0.293856 0.955850 0.000000
vn 0.112431 0.490348 0.864244
vn -0.248406 -0.424612 0.870632
vn -0.437758 -0.899093 0.000000
vn -0.248406 -0.424612 -0.870632
vn 0.112431 0.490348 -0.864244
# 170 normals

g Regroup18
usemtl Material01
s 1
f 1/1/1 2/2/2 3/3/2
f 2/2/2 4/4/3 3/3/2
s 2
f 3/3/4 4/4/5 5/3/5
f 4/4/5 6/4/6 5/3/5
s 1
f 5/3/7 6/4/8 7/1/8
f 6/4/8 8/2/9 7/1/8
s 2
f 7/1/10 8/2/11 1/1/11
f 8/2/11 2/2/12 1/1/11
s 3
f 7/1/13 1/1/14 5/3/14
f 1/1/14 3/3/15 5/3/14
f 2/2/16 8/2/16 4/4/16
f 8/2/16 6/4/17 4/4/16
s 1
f 9/1/18 10/2/19 11/3/19
f 10/2/19 12/4/20 11/3/19
s 2
f 11/3/21 12/4/22 13/3/22
f 12/4/22 14/4/23 13/3/22
s 1
f 13/3/24 14/4/25 15/1/25
f 14/4/25 16/2/26 15/1/25
s 2
f 15/1/27 16/2/27 9/1/27
f 16/2/27 10/2/28 9/1/27
s 3
f 15/1/29 9/1/30 13/3/30
f 9/1/30 11/3/31 13/3/30
f 10/2/32 16/2/32 12/4/32
f 16/2/32 14/4/32 12/4/32
s 1
f 17/5/33 18/6/34 19/5/34
f 18/6/34 20/7/34 19/5/34
s 2
f 19/5/33 20/7/35 21/5/35
f 20/7/35 22/7/35 21/5/35
s 1
f 21/5/33 22/7/36 23/5/36
f 22/7/36 24/6/36 23/5/36
s 2
f 23/5/33 24/6/37 17/5/37
f 24/6/37 18/6/37 17/5/37
s 3
f 23/5/33 17/5/33 21/5/33
f 17/5/33 19/5/33 21/5/33
f 18/6/38 24/6/38 20/7/38
f 24/6/38 22/7/38 20/7/38
s 1
f 25/8/33 26/9/39 27/8/39
f 26/9/39 28/10/39 27/8/39
s 2
f 27/8/33 28/10/40 29/8/40
f 28/10/40 30/10/40 29/8/40
s 1
f 29/8/33 30/10/41 31/8/41
f 30/10/41 32/9/41 31/8/41
s 2
f 31/8/33 32/9/42 25/8/42
f 32/9/42 26/9/42 25/8/42
s 3
f 31/8/33 25/8/33 29/8/33
f 25/8/33 27/8/33 29/8/33
f 26/9/43 32/9/43 28/10/43
f 32/9/43 30/10/43 28/10/43
s 1
f 33/11/33 34/12/44 35/11/44
f 34/12/44 36/13/44 35/11/44
s 2
f 35/11/33 36/13/45 37/11/45
f 36/13/45 38/13/45 37/11/45
s 1
f 37/11/33 38/13/46 39/11/46
f 38/13/46 40/12/46 39/11/46
s 2
f 39/11/33 40/12/47 33/11/47
f 40/12/47 34/12/47 33/11/47
s 3
f 39/11/33 33/11/33 37/11/33
f 33/11/33 35/11/33 37/11/33
f 34/12/48 40/12/48 36/13/48
f 40/12/48 38/13/48 36/13/48
s 1
f 41/14/33 42/15/49 43/14/49
f 42/15/49 44/16/49 43/14/49
s 2
f 43/14/33 44/16/50 45/14/50
f 44/16/50 46/16/50 45/14/50
s 1
f 45/14/33 46/16/51 47/14/51
f 46/16/51 48/15/51 47/14/51
s 2
f 47/14/33 48/15/52 41/14/52
f 48/15/52 42/15/52 41/14/52
s 3
f 47/14/33 41/14/33 45/14/33
f 41/14/33 43/14/33 45/14/33
f 42/15/53 48/15/53 44/16/53
f 48/15/53 46/16/53 44/16/53
s 1
f 49/17/33 50/18/54 51/17/54
f 50/18/54 52/19/54 51/17/54
s 2
f 51/17/33 52/19/55 53/17/55
f 52/19/55 54/19/55 53/17/55
s 1
f 53/17/33 54/19/56 55/17/56
f 54/19/56 56/18/56 55/17/56
s 2
f 55/17/33 56/18/57 49/17/57
f 56/18/57 50/18/57 49/17/57
s 3
f 55/17/33 49/17/33 53/17/33
f 49/17/33 51/17/33 53/17/33
f 50/18/58 56/18/58 52/19/58
f 56/18/58 54/19/58 52/19/58
s 1
f 57/20/33 58/21/59 59/20/59
f 58/21/59 60/22/59 59/20/59
s 2
f 59/20/33 60/22/60 61/20/60
f 60/22/60 62/22/60 61/20/60
s 1
f 61/20/33 62/22/61 63/20/61
f 62/22/61 64/21/61 63/20/61
s 2
f 63/20/33 64/21/62 57/20/62
f 64/21/62 58/21/62 57/20/62
s 3
f 63/20/33 57/20/33 61/20/33
f 57/20/33 59/20/33 61/20/33
f 58/21/63 64/21/63 60/22/63
f 64/21/63 62/22/63 60/22/63
s 1
f 67/23/64 66/24/65 65/25/66
f 68/26/67 66/24/65 67/23/64
f 69/27/68 68/26/67 67/23/64
f 70/28/69 72/29/70 69/27/68
f 70/28/69 71/30/71 72/29/70
f 71/30/71 73/31/72 72/29/70
f 69/27/68 72/29/70 68/26/67
f 72/29/70 74/32/73 68/26/67
f 72/29/70 73/31/72 74/32/73
f 73/31/72 75/33/74 74/32/73
f 68/26/67 74/32/73 76/34/75
f 74/32/73 75/33/74 76/34/75
f 68/26/67 76/34/75 66/24/65
f 76/34/75 77/35/76 66/24/65
f 76/34/75 75/33/74 77/35/76
f 87/36/77 88/37/78 89/38/79
f 87/36/77 89/38/79 90/39/80
f 91/40/81 87/36/77 90/39/80
f 91/40/81 90/39/80 92/41/82
f 91/40/81 92/41/82 93/42/83
f 92/41/82 94/43/84 93/42/83
f 92/41/82 95/44/85 94/43/84
f 95/44/85 96/45/86 94/43/84
f 94/43/84 96/45/86 97/46/87
f 96/45/86 98/47/88 97/46/87
f 97/46/87 98/47/88 99/48/89
f 98/47/88 100/49/90 99/48/89
f 101/50/91 100/49/90 98/47/88
f 96/45/86 101/50/91 98/47/88
f 102/51/92 101/50/91 96/45/86
f 95/44/85 102/51/92 96/45/86
f 92/41/82 103/52/93 95/44/85
f 90/39/80 103/52/93 92/41/82
f 90/39/80 89/38/79 103/52/93
f 88/37/78 104/53/94 105/54/95
f 105/54/95 104/53/94 102/51/92
f 104/53/94 101/50/91 102/51/92
f 104/53/94 100/49/90 101/50/91
f 103/52/93 105/54/95 95/44/85
f 105/54/95 102/51/92 102/51/92
f 95/44/85 105/54/95 102/51/92
f 89/38/79 105/54/95 103/52/93
f 89/38/79 88/37/78 105/54/95
s 2
f 87/36/96 81/36/97 80/37/98
f 87/36/96 80/37/98 88/37/99
f 91/40/100 82/40/101 81/36/97
f 91/40/100 81/36/97 87/36/96
f 93/42/102 83/42/103 82/40/101
f 93/42/102 82/40/101 91/40/100
f 94/43/104 84/43/105 83/42/103
f 94/43/104 83/42/103 93/42/102
f 97/46/106 85/46/107 84/43/105
f 97/46/106 84/43/105 94/43/104
f 99/48/108 86/48/109 85/46/107
f 99/48/108 85/46/107 97/46/106
f 100/49/110 78/49/111 86/48/109
f 100/49/110 86/48/109 99/48/108
f 88/37/99 80/37/98 79/53/112
f 88/37/99 79/53/112 104/53/113
f 104/53/113 79/53/112 78/49/111
f 104/53/113 78/49/111 100/49/110
s 1
f 108/38/114 107/37/115 106/36/116
f 109/39/117 108/38/114 106/36/116
f 109/39/117 106/36/116 110/40/118
f 111/41/119 109/39/117 110/40/118
f 112/42/120 111/41/119 110/40/118
f 112/42/120 113/43/121 111/41/119
f 113/43/121 114/44/122 111/41/119
f 113/43/121 115/45/123 114/44/122
f 116/46/124 115/45/123 113/43/121
f 116/46/124 117/47/125 115/45/123
f 118/48/126 117/47/125 116/46/124
f 118/48/126 119/49/127 117/47/125
f 117/47/125 119/49/127 120/50/128
f 117/47/125 120/50/128 115/45/123
f 115/45/123 120/50/128 121/51/129
f 115/45/123 121/51/129 114/44/122
f 114/44/122 122/52/130 111/41/119
f 111/41/119 122/52/130 109/39/117
f 122/52/130 108/38/114 109/39/117
f 124/54/131 123/53/132 107/37/115
f 121/51/129 123/53/132 124/54/131
f 121/51/129 120/50/128 123/53/132
f 120/50/128 119/49/127 123/53/132
f 114/44/122 124/54/131 122/52/130
f 121/51/129 121/51/129 124/54/131
f 121/51/129 124/54/131 114/44/122
f 122/52/130 124/54/131 108/38/114
f 124/54/131 107/37/115 108/38/114
f 125/55/33 126/56/133 127/55/133
f 126/56/133 128/57/133 127/55/133
s 2
f 127/55/33 128/57/134 129/55/134
f 128/57/134 130/58/134 129/55/134
s 1
f 129/55/33 130/58/135 131/55/135
f 130/58/135 132/59/135 131/55/135
s 2
f 131/55/33 132/59/136 125/55/136
f 132/59/136 126/56/136 125/55/136
s 3
f 131/55/33 125/55/33 129/55/33
f 125/55/33 127/55/33 129/55/33
f 126/56/137 132/59/137 128/57/137
f 132/59/137 130/58/137 128/57/137
s 1
f 135/60/138 134/56/138 133/60/33
f 135/60/138 136/57/138 134/56/138
s 2
f 137/60/139 136/57/139 135/60/33
f 137/60/139 138/58/139 136/57/139
s 1
f 139/60/140 138/58/140 137/60/33
f 139/60/140 140/59/140 138/58/140
s 2
f 133/60/141 140/59/141 139/60/33
f 133/60/141 134/56/141 140/59/141
s 3
f 137/60/33 133/60/33 139/60/33
f 137/60/33 135/60/33 133/60/33
f 136/57/142 140/59/142 134/56/142
f 136/57/142 138/58/142 140/59/142
s 1
f 147/25/143 148/24/144 149/23/145
f 149/23/145 148/24/144 150/26/146
f 149/23/145 150/26/146 151/27/147
f 151/27/147 154/29/148 152/28/149
f 154/29/148 153/30/150 152/28/149
f 154/29/148 155/31/151 153/30/150
f 150/26/146 154/29/148 151/27/147
f 150/26/146 156/32/152 154/29/148
f 156/32/152 155/31/151 154/29/148
f 156/32/152 157/33/153 155/31/151
f 158/34/154 156/32/152 150/26/146
f 158/34/154 157/33/153 156/32/152
f 148/24/144 158/34/154 150/26/146
f 148/24/144 159/35/155 158/34/154
f 159/35/155 157/33/153 158/34/154
s 2
f 149/23/156 144/23/157 143/25/158
f 149/23/156 143/25/158 147/25/158
f 151/27/159 145/27/159 144/23/157
f 151/27/159 144/23/157 149/23/156
f 157/33/160 141/33/161 142/31/162
f 157/33/160 142/31/162 155/31/162
f 159/35/163 146/35/163 141/33/161
f 159/35/163 141/33/161 157/33/160
f 160/61/164 163/62/164 179/63/164
f 162/64/33 178/64/33 165/64/33
s 1
f 161/61/165 162/64/165 164/62/166
f 162/64/165 165/64/33 164/62/166
s 2
f 163/62/164 166/65/164 179/63/164
f 165/64/33 178/64/33 168/64/33
s 1
f 164/62/166 165/64/33 168/64/167
f 164/62/166 168/64/167 167/65/167
s 2
f 166/65/164 169/66/164 179/63/164
f 168/64/33 178/64/33 171/64/33
s 1
f 167/65/167 168/64/167 170/66/168
f 168/64/167 171/64/33 170/66/168
s 2
f 169/66/164 172/65/164 179/63/164
f 171/64/33 178/64/33 174/64/33
s 1
f 170/66/168 171/64/33 174/64/169
f 170/66/168 174/64/169 173/65/169
s 2
f 172/65/164 175/62/164 179/63/164
f 174/64/33 178/64/33 177/64/33
s 1
f 173/65/169 174/64/169 176/62/170
f 174/64/169 177/64/33 176/62/170
s 2
f 175/62/164 160/61/164 179/63/164
f 177/64/33 178/64/33 162/64/33
s 1
f 176/62/170 177/64/33 162/64/165
f 176/62/170 162/64/165 161/61/165
# 256 triangles in group

# 256 triangles total

