# Wavefront OBJ exported by MilkShape 3D

mtllib House1.mtl

v -8.706078 8.559231 3.206651
v -10.237676 6.013428 4.320783
v 0.246715 8.559231 3.206651
v 1.778311 6.013428 4.320783
v 0.246715 8.559231 -0.683505
v 1.778311 6.013428 -1.797637
v -8.706078 8.559231 -0.683505
v -10.237676 6.013428 -1.797637
v -8.365264 9.105034 2.926048
v -8.365264 8.559231 2.926048
v -0.049275 9.105034 2.926048
v -0.049275 8.559231 2.926048
v -0.049275 9.105034 -0.376584
v -0.049275 8.559231 -0.376584
v -8.365264 9.105034 -0.376584
v -8.365264 8.559231 -0.376584
v -1.710000 4.148982 4.386574
v -1.710000 0.220954 4.386574
v 1.778311 4.148982 4.386574
v 1.748334 0.220954 4.386574
v 1.778311 4.148982 -1.863426
v 1.748334 0.220954 -1.863426
v -1.710000 4.148982 -1.863426
v -1.710000 0.220954 -1.863426
v -6.084077 2.103241 4.386574
v -6.084077 0.220954 4.386574
v -1.710000 2.103241 4.386574
v -1.710000 0.220954 4.386574
v -1.710000 2.103241 -1.863426
v -1.710000 0.220954 -1.863426
v -6.084077 2.103241 -1.863426
v -6.084077 0.220954 -1.863426
v -6.084077 4.148982 4.386574
v -6.084077 2.103241 4.386574
v -3.671666 4.148982 4.386574
v -3.671666 2.103241 4.386574
v -3.671666 4.148982 -1.863426
v -3.671666 2.103241 -1.863426
v -6.084077 4.148982 -1.863426
v -6.084077 2.103241 -1.863426
v -6.084077 5.482765 4.386574
v -6.084077 4.148982 4.386574
v 1.778311 5.482765 4.386574
v 1.778311 4.148982 4.386574
v 1.778311 5.482765 -1.863426
v 1.778311 4.148982 -1.863426
v -6.084077 5.482765 -1.863426
v -6.084077 4.148982 -1.863426
v -10.237676 5.482765 4.386574
v -10.238888 0.220954 4.386574
v -7.833450 5.482765 4.386574
v -7.833450 0.220954 4.386574
v -7.833450 5.482765 -1.863426
v -7.833450 0.220954 -1.863426
v -10.237676 5.482765 -1.863426
v -10.238888 0.220954 -1.863426
v -7.833450 5.482765 4.386574
v -7.833450 3.692131 4.386574
v -6.084077 5.482765 4.386574
v -6.084077 3.692131 4.386574
v -6.084077 5.482765 -1.863426
v -6.084077 3.692131 -1.863426
v -7.833450 5.482765 -1.863426
v -7.833450 3.692131 -1.863426
v -8.197144 4.161909 4.980177
v -8.197144 3.792298 4.980177
v -5.732858 4.161909 4.980177
v -5.732858 3.792298 4.980177
v -5.732858 4.161909 -2.436842
v -5.732858 3.792298 -2.436842
v -8.197144 4.161909 -2.436842
v -8.197144 3.792298 -2.436842
v -10.237675 6.013428 4.636574
v -10.237676 5.482765 4.636574
v 1.778311 6.013428 4.636574
v 1.778311 5.482765 4.636574
v 1.778311 6.013428 -2.113426
v 1.778311 5.482765 -2.113426
v -10.237675 6.013428 -2.113426
v -10.237676 5.482765 -2.113426
v -8.197144 3.792298 4.980177
v -8.197144 0.220954 4.980177
v -7.833450 3.792298 4.980177
v -7.833450 0.220954 4.980177
v -7.833450 3.792298 -2.383798
v -7.833450 0.220954 -2.383798
v -8.197144 3.792298 -2.383798
v -8.197144 0.220954 -2.383798
v -6.084077 3.792298 4.980177
v -6.084077 0.220954 4.980177
v -5.732858 3.792298 4.980177
v -5.732858 0.220954 4.980177
v -5.732858 3.792298 -2.383798
v -5.732858 0.220954 -2.383798
v -6.084077 3.792298 -2.383798
v -6.084077 0.220954 -2.383798
# 96 vertices

vt 0.250603 0.941298
vt 0.233824 0.830822
vt 0.350164 0.941298
vt 0.367189 0.830822
vt 0.021317 0.549734
vt 0.021317 0.440458
vt 0.168016 0.549734
vt 0.168016 0.440458
vt 0.936478 0.943730
vt 0.936478 0.842860
vt 0.979359 0.943730
vt 0.978990 0.842860
vt 0.882710 0.891196
vt 0.882710 0.842860
vt 0.936478 0.891196
vt 0.882710 0.943730
vt 0.912364 0.943730
vt 0.912364 0.891196
vt 0.882710 0.977980
vt 0.979359 0.977980
vt 0.831651 0.977980
vt 0.831636 0.842860
vt 0.861205 0.977980
vt 0.861205 0.842860
vt 0.861205 0.931998
vt 0.882710 0.931998
vt 0.081740 0.531898
vt 0.081740 0.524983
vt 0.099080 0.531898
vt 0.099080 0.524983
vt 0.067382 0.566542
vt 0.067382 0.556613
vt 0.151934 0.566542
vt 0.151934 0.556613
vt 0.081740 0.458160
vt 0.084299 0.524983
vt 0.084299 0.458160
vt 0.096609 0.524983
vt 0.096609 0.458160
vt 0.099080 0.458160
# 40 texture coordinates

vn 0.000000 0.400923 0.916112
vn 0.856881 0.515514 0.000000
vn 0.000000 0.400922 -0.916112
vn -0.856881 0.515514 0.000000
vn 0.000000 1.000000 0.000000
vn 0.000000 -1.000000 0.000000
vn 0.000000 0.000000 1.000000
vn 1.000000 0.000000 0.000000
vn 0.000000 0.000000 -1.000000
vn -1.000000 0.000000 0.000000
vn 0.999971 -0.007631 0.000000
# 11 normals

g Regroup11
usemtl Material02
s 1
f 1/1/1 2/2/1 3/3/1
f 2/2/1 4/4/1 3/3/1
s 2
f 3/3/2 4/4/2 5/3/2
f 4/4/2 6/4/2 5/3/2
s 1
f 5/3/3 6/4/3 7/1/3
f 6/4/3 8/2/3 7/1/3
s 2
f 7/1/4 8/2/4 1/1/4
f 8/2/4 2/2/4 1/1/4
s 3
f 7/1/5 1/1/5 5/3/5
f 1/1/5 3/3/5 5/3/5
f 2/2/6 8/2/6 4/4/6
f 8/2/6 6/4/6 4/4/6
s 1
f 9/5/7 10/6/7 11/7/7
f 10/6/7 12/8/7 11/7/7
s 2
f 11/7/8 12/8/8 13/7/8
f 12/8/8 14/8/8 13/7/8
s 1
f 13/7/9 14/8/9 15/5/9
f 14/8/9 16/6/9 15/5/9
s 2
f 15/5/10 16/6/10 9/5/10
f 16/6/10 10/6/10 9/5/10
s 3
f 15/5/5 9/5/5 13/7/5
f 9/5/5 11/7/5 13/7/5
f 10/6/6 16/6/6 12/8/6
f 16/6/6 14/8/6 12/8/6
s 1
f 17/9/7 18/10/7 19/11/7
f 18/10/7 20/12/7 19/11/7
s 2
f 19/11/11 20/12/11 21/11/11
f 20/12/11 22/12/11 21/11/11
s 1
f 21/11/9 22/12/9 23/9/9
f 22/12/9 24/10/9 23/9/9
s 2
f 23/9/10 24/10/10 17/9/10
f 24/10/10 18/10/10 17/9/10
s 3
f 23/9/5 17/9/5 21/11/5
f 17/9/5 19/11/5 21/11/5
f 18/10/6 24/10/6 20/12/6
f 24/10/6 22/12/6 20/12/6
s 1
f 25/13/7 26/14/7 27/15/7
f 26/14/7 28/10/7 27/15/7
s 2
f 27/15/8 28/10/8 29/15/8
f 28/10/8 30/10/8 29/15/8
s 1
f 29/15/9 30/10/9 31/13/9
f 30/10/9 32/14/9 31/13/9
s 2
f 31/13/10 32/14/10 25/13/10
f 32/14/10 26/14/10 25/13/10
s 3
f 31/13/5 25/13/5 29/15/5
f 25/13/5 27/15/5 29/15/5
f 26/14/6 32/14/6 28/10/6
f 32/14/6 30/10/6 28/10/6
s 1
f 33/16/7 34/13/7 35/17/7
f 34/13/7 36/18/7 35/17/7
s 2
f 35/17/8 36/18/8 37/17/8
f 36/18/8 38/18/8 37/17/8
s 1
f 37/17/9 38/18/9 39/16/9
f 38/18/9 40/13/9 39/16/9
s 2
f 39/16/10 40/13/10 33/16/10
f 40/13/10 34/13/10 33/16/10
s 3
f 39/16/5 33/16/5 37/17/5
f 33/16/5 35/17/5 37/17/5
f 34/13/6 40/13/6 36/18/6
f 40/13/6 38/18/6 36/18/6
s 1
f 41/19/7 42/16/7 43/20/7
f 42/16/7 44/11/7 43/20/7
s 2
f 43/20/8 44/11/8 45/20/8
f 44/11/8 46/11/8 45/20/8
s 1
f 45/20/9 46/11/9 47/19/9
f 46/11/9 48/16/9 47/19/9
s 2
f 47/19/10 48/16/10 41/19/10
f 48/16/10 42/16/10 41/19/10
s 3
f 47/19/5 41/19/5 45/20/5
f 41/19/5 43/20/5 45/20/5
f 42/16/6 48/16/6 44/11/6
f 48/16/6 46/11/6 44/11/6
s 1
f 49/21/7 50/22/7 51/23/7
f 50/22/7 52/24/7 51/23/7
s 2
f 51/23/8 52/24/8 53/23/8
f 52/24/8 54/24/8 53/23/8
s 1
f 53/23/9 54/24/9 55/21/9
f 54/24/9 56/22/9 55/21/9
s 2
f 55/21/10 56/22/10 49/21/10
f 56/22/10 50/22/10 49/21/10
s 3
f 55/21/5 49/21/5 53/23/5
f 49/21/5 51/23/5 53/23/5
f 50/22/6 56/22/6 52/24/6
f 56/22/6 54/24/6 52/24/6
s 1
f 57/23/7 58/25/7 59/19/7
f 58/25/7 60/26/7 59/19/7
s 2
f 59/19/8 60/26/8 61/19/8
f 60/26/8 62/26/8 61/19/8
s 1
f 61/19/9 62/26/9 63/23/9
f 62/26/9 64/25/9 63/23/9
s 2
f 63/23/10 64/25/10 57/23/10
f 64/25/10 58/25/10 57/23/10
s 3
f 63/23/5 57/23/5 61/19/5
f 57/23/5 59/19/5 61/19/5
f 58/25/6 64/25/6 60/26/6
f 64/25/6 62/26/6 60/26/6
s 1
f 65/27/7 66/28/7 67/29/7
f 66/28/7 68/30/7 67/29/7
s 2
f 67/29/8 68/30/8 69/29/8
f 68/30/8 70/30/8 69/29/8
s 1
f 69/29/9 70/30/9 71/27/9
f 70/30/9 72/28/9 71/27/9
s 2
f 71/27/10 72/28/10 65/27/10
f 72/28/10 66/28/10 65/27/10
s 3
f 71/27/5 65/27/5 69/29/5
f 65/27/5 67/29/5 69/29/5
f 66/28/6 72/28/6 68/30/6
f 72/28/6 70/30/6 68/30/6
s 1
f 73/31/7 74/32/7 75/33/7
f 74/32/7 76/34/7 75/33/7
s 2
f 75/33/8 76/34/8 77/33/8
f 76/34/8 78/34/8 77/33/8
s 1
f 77/33/9 78/34/9 79/31/9
f 78/34/9 80/32/9 79/31/9
s 2
f 79/31/10 80/32/10 73/31/10
f 80/32/10 74/32/10 73/31/10
s 3
f 79/31/5 73/31/5 77/33/5
f 73/31/5 75/33/5 77/33/5
f 74/32/6 80/32/6 76/34/6
f 80/32/6 78/34/6 76/34/6
s 1
f 81/28/7 82/35/7 83/36/7
f 82/35/7 84/37/7 83/36/7
s 2
f 83/36/8 84/37/8 85/36/8
f 84/37/8 86/37/8 85/36/8
s 1
f 85/36/9 86/37/9 87/28/9
f 86/37/9 88/35/9 87/28/9
s 2
f 87/28/10 88/35/10 81/28/10
f 88/35/10 82/35/10 81/28/10
s 3
f 87/28/5 81/28/5 85/36/5
f 81/28/5 83/36/5 85/36/5
f 82/35/6 88/35/6 84/37/6
f 88/35/6 86/37/6 84/37/6
s 1
f 89/38/7 90/39/7 91/30/7
f 90/39/7 92/40/7 91/30/7
s 2
f 91/30/8 92/40/8 93/30/8
f 92/40/8 94/40/8 93/30/8
s 1
f 93/30/9 94/40/9 95/38/9
f 94/40/9 96/39/9 95/38/9
s 2
f 95/38/10 96/39/10 89/38/10
f 96/39/10 90/39/10 89/38/10
s 3
f 95/38/5 89/38/5 93/30/5
f 89/38/5 91/30/5 93/30/5
f 90/39/6 96/39/6 92/40/6
f 96/39/6 94/40/6 92/40/6
# 144 triangles in group

# 144 triangles total

