# Wavefront OBJ exported by MilkShape 3D

v 1.583478 9.135048 3.490973
v 1.583478 9.135048 -2.894777
v 1.549179 10.222472 0.168413
v 1.549179 10.235568 0.168413
v 1.549179 10.222472 0.168413
v 1.549179 10.222472 0.168413
v 1.549179 10.222472 0.168413
v 1.549179 10.222472 0.168413
v 1.549179 10.235568 0.168413
v 1.549179 10.222472 0.168413
v 1.549179 10.235568 0.168413
v 1.549179 10.222472 0.168413
v 1.549179 10.222472 0.168413
v 1.549179 10.222472 0.168413
v 1.549179 10.222472 0.168413
v 1.549179 10.235568 0.168413
v 1.549179 10.222472 0.168413
v 1.549179 10.222472 0.168413
v 1.549179 10.222472 0.168413
v 1.549179 10.222472 0.168413
v 1.549179 10.222472 0.168413
v 4.127791 9.135048 1.678128
v 4.127791 9.135048 1.678128
v 1.549179 10.222472 0.168413
v 1.549179 10.222472 0.168413
v -1.350128 9.135048 1.880109
v -1.350128 9.135048 1.880109
v 1.549179 10.222472 0.168413
v 1.549179 10.222472 0.168413
v 1.549179 10.222472 0.168413
v 1.549179 10.222472 0.168413
v -0.960835 9.135048 -1.370475
v -0.960835 9.135048 -1.370475
v 1.549179 10.222472 0.168413
v 1.549179 10.222472 0.168413
v 4.127791 9.135048 -1.370475
v 4.127791 9.135048 -1.370475
v 1.549179 10.222472 0.168413
v 1.549179 10.235568 0.168413
v 1.549179 10.222472 0.168413
v 1.549179 10.235568 0.168413
v 1.549179 10.235568 0.168413
v 1.549179 10.222472 0.168413
v 1.549179 10.235568 0.168413
v 1.549179 10.222472 0.168413
v 1.549179 10.235568 0.168413
v 1.549179 10.222472 0.168413
v 1.549179 10.235568 0.168413
v 1.549179 10.235568 0.168413
v 1.549179 10.235568 0.168413
v 1.549179 10.222472 0.168413
v 1.549179 10.235568 0.168413
v 1.549179 10.222472 0.168413
v 1.549179 10.235568 0.168413
v 1.549179 10.222472 0.168413
v 1.549179 10.235568 0.168413
v 1.549179 10.222472 0.168413
v 1.549179 10.222472 0.168413
v 1.549179 10.235568 0.168413
v 1.549179 10.235568 0.168413
v -1.350128 9.135048 1.880109
v 1.731426 2.174806 0.143048
v 4.127791 9.135048 -1.370475
v 1.549179 10.222472 0.168413
v 4.127791 9.135048 1.678128
v 1.549179 10.222472 0.168413
v -0.960835 9.135048 -1.370475
v 1.549179 10.222472 0.168413
v 1.549179 10.222472 0.168413
v -0.897225 5.716570 0.143048
v 3.884899 5.779860 0.143048
v 1.527779 5.384276 2.774244
v 1.527779 5.621630 -2.250345
v 4.521399 9.135048 0.153827
v 3.052437 9.135048 -2.486341
# 75 vertices

vt 0.961981 0.777965
vt 0.939790 0.925405
vt 0.895407 0.777965
vt 0.895407 0.925781
vt 0.853934 0.925405
vt 0.808347 0.925405
vt 0.818646 0.777965
vt 0.806641 0.925405
vt 0.828832 0.777965
vt 0.851024 0.925405
vt 0.972281 0.925405
vt 0.993486 0.925405
vt 0.904159 0.893699
vt 0.872019 0.876794
vt 0.904054 0.767519
vt 0.841114 0.834746
vt 0.839879 0.767519
vt 0.841114 0.697189
vt 0.874127 0.663415
vt 0.904159 0.630997
vt 0.936299 0.658244
vt 0.959827 0.704429
vt 0.975183 0.767519
vt 0.959827 0.830609
vt 0.936299 0.876794
vt 0.852655 0.673416
vt 0.934666 0.675352
vt 0.894243 0.670512
vt 0.933844 0.777965
vt 0.972281 0.777965
vt 0.897735 0.565097
vt 0.894243 0.663253
# 32 texture coordinates

vn 0.732417 0.465291 0.497061
vn 0.672166 0.736959 -0.071306
vn 0.046026 0.218936 0.974653
vn -0.550722 0.000000 -0.834689
vn -0.763523 0.611375 0.207976
vn 0.000000 0.000000 0.000000
vn -0.769828 0.524830 0.363206
vn -0.373891 0.926391 -0.044778
vn -0.751727 0.361981 -0.551250
vn -0.772610 0.595522 -0.220060
vn -0.119855 0.526058 -0.841961
vn -0.899727 -0.417049 0.128691
vn 0.924865 -0.360108 0.122256
vn 0.086709 -0.397017 -0.913706
vn 0.805906 0.281280 -0.520957
vn 0.447756 0.474021 -0.758168
vn 0.863886 0.503687 0.000042
vn 0.343589 0.939120 0.000098
vn 0.041191 -0.996613 -0.071173
vn 0.017617 -0.432484 0.901469
# 20 normals

g Regroup12
s 1
f 65/1/1 64/2/2 1/3/3
f 1/3/3 4/4/4 5/5/5
f 25/5/6 6/6/6 26/7/6
f 27/7/6 28/6/6 29/8/6
f 61/7/7 7/8/8 67/9/9
f 30/8/6 31/6/6 32/9/6
f 33/9/6 34/6/6 35/10/6
f 8/10/10 4/4/4 2/3/11
f 24/2/6 68/11/6 36/1/6
f 37/1/6 3/11/6 69/12/6
f 9/13/6 10/14/6 11/15/6
f 38/14/6 12/16/6 39/15/6
f 40/16/6 13/17/6 41/15/6
f 42/15/6 43/17/6 14/18/6
f 44/15/6 45/18/6 15/19/6
f 46/15/6 47/19/6 16/20/6
f 48/15/6 49/20/6 17/21/6
f 18/22/6 50/15/6 51/21/6
f 19/23/6 52/15/6 53/22/6
f 20/24/6 54/15/6 55/23/6
f 21/25/6 56/15/6 57/24/6
f 58/25/6 59/13/6 60/15/6
f 70/26/12 61/7/7 67/9/9
f 1/3/3 5/5/5 61/7/7
f 1/3/3 71/27/13 65/1/1
f 1/3/3 61/7/7 70/26/12
f 73/28/14 63/1/15 71/27/13
f 75/29/16 64/2/2 63/1/15
f 4/4/4 64/2/2 2/3/11
f 4/4/4 1/3/3 64/2/2
f 63/1/15 74/30/17 71/27/13
f 63/1/15 66/12/18 74/30/17
f 2/3/11 67/9/9 8/10/10
f 73/28/14 70/26/12 67/9/9
f 23/1/6 68/11/6 24/2/6
f 22/1/6 69/12/6 3/11/6
f 62/31/19 70/26/12 73/28/14
f 62/31/19 72/32/20 70/26/12
f 62/31/19 71/27/13 72/32/20
f 62/31/19 73/28/14 71/27/13
f 1/3/3 72/32/20 71/27/13
f 1/3/3 70/26/12 72/32/20
f 2/3/11 73/28/14 67/9/9
f 75/29/16 63/1/15 73/28/14
f 65/1/1 74/30/17 66/12/18
f 65/1/1 71/27/13 74/30/17
f 2/3/11 75/29/16 73/28/14
f 2/3/11 64/2/2 75/29/16
# 48 triangles in group

# 48 triangles total

