# Wavefront OBJ exported by MilkShape 3D

v -0.200000 1.756760 0.000001
v 32.700001 38.983334 0.000000
v -1.000000 39.022221 33.000000
v -1.000000 39.022221 -30.500000
v -30.913773 38.983334 17.000000
v -30.913773 38.983334 -16.250000
v 14.250000 38.983334 26.413774
v -1.000000 23.750000 28.913776
v -1.000000 23.750000 -26.413776
v 14.250000 38.983334 -26.413774
v -27.375000 23.750000 14.956888
v 25.413776 23.750000 0.000000
v 21.875000 23.750000 -13.206888
v -23.875000 23.750000 -13.206888
v 21.875000 23.750000 13.206888
v -1.000000 39.022221 -30.500000
v -1.000000 39.022221 33.000000
v 32.700001 38.983334 0.000000
v -30.913773 38.983334 17.000000
v -30.913773 38.983334 -16.250000
v 14.250000 38.983334 26.413774
v 14.250000 38.983334 -26.413774
# 22 vertices

vt 0.897735 0.565097
vt 0.972281 0.777965
vt 0.895407 0.777965
vt 0.818646 0.777965
vt 0.828832 0.777965
vt 0.961981 0.777965
vt 0.939790 0.925405
vt 0.895407 0.925781
vt 0.808347 0.925405
vt 0.993486 0.925405
vt 0.174402 0.244082
vt 0.103378 0.370262
vt 0.135518 0.134807
vt 0.103378 0.107559
vt 0.040333 0.173752
vt 0.040333 0.311309
vt 0.135518 0.353357
# 17 texture coordinates

vn -0.054824 -0.997726 -0.039217
vn 0.569544 -0.821932 -0.006858
vn 0.143723 -0.667247 0.730839
vn 0.083132 -0.662346 -0.744572
vn -0.743352 -0.522655 0.417444
vn -0.620367 -0.556734 -0.552442
vn 0.668727 -0.574431 0.472051
vn 0.593608 -0.248499 0.765427
vn -0.192609 -0.250927 0.948650
vn -0.226166 -0.293933 -0.928683
vn 0.531738 -0.275251 -0.800932
vn 0.648645 -0.591693 -0.478706
vn -0.828307 -0.259050 0.496790
vn -0.852011 -0.381319 -0.358710
vn 0.958276 -0.285845 0.000000
vn 0.001922 0.999998 -0.000849
vn 0.000759 1.000000 -0.000339
vn -0.001300 0.999999 0.000000
vn 0.003137 0.999993 -0.002191
# 19 normals

g Island
s 1
f 1/1/1 12/2/2 8/3/3
f 1/1/1 9/3/4 12/2/2
f 11/4/5 14/5/6 1/1/1
f 8/3/3 11/4/5 1/1/1
f 9/3/4 1/1/1 14/5/6
f 8/3/3 15/6/7 7/7/8
f 3/8/9 8/3/3 7/7/8
f 3/8/9 11/4/5 8/3/3
f 4/8/10 9/3/4 14/5/6
f 10/7/11 13/6/12 9/3/4
f 4/8/10 10/7/11 9/3/4
f 5/9/13 11/4/5 3/8/9
f 5/9/13 6/9/14 11/4/5
f 2/10/15 13/6/12 10/7/11
f 2/10/15 7/7/8 15/6/7
f 12/2/2 13/6/12 2/10/15
f 12/2/2 9/3/4 13/6/12
f 6/9/14 14/5/6 11/4/5
f 6/9/14 4/8/10 14/5/6
f 12/2/2 15/6/7 8/3/3
f 12/2/2 2/10/15 15/6/7
# 21 triangles in group

g Grass
f 18/11/16 16/12/17 21/13/17
f 17/14/17 16/12/17 19/15/18
f 16/12/17 20/16/18 19/15/18
f 17/14/17 21/13/17 16/12/17
f 16/12/17 18/11/16 22/17/19
# 5 triangles in group

# 26 triangles total

