# Wavefront OBJ exported by MilkShape 3D

v -0.200000 1.756760 0.000001
v 32.700001 38.983334 0.000000
v -1.000000 39.022221 33.000000
v -1.000000 39.022221 -30.500000
v -30.913773 38.983334 17.000000
v -30.913773 38.983334 -16.250000
v 14.250000 38.983334 26.413774
v -1.000000 23.750000 28.913776
v -1.000000 23.750000 -26.413776
v 14.250000 38.983334 -26.413774
v -27.375000 23.750000 14.956888
v 25.413776 23.750000 0.000000
v 21.875000 23.750000 -13.206888
v -23.875000 23.750000 -13.206888
v 21.875000 23.750000 13.206888
v 25.413774 38.983334 15.250000
v 25.413774 38.983334 -15.250000
v -15.689440 12.948170 0.000001
v -16.250000 38.983334 -26.413774
v -14.206888 23.750000 -22.875000
v 12.489441 13.148167 0.000001
v 12.206888 23.750000 -22.875000
v -8.885682 60.366451 13.444246
v -25.741001 39.238159 7.345314
v -9.083400 39.207108 21.957394
v 5.702701 39.238159 0.149975
v 5.702701 39.238159 14.872749
v -1.822548 60.027996 7.345314
v -8.885682 60.267559 0.660571
v -15.751106 59.868282 7.345314
v -16.621334 39.238159 -4.350444
v 6.632114 39.202412 12.913931
v 17.704971 39.202404 7.821789
v 6.632114 39.202412 -7.272207
v 13.877445 47.827995 2.345314
v -2.971364 39.202412 -2.453704
v 6.814318 48.166451 8.444246
v 6.814318 48.067558 -4.339429
v -0.051106 47.668282 2.345314
v 16.235588 39.202412 -2.453704
v -2.971364 39.202412 7.183306
v 20.168413 52.353786 -0.242778
v 20.681276 47.987713 0.083829
v 20.604509 52.353786 -0.242778
v 21.255014 47.987713 0.083829
v 20.604509 52.353786 -0.242778
v 21.255014 47.987713 0.083829
v 20.604509 52.353786 -0.714375
v 21.255014 47.987713 -1.040983
v 20.604509 52.353786 -0.714375
v 21.255014 47.987713 -1.040983
v 20.168413 52.353786 -0.714375
v 20.681276 47.987713 -1.040983
v 20.168413 52.353786 -0.714375
v 20.681276 47.987713 -1.040983
v 20.168413 52.353786 -0.242778
v 20.681276 47.987713 0.083829
v 20.681276 47.987713 0.083829
v 20.681276 47.987713 -1.040983
v 21.255014 47.987713 0.083829
v 21.255014 47.987713 -1.040983
v 20.681276 47.987713 0.083829
v 19.490740 43.076180 0.281143
v 21.255014 47.987713 0.083829
v 20.392572 43.076180 0.281143
v 21.255014 47.987713 0.083829
v 20.392572 43.076180 0.281143
v 21.255014 47.987713 -1.040983
v 20.392572 43.076180 -1.238306
v 21.255014 47.987713 -1.040983
v 20.392572 43.076180 -1.238306
v 20.681276 47.987713 -1.040983
v 19.490740 43.076180 -1.238306
v 20.681276 47.987713 -1.040983
v 19.490740 43.076180 -1.238306
v 20.681276 47.987713 0.083829
v 19.490740 43.076180 0.281143
v 20.681276 47.987713 -1.040983
v 20.681276 47.987713 0.083829
v 21.255014 47.987713 -1.040983
v 21.255014 47.987713 0.083829
v 19.490740 43.076180 0.281143
v 19.490740 43.076180 -1.238306
v 20.392572 43.076180 0.281143
v 20.392572 43.076180 -1.238306
v 19.490740 43.076180 0.281143
v 19.434053 38.789619 0.852059
v 20.392572 43.076180 0.281143
v 21.338877 38.789619 0.852059
v 20.392572 43.076180 0.281143
v 21.338877 38.789619 0.852059
v 20.392572 43.076180 -1.238306
v 21.338877 38.789619 -1.809230
v 20.392572 43.076180 -1.238306
v 21.338877 38.789619 -1.809230
v 19.490740 43.076180 -1.238306
v 19.434053 38.789619 -1.809230
v 19.490740 43.076180 -1.238306
v 19.434053 38.789619 -1.809230
v 19.490740 43.076180 0.281143
v 19.434053 38.789619 0.852059
v 19.490740 43.076180 -1.238306
v 19.490740 43.076180 0.281143
v 20.392572 43.076180 -1.238306
v 20.392572 43.076180 0.281143
v 19.434053 38.789619 0.852059
v 19.434053 38.789619 -1.809230
v 21.338877 38.789619 0.852059
v 21.338877 38.789619 -1.809230
v 6.814318 48.067558 -4.339429
v 13.877445 47.827995 2.345314
v 6.814318 48.166451 8.444246
v -0.051106 47.668282 2.345314
v 6.821164 58.364666 2.345314
v -8.885682 60.267559 0.660571
v -1.822548 60.027996 7.345314
v -8.885682 60.366451 13.444246
v -15.751106 59.868282 7.345314
v -9.478835 68.964676 7.345314
v 7.288948 45.285938 -11.203703
v 7.601141 42.505737 -11.413091
v 7.554411 45.285938 -11.203703
v 7.950390 42.505737 -11.413091
v 7.554411 45.285938 -11.203703
v 7.950390 42.505737 -11.413091
v 7.554411 45.285938 -11.502572
v 7.950390 42.505737 -11.768497
v 7.554411 45.285938 -11.502572
v 7.950390 42.505737 -11.768497
v 7.288948 45.285938 -11.502572
v 7.601141 42.505737 -11.768497
v 7.288948 45.285938 -11.502572
v 7.601141 42.505737 -11.768497
v 7.288948 45.285938 -11.203703
v 7.601141 42.505737 -11.413091
v 7.601141 42.505737 -11.413091
v 7.601141 42.505737 -11.768497
v 7.950390 42.505737 -11.413091
v 7.950390 42.505737 -11.768497
v 7.601141 42.505737 -11.413091
v 6.876434 40.720711 -10.875439
v 7.950390 42.505737 -11.413091
v 7.425400 40.720711 -10.875439
v 7.950390 42.505737 -11.413091
v 7.425400 40.720711 -10.875439
v 7.950390 42.505737 -11.768497
v 7.425400 40.720711 -11.355539
v 7.950390 42.505737 -11.768497
v 7.425400 40.720711 -11.355539
v 7.601141 42.505737 -11.768497
v 6.876434 40.720711 -11.355539
v 7.601141 42.505737 -11.768497
v 6.876434 40.720711 -11.355539
v 7.601141 42.505737 -11.413091
v 6.876434 40.720711 -10.875439
v 7.601141 42.505737 -11.768497
v 7.601141 42.505737 -11.413091
v 7.950390 42.505737 -11.768497
v 7.950390 42.505737 -11.413091
v 6.876434 40.720711 -10.875439
v 6.876434 40.720711 -11.355539
v 7.425400 40.720711 -10.875439
v 7.425400 40.720711 -11.355539
v 6.876434 40.720711 -10.875439
v 6.841928 38.906330 -10.853488
v 7.425400 40.720711 -10.875439
v 8.001439 38.906330 -10.853488
v 7.425400 40.720711 -10.875439
v 8.001439 38.906330 -10.853488
v 7.425400 40.720711 -11.355539
v 8.001439 38.906330 -11.694365
v 7.425400 40.720711 -11.355539
v 8.001439 38.906330 -11.694365
v 6.876434 40.720711 -11.355539
v 6.841928 38.906330 -11.694365
v 6.876434 40.720711 -11.355539
v 6.841928 38.906330 -11.694365
v 6.876434 40.720711 -10.875439
v 6.841928 38.906330 -10.853488
v 6.876434 40.720711 -11.355539
v 6.876434 40.720711 -10.875439
v 7.425400 40.720711 -11.355539
v 7.425400 40.720711 -10.875439
v 6.841928 38.906330 -10.853488
v 6.841928 38.906330 -11.694365
v 8.001439 38.906330 -10.853488
v 8.001439 38.906330 -11.694365
v -1.000000 39.022221 -30.500000
v -1.000000 39.022221 33.000000
v 32.700001 38.983334 0.000000
v -30.913773 38.983334 17.000000
v -30.913773 38.983334 -16.250000
v 14.250000 38.983334 26.413774
v 14.250000 38.983334 -26.413774
v 25.413774 38.983334 15.250000
v 25.413774 38.983334 -15.250000
v -16.250000 38.983334 -26.413774
v 21.922022 59.682590 6.238304
v 20.145685 63.608364 -0.627345
v 26.803556 58.492615 -3.676942
v 13.898401 54.388363 -4.123224
v 20.168413 52.353786 -0.714375
v 20.168413 52.353786 -0.242778
v 20.604509 52.353786 -0.714375
v 20.604509 52.353786 -0.242778
v 13.989641 58.387207 3.463578
v 18.643076 53.120079 5.468681
v 18.232477 59.682590 -7.195472
v 22.195757 53.041023 -5.830806
v 6.626987 49.988304 -8.750008
v 7.575648 53.010178 -11.592386
v 5.298265 43.797947 -13.528374
v 9.823496 43.374363 -10.543375
v 7.288948 45.285938 -11.502572
v 7.288948 45.285938 -11.203703
v 7.554411 45.285938 -11.502572
v 7.554411 45.285938 -11.203703
# 217 vertices

vt 0.897735 0.565097
vt 0.934666 0.675352
vt 0.895407 0.777965
vt 0.818646 0.777965
vt 0.828832 0.777965
vt 0.852655 0.673416
vt 0.856970 0.777965
vt 0.961981 0.777965
vt 0.939790 0.925405
vt 0.895407 0.925781
vt 0.851024 0.925405
vt 0.933844 0.777965
vt 0.808347 0.925405
vt 0.993486 0.925405
vt 0.972281 0.925405
vt 0.972281 0.777965
vt 0.185955 0.133456
vt 0.185955 0.304574
vt 0.144301 0.220945
vt 0.011905 0.220945
vt 0.104110 0.051114
vt 0.067202 0.220945
vt 0.105204 0.298639
vt 0.062385 0.356880
vt 0.105204 0.150059
vt 0.060047 0.216022
vt 0.040259 0.155127
vt 0.105335 0.082996
vt 0.180367 0.147090
vt 0.154431 0.216022
vt 0.170410 0.276426
vt 0.105335 0.337076
vt 0.040259 0.276426
vt 0.106569 0.139256
vt 0.106569 0.300162
vt 0.903829 0.954823
vt 0.922567 0.814685
vt 0.919762 0.954823
vt 0.943528 0.814685
vt 0.879070 0.657039
vt 0.912019 0.657039
vt 0.876999 0.519453
vt 0.946592 0.519453
vt 0.782372 0.779674
vt 0.745238 0.874864
vt 0.745274 0.779674
vt 0.709143 0.779674
vt 0.745238 0.692827
vt 0.699830 0.708475
vt 0.662695 0.803665
vt 0.659577 0.708475
vt 0.626600 0.708475
vt 0.662695 0.621628
vt 0.879283 0.998822
vt 0.898774 0.786651
vt 0.895857 0.998822
vt 0.920579 0.786651
vt 0.853529 0.650426
vt 0.887802 0.650426
vt 0.851374 0.511961
vt 0.923766 0.511961
vt 0.174402 0.244082
vt 0.103378 0.370262
vt 0.159046 0.180992
vt 0.103378 0.107559
vt 0.040333 0.173752
vt 0.040333 0.311309
vt 0.135518 0.134807
vt 0.159046 0.307172
vt 0.135518 0.353357
vt 0.071238 0.353357
vt 0.096967 0.243647
vt 0.109848 0.158757
vt 0.145247 0.281354
vt 0.111833 0.307986
vt 0.083093 0.324859
vt 0.086070 0.168273
vt 0.052325 0.193065
vt 0.051664 0.286872
vt 0.097131 0.244724
vt 0.097131 0.238893
vt 0.100294 0.244724
vt 0.100294 0.238893
vt 0.077442 0.091893
vt 0.141796 0.194071
vt 0.108806 0.253839
vt 0.033513 0.321411
vt 0.099328 0.248722
vt 0.099328 0.231694
vt 0.108104 0.248722
vt 0.108104 0.231694
# 91 texture coordinates

vn 0.055879 -0.998099 -0.025997
vn 0.511641 -0.856904 -0.062756
vn 0.101120 -0.658512 0.745745
vn 0.010028 -0.585630 -0.810517
vn -0.751428 -0.530461 0.392387
vn -0.703330 -0.554720 -0.444536
vn -0.472064 -0.875924 -0.099563
vn -0.404070 -0.611327 -0.680446
vn 0.698100 -0.524947 0.486916
vn 0.537038 -0.299320 0.788668
vn -0.192609 -0.250927 0.948650
vn -0.438437 -0.293747 -0.849403
vn 0.482804 -0.258950 -0.836568
vn 0.399369 -0.620825 -0.674596
vn 0.000000 -0.258468 -0.966020
vn -0.828307 -0.259050 0.496790
vn -0.868497 -0.382908 -0.314793
vn 0.932405 -0.361416 0.000000
vn 0.737249 -0.494884 -0.459950
vn 0.788700 -0.258058 -0.557996
vn 0.788700 -0.258058 0.557996
vn 0.785962 -0.618275 0.000000
vn 0.744512 -0.332230 0.579073
vn 0.737359 -0.022337 -0.675132
vn 0.866416 0.499250 0.008492
vn -0.965669 -0.239842 0.099794
vn -0.327446 -0.402654 0.854780
vn -0.890758 0.449526 0.066904
vn 0.066694 0.404467 -0.912118
vn -0.366816 -0.642052 -0.673212
vn 0.141672 0.434386 0.889515
vn -0.833727 0.552102 -0.009099
vn -0.770590 0.495135 0.401288
vn -0.030992 0.548309 0.835701
vn 0.753331 0.556637 0.350212
vn 0.823779 0.564881 -0.047944
vn 0.728358 0.474269 -0.494533
vn -0.000742 0.469122 -0.883133
vn -0.753389 0.501189 -0.425694
vn -0.007032 0.446332 0.894840
vn -0.006506 0.314194 -0.949336
vn 0.000000 0.074597 0.997214
vn 0.989082 0.147364 0.000000
vn 0.000000 0.074597 -0.997214
vn -0.993172 -0.116663 0.000000
vn 0.000000 -1.000000 0.000000
vn 0.000000 0.040141 0.999194
vn 0.984931 -0.172949 0.000000
vn 0.000000 0.040143 -0.999194
vn -0.971856 0.235574 0.000000
vn 0.000000 1.000000 0.000000
vn 0.000000 0.132022 0.991247
vn 0.976488 0.215570 0.000000
vn 0.000000 0.132023 -0.991247
vn -0.999913 0.013223 0.000000
vn 0.830717 0.556321 0.020383
vn -0.010539 0.544483 -0.838706
vn -0.019811 0.999117 0.037063
vn -0.841147 0.540425 0.020298
vn -0.010428 0.513235 0.858185
vn 0.759270 0.650487 0.019386
vn -0.025598 0.608107 -0.793442
vn -0.041254 0.998627 0.032299
vn -0.823094 0.567551 0.020038
vn -0.023382 0.577324 0.816180
vn 0.000000 -0.075101 0.997176
vn 0.990009 0.141005 0.000000
vn 0.000000 0.095215 -0.995457
vn -0.993754 -0.111590 0.000000
vn 0.000000 0.288403 0.957509
vn 0.959368 -0.282158 0.000000
vn 0.000000 -0.225393 -0.974268
vn -0.926550 0.376172 0.000000
vn 0.000000 0.012097 0.999927
vn 0.953117 0.302601 0.000000
vn 0.000000 0.183571 -0.983006
vn -0.999819 0.019015 0.000000
vn 0.001419 0.999999 -0.000293
vn 0.000332 0.999999 -0.001191
vn -0.001300 0.999999 0.000000
vn -0.002728 0.999992 -0.002999
vn 0.002758 0.999994 -0.002227
vn 0.003483 0.999988 -0.003483
vn -0.004157 0.999973 -0.005997
vn -0.010410 0.999929 0.005733
vn 0.309565 0.439049 0.843448
vn 0.971425 0.134631 -0.195470
vn 0.253641 -0.738109 -0.625189
vn -0.302515 0.481021 -0.822863
vn 0.063929 -0.812473 0.579482
vn -0.830109 0.416472 0.370769
vn -0.772246 -0.527495 -0.354098
vn -0.490688 0.035363 0.870617
vn 0.878918 -0.170843 0.445328
vn 0.524080 0.709444 -0.471199
vn -0.971577 -0.165976 -0.168792
# 96 normals

g Island
s 1
f 1/1/1 21/2/2 8/3/3
f 1/1/1 9/3/4 21/2/2
f 11/4/5 14/5/6 18/6/7
f 8/3/3 11/4/5 18/6/7
f 9/3/4 18/6/7 20/7/8
f 8/3/3 15/8/9 7/9/10
f 3/10/11 8/3/3 7/9/10
f 3/10/11 11/4/5 8/3/3
f 19/11/12 9/3/4 20/7/8
f 10/9/13 22/12/14 9/3/4
f 4/10/15 10/9/13 9/3/4
f 5/13/16 11/4/5 3/10/11
f 5/13/16 6/13/17 11/4/5
f 2/14/18 13/8/19 17/15/20
f 2/14/18 16/15/21 15/8/9
f 12/16/22 13/8/19 2/14/18
f 21/2/2 9/3/4 22/12/14
f 6/13/17 14/5/6 11/4/5
f 6/13/17 19/11/12 14/5/6
f 21/2/2 15/8/9 8/3/3
f 12/16/22 2/14/18 15/8/9
f 7/9/10 15/8/9 16/15/21
f 10/9/13 17/15/20 13/8/19
f 1/1/1 18/6/7 9/3/4
f 1/1/1 8/3/3 18/6/7
f 4/10/15 9/3/4 19/11/12
f 14/5/6 20/7/8 18/6/7
f 14/5/6 19/11/12 20/7/8
f 12/16/22 21/2/2 13/8/19
f 12/16/22 15/8/9 21/2/2
f 13/8/19 22/12/14 10/9/13
f 13/8/19 21/2/2 22/12/14
# 32 triangles in group

g Bottom
f 27/17/23 26/18/24 28/19/25
f 24/20/26 25/21/27 30/22/28
f 29/23/29 26/18/24 31/24/30
f 31/24/30 26/18/24 27/17/23
f 25/21/27 27/17/23 23/25/31
f 25/21/27 31/24/30 27/17/23
f 30/22/28 29/23/29 31/24/30
f 23/25/31 27/17/23 28/19/25
f 28/19/25 26/18/24 29/23/29
f 23/25/31 30/22/28 25/21/27
f 24/20/26 31/24/30 25/21/27
f 24/20/26 30/22/28 31/24/30
# 12 triangles in group

g Duplicate02
f 39/26/32 41/27/33 32/28/34
f 33/29/35 35/30/36 32/28/34
f 40/31/37 34/32/38 35/30/36
f 34/32/38 36/33/39 39/26/32
f 35/30/36 37/34/40 32/28/34
f 38/35/41 34/32/38 39/26/32
f 35/30/36 34/32/38 38/35/41
f 37/34/40 39/26/32 32/28/34
f 33/29/35 40/31/37 35/30/36
f 36/33/39 41/27/33 39/26/32
# 10 triangles in group

g Tree
f 42/36/42 43/37/42 44/38/42
f 43/37/42 45/39/42 44/38/42
f 46/38/43 47/39/43 48/38/43
f 47/39/43 49/39/43 48/38/43
f 50/38/44 51/39/44 52/36/44
f 51/39/44 53/37/44 52/36/44
f 54/36/45 55/37/45 56/36/45
f 55/37/45 57/37/45 56/36/45
f 58/37/46 59/37/46 60/39/46
f 59/37/46 61/39/46 60/39/46
f 62/37/47 63/40/47 64/39/47
f 63/40/47 65/41/47 64/39/47
f 66/39/48 67/41/48 68/39/48
f 67/41/48 69/41/48 68/39/48
f 70/39/49 71/41/49 72/37/49
f 71/41/49 73/40/49 72/37/49
f 74/37/50 75/40/50 76/37/50
f 75/40/50 77/40/50 76/37/50
f 78/37/51 79/37/51 80/39/51
f 79/37/51 81/39/51 80/39/51
f 82/40/46 83/40/46 84/41/46
f 83/40/46 85/41/46 84/41/46
f 86/40/52 87/42/52 88/41/52
f 87/42/52 89/43/52 88/41/52
f 90/41/53 91/43/53 92/41/53
f 91/43/53 93/43/53 92/41/53
f 94/41/54 95/43/54 96/40/54
f 95/43/54 97/42/54 96/40/54
f 98/40/55 99/42/55 100/40/55
f 99/42/55 101/42/55 100/40/55
f 102/40/51 103/40/51 104/41/51
f 103/40/51 105/41/51 104/41/51
f 106/42/46 107/42/46 108/43/46
f 107/42/46 109/43/46 108/43/46
# 34 triangles in group

g Top
f 111/44/56 110/45/57 114/46/58
f 114/46/58 110/45/57 113/47/59
f 112/48/60 114/46/58 113/47/59
f 112/48/60 111/44/56 114/46/58
f 116/49/61 115/50/62 119/51/63
f 119/51/63 115/50/62 118/52/64
f 117/53/65 119/51/63 118/52/64
f 117/53/65 116/49/61 119/51/63
# 8 triangles in group

g Duplicate08
f 120/54/66 121/55/66 122/56/66
f 121/55/66 123/57/66 122/56/66
f 124/56/67 125/57/67 126/56/67
f 125/57/67 127/57/67 126/56/67
f 128/56/68 129/57/68 130/54/68
f 129/57/68 131/55/68 130/54/68
f 132/54/69 133/55/69 134/54/69
f 133/55/69 135/55/69 134/54/69
f 136/55/46 137/55/46 138/57/46
f 137/55/46 139/57/46 138/57/46
f 140/55/70 141/58/70 142/57/70
f 141/58/70 143/59/70 142/57/70
f 144/57/71 145/59/71 146/57/71
f 145/59/71 147/59/71 146/57/71
f 148/57/72 149/59/72 150/55/72
f 149/59/72 151/58/72 150/55/72
f 152/55/73 153/58/73 154/55/73
f 153/58/73 155/58/73 154/55/73
f 156/55/51 157/55/51 158/57/51
f 157/55/51 159/57/51 158/57/51
f 160/58/46 161/58/46 162/59/46
f 161/58/46 163/59/46 162/59/46
f 164/58/74 165/60/74 166/59/74
f 165/60/74 167/61/74 166/59/74
f 168/59/75 169/61/75 170/59/75
f 169/61/75 171/61/75 170/59/75
f 172/59/76 173/61/76 174/58/76
f 173/61/76 175/60/76 174/58/76
f 176/58/77 177/60/77 178/58/77
f 177/60/77 179/60/77 178/58/77
f 180/58/51 181/58/51 182/59/51
f 181/58/51 183/59/51 182/59/51
f 184/60/46 185/60/46 186/61/46
f 185/60/46 187/61/46 186/61/46
# 34 triangles in group

g Grass
f 190/62/78 188/63/79 195/64/51
f 189/65/51 188/63/79 191/66/80
f 188/63/79 192/67/81 191/66/80
f 189/65/51 193/68/78 188/63/79
f 188/63/79 190/62/78 196/69/82
f 193/68/78 195/64/51 188/63/79
f 194/70/83 188/63/79 196/69/82
f 188/63/79 197/71/84 192/67/81
# 8 triangles in group

g Leaves
f 199/72/85 198/73/86 200/74/87
f 200/74/87 209/75/88 208/76/89
f 200/74/87 207/77/90 209/75/88
f 206/78/91 208/76/89 201/79/92
f 202/80/51 203/81/51 204/82/51
f 203/81/51 205/83/51 204/82/51
f 207/77/90 206/78/91 201/79/92
f 198/73/86 199/72/85 206/78/91
f 198/73/86 207/77/90 200/74/87
f 198/73/86 206/78/91 207/77/90
f 199/72/85 208/76/89 206/78/91
f 199/72/85 200/74/87 208/76/89
f 201/79/92 209/75/88 207/77/90
f 201/79/92 208/76/89 209/75/88
# 14 triangles in group

g Leaves2
f 210/84/93 213/85/94 211/86/95
f 212/87/96 211/86/95 213/85/94
f 213/85/94 210/84/93 212/87/96
f 210/84/93 211/86/95 212/87/96
f 214/88/51 215/89/51 216/90/51
f 215/89/51 217/91/51 216/90/51
# 6 triangles in group

# 158 triangles total

