# Wavefront OBJ exported by MilkShape 3D

v -23.510254 36.813492 -23.209480
v -23.510254 36.813492 23.209480
v 22.765890 36.813492 13.400000
v 38.926735 36.850754 12.303657
v 19.549269 36.850754 -16.649998
v 12.674269 36.850754 23.191662
v 22.765890 36.813492 -13.400000
v -36.910255 36.813492 0.000000
v 38.926735 36.850754 -12.303657
v 12.956411 36.813492 23.209480
v 44.023071 36.850754 0.000000
v 12.956411 36.813492 -23.209480
v 26.549269 36.850754 0.392857
v -33.319736 36.813492 13.400000
v 26.356409 36.813492 0.000000
v -10.186644 36.813492 26.799999
v -33.319736 36.813492 -13.400000
v -10.156088 6.323753 -0.687500
v 22.765890 36.813492 13.400000
v -23.510254 36.813492 23.209480
v -23.510254 36.813492 -23.209480
v 19.623075 24.486765 -11.553657
v 12.674269 36.850754 23.191662
v 19.549269 36.850754 -16.649998
v 38.926735 36.850754 12.303657
v 22.765890 36.813492 -13.400000
v -36.910255 36.813492 0.000000
v 38.926735 36.850754 -12.303657
v 23.623075 12.390423 0.000000
v 10.756412 14.180939 11.404740
v 15.661153 14.980939 -6.300000
v 19.748075 24.486765 9.428657
v 8.652752 24.986765 0.000000
v -30.210255 23.390423 11.604741
v -30.210255 23.390423 -11.604741
v -10.110255 23.390423 -23.209482
v 12.956411 36.813492 23.209480
v -10.110255 9.914272 13.400000
v 44.023071 36.850754 0.000000
v 12.956411 36.813492 -23.209480
v -33.319736 36.813492 13.400000
v 26.356409 36.813492 0.000000
v -10.186644 36.813492 26.799999
v 11.161153 23.390423 -20.100000
v -33.319736 36.813492 -13.400000
v -10.110255 10.914272 -13.400000
v 35.323074 24.486765 -8.699999
v 35.323074 24.486765 8.699999
v 44.882404 26.698671 8.278426
v 45.707260 32.101456 8.079639
v 43.638893 32.042572 10.076975
v 43.125889 32.131432 6.735770
v 29.633644 12.724690 16.673468
v 30.471180 30.161293 19.858643
v 25.520214 30.427422 14.116030
v 31.660366 29.023287 13.541449
# 56 vertices

vt 0.035897 0.045969
vt 0.061879 0.045969
vt 0.107011 0.045969
vt 0.133518 0.398438
vt 0.106460 0.398438
vt 0.157655 0.398438
vt 0.126140 0.045969
vt 0.133142 0.045969
vt 0.009766 0.045969
vt 0.016767 0.045969
vt 0.167594 0.398438
vt 0.119867 0.398438
vt 0.860056 0.683615
vt 0.813893 0.763451
vt 0.908194 0.720370
vt 0.859985 0.826242
vt 0.860161 0.700411
vt 0.860161 0.763451
vt 0.919484 0.724112
vt 0.937812 0.711994
vt 0.964743 0.768579
vt 0.928892 0.768579
vt 0.984770 0.826417
vt 0.928434 0.826417
vt 0.973039 0.826417
vt 0.903351 0.770918
vt 0.935838 0.826242
vt 0.913258 0.826242
vt 0.909126 0.763451
vt 0.944103 0.826242
vt 0.806736 0.826242
vt 0.798471 0.826242
vt 0.829316 0.826242
vt 0.959505 0.902414
vt 0.859917 0.889781
vt 0.913044 0.594008
vt 0.966170 0.868728
vt 0.913044 0.889781
# 38 texture coordinates

vn 0.000000 1.000000 0.000000
vn -0.180706 -0.983248 -0.023840
vn -0.692475 -0.566289 0.446985
vn -0.714984 -0.553379 -0.427281
vn 0.449401 -0.700379 0.554533
vn -0.066377 -0.489106 0.869695
vn -0.152193 -0.760260 0.631540
vn -0.112557 -0.803527 -0.584530
vn -0.062713 -0.491352 -0.868700
vn 0.626182 -0.730854 -0.271568
vn 0.157930 -0.986810 0.035564
vn 0.530375 -0.587245 0.611429
vn -0.038440 -0.575563 0.816853
vn 0.853814 -0.520578 -0.000000
vn 0.203145 -0.372105 -0.905688
vn 0.452911 -0.384397 -0.804432
vn -0.013765 -0.548116 -0.836289
vn -0.643059 -0.764254 0.048901
vn 0.576832 -0.590164 -0.564775
vn 0.803918 -0.463219 0.373021
vn 0.408177 -0.453056 0.792548
vn 0.462235 -0.483056 -0.743637
vn 0.898801 -0.438302 -0.006928
vn 0.297833 -0.628973 0.718115
vn 0.449129 -0.475369 0.756510
vn -0.836613 -0.258404 0.483018
vn -0.946065 -0.323976 0.000000
vn -0.836613 -0.258404 -0.483018
vn -0.404904 -0.249224 -0.879739
vn 0.293196 -0.174632 -0.939968
vn 0.800105 -0.351760 -0.485899
vn -0.469023 -0.431907 0.770373
vn 0.810936 0.576751 -0.098701
vn -0.462429 0.584630 -0.666609
vn -0.232336 0.577815 0.782400
vn 0.403126 -0.913423 -0.056103
vn 0.673103 0.455598 -0.582548
vn -0.622974 0.656566 -0.425236
vn 0.370821 0.694868 0.616157
vn 0.240129 -0.906408 -0.347509
# 40 normals

g Regroup00
s 1
f 1/1/1 16/2/1 10/3/1
f 13/4/1 6/5/1 4/6/1
f 3/7/1 15/8/1 1/1/1
f 1/1/1 8/9/1 14/10/1
f 13/4/1 4/6/1 11/11/1
f 3/7/1 1/1/1 10/3/1
f 9/6/1 13/4/1 11/11/1
f 7/7/1 12/3/1 1/1/1
f 5/12/1 13/4/1 9/6/1
f 2/1/1 1/1/1 14/10/1
f 7/7/1 1/1/1 15/8/1
f 2/1/1 16/2/1 1/1/1
f 8/9/1 1/1/1 17/10/1
# 13 triangles in group

g Regroup01
f 18/13/2 34/14/3 35/14/4
f 30/15/5 43/16/6 38/17/7
f 46/17/8 36/18/9 31/19/10
f 29/20/11 48/21/12 32/22/13
f 39/23/14 48/21/12 29/20/11
f 30/15/5 18/13/2 31/19/10
f 36/18/9 46/17/8 35/14/4
f 24/24/15 28/25/16 22/22/17
f 22/22/17 29/20/11 33/26/18
f 22/22/17 47/21/19 29/20/11
f 19/27/20 30/15/5 31/19/10
f 37/28/21 43/16/6 30/15/5
f 44/29/22 31/19/10 36/18/9
f 42/30/23 19/27/20 31/19/10
f 23/28/24 32/22/13 25/25/25
f 32/22/13 33/26/18 29/20/11
f 43/16/6 34/14/3 38/17/7
f 41/31/26 27/32/27 34/14/3
f 27/32/27 35/14/4 34/14/3
f 45/31/28 21/33/29 35/14/4
f 21/33/29 36/18/9 35/14/4
f 21/33/29 40/28/30 36/18/9
f 19/27/20 37/28/21 30/15/5
f 18/13/2 38/17/7 34/14/3
f 18/13/2 30/15/5 38/17/7
f 47/21/19 39/23/14 29/20/11
f 26/27/31 31/19/10 44/29/22
f 20/33/32 41/31/26 34/14/3
f 26/27/31 42/30/23 31/19/10
f 20/33/32 34/14/3 43/16/6
f 40/28/30 44/29/22 36/18/9
f 40/28/30 26/27/31 44/29/22
f 27/32/27 45/31/28 35/14/4
f 18/13/2 46/17/8 31/19/10
f 18/13/2 35/14/4 46/17/8
f 28/25/16 47/21/19 22/22/17
f 28/25/16 39/23/14 47/21/19
f 25/25/25 48/21/12 39/23/14
f 25/25/25 32/22/13 48/21/12
# 39 triangles in group

g Sphere07
f 50/34/33 52/35/34 51/35/35
f 49/36/36 50/34/33 51/35/35
f 49/36/36 51/35/35 52/35/34
f 49/36/36 52/35/34 50/34/33
# 4 triangles in group

g Duplicate03
f 56/37/37 55/35/38 54/38/39
f 56/37/37 54/38/39 53/36/40
f 53/36/40 54/38/39 55/35/38
f 55/35/38 56/37/37 53/36/40
# 4 triangles in group

# 60 triangles total

