# Wavefront OBJ exported by MilkShape 3D

mtllib Jewel.mtl

v 4.950639 -8.066327 3.804785
v 16.738708 1.647958 3.737705
v 10.802925 1.647958 13.719953
v -1.068649 1.647958 13.719953
v -7.004442 1.647958 3.737705
v -1.068649 1.647958 -6.244544
v 10.802925 1.647958 -6.244544
v 12.296082 8.066327 3.737705
v 8.581609 8.066327 8.928375
v 1.152659 8.066327 8.928375
v -2.561806 8.066327 3.737705
v 1.152659 8.066327 -1.452970
v 8.581609 8.066327 -1.452970
v 4.974419 8.066327 3.771908
v -13.040794 7.653442 6.430012
v -8.838419 -5.280155 6.430012
v -5.392868 -0.585869 8.239721
v -8.627165 -1.636755 11.803553
v -14.637516 -3.589639 4.620302
v -11.403236 -2.538756 1.056471
v -7.494060 5.880929 8.239721
v -10.728357 4.830044 11.803551
v -16.738708 2.877164 4.620302
v -13.504425 3.928046 1.056472
v -6.239553 -5.456722 -6.425290
v -4.848322 3.237148 -13.185765
v -1.873921 4.499706 -5.869777
v -6.245090 2.644256 0.912017
v -13.590668 -0.473756 0.377831
v -16.565067 -1.736314 -6.938159
v -12.193897 0.119137 -13.719953
v -8.409790 7.079381 -10.647853
v -7.094333 7.637759 -6.484900
v -9.829710 6.476662 -2.241014
v -13.880531 4.757190 -2.160083
v -15.195995 4.198810 -6.323030
v -12.460617 5.359907 -10.566916
v -11.087984 5.942558 -6.451802
# 38 vertices

vt 0.298279 0.824504
vt 0.361290 0.910186
vt 0.329561 0.910186
vt 0.266104 0.910186
vt 0.234375 0.910186
vt 0.337543 0.966797
vt 0.317688 0.966797
vt 0.277978 0.966797
vt 0.258123 0.966797
vt 0.298406 0.966797
vt 0.726409 0.611239
vt 0.770840 0.669219
vt 0.729134 0.656240
vt 0.672219 0.770985
vt 0.702038 0.736113
vt 0.743745 0.749093
vt 0.651629 0.632119
vt 0.624534 0.711992
vt 0.693336 0.645099
vt 0.666241 0.724972
vt 0.708435 0.220988
vt 0.771446 0.306670
vt 0.739717 0.306670
vt 0.676260 0.306670
vt 0.644531 0.306670
vt 0.747699 0.363281
vt 0.727844 0.363281
vt 0.688134 0.363281
vt 0.668279 0.363281
vt 0.708562 0.363281
# 30 texture coordinates

vn 0.002020 -0.999997 0.001686
vn 0.986813 0.161865 0.000306
vn 0.494889 -0.104122 0.862695
vn -0.477282 0.203720 0.854810
vn -0.987124 -0.159957 0.000459
vn -0.477651 0.202416 -0.854914
vn 0.495131 -0.107006 -0.862204
vn 0.429388 0.903120 0.000000
vn 0.275893 0.825634 0.492150
vn -0.189500 0.911417 0.365251
vn -0.555888 0.831257 0.000000
vn -0.189500 0.911417 -0.365251
vn 0.275893 0.825634 -0.492150
vn 0.000000 1.000000 0.000000
vn 0.318566 -0.947899 -0.001496
vn 0.999668 -0.018180 -0.018248
vn 0.090410 -0.520860 0.848841
vn -0.299435 0.954115 -0.001496
vn -0.167248 0.324890 0.930846
vn 0.685460 0.727158 -0.037223
vn -0.790986 -0.611589 0.017309
vn -0.978584 0.202710 0.035817
vn 0.241052 -0.464975 -0.851876
vn -0.047231 0.358604 -0.932294
vn 0.393064 -0.919511 -0.000685
vn 0.468907 0.349697 -0.811072
vn 0.951262 0.293350 0.095110
vn 0.330759 0.331949 0.883407
vn -0.459979 -0.365315 0.809299
vn -0.969428 -0.221478 -0.105631
vn -0.352743 -0.263289 -0.897915
vn -0.115436 0.924224 -0.363983
vn 0.227252 0.971779 0.063268
vn -0.165429 0.908753 0.383147
vn -0.624305 0.620643 0.474390
vn -0.747374 0.661732 -0.059525
vn -0.554952 0.639752 -0.531738
vn -0.390731 0.920505 -0.000000
# 38 normals

g Sphere03
usemtl Material05
s 1
f 1/1/1 2/2/2 3/3/3
f 1/1/1 3/3/3 4/4/4
f 1/1/1 4/4/4 5/5/5
f 1/1/1 5/5/5 6/4/6
f 1/1/1 6/4/6 7/3/7
f 1/1/1 7/3/7 2/2/2
f 2/2/2 8/6/8 9/7/9
f 2/2/2 9/7/9 3/3/3
f 3/3/3 9/7/9 4/4/4
f 9/7/9 10/8/10 4/4/4
f 4/4/4 10/8/10 11/9/11
f 4/4/4 11/9/11 5/5/5
f 5/5/5 11/9/11 6/4/6
f 11/9/11 12/8/12 6/4/6
f 6/4/6 12/8/12 13/7/13
f 6/4/6 13/7/13 7/3/7
f 7/3/7 13/7/13 2/2/2
f 13/7/13 8/6/8 2/2/2
f 13/7/13 12/8/12 14/10/14
f 12/8/12 11/9/11 14/10/14
f 14/10/14 11/9/11 10/8/10
f 14/10/14 10/8/10 9/7/9
f 8/6/8 14/10/14 9/7/9
f 13/7/13 14/10/14 8/6/8
# 24 triangles in group

g Sphere07
usemtl Material05
f 16/11/15 17/12/16 18/13/17
f 15/14/18 22/15/19 21/16/20
f 16/11/15 18/13/17 19/17/21
f 15/14/18 23/18/22 22/15/19
f 16/11/15 19/17/21 20/19/23
f 15/14/18 24/20/24 23/18/22
f 16/11/15 20/19/23 17/12/16
f 15/14/18 21/16/20 24/20/24
f 17/12/16 21/16/20 22/15/19
f 17/12/16 22/15/19 18/13/17
f 18/13/17 22/15/19 19/17/21
f 22/15/19 23/18/22 19/17/21
f 19/17/21 23/18/22 24/20/24
f 19/17/21 24/20/24 20/19/23
f 20/19/23 24/20/24 17/12/16
f 24/20/24 21/16/20 17/12/16
# 16 triangles in group

g Duplicate05
usemtl Material05
f 25/21/25 26/22/26 27/23/27
f 25/21/25 27/23/27 28/24/28
f 25/21/25 28/24/28 29/25/29
f 25/21/25 29/25/29 30/24/30
f 25/21/25 30/24/30 31/23/31
f 25/21/25 31/23/31 26/22/26
f 26/22/26 32/26/32 33/27/33
f 26/22/26 33/27/33 27/23/27
f 27/23/27 33/27/33 28/24/28
f 33/27/33 34/28/34 28/24/28
f 28/24/28 34/28/34 35/29/35
f 28/24/28 35/29/35 29/25/29
f 29/25/29 35/29/35 30/24/30
f 35/29/35 36/28/36 30/24/30
f 30/24/30 36/28/36 37/27/37
f 30/24/30 37/27/37 31/23/31
f 31/23/31 37/27/37 26/22/26
f 37/27/37 32/26/32 26/22/26
f 37/27/37 36/28/36 38/30/38
f 36/28/36 35/29/35 38/30/38
f 38/30/38 35/29/35 34/28/34
f 38/30/38 34/28/34 33/27/33
f 32/26/32 38/30/38 33/27/33
f 37/27/37 38/30/38 32/26/32
# 24 triangles in group

# 64 triangles total

