# Wavefront OBJ exported by MilkShape 3D

mtllib Jewel.mtl

v 0.083505 -8.071428 0.067081
v 11.871575 1.642857 0.000001
v 5.935792 1.642857 9.982248
v -5.935783 1.642857 9.982248
v -11.871575 1.642857 0.000001
v -5.935783 1.642857 -9.982248
v 5.935792 1.642857 -9.982248
v 7.428949 8.061226 0.000001
v 3.714475 8.061226 5.190671
v -3.714475 8.061226 5.190671
v -7.428940 8.061226 0.000001
v -3.714475 8.061226 -5.190674
v 3.714475 8.061226 -5.190674
v 0.107285 8.061226 0.034204
# 14 vertices

vt 0.302185 0.215129
vt 0.365196 0.300811
vt 0.333467 0.300811
vt 0.270010 0.300811
vt 0.238281 0.300811
vt 0.341449 0.357422
vt 0.321594 0.357422
vt 0.281884 0.357422
vt 0.262029 0.357422
vt 0.302312 0.357422
# 10 texture coordinates

vn 0.002020 -0.999997 0.001686
vn 0.986813 0.161865 0.000306
vn 0.494889 -0.104122 0.862695
vn -0.477282 0.203720 0.854810
vn -0.987124 -0.159957 0.000459
vn -0.477651 0.202416 -0.854914
vn 0.495131 -0.107006 -0.862204
vn 0.429388 0.903120 0.000000
vn 0.275893 0.825634 0.492151
vn -0.189500 0.911417 0.365251
vn -0.555888 0.831257 0.000000
vn -0.189500 0.911417 -0.365251
vn 0.275893 0.825634 -0.492150
vn 0.000000 1.000000 0.000000
# 14 normals

g Sphere03
usemtl Material01
s 1
f 1/1/1 2/2/2 3/3/3
f 1/1/1 3/3/3 4/4/4
f 1/1/1 4/4/4 5/5/5
f 1/1/1 5/5/5 6/4/6
f 1/1/1 6/4/6 7/3/7
f 1/1/1 7/3/7 2/2/2
f 2/2/2 8/6/8 9/7/9
f 2/2/2 9/7/9 3/3/3
f 3/3/3 9/7/9 4/4/4
f 9/7/9 10/8/10 4/4/4
f 4/4/4 10/8/10 11/9/11
f 4/4/4 11/9/11 5/5/5
f 5/5/5 11/9/11 6/4/6
f 11/9/11 12/8/12 6/4/6
f 6/4/6 12/8/12 13/7/13
f 6/4/6 13/7/13 7/3/7
f 7/3/7 13/7/13 2/2/2
f 13/7/13 8/6/8 2/2/2
f 13/7/13 12/8/12 14/10/14
f 12/8/12 11/9/11 14/10/14
f 14/10/14 11/9/11 10/8/10
f 14/10/14 10/8/10 9/7/9
f 8/6/8 14/10/14 9/7/9
f 13/7/13 14/10/14 8/6/8
# 24 triangles in group

# 24 triangles total

