# Wavefront OBJ exported by MilkShape 3D

mtllib Jungle Leaf.mtl

v 1.116469 0.410509 0.044429
v -0.383531 0.410509 0.044429
v 1.116469 0.529556 -0.788904
v -0.383531 0.529556 -0.788904
v 1.116469 0.386699 -1.717475
v -0.383531 0.386699 -1.717475
v 0.459723 0.410509 0.929351
v 0.459723 0.410509 -0.570650
v 1.293057 0.529556 0.929350
v 1.293056 0.529556 -0.570650
v 2.221628 0.386699 0.929351
v 2.221628 0.386699 -0.570650
v -0.508531 0.410509 0.064271
v 0.991469 0.410509 0.064272
v -0.508531 0.529556 0.897605
v 0.991470 0.529556 0.897604
v -0.508531 0.386699 1.826176
v 0.991469 0.386699 1.826176
v 0.148215 0.410509 -0.820650
v 0.148215 0.410509 0.679351
v -0.685118 0.529556 -0.820651
v -0.685118 0.529556 0.679350
v -1.613690 0.386699 -0.820651
v -1.613690 0.386699 0.679350
# 24 vertices

vt 0.437454 0.849229
vt 0.245731 0.849229
vt 0.245731 0.701671
vt 0.437454 0.701671
vt 0.437454 0.996786
vt 0.245731 0.996786
# 6 texture coordinates

vn 0.000000 0.999986 -0.005376
vn 0.000000 0.989950 0.141421
vn 0.000000 0.988372 -0.152057
vn 0.005376 0.999986 -0.000000
vn -0.141421 0.989950 -0.000000
vn 0.152057 0.988372 0.000000
vn 0.000000 0.999986 0.005376
vn -0.000000 0.989950 -0.141422
vn 0.000000 0.988372 0.152057
vn -0.005376 0.999986 0.000000
vn 0.141421 0.989949 0.000000
vn -0.152057 0.988372 -0.000000
# 12 normals

g Regroup05
usemtl Material01
s 1
f 3/1/1 4/2/1 2/3/2
f 3/1/1 2/3/2 1/4/2
f 3/1/1 5/5/3 6/6/3
f 3/1/1 6/6/3 4/2/1
f 9/1/4 10/2/4 8/3/5
f 9/1/4 8/3/5 7/4/5
f 9/1/4 11/5/6 12/6/6
f 9/1/4 12/6/6 10/2/4
f 15/1/7 16/2/7 14/3/8
f 15/1/7 14/3/8 13/4/8
f 15/1/7 17/5/9 18/6/9
f 15/1/7 18/6/9 16/2/7
f 21/1/10 22/2/10 20/3/11
f 21/1/10 20/3/11 19/4/11
f 21/1/10 23/5/12 24/6/12
f 21/1/10 24/6/12 22/2/10
# 16 triangles in group

# 16 triangles total

