# Wavefront OBJ exported by MilkShape 3D

mtllib Kanu.mtl

v 0.001354 -5.468323 25.829460
v 0.001354 -9.743652 8.678767
v -6.441101 -5.468323 20.915928
v 0.001354 -9.743652 8.678767
v -9.109066 -5.468323 8.678767
v 0.001354 -9.743652 8.678767
v -6.441101 -5.468323 -13.793977
v 0.001354 -9.743652 8.678767
v 0.001354 -5.468323 -18.825859
v -9.074165 -0.547038 25.829460
v -12.882128 -0.547038 8.678767
v -9.074165 -0.547038 -18.825859
v 0.001354 -0.540988 -25.963856
v 0.001354 9.750928 25.829460
v -6.412117 9.750928 25.829460
v -9.021814 9.750928 8.678767
v -6.412117 9.750928 -13.804062
v 0.001354 9.750928 -18.825859
v 0.001354 9.750928 25.829460
v -9.074165 -0.547038 25.829460
v 0.001354 -0.547038 25.829460
v 0.001354 -5.468323 25.829460
v 0.001354 9.750928 23.123682
v -6.412117 9.750928 23.123682
v -6.412117 9.750928 25.829460
v -7.019047 9.750928 8.678767
v -9.109066 9.750928 8.678767
v -6.412117 9.750928 -12.689078
v -6.412117 9.750928 -13.804062
v 0.001354 9.750928 -17.204376
v 0.001354 9.750928 -18.825859
v -5.121247 4.012010 -21.498173
v -5.580975 2.900721 -21.498165
v -6.690853 3.945343 -22.364838
v -6.690853 2.440405 -21.498173
v -7.800732 2.900721 -21.498165
v -8.260458 4.012010 -21.498173
v -7.800732 5.123309 -21.498173
v -6.690853 5.583620 -21.498173
v -5.580975 5.123309 -21.498173
v -5.656034 3.998380 -11.555268
v -6.690853 3.931713 -11.555268
v -5.959125 2.981210 -11.555268
v -5.121247 4.012010 -21.498173
v -5.656034 3.998380 -11.555268
v -5.959125 2.981210 -11.555268
v -5.580975 2.900721 -21.498165
v -6.690853 2.559878 -11.555268
v -6.690853 2.440405 -21.498173
v -6.690853 2.559878 -11.555268
v -7.422581 2.981210 -11.555268
v -7.422581 2.981210 -11.555268
v -7.800732 2.900721 -21.498165
v -7.725674 3.998380 -11.555268
v -8.260458 4.012010 -21.498173
v -7.725674 3.998380 -11.555268
v -7.422581 5.015542 -11.555268
v -7.422581 5.015555 -11.555268
v -7.800732 5.123309 -21.498173
v -6.690853 5.436875 -11.555268
v -6.690853 5.583620 -21.498173
v -6.690853 5.436889 -11.555268
v -5.959125 5.015542 -11.555268
v -5.959125 5.015555 -11.555268
v -5.580975 5.123309 -21.498173
v -5.121247 4.012010 -21.498173
v -5.656034 3.998380 -11.555268
v -7.500000 4.962500 -4.533333
v -9.074165 -0.547038 8.678767
v -6.408079 -0.364692 -18.839462
v -9.021814 9.750928 8.678767
v -6.412117 9.750928 -13.804062
v -6.412117 9.750928 25.829460
v -9.021814 9.750928 8.678767
v -9.074165 -0.547038 8.678767
v -6.412117 -0.547038 25.829460
v -7.500000 4.962500 16.633333
v 0.001354 -0.547038 -18.825859
v 0.001354 5.162499 -18.825859
v 0.001354 9.750928 -18.825859
v 0.001354 -0.547038 -25.963856
v -6.412117 9.750928 -12.699998
v -6.408079 -0.364692 -18.839462
v 0.001354 5.162499 23.123682
v 0.001354 9.750928 23.123682
v -6.412117 9.750928 23.123682
v 0.001354 -0.547038 23.123682
v -6.412117 -0.547038 23.123682
v 0.001354 0.000000 -25.963856
v -6.408079 -0.364692 -18.839462
v -9.100002 0.000000 8.678767
v 0.001354 0.000000 8.678767
v -6.400002 0.000000 23.123682
v 0.001354 0.000000 23.123682
v 0.001354 -5.468323 25.829460
v 0.001354 -9.743652 8.678767
v 6.441101 -5.468323 20.915928
v 0.001354 -9.743652 8.678767
v 9.109066 -5.468323 8.678767
v 0.001354 -9.743652 8.678767
v 6.441101 -5.468323 -13.793977
v 0.001354 -9.743652 8.678767
v 0.001354 -5.468323 -18.825859
v 9.074165 -0.547038 25.829460
v 12.882128 -0.547038 8.678767
v 9.074165 -0.547038 -18.825859
v 0.001354 -0.540988 -25.963856
v 0.001354 9.750928 25.829460
v 6.412117 9.750928 25.829460
v 9.021814 9.750928 8.678767
v 6.412117 9.750928 -13.804062
v 0.001354 9.750928 -18.825859
v 0.001354 9.750928 25.829460
v 9.074165 -0.547038 25.829460
v 0.001354 -0.547038 25.829460
v 0.001354 -5.468323 25.829460
v 0.001354 9.750928 23.123682
v 6.412117 9.750928 23.123682
v 6.412117 9.750928 25.829460
v 7.019047 9.750928 8.678767
v 9.109066 9.750928 8.678767
v 6.412117 9.750928 -12.689078
v 6.412117 9.750928 -13.804062
v 0.001354 9.750928 -17.204376
v 0.001354 9.750928 -18.825859
v 5.121247 4.012010 -21.498173
v 5.580975 2.900721 -21.498165
v 6.690853 3.945343 -22.364838
v 6.690853 2.440405 -21.498173
v 7.800732 2.900721 -21.498165
v 8.260458 4.012010 -21.498173
v 7.800732 5.123309 -21.498173
v 6.690853 5.583620 -21.498173
v 5.580975 5.123309 -21.498173
v 5.656034 3.998380 -11.555268
v 6.690853 3.931713 -11.555268
v 5.959125 2.981210 -11.555268
v 5.121247 4.012010 -21.498173
v 5.656034 3.998380 -11.555268
v 5.959125 2.981210 -11.555268
v 5.580975 2.900721 -21.498165
v 6.690853 2.559878 -11.555268
v 6.690853 2.440405 -21.498173
v 6.690853 2.559878 -11.555268
v 7.422581 2.981210 -11.555268
v 7.422581 2.981210 -11.555268
v 7.800732 2.900721 -21.498165
v 7.725674 3.998380 -11.555268
v 8.260458 4.012010 -21.498173
v 7.725674 3.998380 -11.555268
v 7.422581 5.015542 -11.555268
v 7.422581 5.015555 -11.555268
v 7.800732 5.123309 -21.498173
v 6.690853 5.436875 -11.555268
v 6.690853 5.583620 -21.498173
v 6.690853 5.436889 -11.555268
v 5.959125 5.015542 -11.555268
v 5.959125 5.015555 -11.555268
v 5.580975 5.123309 -21.498173
v 5.121247 4.012010 -21.498173
v 5.656034 3.998380 -11.555268
v 7.500000 4.962500 -4.533333
v 9.074165 -0.547038 8.678767
v 6.408079 -0.364692 -18.839462
v 9.021814 9.750928 8.678767
v 6.412117 9.750928 -13.804062
v 6.412117 9.750928 25.829460
v 9.021814 9.750928 8.678767
v 9.074165 -0.547038 8.678767
v 6.412117 -0.547038 25.829460
v 7.500000 4.962500 16.633333
v 0.001354 5.162499 -18.825859
v 0.001354 9.750928 -18.825859
v 0.001354 -0.547038 -25.963856
v 6.412117 9.750928 -12.699998
v 6.408079 -0.364692 -18.839462
v 0.001354 5.162499 23.123682
v 0.001354 9.750928 23.123682
v 6.412117 9.750928 23.123682
v 0.001354 -0.547038 23.123682
v 6.412117 -0.547038 23.123682
v 0.001354 0.000000 -25.963856
v 6.408079 -0.364692 -18.839462
v 9.100002 0.000000 8.678767
v 0.001354 0.000000 8.678767
v 6.400002 0.000000 23.123682
v 0.001354 0.000000 23.123682
# 187 vertices

vt 0.904018 0.811588
vt 0.904018 0.848210
vt 0.866071 0.848210
vt 0.850353 0.848210
vt 0.850353 0.890056
vt 0.828125 0.890056
vt 0.904280 0.890056
vt 0.904018 0.978516
vt 0.866071 0.978516
vt 0.850353 0.978516
vt 0.905705 0.978515
vt 0.875272 0.978515
vt 0.862666 0.978515
vt 0.677013 0.133798
vt 0.671716 0.120346
vt 0.658927 0.132991
vt 0.658927 0.114774
vt 0.646139 0.120346
vt 0.640841 0.133798
vt 0.646139 0.147250
vt 0.658927 0.152822
vt 0.671716 0.147250
vt 0.841722 0.884294
vt 0.833081 0.883450
vt 0.839191 0.871423
vt 0.846188 0.884466
vt 0.842349 0.870405
vt 0.833081 0.866092
vt 0.833081 0.864580
vt 0.826971 0.871423
vt 0.823813 0.870405
vt 0.824440 0.884294
vt 0.819974 0.884466
vt 0.826971 0.897164
vt 0.823813 0.898528
vt 0.833081 0.902496
vt 0.833081 0.904352
vt 0.839191 0.897164
vt 0.842349 0.898528
vt 0.000000 1.000000
# 40 texture coordinates

vn -0.181415 -0.954206 0.237865
vn -0.299584 -0.869456 0.392804
vn -0.471788 -0.839015 0.271053
vn -0.423016 -0.901417 0.092227
vn -0.697087 -0.716320 0.030913
vn -0.424287 -0.904126 -0.050371
vn -0.476721 -0.851071 -0.220037
vn -0.119112 -0.981099 -0.152502
vn -0.320989 -0.853764 -0.409944
vn -0.828565 -0.289833 0.479037
vn -0.988138 -0.148187 0.040298
vn -0.870278 -0.169330 -0.462541
vn -0.608621 -0.174779 -0.773972
vn 0.000000 0.000000 1.000000
vn -0.632750 0.163567 0.756884
vn -0.949242 0.313297 0.028012
vn -0.800338 0.416972 -0.430806
vn -0.542365 0.477982 -0.690922
vn 0.000000 1.000000 0.000000
vn 0.483449 -0.002593 -0.875369
vn 0.348529 -0.350809 -0.869172
vn -0.000000 -0.010111 -0.999949
vn 0.000000 -0.499045 -0.866576
vn -0.348529 -0.350809 -0.869172
vn -0.483449 -0.002593 -0.875369
vn -0.335393 0.332502 -0.881450
vn 0.000000 0.467610 -0.883935
vn 0.335393 0.332502 -0.881450
vn 0.941499 -0.334038 0.044709
vn 0.957107 -0.285194 0.051088
vn 0.746776 -0.664261 0.032913
vn 0.706978 -0.706484 0.032607
vn 0.000000 -0.999836 0.018128
vn 0.000000 -0.999928 0.012015
vn -0.746776 -0.664261 0.032913
vn -0.706978 -0.706483 0.032607
vn -0.998851 -0.000008 0.047918
vn -0.998557 -0.000007 0.053708
vn -0.746731 0.664219 0.034733
vn -0.706935 0.706435 0.034542
vn 0.000000 0.999782 0.020868
vn 0.000000 0.999891 0.014756
vn 0.746731 0.664219 0.034733
vn 0.706934 0.706435 0.034542
vn 0.941460 0.334022 0.045623
vn 0.957069 0.285181 0.051868
vn 0.994264 -0.024179 0.104184
vn 0.994094 -0.026836 0.105153
vn 0.994276 -0.049908 0.094473
vn 0.993270 -0.003747 0.115766
vn 0.993916 -0.029493 0.106122
vn 0.984896 0.029611 -0.170599
vn 0.988214 -0.000401 -0.153077
vn 0.984539 -0.032903 -0.172046
vn 0.990328 -0.030408 -0.135372
vn 0.990476 0.032103 -0.133887
vn 0.754076 -0.318602 0.574336
vn 0.489914 -0.569737 0.659837
vn 0.882558 -0.367189 0.293707
vn 0.919431 0.000000 0.393252
vn 0.571288 -0.246607 0.782825
vn 0.000000 0.000000 -1.000000
vn -0.014206 0.999894 -0.003314
vn 0.000000 0.999978 -0.006626
vn -0.056807 0.998385 0.000000
vn -0.028416 0.999574 -0.006629
vn 0.471857 -0.838982 0.271034
vn 0.299680 -0.869441 0.392764
vn 0.181488 -0.954193 0.237861
vn 0.697114 -0.716294 0.030915
vn 0.423118 -0.901366 0.092249
vn 0.476785 -0.851040 -0.220017
vn 0.424390 -0.904077 -0.050384
vn 0.321080 -0.853745 -0.409910
vn 0.119161 -0.981093 -0.152501
vn 0.828580 -0.289827 0.479016
vn 0.988138 -0.148187 0.040298
vn 0.870313 -0.169323 -0.462476
vn 0.608734 -0.174775 -0.773884
vn 0.632750 0.163567 0.756884
vn 0.949242 0.313297 0.028012
vn 0.800388 0.416949 -0.430734
vn 0.542496 0.477954 -0.690839
vn -0.957107 -0.285194 0.051088
vn -0.941499 -0.334038 0.044709
vn 0.998851 -0.000008 0.047918
vn 0.998557 -0.000007 0.053708
vn -0.941460 0.334022 0.045623
vn -0.957069 0.285181 0.051868
vn -0.994276 -0.049908 0.094473
vn -0.994094 -0.026836 0.105153
vn -0.994264 -0.024179 0.104184
vn -0.993270 -0.003747 0.115766
vn -0.993916 -0.029493 0.106122
vn -0.984539 -0.032903 -0.172046
vn -0.988214 -0.000401 -0.153077
vn -0.984896 0.029611 -0.170599
vn -0.990328 -0.030408 -0.135372
vn -0.990476 0.032103 -0.133887
vn -0.882604 -0.367121 0.293653
vn -0.490069 -0.569676 0.659774
vn -0.754173 -0.318555 0.574235
vn -0.571441 -0.246589 0.782719
vn -0.919472 0.000000 0.393155
vn 0.014212 0.999893 -0.003314
vn 0.028428 0.999574 -0.006629
vn 0.056831 0.998384 0.000000
# 107 normals

g Sphere04
usemtl Material01
s 1
f 2/1/1 1/2/2 3/3/3
f 4/1/4 3/3/3 5/4/5
f 6/1/6 5/4/5 7/3/7
f 8/1/8 7/3/7 9/2/9
f 1/2/2 10/5/10 3/3/3
f 3/3/3 10/5/10 5/4/5
f 10/5/10 11/6/11 5/4/5
f 5/4/5 11/6/11 12/5/12
f 5/4/5 12/5/12 7/3/7
f 7/3/7 12/5/12 9/2/9
f 12/5/12 13/7/13 9/2/9
f 14/8/14 15/9/15 10/5/10
f 10/5/10 15/9/15 16/10/16
f 10/5/10 16/10/16 11/6/11
f 11/6/11 16/10/16 12/5/12
f 16/10/16 17/9/17 12/5/12
f 12/5/12 17/9/17 18/8/18
f 12/5/12 18/8/18 13/7/13
f 19/8/14 20/5/14 21/7/14
f 22/2/14 21/7/14 20/5/14
s 2
f 19/8/19 23/11/19 24/12/19
f 19/8/19 24/12/19 25/9/19
f 25/9/19 24/12/19 26/13/19
f 25/9/19 26/13/19 27/10/19
f 27/10/19 26/13/19 28/12/19
f 27/10/19 28/12/19 29/9/19
f 29/9/19 28/12/19 30/11/19
f 29/9/19 30/11/19 31/8/19
s 1
f 72/40/47 68/40/48 70/40/49
f 72/40/47 71/40/50 68/40/48
f 68/40/48 69/40/51 70/40/49
f 68/40/48 71/40/50 69/40/51
f 74/40/52 77/40/53 75/40/54
f 77/40/53 76/40/55 75/40/54
f 77/40/53 73/40/56 76/40/55
f 74/40/52 73/40/56 77/40/53
f 79/40/57 83/40/58 81/40/59
f 80/40/60 82/40/61 79/40/57
f 79/40/57 82/40/61 83/40/58
f 80/40/60 79/40/57 81/40/59
f 84/40/62 86/40/62 85/40/62
f 84/40/62 85/40/62 87/40/62
f 84/40/62 87/40/62 88/40/62
f 86/40/62 84/40/62 88/40/62
f 92/40/63 93/40/19 94/40/19
f 92/40/63 91/40/64 93/40/19
f 89/40/65 90/40/66 92/40/63
f 90/40/66 91/40/64 92/40/63
# 48 triangles in group

g Light
usemtl Material01
s 2
f 32/14/20 33/15/21 34/16/22
f 33/15/21 35/17/23 34/16/22
f 35/17/23 36/18/24 34/16/22
f 36/18/24 37/19/25 34/16/22
f 37/19/25 38/20/26 34/16/22
f 38/20/26 39/21/27 34/16/22
f 39/21/27 40/22/28 34/16/22
f 40/22/28 32/14/20 34/16/22
# 8 triangles in group

g Regroup03
usemtl Material01
f 41/23/14 42/24/14 43/25/14
s 1
f 44/26/29 45/23/30 46/25/31
f 44/26/29 46/25/31 47/27/32
s 2
f 43/25/14 42/24/14 48/28/14
s 1
f 47/27/32 46/25/31 49/29/33
f 46/25/31 50/28/34 49/29/33
s 2
f 48/28/14 42/24/14 51/30/14
s 1
f 49/29/33 50/28/34 52/30/35
f 49/29/33 52/30/35 53/31/36
s 2
f 51/30/14 42/24/14 54/32/14
s 1
f 53/31/36 52/30/35 55/33/37
f 52/30/35 56/32/38 55/33/37
s 2
f 54/32/14 42/24/14 57/34/14
s 1
f 55/33/37 56/32/38 58/34/39
f 55/33/37 58/34/39 59/35/40
s 2
f 57/34/14 42/24/14 60/36/14
s 1
f 59/35/40 58/34/39 61/37/41
f 58/34/39 62/36/42 61/37/41
s 2
f 60/36/14 42/24/14 63/38/14
s 1
f 61/37/41 62/36/42 64/38/43
f 61/37/41 64/38/43 65/39/44
s 2
f 63/38/14 42/24/14 41/23/14
s 1
f 65/39/44 64/38/43 66/26/45
f 64/38/43 67/23/46 66/26/45
# 24 triangles in group

g Duplicate11
usemtl Material01
f 97/3/67 95/2/68 96/1/69
f 99/4/70 97/3/67 98/1/71
f 101/3/72 99/4/70 100/1/73
f 103/2/74 101/3/72 102/1/75
f 97/3/67 104/5/76 95/2/68
f 99/4/70 104/5/76 97/3/67
f 99/4/70 105/6/77 104/5/76
f 106/5/78 105/6/77 99/4/70
f 101/3/72 106/5/78 99/4/70
f 103/2/74 106/5/78 101/3/72
f 103/2/74 107/7/79 106/5/78
f 104/5/76 109/9/80 108/8/14
f 110/10/81 109/9/80 104/5/76
f 105/6/77 110/10/81 104/5/76
f 106/5/78 110/10/81 105/6/77
f 106/5/78 111/9/82 110/10/81
f 112/8/83 111/9/82 106/5/78
f 107/7/79 112/8/83 106/5/78
f 115/7/14 114/5/14 113/8/14
f 114/5/14 115/7/14 116/2/14
s 2
f 118/12/19 117/11/19 113/8/19
f 119/9/19 118/12/19 113/8/19
f 120/13/19 118/12/19 119/9/19
f 121/10/19 120/13/19 119/9/19
f 122/12/19 120/13/19 121/10/19
f 123/9/19 122/12/19 121/10/19
f 124/11/19 122/12/19 123/9/19
f 125/8/19 124/11/19 123/9/19
f 128/16/22 127/15/24 126/14/25
f 128/16/22 129/17/23 127/15/24
f 128/16/22 130/18/21 129/17/23
f 128/16/22 131/19/20 130/18/21
f 128/16/22 132/20/28 131/19/20
f 128/16/22 133/21/27 132/20/28
f 128/16/22 134/22/26 133/21/27
f 128/16/22 126/14/25 134/22/26
f 137/25/14 136/24/14 135/23/14
s 1
f 140/25/35 139/23/84 138/26/85
f 141/27/36 140/25/35 138/26/85
s 2
f 142/28/14 136/24/14 137/25/14
s 1
f 143/29/33 140/25/35 141/27/36
f 143/29/33 144/28/34 140/25/35
s 2
f 145/30/14 136/24/14 142/28/14
s 1
f 146/30/31 144/28/34 143/29/33
f 147/31/32 146/30/31 143/29/33
s 2
f 148/32/14 136/24/14 145/30/14
s 1
f 149/33/86 146/30/31 147/31/32
f 149/33/86 150/32/87 146/30/31
s 2
f 151/34/14 136/24/14 148/32/14
s 1
f 152/34/43 150/32/87 149/33/86
f 153/35/44 152/34/43 149/33/86
s 2
f 154/36/14 136/24/14 151/34/14
s 1
f 155/37/41 152/34/43 153/35/44
f 155/37/41 156/36/42 152/34/43
s 2
f 157/38/14 136/24/14 154/36/14
s 1
f 158/38/39 156/36/42 155/37/41
f 159/39/40 158/38/39 155/37/41
s 2
f 135/23/14 136/24/14 157/38/14
s 1
f 160/26/88 158/38/39 159/39/40
f 160/26/88 161/23/89 158/38/39
f 164/40/90 162/40/91 166/40/92
f 162/40/91 165/40/93 166/40/92
f 164/40/90 163/40/94 162/40/91
f 163/40/94 165/40/93 162/40/91
f 169/40/95 171/40/96 168/40/97
f 169/40/95 170/40/98 171/40/96
f 170/40/98 167/40/99 171/40/96
f 171/40/96 167/40/99 168/40/97
f 174/40/100 176/40/101 172/40/102
f 172/40/102 175/40/103 173/40/104
f 176/40/101 175/40/103 172/40/102
f 174/40/100 172/40/102 173/40/104
f 178/40/62 179/40/62 177/40/62
f 180/40/62 178/40/62 177/40/62
f 181/40/62 180/40/62 177/40/62
f 181/40/62 177/40/62 179/40/62
f 187/40/19 186/40/19 185/40/105
f 186/40/19 184/40/64 185/40/105
f 185/40/105 183/40/106 182/40/107
f 185/40/105 184/40/64 183/40/106
# 80 triangles in group

# 160 triangles total

