# Wavefront OBJ exported by MilkShape 3D

mtllib Kanu.mtl

v 0.001354 -5.471961 -25.896658
v 0.001354 -9.747290 -8.745965
v -6.441101 -5.471961 -20.983126
v 0.001354 -9.747290 -8.745965
v -9.109066 -5.471961 -8.745965
v 0.001354 -9.747290 -8.745965
v -6.441101 -5.471961 13.726779
v 0.001354 -9.747290 -8.745965
v 0.001354 -5.471961 18.758661
v -9.074165 -0.550676 -25.896658
v -12.882128 -0.550676 -8.745965
v -9.074165 -0.550676 18.758661
v 0.001354 -0.544626 25.896658
v 0.001354 9.747290 -25.896658
v -6.412117 9.747290 -25.896658
v -9.021814 9.747290 -8.745965
v -6.412117 9.747290 13.736864
v 0.001354 9.747290 18.758661
v 0.001354 9.747290 -25.896658
v -9.074165 -0.550676 -25.896658
v 0.001354 -0.550676 -25.896658
v 0.001354 -5.471961 -25.896658
v 0.001354 9.747290 -23.190880
v -6.412117 9.747290 -23.190880
v -6.412117 9.747290 -25.896658
v -7.019047 9.747290 -8.745965
v -9.109066 9.747290 -8.745965
v -6.412117 9.747290 12.621881
v -6.412117 9.747290 13.736864
v 0.001354 9.747290 17.137178
v 0.001354 9.747290 18.758661
v -5.121247 4.008372 21.430975
v -5.580975 2.897083 21.430967
v -6.690853 3.941705 22.297640
v -6.690853 2.436767 21.430975
v -7.800732 2.897083 21.430967
v -8.260458 4.008372 21.430975
v -7.800732 5.119671 21.430975
v -6.690853 5.579982 21.430975
v -5.580975 5.119671 21.430975
v -5.656034 3.994742 11.488070
v -6.690853 3.928075 11.488070
v -5.959125 2.977572 11.488070
v -5.121247 4.008372 21.430975
v -5.656034 3.994742 11.488070
v -5.959125 2.977572 11.488070
v -5.580975 2.897083 21.430967
v -6.690853 2.556240 11.488070
v -6.690853 2.436767 21.430975
v -6.690853 2.556240 11.488070
v -7.422581 2.977572 11.488070
v -7.422581 2.977572 11.488070
v -7.800732 2.897083 21.430967
v -7.725674 3.994742 11.488070
v -8.260458 4.008372 21.430975
v -7.725674 3.994742 11.488070
v -7.422581 5.011904 11.488070
v -7.422581 5.011917 11.488070
v -7.800732 5.119671 21.430975
v -6.690853 5.433237 11.488070
v -6.690853 5.579982 21.430975
v -6.690853 5.433251 11.488070
v -5.959125 5.011904 11.488070
v -5.959125 5.011917 11.488070
v -5.580975 5.119671 21.430975
v -5.121247 4.008372 21.430975
v -5.656034 3.994742 11.488070
v -7.500000 4.958862 4.466135
v -9.074165 -0.550676 -8.745965
v -6.408079 -0.368330 18.772264
v -9.021814 9.747290 -8.745965
v -6.412117 9.747290 13.736864
v -6.412117 9.747290 -25.896658
v -9.021814 9.747290 -8.745965
v -9.074165 -0.550676 -8.745965
v -6.412117 -0.550676 -25.896658
v -7.500000 4.958862 -16.700531
v 0.001354 -0.550676 18.758661
v 0.001354 5.158861 18.758661
v 0.001354 9.747290 18.758661
v 0.001354 -0.550676 25.896658
v -6.412117 9.747290 12.632800
v -6.408079 -0.368330 18.772264
v 0.001354 5.158861 -23.190880
v 0.001354 9.747290 -23.190880
v -6.412117 9.747290 -23.190880
v 0.001354 -0.550676 -23.190880
v -6.412117 -0.550676 -23.190880
v 0.001354 -0.003638 25.896658
v -6.408079 -0.368330 18.772264
v -9.100002 -0.003638 -8.745965
v 0.001354 -0.003638 -8.745965
v -6.400002 -0.003638 -23.190880
v 0.001354 -0.003638 -23.190880
v 0.001354 -5.471961 -25.896658
v 0.001354 -9.747290 -8.745965
v 6.441101 -5.471961 -20.983126
v 0.001354 -9.747290 -8.745965
v 9.109066 -5.471961 -8.745965
v 0.001354 -9.747290 -8.745965
v 6.441101 -5.471961 13.726779
v 0.001354 -9.747290 -8.745965
v 0.001354 -5.471961 18.758661
v 9.074165 -0.550676 -25.896658
v 12.882128 -0.550676 -8.745965
v 9.074165 -0.550676 18.758661
v 0.001354 -0.544626 25.896658
v 0.001354 9.747290 -25.896658
v 6.412117 9.747290 -25.896658
v 9.021814 9.747290 -8.745965
v 6.412117 9.747290 13.736864
v 0.001354 9.747290 18.758661
v 0.001354 9.747290 -25.896658
v 9.074165 -0.550676 -25.896658
v 0.001354 -0.550676 -25.896658
v 0.001354 -5.471961 -25.896658
v 0.001354 9.747290 -23.190880
v 6.412117 9.747290 -23.190880
v 6.412117 9.747290 -25.896658
v 7.019047 9.747290 -8.745965
v 9.109066 9.747290 -8.745965
v 6.412117 9.747290 12.621881
v 6.412117 9.747290 13.736864
v 0.001354 9.747290 17.137178
v 0.001354 9.747290 18.758661
v 5.121247 4.008372 21.430975
v 5.580975 2.897083 21.430967
v 6.690853 3.941705 22.297640
v 6.690853 2.436767 21.430975
v 7.800732 2.897083 21.430967
v 8.260458 4.008372 21.430975
v 7.800732 5.119671 21.430975
v 6.690853 5.579982 21.430975
v 5.580975 5.119671 21.430975
v 5.656034 3.994742 11.488070
v 6.690853 3.928075 11.488070
v 5.959125 2.977572 11.488070
v 5.121247 4.008372 21.430975
v 5.656034 3.994742 11.488070
v 5.959125 2.977572 11.488070
v 5.580975 2.897083 21.430967
v 6.690853 2.556240 11.488070
v 6.690853 2.436767 21.430975
v 6.690853 2.556240 11.488070
v 7.422581 2.977572 11.488070
v 7.422581 2.977572 11.488070
v 7.800732 2.897083 21.430967
v 7.725674 3.994742 11.488070
v 8.260458 4.008372 21.430975
v 7.725674 3.994742 11.488070
v 7.422581 5.011904 11.488070
v 7.422581 5.011917 11.488070
v 7.800732 5.119671 21.430975
v 6.690853 5.433237 11.488070
v 6.690853 5.579982 21.430975
v 6.690853 5.433251 11.488070
v 5.959125 5.011904 11.488070
v 5.959125 5.011917 11.488070
v 5.580975 5.119671 21.430975
v 5.121247 4.008372 21.430975
v 5.656034 3.994742 11.488070
v 7.500000 4.958862 4.466135
v 9.074165 -0.550676 -8.745965
v 6.408079 -0.368330 18.772264
v 9.021814 9.747290 -8.745965
v 6.412117 9.747290 13.736864
v 6.412117 9.747290 -25.896658
v 9.021814 9.747290 -8.745965
v 9.074165 -0.550676 -8.745965
v 6.412117 -0.550676 -25.896658
v 7.500000 4.958862 -16.700531
v 0.001354 5.158861 18.758661
v 0.001354 9.747290 18.758661
v 0.001354 -0.550676 25.896658
v 6.412117 9.747290 12.632800
v 6.408079 -0.368330 18.772264
v 0.001354 5.158861 -23.190880
v 0.001354 9.747290 -23.190880
v 6.412117 9.747290 -23.190880
v 0.001354 -0.550676 -23.190880
v 6.412117 -0.550676 -23.190880
v 0.001354 -0.003638 25.896658
v 6.408079 -0.368330 18.772264
v 9.100002 -0.003638 -8.745965
v 0.001354 -0.003638 -8.745965
v 6.400002 -0.003638 -23.190880
v 0.001354 -0.003638 -23.190880
# 187 vertices

vt 0.866071 0.848210
vt 0.904018 0.848210
vt 0.904018 0.811588
vt 0.850353 0.848210
vt 0.850353 0.890056
vt 0.828125 0.890056
vt 0.904280 0.890056
vt 0.866071 0.978516
vt 0.904018 0.978516
vt 0.850353 0.978516
vt 0.875272 0.978515
vt 0.905705 0.978515
vt 0.862666 0.978515
vt 0.000000 1.000000
vt 0.658927 0.132991
vt 0.671716 0.120346
vt 0.677013 0.133798
vt 0.658927 0.114774
vt 0.646139 0.120346
vt 0.640841 0.133798
vt 0.646139 0.147250
vt 0.658927 0.152822
vt 0.671716 0.147250
vt 0.839191 0.871423
vt 0.833081 0.883450
vt 0.841722 0.884294
vt 0.846188 0.884466
vt 0.842349 0.870405
vt 0.833081 0.866092
vt 0.833081 0.864580
vt 0.826971 0.871423
vt 0.823813 0.870405
vt 0.824440 0.884294
vt 0.819974 0.884466
vt 0.826971 0.897164
vt 0.823813 0.898528
vt 0.833081 0.902496
vt 0.833081 0.904352
vt 0.839191 0.897164
vt 0.842349 0.898528
# 40 texture coordinates

vn -0.471788 -0.839015 -0.271053
vn -0.299584 -0.869456 -0.392804
vn -0.181415 -0.954206 -0.237865
vn -0.697087 -0.716320 -0.030913
vn -0.423016 -0.901417 -0.092227
vn -0.476721 -0.851071 0.220037
vn -0.424287 -0.904126 0.050371
vn -0.320988 -0.853764 0.409944
vn -0.119112 -0.981099 0.152502
vn -0.828565 -0.289833 -0.479037
vn -0.988138 -0.148187 -0.040298
vn -0.870278 -0.169330 0.462541
vn -0.608621 -0.174779 0.773972
vn -0.632750 0.163567 -0.756884
vn 0.000000 0.000000 -1.000000
vn -0.949242 0.313297 -0.028012
vn -0.800338 0.416972 0.430806
vn -0.542365 0.477982 0.690922
vn 0.000000 1.000000 0.000000
vn 0.994276 -0.049908 -0.094473
vn 0.994094 -0.026836 -0.105153
vn 0.994264 -0.024179 -0.104184
vn 0.993269 -0.003747 -0.115766
vn 0.993916 -0.029493 -0.106122
vn 0.984539 -0.032903 0.172046
vn 0.988214 -0.000401 0.153077
vn 0.984896 0.029611 0.170599
vn 0.990328 -0.030408 0.135372
vn 0.990476 0.032103 0.133887
vn 0.882558 -0.367189 -0.293707
vn 0.489914 -0.569737 -0.659837
vn 0.754076 -0.318602 -0.574336
vn 0.571288 -0.246607 -0.782825
vn 0.919431 0.000000 -0.393252
vn 0.000000 0.000000 1.000000
vn -0.014206 0.999894 0.003314
vn 0.000000 0.999978 0.006626
vn -0.028416 0.999574 0.006629
vn -0.056807 0.998385 0.000000
vn -0.000000 -0.010111 0.999949
vn 0.348529 -0.350809 0.869172
vn 0.483449 -0.002593 0.875369
vn 0.000000 -0.499045 0.866576
vn -0.348529 -0.350809 0.869172
vn -0.483449 -0.002593 0.875369
vn -0.335393 0.332502 0.881450
vn 0.000000 0.467610 0.883935
vn 0.335393 0.332502 0.881450
vn 0.746776 -0.664261 -0.032913
vn 0.957107 -0.285194 -0.051088
vn 0.941499 -0.334038 -0.044709
vn 0.706978 -0.706484 -0.032607
vn 0.000000 -0.999836 -0.018128
vn 0.000000 -0.999928 -0.012015
vn -0.746776 -0.664261 -0.032913
vn -0.706978 -0.706483 -0.032607
vn -0.998851 -0.000008 -0.047918
vn -0.998557 -0.000007 -0.053708
vn -0.746731 0.664219 -0.034733
vn -0.706935 0.706435 -0.034542
vn 0.000000 0.999782 -0.020868
vn 0.000000 0.999891 -0.014756
vn 0.746731 0.664219 -0.034733
vn 0.706934 0.706435 -0.034542
vn 0.941460 0.334022 -0.045623
vn 0.957069 0.285181 -0.051868
vn 0.181488 -0.954193 -0.237861
vn 0.299680 -0.869441 -0.392764
vn 0.471857 -0.838982 -0.271034
vn 0.423118 -0.901366 -0.092249
vn 0.697114 -0.716294 -0.030915
vn 0.424390 -0.904077 0.050384
vn 0.476785 -0.851040 0.220017
vn 0.119161 -0.981093 0.152501
vn 0.321080 -0.853745 0.409910
vn 0.828580 -0.289827 -0.479016
vn 0.988138 -0.148187 -0.040298
vn 0.870313 -0.169323 0.462476
vn 0.608734 -0.174775 0.773884
vn 0.632750 0.163567 -0.756884
vn 0.949242 0.313297 -0.028012
vn 0.800388 0.416950 0.430734
vn 0.542496 0.477955 0.690839
vn -0.941499 -0.334038 -0.044709
vn -0.957107 -0.285194 -0.051088
vn 0.998851 -0.000008 -0.047918
vn 0.998557 -0.000007 -0.053708
vn -0.941460 0.334022 -0.045623
vn -0.957069 0.285181 -0.051868
vn -0.994264 -0.024179 -0.104184
vn -0.994094 -0.026836 -0.105153
vn -0.994276 -0.049908 -0.094473
vn -0.993269 -0.003747 -0.115766
vn -0.993916 -0.029493 -0.106122
vn -0.984896 0.029611 0.170599
vn -0.988214 -0.000401 0.153077
vn -0.984539 -0.032903 0.172046
vn -0.990328 -0.030408 0.135372
vn -0.990476 0.032103 0.133887
vn -0.754173 -0.318555 -0.574235
vn -0.490069 -0.569676 -0.659774
vn -0.882604 -0.367121 -0.293653
vn -0.919472 0.000000 -0.393155
vn -0.571441 -0.246589 -0.782719
vn 0.014212 0.999893 0.003314
vn 0.056831 0.998384 0.000000
vn 0.028428 0.999574 0.006629
# 107 normals

g Sphere04
s 1
f 3/1/1 1/2/2 2/3/3
f 5/4/4 3/1/1 4/3/5
f 7/1/6 5/4/4 6/3/7
f 9/2/8 7/1/6 8/3/9
f 3/1/1 10/5/10 1/2/2
f 5/4/4 10/5/10 3/1/1
f 5/4/4 11/6/11 10/5/10
f 12/5/12 11/6/11 5/4/4
f 7/1/6 12/5/12 5/4/4
f 9/2/8 12/5/12 7/1/6
f 9/2/8 13/7/13 12/5/12
f 10/5/10 15/8/14 14/9/15
f 16/10/16 15/8/14 10/5/10
f 11/6/11 16/10/16 10/5/10
f 12/5/12 16/10/16 11/6/11
f 12/5/12 17/8/17 16/10/16
f 18/9/18 17/8/17 12/5/12
f 13/7/13 18/9/18 12/5/12
f 21/7/15 20/5/15 19/9/15
f 20/5/15 21/7/15 22/2/15
s 2
f 24/11/19 23/12/19 19/9/19
f 25/8/19 24/11/19 19/9/19
f 26/13/19 24/11/19 25/8/19
f 27/10/19 26/13/19 25/8/19
f 28/11/19 26/13/19 27/10/19
f 29/8/19 28/11/19 27/10/19
f 30/12/19 28/11/19 29/8/19
f 31/9/19 30/12/19 29/8/19
s 1
f 70/14/20 68/14/21 72/14/22
f 68/14/21 71/14/23 72/14/22
f 70/14/20 69/14/24 68/14/21
f 69/14/24 71/14/23 68/14/21
f 75/14/25 77/14/26 74/14/27
f 75/14/25 76/14/28 77/14/26
f 76/14/28 73/14/29 77/14/26
f 77/14/26 73/14/29 74/14/27
f 81/14/30 83/14/31 79/14/32
f 79/14/32 82/14/33 80/14/34
f 83/14/31 82/14/33 79/14/32
f 81/14/30 79/14/32 80/14/34
f 85/14/35 86/14/35 84/14/35
f 87/14/35 85/14/35 84/14/35
f 88/14/35 87/14/35 84/14/35
f 88/14/35 84/14/35 86/14/35
f 94/14/19 93/14/19 92/14/36
f 93/14/19 91/14/37 92/14/36
f 92/14/36 90/14/38 89/14/39
f 92/14/36 91/14/37 90/14/38
# 48 triangles in group

g Light
s 2
f 34/15/40 33/16/41 32/17/42
f 34/15/40 35/18/43 33/16/41
f 34/15/40 36/19/44 35/18/43
f 34/15/40 37/20/45 36/19/44
f 34/15/40 38/21/46 37/20/45
f 34/15/40 39/22/47 38/21/46
f 34/15/40 40/23/48 39/22/47
f 34/15/40 32/17/42 40/23/48
# 8 triangles in group

g Regroup03
f 43/24/15 42/25/15 41/26/15
s 1
f 46/24/49 45/26/50 44/27/51
f 47/28/52 46/24/49 44/27/51
s 2
f 48/29/15 42/25/15 43/24/15
s 1
f 49/30/53 46/24/49 47/28/52
f 49/30/53 50/29/54 46/24/49
s 2
f 51/31/15 42/25/15 48/29/15
s 1
f 52/31/55 50/29/54 49/30/53
f 53/32/56 52/31/55 49/30/53
s 2
f 54/33/15 42/25/15 51/31/15
s 1
f 55/34/57 52/31/55 53/32/56
f 55/34/57 56/33/58 52/31/55
s 2
f 57/35/15 42/25/15 54/33/15
s 1
f 58/35/59 56/33/58 55/34/57
f 59/36/60 58/35/59 55/34/57
s 2
f 60/37/15 42/25/15 57/35/15
s 1
f 61/38/61 58/35/59 59/36/60
f 61/38/61 62/37/62 58/35/59
s 2
f 63/39/15 42/25/15 60/37/15
s 1
f 64/39/63 62/37/62 61/38/61
f 65/40/64 64/39/63 61/38/61
s 2
f 41/26/15 42/25/15 63/39/15
s 1
f 66/27/65 64/39/63 65/40/64
f 66/27/65 67/26/66 64/39/63
# 24 triangles in group

g Duplicate11
f 96/3/67 95/2/68 97/1/69
f 98/3/70 97/1/69 99/4/71
f 100/3/72 99/4/71 101/1/73
f 102/3/74 101/1/73 103/2/75
f 95/2/68 104/5/76 97/1/69
f 97/1/69 104/5/76 99/4/71
f 104/5/76 105/6/77 99/4/71
f 99/4/71 105/6/77 106/5/78
f 99/4/71 106/5/78 101/1/73
f 101/1/73 106/5/78 103/2/75
f 106/5/78 107/7/79 103/2/75
f 108/9/15 109/8/80 104/5/76
f 104/5/76 109/8/80 110/10/81
f 104/5/76 110/10/81 105/6/77
f 105/6/77 110/10/81 106/5/78
f 110/10/81 111/8/82 106/5/78
f 106/5/78 111/8/82 112/9/83
f 106/5/78 112/9/83 107/7/79
f 113/9/15 114/5/15 115/7/15
f 116/2/15 115/7/15 114/5/15
s 2
f 113/9/19 117/12/19 118/11/19
f 113/9/19 118/11/19 119/8/19
f 119/8/19 118/11/19 120/13/19
f 119/8/19 120/13/19 121/10/19
f 121/10/19 120/13/19 122/11/19
f 121/10/19 122/11/19 123/8/19
f 123/8/19 122/11/19 124/12/19
f 123/8/19 124/12/19 125/9/19
f 126/17/45 127/16/44 128/15/40
f 127/16/44 129/18/43 128/15/40
f 129/18/43 130/19/41 128/15/40
f 130/19/41 131/20/42 128/15/40
f 131/20/42 132/21/48 128/15/40
f 132/21/48 133/22/47 128/15/40
f 133/22/47 134/23/46 128/15/40
f 134/23/46 126/17/45 128/15/40
f 135/26/15 136/25/15 137/24/15
s 1
f 138/27/84 139/26/85 140/24/55
f 138/27/84 140/24/55 141/28/56
s 2
f 137/24/15 136/25/15 142/29/15
s 1
f 141/28/56 140/24/55 143/30/53
f 140/24/55 144/29/54 143/30/53
s 2
f 142/29/15 136/25/15 145/31/15
s 1
f 143/30/53 144/29/54 146/31/49
f 143/30/53 146/31/49 147/32/52
s 2
f 145/31/15 136/25/15 148/33/15
s 1
f 147/32/52 146/31/49 149/34/86
f 146/31/49 150/33/87 149/34/86
s 2
f 148/33/15 136/25/15 151/35/15
s 1
f 149/34/86 150/33/87 152/35/63
f 149/34/86 152/35/63 153/36/64
s 2
f 151/35/15 136/25/15 154/37/15
s 1
f 153/36/64 152/35/63 155/38/61
f 152/35/63 156/37/62 155/38/61
s 2
f 154/37/15 136/25/15 157/39/15
s 1
f 155/38/61 156/37/62 158/39/59
f 155/38/61 158/39/59 159/40/60
s 2
f 157/39/15 136/25/15 135/26/15
s 1
f 159/40/60 158/39/59 160/27/88
f 158/39/59 161/26/89 160/27/88
f 166/14/90 162/14/91 164/14/92
f 166/14/90 165/14/93 162/14/91
f 162/14/91 163/14/94 164/14/92
f 162/14/91 165/14/93 163/14/94
f 168/14/95 171/14/96 169/14/97
f 171/14/96 170/14/98 169/14/97
f 171/14/96 167/14/99 170/14/98
f 168/14/95 167/14/99 171/14/96
f 172/14/100 176/14/101 174/14/102
f 173/14/103 175/14/104 172/14/100
f 172/14/100 175/14/104 176/14/101
f 173/14/103 172/14/100 174/14/102
f 177/14/35 179/14/35 178/14/35
f 177/14/35 178/14/35 180/14/35
f 177/14/35 180/14/35 181/14/35
f 179/14/35 177/14/35 181/14/35
f 185/14/105 186/14/19 187/14/19
f 185/14/105 184/14/37 186/14/19
f 182/14/106 183/14/107 185/14/105
f 183/14/107 184/14/37 185/14/105
# 80 triangles in group

# 160 triangles total

