# Wavefront OBJ exported by MilkShape 3D

mtllib Knife.mtl

v 19.259115 6.960039 -0.750000
v 19.259115 9.848925 -0.750000
v 16.762621 6.960039 8.735536
v 16.762621 9.848925 8.735536
v 9.942059 6.960039 15.679428
v 9.942059 9.848925 15.679428
v 0.625001 6.960039 18.221075
v 0.625001 9.848925 18.221075
v -8.692055 6.960039 15.679428
v -8.692055 9.848925 15.679428
v -15.512615 6.960039 8.735536
v -15.512615 9.848925 8.735536
v -18.009111 6.960039 -0.750000
v -18.009111 9.848925 -0.750000
v -15.512615 6.960039 -10.235534
v -15.512615 9.848925 -10.235534
v -8.692055 6.960039 -17.179430
v -8.692055 9.848925 -17.179430
v 0.625001 6.960039 -19.721067
v 0.625001 9.848925 -19.721067
v 9.942059 6.960039 -17.179430
v 9.942059 9.848925 -17.179430
v 16.762621 6.960039 -10.235534
v 16.762621 9.848925 -10.235534
v 0.625001 9.848925 -0.750000
v 19.259115 7.034109 -0.750000
v 16.762621 7.034109 8.735536
v 9.942059 7.034109 15.679428
v 0.625001 7.034109 18.221075
v -8.692055 7.034109 15.679428
v -15.512615 7.034109 8.735536
v -18.009111 7.034109 -0.750000
v -15.512615 7.034109 -10.235534
v -8.692055 7.034109 -17.179430
v 0.625001 7.034109 -19.721067
v 9.942059 7.034109 -17.179430
v 16.762621 7.034109 -10.235534
v 0.625001 7.034109 -0.750000
v 10.055553 -1.694448 0.000000
v 10.055553 6.999998 0.000000
v 8.849781 -1.694448 4.499999
v 8.849781 6.999998 4.499999
v 5.555553 -1.694448 7.794227
v 5.555553 6.999998 7.794227
v 1.055553 -1.694448 8.999998
v 1.055553 6.999998 8.999998
v -3.444447 -1.694448 7.794227
v -3.444447 6.999998 7.794227
v -6.738674 -1.694448 4.499999
v -6.738674 6.999998 4.499999
v -7.944447 -1.694448 0.000000
v -7.944447 6.999998 0.000000
v -6.738674 -1.694448 -4.499999
v -6.738674 6.999998 -4.499999
v -3.444447 -1.694448 -7.794227
v -3.444447 6.999998 -7.794227
v 1.055553 -1.694448 -8.999998
v 1.055553 6.999998 -8.999998
v 5.555553 -1.694448 -7.794227
v 5.555553 6.999998 -7.794227
v 8.849781 -1.694448 -4.499999
v 8.849781 6.999998 -4.499999
v 1.055553 6.999998 0.000000
v 1.088894 -14.000006 0.000000
v 6.239883 -12.660263 0.000000
v 5.549778 -12.660263 2.625686
v 3.664387 -12.660263 4.547821
v 1.088894 -12.660263 5.251371
v -1.486599 -12.660263 4.547821
v -3.371990 -12.660263 2.625686
v -4.062096 -12.660263 0.000000
v -3.371990 -12.660263 -2.625686
v -1.486599 -12.660263 -4.547821
v 1.088894 -12.660263 -5.251371
v 3.664387 -12.660263 -4.547821
v 5.549778 -12.660263 -2.625686
v 10.010670 -1.694448 0.000000
v 8.815380 -1.694448 4.547822
v 5.549778 -1.694448 7.877058
v 1.088894 -1.694448 9.095646
v -3.371990 -1.694448 7.877058
v -6.637589 -1.694448 4.547822
v -7.832882 -1.694448 0.000000
v -6.637589 -1.694448 -4.547822
v -3.371990 -1.694448 -7.877058
v 1.088894 -1.694448 -9.095640
v 5.549778 -1.694448 -7.877058
v 8.815380 -1.694448 -4.547822
v 0.937500 109.881676 0.619961
v -15.335502 67.551033 1.826424
v 0.937500 109.881676 0.619961
v 17.210503 67.551033 1.577725
v 0.937500 109.881676 -0.744962
v 17.210503 67.551033 -1.702725
v 0.937500 109.881676 -0.744962
v -15.335502 67.551033 -1.951424
v -15.335502 67.551033 1.826424
v -6.766269 10.083155 2.309536
v 17.210503 67.551033 1.577725
v 8.641270 10.083155 2.309536
v 17.210503 67.551033 -1.702725
v 8.641270 10.083155 -2.934538
v -15.335502 67.551033 -1.951424
v -6.766269 10.083155 -2.934538
# 104 vertices

vt 0.000000 1.000000
vt 0.000000 0.833333
vt 0.083333 0.833333
vt 0.083333 1.000000
vt 0.166667 1.000000
vt 0.166667 0.833333
vt 0.250000 0.833333
vt 0.250000 1.000000
vt 0.333333 1.000000
vt 0.333333 0.833333
vt 0.416667 0.833333
vt 0.416667 1.000000
vt 0.500000 1.000000
vt 0.500000 0.833333
vt 0.583333 0.833333
vt 0.583333 1.000000
vt 0.666667 1.000000
vt 0.666667 0.833333
vt 0.750000 0.833333
vt 0.750000 1.000000
vt 0.833333 1.000000
vt 0.833333 0.833333
vt 0.916667 0.833333
vt 0.916667 1.000000
vt 1.000000 1.000000
vt 1.000000 0.833333
vt 0.000000 0.000000
vt 0.000000 0.166667
vt 0.083333 0.166667
vt 0.083333 0.000000
vt 0.166667 0.166667
vt 0.166667 0.000000
vt 0.250000 0.166667
vt 0.250000 0.000000
vt 0.333333 0.166667
vt 0.333333 0.000000
vt 0.416667 0.166667
vt 0.416667 0.000000
vt 0.500000 0.166667
vt 0.500000 0.000000
vt 0.583333 0.166667
vt 0.583333 0.000000
vt 0.666667 0.166667
vt 0.666667 0.000000
vt 0.750000 0.166667
vt 0.750000 0.000000
vt 0.833333 0.166667
vt 0.833333 0.000000
vt 0.916667 0.166667
vt 0.916667 0.000000
vt 1.000000 0.166667
vt 0.000000 0.333333
vt 0.083333 0.333333
vt 0.166667 0.333333
vt 0.250000 0.333333
vt 0.333333 0.333333
vt 0.416667 0.333333
vt 0.500000 0.333333
vt 0.583333 0.333333
vt 0.666667 0.333333
vt 0.750000 0.333333
vt 0.833333 0.333333
vt 0.916667 0.333333
vt 1.000000 0.333333
vt 1.000000 0.000000
# 65 texture coordinates

vn 0.000000 1.000000 0.000000
vn 1.000000 0.000000 -0.000000
vn 0.869357 0.000000 0.494184
vn 0.505824 0.000000 0.862637
vn -0.000000 0.000000 1.000000
vn -0.505824 0.000000 0.862637
vn -0.869357 0.000000 0.494184
vn -1.000000 0.000000 -0.000000
vn -0.869357 0.000000 -0.494184
vn -0.505823 0.000000 -0.862637
vn -0.000000 0.000000 -1.000000
vn 0.505823 0.000000 -0.862637
vn 0.869357 0.000000 -0.494184
vn 0.000000 -1.000000 0.000000
vn 0.866025 0.000000 0.500000
vn 0.500000 0.000000 0.866025
vn -0.500000 0.000000 0.866025
vn -0.866025 0.000000 0.500000
vn -0.866025 0.000000 -0.500000
vn -0.500000 0.000000 -0.866025
vn 0.500000 0.000000 -0.866025
vn 0.866025 0.000000 -0.500000
vn 0.794140 -0.607735 -0.000000
vn 0.585264 -0.739733 0.332057
vn 0.400809 -0.611329 0.682371
vn 0.000000 -0.742705 0.669619
vn -0.400809 -0.611329 0.682371
vn -0.585264 -0.739733 0.332057
vn -0.794140 -0.607735 0.000000
vn -0.585264 -0.739733 -0.332057
vn -0.400808 -0.611329 -0.682371
vn 0.000000 -0.742705 -0.669619
vn 0.400808 -0.611329 -0.682371
vn 0.585264 -0.739733 -0.332057
vn 0.945652 -0.325179 0.000000
vn 0.821985 -0.326569 0.466576
vn 0.478113 -0.329393 0.814192
vn 0.000000 -0.330829 0.943691
vn -0.478113 -0.329393 0.814191
vn -0.821985 -0.326569 0.466576
vn -0.945652 -0.325179 0.000000
vn -0.821985 -0.326569 -0.466576
vn -0.478113 -0.329393 -0.814192
vn 0.000000 -0.330828 -0.943691
vn 0.478112 -0.329393 -0.814192
vn 0.821985 -0.326569 -0.466576
vn 0.000000 0.000000 0.000000
vn 0.007639 0.025554 0.999644
vn 0.933405 0.358825 0.000000
vn 0.007639 0.025554 -0.999644
vn -0.933405 0.358825 0.000000
vn 0.007641 0.009545 0.999925
vn 0.003820 0.011139 0.999931
vn 0.000000 0.012733 0.999919
vn 0.989065 -0.147483 0.000000
vn 0.007640 0.020291 -0.999765
vn 0.003820 0.018698 -0.999818
vn 0.000000 0.017105 -0.999854
vn -0.989065 -0.147483 0.000000
# 59 normals

g Handle
usemtl Material01
s 2
f 2/1/1 25/1/1 4/1/1
s 1
f 1/2/2 2/1/2 3/3/3
f 2/1/2 4/4/3 3/3/3
s 2
f 4/1/1 25/1/1 6/1/1
s 1
f 3/3/3 4/4/3 6/5/4
f 3/3/3 6/5/4 5/6/4
s 2
f 6/1/1 25/1/1 8/1/1
s 1
f 5/6/4 6/5/4 7/7/5
f 6/5/4 8/8/5 7/7/5
s 2
f 8/1/1 25/1/1 10/1/1
s 1
f 7/7/5 8/8/5 10/9/6
f 7/7/5 10/9/6 9/10/6
s 2
f 10/1/1 25/1/1 12/1/1
s 1
f 9/10/6 10/9/6 11/11/7
f 10/9/6 12/12/7 11/11/7
s 2
f 12/1/1 25/1/1 14/1/1
s 1
f 11/11/7 12/12/7 14/13/8
f 11/11/7 14/13/8 13/14/8
s 2
f 14/1/1 25/1/1 16/1/1
s 1
f 13/14/8 14/13/8 15/15/9
f 14/13/8 16/16/9 15/15/9
s 2
f 16/1/1 25/1/1 18/1/1
s 1
f 15/15/9 16/16/9 18/17/10
f 15/15/9 18/17/10 17/18/10
s 2
f 18/1/1 25/1/1 20/1/1
s 1
f 17/18/10 18/17/10 19/19/11
f 18/17/10 20/20/11 19/19/11
s 2
f 20/1/1 25/1/1 22/1/1
s 1
f 19/19/11 20/20/11 22/21/12
f 19/19/11 22/21/12 21/22/12
s 2
f 22/1/1 25/1/1 24/1/1
s 1
f 21/22/12 22/21/12 23/23/13
f 22/21/12 24/24/13 23/23/13
s 2
f 24/1/1 25/1/1 2/1/1
s 1
f 23/23/13 24/24/13 2/25/2
f 23/23/13 2/25/2 1/26/2
s 2
f 27/1/14 38/1/14 26/1/14
f 28/1/14 38/1/14 27/1/14
f 29/1/14 38/1/14 28/1/14
f 30/1/14 38/1/14 29/1/14
f 31/1/14 38/1/14 30/1/14
f 32/1/14 38/1/14 31/1/14
f 33/1/14 38/1/14 32/1/14
f 34/1/14 38/1/14 33/1/14
f 35/1/14 38/1/14 34/1/14
f 36/1/14 38/1/14 35/1/14
f 37/1/14 38/1/14 36/1/14
f 26/1/14 38/1/14 37/1/14
f 40/1/1 63/1/1 42/1/1
s 1
f 39/2/2 40/1/2 41/3/15
f 40/1/2 42/4/15 41/3/15
s 2
f 42/1/1 63/1/1 44/1/1
s 1
f 41/3/15 42/4/15 44/5/16
f 41/3/15 44/5/16 43/6/16
s 2
f 44/1/1 63/1/1 46/1/1
s 1
f 43/6/16 44/5/16 45/7/5
f 44/5/16 46/8/5 45/7/5
s 2
f 46/1/1 63/1/1 48/1/1
s 1
f 45/7/5 46/8/5 48/9/17
f 45/7/5 48/9/17 47/10/17
s 2
f 48/1/1 63/1/1 50/1/1
s 1
f 47/10/17 48/9/17 49/11/18
f 48/9/17 50/12/18 49/11/18
s 2
f 50/1/1 63/1/1 52/1/1
s 1
f 49/11/18 50/12/18 52/13/8
f 49/11/18 52/13/8 51/14/8
s 2
f 52/1/1 63/1/1 54/1/1
s 1
f 51/14/8 52/13/8 53/15/19
f 52/13/8 54/16/19 53/15/19
s 2
f 54/1/1 63/1/1 56/1/1
s 1
f 53/15/19 54/16/19 56/17/20
f 53/15/19 56/17/20 55/18/20
s 2
f 56/1/1 63/1/1 58/1/1
s 1
f 55/18/20 56/17/20 57/19/11
f 56/17/20 58/20/11 57/19/11
s 2
f 58/1/1 63/1/1 60/1/1
s 1
f 57/19/11 58/20/11 60/21/21
f 57/19/11 60/21/21 59/22/21
s 2
f 60/1/1 63/1/1 62/1/1
s 1
f 59/22/21 60/21/21 61/23/22
f 60/21/21 62/24/22 61/23/22
s 2
f 62/1/1 63/1/1 40/1/1
s 1
f 61/23/22 62/24/22 40/25/2
f 61/23/22 40/25/2 39/26/2
f 64/27/14 65/28/23 66/29/24
f 64/30/14 66/29/24 67/31/25
f 64/32/14 67/31/25 68/33/26
f 64/34/14 68/33/26 69/35/27
f 64/36/14 69/35/27 70/37/28
f 64/38/14 70/37/28 71/39/29
f 64/40/14 71/39/29 72/41/30
f 64/42/14 72/41/30 73/43/31
f 64/44/14 73/43/31 74/45/32
f 64/46/14 74/45/32 75/47/33
f 64/48/14 75/47/33 76/49/34
f 64/50/14 76/49/34 65/51/23
f 65/28/23 77/52/35 78/53/36
f 65/28/23 78/53/36 66/29/24
f 66/29/24 78/53/36 67/31/25
f 78/53/36 79/54/37 67/31/25
f 67/31/25 79/54/37 80/55/38
f 67/31/25 80/55/38 68/33/26
f 68/33/26 80/55/38 69/35/27
f 80/55/38 81/56/39 69/35/27
f 69/35/27 81/56/39 82/57/40
f 69/35/27 82/57/40 70/37/28
f 70/37/28 82/57/40 71/39/29
f 82/57/40 83/58/41 71/39/29
f 71/39/29 83/58/41 84/59/42
f 71/39/29 84/59/42 72/41/30
f 72/41/30 84/59/42 73/43/31
f 84/59/42 85/60/43 73/43/31
f 73/43/31 85/60/43 86/61/44
f 73/43/31 86/61/44 74/45/32
f 74/45/32 86/61/44 75/47/33
f 86/61/44 87/62/45 75/47/33
f 75/47/33 87/62/45 88/63/46
f 75/47/33 88/63/46 76/49/34
f 76/49/34 88/63/46 65/51/23
f 88/63/46 77/64/35 65/51/23
# 120 triangles in group

g Knife
usemtl Material01
f 89/1/47 90/27/48 91/25/48
f 90/27/48 92/65/48 91/25/48
s 2
f 91/1/49 92/27/49 93/25/49
f 92/27/49 94/65/49 93/25/49
s 1
f 93/1/47 94/27/50 95/25/50
f 94/27/50 96/65/50 95/25/50
s 2
f 95/1/51 96/27/51 89/25/51
f 96/27/51 90/65/51 89/25/51
s 3
f 95/1/47 89/27/47 93/25/47
f 89/27/47 91/65/47 93/25/47
f 90/1/14 96/27/14 92/25/14
f 96/27/14 94/65/14 92/25/14
s 1
f 97/1/52 98/27/53 99/25/53
f 98/27/53 100/65/54 99/25/53
s 2
f 99/1/55 100/27/55 101/25/55
f 100/27/55 102/65/55 101/25/55
s 1
f 101/1/56 102/27/57 103/25/57
f 102/27/57 104/65/58 103/25/57
s 2
f 103/1/59 104/27/59 97/25/59
f 104/27/59 98/65/59 97/25/59
s 3
f 103/1/1 97/27/1 101/25/1
f 97/27/1 99/65/1 101/25/1
f 98/1/14 104/27/14 100/25/14
f 104/27/14 102/65/14 100/25/14
# 24 triangles in group

# 144 triangles total

