# Wavefront OBJ exported by MilkShape 3D

mtllib Mill.mtl

v -7.725221 13.751766 -5.260136
v -7.725221 13.751766 8.077250
v 7.725221 13.751766 -5.260136
v 7.725221 13.751766 8.077250
v 9.125000 1.041685 -6.055962
v 9.125000 1.041685 8.944047
v -9.125000 1.041685 -6.055962
v -9.125000 1.041685 8.944047
v 1.156149 1.041685 9.169054
v 5.994230 1.041685 9.169054
v 1.156149 9.562696 8.859095
v 5.994230 9.562696 8.859094
v -6.377564 1.041685 -6.205957
v -1.351172 1.041685 -6.205957
v -6.377564 9.466970 -6.020996
v -1.351172 9.466970 -6.020996
v -7.679829 30.486263 7.210427
v -7.679829 14.683818 7.210427
v 6.746562 30.486263 7.210427
v 6.746562 14.683818 7.210427
v 6.746562 30.486263 -4.406057
v 6.746562 14.683818 -4.406057
v -7.679829 30.486263 -4.406057
v -7.679829 14.683818 -4.406057
v -7.679829 14.683818 8.077250
v -7.679829 13.751766 8.077250
v 7.756871 14.683818 8.077250
v 7.756871 13.751766 8.077250
v 7.756871 14.683818 -5.260136
v 7.756871 13.751766 -5.260136
v -7.679829 14.683818 -5.260136
v -7.679829 13.751766 -5.260136
v -7.679829 31.506710 8.077250
v -7.679829 30.486263 8.077250
v 7.756871 31.506710 8.077250
v 7.756871 30.486263 8.077250
v 7.756871 31.506710 -5.260136
v 7.756871 30.486263 -5.260136
v -7.679829 31.506710 -5.260136
v -7.679829 30.486263 -5.260136
v 7.756871 30.486263 8.077250
v 6.810197 30.486263 8.077250
v 7.756871 14.683818 8.077250
v 6.810198 14.683818 8.077250
v 7.756871 14.683818 7.210427
v 6.810198 14.683818 7.210427
v 7.756871 30.486263 7.210427
v 6.810197 30.486263 7.210427
v -6.743129 30.486263 -4.406057
v -7.689800 30.486263 -4.406057
v -6.743129 14.683818 -4.406057
v -7.689800 14.683818 -4.406057
v -6.743129 14.683818 -5.260136
v -7.689800 14.683818 -5.260136
v -6.743129 30.486263 -5.260136
v -7.689800 30.486263 -5.260136
v -7.756871 30.486263 8.077250
v -6.810197 30.486263 8.077250
v -7.756871 14.683818 8.077250
v -6.810198 14.683818 8.077250
v -7.756871 14.683818 7.210427
v -6.810198 14.683818 7.210427
v -7.756871 30.486263 7.210427
v -6.810197 30.486263 7.210427
v 6.743129 30.486263 -4.406057
v 7.689800 30.486263 -4.406057
v 6.743129 14.683818 -4.406057
v 7.689800 14.683818 -4.406057
v 6.743129 14.683818 -5.260136
v 7.689800 14.683818 -5.260136
v 6.743129 30.486263 -5.260136
v 7.689800 30.486263 -5.260136
v 0.000000 39.134892 8.679000
v -9.058541 31.306709 8.679000
v 0.000000 39.134892 8.679000
v 9.058541 31.306709 8.679000
v 0.000000 39.257969 -5.818504
v 9.058541 31.429787 -5.818504
v 0.000000 39.257969 -5.818504
v -9.058541 31.429787 -5.818504
v 0.000000 39.134892 8.679000
v -9.058541 31.306709 8.679000
v 0.000000 39.134892 8.679000
v 9.058541 31.306709 8.679000
v 0.000000 39.257969 -5.818504
v 9.058541 31.429787 -5.818504
v 0.000000 39.257969 -5.818504
v -9.058541 31.429787 -5.818504
# 88 vertices

vt 0.025890 0.832262
vt 0.148184 0.832262
vt 0.148184 0.963111
vt 0.025890 0.963111
vt 0.960679 0.835863
vt 0.916568 0.835863
vt 0.920351 0.931404
vt 0.957094 0.931404
vt 0.855021 0.931404
vt 0.851254 0.835863
vt 0.895547 0.835863
vt 0.891764 0.931404
vt 0.125000 0.944737
vt 0.125000 0.852489
vt 0.839571 0.860968
vt 0.933483 0.860968
vt 0.933483 0.969592
vt 0.839571 0.969592
vt 0.927724 0.860968
vt 0.933483 0.868028
vt 0.927724 0.868028
vt 0.845269 0.962636
vt 0.839510 0.962636
vt 0.845269 0.969592
vt 0.844861 0.860968
vt 0.839102 0.868028
vt 0.844861 0.868028
vt 0.927316 0.962636
vt 0.933075 0.962636
vt 0.927316 0.969592
vt 0.000000 1.000000
vt 0.000000 0.000000
vt 1.000000 1.000000
vt 1.000000 0.000000
vt 0.902179 0.982340
vt 0.826172 0.852901
vt 0.978185 0.852901
vt 0.902179 0.984375
vt 0.978185 0.854936
vt 0.826172 0.854936
# 40 texture coordinates

vn 0.000000 1.000000 0.000000
vn 0.993990 0.109470 0.000000
vn 0.000000 -1.000000 0.000000
vn -0.993990 0.109470 0.000000
vn 0.000000 0.062491 -0.998046
vn 0.000000 0.068040 0.997683
vn 0.000000 0.036352 0.999339
vn 0.000000 0.021948 -0.999759
vn 0.000000 0.000000 1.000000
vn 1.000000 0.000000 0.000000
vn 0.000000 0.000000 -1.000000
vn -1.000000 0.000000 0.000000
vn 0.000000 0.000000 0.000000
vn 0.000000 -0.999964 -0.008489
vn 0.653841 0.756605 0.006423
vn -0.653841 0.756605 0.006423
# 16 normals

g Regroup01
usemtl Material01
s 1
f 1/1/1 2/1/1 3/2/1
f 2/1/1 4/2/1 3/2/1
s 2
f 3/2/2 4/2/2 5/3/2
f 4/2/2 6/3/2 5/3/2
s 1
f 5/3/3 6/3/3 7/4/3
f 6/3/3 8/4/3 7/4/3
s 2
f 7/4/4 8/4/4 1/1/4
f 8/4/4 2/1/4 1/1/4
s 3
f 7/4/5 1/1/5 5/3/5
f 1/1/5 3/2/5 5/3/5
f 2/1/6 8/4/6 4/2/6
f 8/4/6 6/3/6 4/2/6
s 1
f 12/5/7 11/6/7 9/7/7
f 10/8/7 12/5/7 9/7/7
f 13/9/8 15/10/8 16/11/8
f 13/9/8 16/11/8 14/12/8
f 17/13/9 18/14/9 19/13/9
f 18/14/9 20/14/9 19/13/9
s 2
f 19/13/10 20/14/10 21/13/10
f 20/14/10 22/14/10 21/13/10
s 1
f 21/13/11 22/14/11 23/13/11
f 22/14/11 24/14/11 23/13/11
s 2
f 23/13/12 24/14/12 17/13/12
f 24/14/12 18/14/12 17/13/12
s 3
f 23/13/1 17/13/1 21/13/1
f 17/13/1 19/13/1 21/13/1
f 18/14/3 24/14/3 20/14/3
f 24/14/3 22/14/3 20/14/3
s 1
f 25/15/9 26/15/9 27/16/9
f 26/15/9 28/16/9 27/16/9
s 2
f 27/16/10 28/16/10 29/17/10
f 28/16/10 30/17/10 29/17/10
s 1
f 29/17/11 30/17/11 31/18/11
f 30/17/11 32/18/11 31/18/11
s 2
f 31/18/12 32/18/12 25/15/12
f 32/18/12 26/15/12 25/15/12
s 3
f 31/18/1 25/15/1 29/17/1
f 25/15/1 27/16/1 29/17/1
f 26/15/3 32/18/3 28/16/3
f 32/18/3 30/17/3 28/16/3
s 1
f 33/15/9 34/15/9 35/16/9
f 34/15/9 36/16/9 35/16/9
s 2
f 35/16/10 36/16/10 37/17/10
f 36/16/10 38/17/10 37/17/10
s 1
f 37/17/11 38/17/11 39/18/11
f 38/17/11 40/18/11 39/18/11
s 2
f 39/18/12 40/18/12 33/15/12
f 40/18/12 34/15/12 33/15/12
s 3
f 39/18/1 33/15/1 37/17/1
f 33/15/1 35/16/1 37/17/1
f 34/15/3 40/18/3 36/16/3
f 40/18/3 38/17/3 36/16/3
s 1
f 41/16/9 42/19/9 43/16/9
f 42/19/9 44/19/9 43/16/9
s 2
f 43/16/3 44/19/3 45/20/3
f 44/19/3 46/21/3 45/20/3
s 1
f 45/20/11 46/21/11 47/20/11
f 46/21/11 48/21/11 47/20/11
s 2
f 47/20/1 48/21/1 41/16/1
f 48/21/1 42/19/1 41/16/1
s 3
f 47/20/10 41/16/10 45/20/10
f 41/16/10 43/16/10 45/20/10
f 42/19/12 48/21/12 44/19/12
f 48/21/12 46/21/12 44/19/12
s 1
f 49/22/9 50/23/9 51/22/9
f 50/23/9 52/23/9 51/22/9
s 2
f 51/22/3 52/23/3 53/24/3
f 52/23/3 54/18/3 53/24/3
s 1
f 53/24/11 54/18/11 55/24/11
f 54/18/11 56/18/11 55/24/11
s 2
f 55/24/1 56/18/1 49/22/1
f 56/18/1 50/23/1 49/22/1
s 3
f 55/24/10 49/22/10 53/24/10
f 49/22/10 51/22/10 53/24/10
f 50/23/12 56/18/12 52/23/12
f 56/18/12 54/18/12 52/23/12
s 1
f 59/15/9 58/25/9 57/15/9
f 59/15/9 60/25/9 58/25/9
s 2
f 61/26/3 60/25/3 59/15/3
f 61/26/3 62/27/3 60/25/3
s 1
f 63/26/11 62/27/11 61/26/11
f 63/26/11 64/27/11 62/27/11
s 2
f 57/15/1 64/27/1 63/26/1
f 57/15/1 58/25/1 64/27/1
s 3
f 61/26/12 57/15/12 63/26/12
f 61/26/12 59/15/12 57/15/12
f 60/25/10 64/27/10 58/25/10
f 60/25/10 62/27/10 64/27/10
s 1
f 67/28/9 66/29/9 65/28/9
f 67/28/9 68/29/9 66/29/9
s 2
f 69/30/3 68/29/3 67/28/3
f 69/30/3 70/17/3 68/29/3
s 1
f 71/30/11 70/17/11 69/30/11
f 71/30/11 72/17/11 70/17/11
s 2
f 65/28/1 72/17/1 71/30/1
f 65/28/1 66/29/1 72/17/1
s 3
f 69/30/12 65/28/12 71/30/12
f 69/30/12 67/28/12 65/28/12
f 68/29/10 72/17/10 66/29/10
f 68/29/10 70/17/10 72/17/10
f 79/31/13 73/32/13 77/33/13
f 73/32/13 75/34/13 77/33/13
f 74/31/14 80/32/14 76/33/14
f 80/32/14 78/34/14 76/33/14
s 1
f 81/35/13 82/36/9 83/35/9
f 82/36/9 84/37/9 83/35/9
s 2
f 83/35/15 84/37/15 85/38/15
f 84/37/15 86/39/15 85/38/15
s 1
f 85/38/13 86/39/11 87/38/11
f 86/39/11 88/40/11 87/38/11
s 2
f 87/38/16 88/40/16 81/35/16
f 88/40/16 82/36/16 81/35/16
# 112 triangles in group

# 112 triangles total

