# Wavefront OBJ exported by MilkShape 3D

mtllib OrganGun.mtl

v -4.542875 -1.786331 1.766845
v 4.659977 -1.786331 2.571990
v -4.613024 -1.369730 2.485152
v 4.589840 -1.369730 3.290298
v -4.627510 -0.536523 2.483885
v 4.575348 -0.536523 3.289031
v -4.571854 -0.119919 1.764310
v 4.631001 -0.119919 2.569455
v -4.501711 -0.536523 1.046002
v 4.701145 -0.536523 1.851148
v -4.487221 -1.369730 1.047270
v 4.715637 -1.369730 1.852416
v 4.659977 -1.786331 2.571990
v 4.589840 -1.369730 3.290298
v 4.575348 -0.536523 3.289031
v 4.631001 -0.119919 2.569455
v 4.701145 -0.536523 1.851148
v 4.715637 -1.369730 1.852416
v 4.645489 -0.902759 2.570723
v -4.483538 -1.786331 0.066466
v 4.754467 -1.786331 0.066467
v -4.490824 -1.369730 0.788154
v 4.747204 -1.369730 0.788154
v -4.505358 -0.536523 0.788154
v 4.732653 -0.536523 0.788154
v -4.512629 -0.119919 0.066466
v 4.725386 -0.119919 0.066466
v -4.505362 -0.536523 -0.655222
v 4.732658 -0.536523 -0.655221
v -4.490814 -1.369730 -0.655221
v 4.747204 -1.369730 -0.655221
v 4.754467 -1.786331 0.066467
v 4.747204 -1.369730 0.788154
v 4.732653 -0.536523 0.788154
v 4.725386 -0.119919 0.066466
v 4.732658 -0.536523 -0.655221
v 4.747204 -1.369730 -0.655221
v 4.739927 -0.902759 0.066466
v -4.657330 -1.786331 -1.607689
v 4.530079 -1.786331 -2.573324
v -4.589128 -1.369730 -0.889193
v 4.598289 -1.369730 -1.854831
v -4.603586 -0.536523 -0.887674
v 4.583820 -0.536523 -1.853310
v -4.686260 -0.119919 -1.604649
v 4.501150 -0.119919 -2.570286
v -4.754469 -0.536523 -2.323143
v 4.432945 -0.536523 -3.288778
v -4.739994 -1.369730 -2.324663
v 4.447412 -1.369730 -3.290298
v 4.530079 -1.786331 -2.573324
v 4.598289 -1.369730 -1.854831
v 4.583820 -0.536523 -1.853310
v 4.501150 -0.119919 -2.570286
v 4.432945 -0.536523 -3.288778
v 4.447412 -1.369730 -3.290298
v 4.515614 -0.902759 -2.571806
v -4.483538 0.119919 0.066466
v 4.754467 0.119919 0.066467
v -4.490824 0.536520 0.788154
v 4.747204 0.536520 0.788154
v -4.505358 1.369727 0.788154
v 4.732653 1.369727 0.788154
v -4.512629 1.786331 0.066466
v 4.725386 1.786331 0.066466
v -4.505362 1.369727 -0.655222
v 4.732658 1.369727 -0.655221
v -4.490814 0.536520 -0.655221
v 4.747204 0.536520 -0.655221
v 4.754467 0.119919 0.066467
v 4.747204 0.536520 0.788154
v 4.732653 1.369727 0.788154
v 4.725386 1.786331 0.066466
v 4.732658 1.369727 -0.655221
v 4.747204 0.536520 -0.655221
v 4.739927 1.003491 0.066466
# 76 vertices

vt 0.896683 0.459039
vt 0.863835 0.478319
vt 0.863835 0.516881
vt 0.896683 0.536161
vt 0.929532 0.516881
vt 0.929532 0.478319
vt 0.698528 0.435582
vt 0.698528 0.481597
vt 0.665700 0.457278
vt 0.665700 0.500670
vt 0.698528 0.522366
vt 0.731356 0.500670
vt 0.731356 0.457278
# 13 texture coordinates

vn -0.000000 -1.000000 0.000000
vn -0.075478 -0.500030 0.862713
vn -0.075478 0.500028 0.862714
vn 0.000000 1.000000 -0.000000
vn 0.075478 0.500028 -0.862714
vn 0.075478 -0.500030 -0.862713
vn 0.996060 0.016458 0.087143
vn 0.996042 0.017496 0.087142
vn 0.996023 0.018575 0.087140
vn -0.000000 -0.500030 0.866008
vn 0.000000 0.500028 0.866009
vn 0.000000 0.500028 -0.866009
vn 0.000000 -0.500030 -0.866008
vn 0.999865 0.016453 0.000000
vn 0.999847 0.017495 0.000002
vn 0.999828 0.018572 0.000004
vn 0.090523 -0.500030 0.861264
vn 0.090523 0.500028 0.861265
vn -0.090523 0.500027 -0.861265
vn -0.090522 -0.500030 -0.861264
vn 0.994387 0.016459 -0.104517
vn 0.994370 0.017497 -0.104514
vn 0.994350 0.018574 -0.104511
# 23 normals

g Regroup05
usemtl Material01
s 1
f 1/1/1 2/1/1 3/2/2
f 2/1/1 4/2/2 3/2/2
f 3/2/2 4/2/2 6/3/3
f 3/2/2 6/3/3 5/3/3
f 5/3/3 6/3/3 7/4/4
f 6/3/3 8/4/4 7/4/4
f 7/4/4 8/4/4 10/5/5
f 7/4/4 10/5/5 9/5/5
f 9/5/5 10/5/5 11/6/6
f 10/5/5 12/6/6 11/6/6
f 11/6/6 12/6/6 2/1/1
f 11/6/6 2/1/1 1/1/1
s 2
f 13/7/7 19/8/8 14/9/7
f 14/9/7 19/8/8 15/10/8
f 15/10/8 19/8/8 16/11/9
f 16/11/9 19/8/8 17/12/8
f 17/12/8 19/8/8 18/13/7
f 18/13/7 19/8/8 13/7/7
s 1
f 20/1/1 21/1/1 22/2/10
f 21/1/1 23/2/10 22/2/10
f 22/2/10 23/2/10 25/3/11
f 22/2/10 25/3/11 24/3/11
f 24/3/11 25/3/11 26/4/4
f 25/3/11 27/4/4 26/4/4
f 26/4/4 27/4/4 29/5/12
f 26/4/4 29/5/12 28/5/12
f 28/5/12 29/5/12 30/6/13
f 29/5/12 31/6/13 30/6/13
f 30/6/13 31/6/13 21/1/1
f 30/6/13 21/1/1 20/1/1
s 2
f 32/7/14 38/8/15 33/9/14
f 33/9/14 38/8/15 34/10/15
f 34/10/15 38/8/15 35/11/16
f 35/11/16 38/8/15 36/12/15
f 36/12/15 38/8/15 37/13/14
f 37/13/14 38/8/15 32/7/14
s 1
f 39/1/1 40/1/1 41/2/17
f 40/1/1 42/2/17 41/2/17
f 41/2/17 42/2/17 44/3/18
f 41/2/17 44/3/18 43/3/18
f 43/3/18 44/3/18 45/4/4
f 44/3/18 46/4/4 45/4/4
f 45/4/4 46/4/4 48/5/19
f 45/4/4 48/5/19 47/5/19
f 47/5/19 48/5/19 49/6/20
f 48/5/19 50/6/20 49/6/20
f 49/6/20 50/6/20 40/1/1
f 49/6/20 40/1/1 39/1/1
s 2
f 51/7/21 57/8/22 52/9/21
f 52/9/21 57/8/22 53/10/22
f 53/10/22 57/8/22 54/11/23
f 54/11/23 57/8/22 55/12/22
f 55/12/22 57/8/22 56/13/21
f 56/13/21 57/8/22 51/7/21
s 1
f 58/1/1 59/1/1 60/2/10
f 59/1/1 61/2/10 60/2/10
f 60/2/10 61/2/10 63/3/11
f 60/2/10 63/3/11 62/3/11
f 62/3/11 63/3/11 64/4/4
f 63/3/11 65/4/4 64/4/4
f 64/4/4 65/4/4 67/5/12
f 64/4/4 67/5/12 66/5/12
f 66/5/12 67/5/12 68/6/13
f 67/5/12 69/6/13 68/6/13
f 68/6/13 69/6/13 59/1/1
f 68/6/13 59/1/1 58/1/1
s 2
f 70/7/14 76/8/15 71/9/14
f 71/9/14 76/8/15 72/10/15
f 72/10/15 76/8/15 73/11/16
f 73/11/16 76/8/15 74/12/15
f 74/12/15 76/8/15 75/13/14
f 75/13/14 76/8/15 70/7/14
# 72 triangles in group

# 72 triangles total

