# Wavefront OBJ exported by MilkShape 3D

mtllib Plane.mtl

v 4.312411 21.098146 -0.062500
v -4.374690 21.098146 -0.062500
v 4.312411 11.146761 -0.062500
v -4.374690 11.146761 -0.062500
v 4.312411 21.098146 0.133929
v -4.374690 21.098146 0.133929
v 4.312411 11.146761 0.133929
v -4.374690 11.146761 0.133929
# 8 vertices

vt 1.000000 1.000000
vt 1.000000 0.000000
vt 0.000000 0.000000
vt 0.000000 1.000000
# 4 texture coordinates

vn 0.000000 0.000000 -1.000000
vn 0.000000 0.000000 1.000000
# 2 normals

g Flag
usemtl Material02
s 1
f 1/1/1 3/2/1 4/3/1
f 1/1/1 4/3/1 2/4/1
f 8/3/2 7/2/2 5/1/2
f 6/4/2 8/3/2 5/1/2
# 4 triangles in group

# 4 triangles total

