# Wavefront OBJ exported by MilkShape 3D

mtllib Pot.mtl

v -2.094710 16.892870 -0.039680
v -2.094710 16.892870 -0.039680
v -2.094710 16.892870 -0.039680
v 3.135974 27.866554 -0.039680
v -2.094710 27.866554 5.151126
v -2.094710 27.866554 -5.235452
v 3.135974 27.866554 -0.039680
v -3.581552 17.689667 2.575286
v -3.581552 17.689667 -2.575286
v 4.135324 19.866554 -0.039680
v 4.135324 19.866554 -0.039680
v -6.555236 27.866554 2.554481
v -6.555236 27.866554 -2.638808
v -7.490080 19.866554 -2.575286
v 2.432131 27.866554 -2.638808
v 1.229790 23.261292 -5.150572
v 1.229790 23.261292 5.150572
v -7.490080 19.866554 2.575286
v -8.743711 23.261292 -0.039680
v -2.094710 19.866554 5.150572
v -5.419209 23.261292 5.150572
v -2.094710 19.866554 -5.150572
v -5.419209 23.261292 -5.150572
v -0.607868 17.689667 2.575286
v -2.094710 16.892870 -0.039680
v -0.607868 17.689667 -2.575286
v -2.094710 16.892870 -0.039680
v -5.068394 17.689667 -0.039680
v -2.094710 16.892870 -0.039680
v 2.432131 27.866554 2.554481
v 4.554292 23.261292 -0.039680
v 4.554292 23.261292 -0.039680
v 3.135974 27.856405 -0.039680
v 4.044705 29.793234 -0.039680
v -2.140317 27.856405 5.151126
v -5.232829 29.793234 5.151680
v -6.779079 27.856405 2.554481
v -8.325336 29.793234 -0.039680
v -6.779079 27.856405 -2.638808
v -5.232829 29.793234 -5.320331
v 0.952195 29.793234 -5.320331
v 2.432131 27.856405 -2.638808
v 4.044705 29.793234 -0.039680
v 3.135974 27.856405 -0.039680
v 3.135974 27.856405 -0.039680
v 4.044705 29.793234 -0.039680
v -2.140317 27.856405 5.151126
v -4.550300 29.793177 3.923616
v -5.232829 29.793234 5.151680
v -4.227424 27.856348 3.386656
v -6.779079 27.856405 2.554481
v -8.325336 29.793234 -0.039680
v -6.779079 27.856405 -2.638808
v -5.755286 27.856348 -2.088277
v -6.314523 29.793177 -2.398292
v -5.232829 29.793234 -5.320331
v 0.269651 29.793177 -4.092243
v 0.952195 29.793234 -5.320331
v 2.432131 27.856405 -2.638808
v 1.474638 27.856348 -2.088277
v 0.952195 29.793234 5.151680
v 0.952195 29.793234 5.151680
v -2.140317 27.856405 -5.235452
v -2.140317 27.856405 -5.235452
v 2.679623 29.793177 -0.039680
v 2.432131 27.856405 2.554481
v 2.432131 27.856405 2.554481
v -0.053225 27.856348 3.386656
v 0.269651 29.793177 3.923616
v -2.140324 27.856348 -4.092243
# 70 vertices

vt 0.092704 0.242387
vt 0.067400 0.249164
vt 0.092704 0.249164
vt 0.092704 0.267680
vt 0.067601 0.335726
vt 0.042479 0.296555
vt 0.117855 0.335726
vt 0.092704 0.335726
vt 0.092704 0.296555
vt 0.042479 0.267680
vt 0.067400 0.267680
vt 0.142982 0.335726
vt 0.142161 0.296555
vt 0.142161 0.267680
vt 0.117240 0.249164
vt 0.042474 0.335726
vt 0.117240 0.267680
vt 0.042469 0.352114
vt 0.092704 0.352114
vt 0.143803 0.352114
vt 0.059548 0.335640
vt 0.054352 0.352114
vt 0.112528 0.335640
vt 0.115528 0.352114
vt 0.131919 0.335640
vt 0.131919 0.352114
# 26 texture coordinates

vn -0.256061 -0.955633 0.145594
vn -0.224948 -0.871648 0.435463
vn -0.438757 -0.898602 -0.002524
vn 0.699004 -0.427244 0.573460
vn 0.786848 0.151879 0.598166
vn 0.540944 -0.045202 0.839843
vn 0.786000 0.147267 -0.600430
vn 0.925219 0.284947 -0.250549
vn 0.853504 0.105279 -0.510340
vn 0.062055 -0.440347 0.895681
vn -0.821266 0.260789 0.507455
vn -0.996938 0.078176 -0.001908
vn -0.748670 -0.455971 0.481231
vn -0.001257 0.171073 -0.985258
vn -0.473027 0.005972 -0.881027
vn -0.820491 0.254059 -0.512103
vn 0.539684 -0.051768 -0.840275
vn 0.695523 -0.428676 -0.576615
vn 0.060115 -0.443144 -0.894432
vn 0.430566 -0.902059 0.030048
vn 0.279145 -0.843130 0.459577
vn 0.430553 -0.902033 -0.030988
vn 0.276566 -0.842794 -0.461746
vn -0.001248 0.183951 0.982935
vn -0.471913 0.014263 0.881530
vn -0.746316 -0.457024 -0.483882
vn -0.224488 -0.869791 -0.439396
vn 0.000000 -0.956578 0.291475
vn 0.000000 -0.954005 -0.299790
vn -0.255889 -0.954990 -0.150050
vn 0.925108 0.284912 0.250999
vn 0.853132 0.105310 0.510956
vn 0.766110 -0.382608 0.516417
vn 0.478337 -0.249199 0.842077
vn 0.000978 -0.461908 0.886927
vn -0.478329 -0.236734 0.845671
vn -0.761361 -0.465828 0.450926
vn -0.969297 -0.245882 0.002501
vn -0.759443 -0.476105 -0.443362
vn -0.477131 -0.264441 -0.838103
vn 0.000958 -0.488918 -0.872329
vn 0.476889 -0.276714 -0.834270
vn 0.894550 -0.232592 -0.381681
vn 0.765320 -0.393067 -0.509689
vn 0.879270 -0.412540 -0.238106
vn 0.000001 -1.000000 0.000076
vn -0.000020 1.000000 -0.000035
vn 0.894051 -0.227537 0.385875
vn 0.879175 -0.412496 0.238536
# 49 normals

g Regroup13
usemtl Material01
s 1
f 2/1/1 8/2/2 28/3/3
f 10/4/4 30/5/5 17/6/6
f 15/7/7 7/8/8 32/9/9
f 17/6/6 20/10/10 10/4/4
f 12/5/11 19/9/12 18/11/13
f 6/12/14 23/13/15 13/7/16
f 16/13/17 11/4/18 22/14/19
f 1/1/20 10/4/4 24/2/21
f 3/1/22 26/15/23 11/4/18
f 5/16/24 12/5/11 21/6/25
f 12/5/11 13/7/16 19/9/12
f 22/14/19 23/13/15 6/12/14
f 28/3/3 18/11/13 14/17/26
f 16/13/17 15/7/7 11/4/18
f 6/12/14 16/13/17 22/14/19
f 6/12/14 15/7/7 16/13/17
f 5/16/24 17/6/6 30/5/5
f 5/16/24 20/10/10 17/6/6
f 8/2/2 18/11/13 28/3/3
f 20/10/10 5/16/24 21/6/25
f 14/17/26 19/9/12 13/7/16
f 14/17/26 18/11/13 19/9/12
f 8/2/2 20/10/10 18/11/13
f 24/2/21 10/4/4 20/10/10
f 18/11/13 21/6/25 12/5/11
f 18/11/13 20/10/10 21/6/25
f 26/15/23 22/14/19 11/4/18
f 9/15/27 14/17/26 22/14/19
f 14/17/26 23/13/15 22/14/19
f 14/17/26 13/7/16 23/13/15
f 8/2/2 24/2/21 20/10/10
f 8/2/2 25/1/28 24/2/21
f 9/15/27 26/15/23 27/1/29
f 9/15/27 22/14/19 26/15/23
f 9/15/27 28/3/3 14/17/26
f 9/15/27 29/1/30 28/3/3
f 4/8/31 30/5/5 31/9/32
f 10/4/4 31/9/32 30/5/5
f 11/4/18 15/7/7 32/9/9
f 67/5/33 61/18/34 35/16/35
f 61/18/34 36/18/36 35/16/35
f 35/16/35 36/18/36 37/5/37
f 36/18/36 38/19/38 37/5/37
f 37/5/37 38/19/38 39/7/39
f 38/19/38 40/20/40 39/7/39
f 39/7/39 40/20/40 63/12/41
f 40/20/40 41/20/42 63/12/41
f 41/20/42 43/19/43 42/7/44
f 42/7/44 43/19/43 44/8/45
f 47/16/46 68/21/46 66/5/46
f 62/18/47 69/22/47 49/18/47
f 49/18/47 69/22/47 48/22/47
f 51/5/46 50/21/46 47/16/46
f 51/5/46 54/23/46 50/21/46
f 49/18/47 48/22/47 52/19/47
f 53/7/46 54/23/46 51/5/46
f 52/19/47 48/22/47 55/24/47
f 52/19/47 55/24/47 56/20/47
f 53/7/46 70/25/46 54/23/46
f 64/12/46 70/25/46 53/7/46
f 56/20/47 55/24/47 58/20/47
f 58/20/47 55/24/47 57/26/47
f 58/20/47 57/26/47 46/19/47
f 45/8/46 68/21/46 60/23/46
f 45/8/46 60/23/46 59/7/46
f 34/19/48 61/18/34 67/5/33
f 46/19/47 69/22/47 62/18/47
f 42/7/44 63/12/41 41/20/42
f 59/7/46 70/25/46 64/12/46
f 57/26/47 65/19/47 46/19/47
f 45/8/46 66/5/46 68/21/46
f 33/8/49 34/19/48 67/5/33
f 50/21/46 68/21/46 47/16/46
f 65/19/47 69/22/47 46/19/47
f 60/23/46 70/25/46 59/7/46
# 75 triangles in group

# 75 triangles total

