# Wavefront OBJ exported by MilkShape 3D

mtllib PowerPlant.mtl

v 7.886723 -11.483545 3.480700
v 7.886723 0.108803 3.480700
v 4.238667 -11.483545 9.889000
v 4.238667 0.108803 9.889000
v -3.057480 -11.483545 9.889000
v -3.057480 0.108803 9.889000
v -6.705521 -11.483545 3.480700
v -6.705521 0.108803 3.480700
v -3.057480 -11.483545 -2.927598
v -3.057480 0.108803 -2.927598
v 4.238667 -11.483545 -2.927598
v 4.238667 0.108803 -2.927598
v 0.488773 3.549088 3.480700
v 7.886723 0.108803 3.480700
v 4.238667 0.108803 9.889000
v -3.057480 0.108803 9.889000
v -6.705521 0.108803 3.480700
v -3.057480 0.108803 -2.927598
v 4.238667 0.108803 -2.927598
v -7.073597 -2.667929 13.711652
v -7.073597 -4.011870 13.711652
v 7.323048 -2.667929 13.711652
v 7.323048 -4.011870 13.711652
v 7.323048 -2.667929 12.311650
v 7.323048 -4.011870 12.311650
v -7.073597 -2.667929 12.311650
v -7.073597 -4.011870 12.311650
v -6.148895 -2.667929 -11.565028
v -6.148895 -4.011870 -11.565028
v -13.859972 -2.667929 6.574597
v -13.859972 -4.011870 6.574597
v -12.601662 -2.667929 7.188326
v -12.601662 -4.011870 7.188326
v -4.890583 -2.667929 -10.951299
v -4.890583 -4.011870 -10.951299
v 13.651104 -2.667929 6.726425
v 13.651104 -4.011870 6.726425
v 5.940025 -2.667929 -11.413201
v 5.940025 -4.011870 -11.413201
v 7.198338 -2.667929 -12.026929
v 7.198338 -4.011870 -12.026929
v 14.909416 -2.667929 6.112696
v 14.909416 -4.011870 6.112696
v -4.295921 -9.742485 13.080699
v -6.804630 -3.374455 13.080699
v -6.514359 6.564931 13.080699
v -5.928326 11.483545 13.080699
v -9.038258 -9.742485 21.227798
v -10.249733 -3.374455 18.946392
v -10.104603 6.564931 18.946392
v -9.811611 11.483545 19.570904
v -18.659184 -9.742485 21.227798
v -17.140007 -3.374455 18.946392
v -17.285141 6.564931 18.946392
v -17.578157 11.483545 19.570904
v -23.504070 -9.742485 13.080699
v -20.585146 -3.374455 13.080699
v -20.875408 6.564931 13.080699
v -21.461447 11.483545 13.080699
v -18.659184 -9.742485 4.972195
v -17.140007 -3.374455 7.215005
v -17.285141 6.564931 7.215005
v -17.578157 11.483545 6.590495
v -9.038258 -9.742485 4.972195
v -10.249733 -3.374455 7.215005
v -10.104603 6.564931 7.215005
v -9.811611 11.483545 6.590495
v -13.694881 -9.742485 13.080699
v -4.295921 -11.441572 13.138593
v -4.295921 -9.742485 13.080699
v -9.217407 -11.441572 21.227798
v -9.038258 -9.742485 21.227798
v -18.787767 -11.441572 21.227798
v -18.659184 -9.742485 21.227798
v -23.504070 -11.441572 13.138593
v -23.504070 -9.742485 13.080699
v -18.787767 -11.441572 4.972195
v -18.659184 -9.742485 4.972195
v -9.217407 -11.441572 4.972195
v -9.038258 -9.742485 4.972195
v -14.002573 -11.441572 13.138593
v 9.704079 -9.742485 -13.119302
v 7.195370 -3.374455 -13.119302
v 7.485641 6.564931 -13.119302
v 8.071674 11.483545 -13.119302
v 4.961742 -9.742485 -4.972201
v 3.750267 -3.374455 -7.253606
v 3.895397 6.564931 -7.253606
v 4.188389 11.483545 -6.629096
v -4.659184 -9.742485 -4.972201
v -3.140007 -3.374455 -7.253606
v -3.285141 6.564931 -7.253606
v -3.578159 11.483545 -6.629096
v -9.504070 -9.742485 -13.119302
v -6.585144 -3.374455 -13.119302
v -6.875408 6.564931 -13.119302
v -7.461449 11.483545 -13.119302
v -4.659184 -9.742485 -21.227798
v -3.140007 -3.374455 -18.984993
v -3.285141 6.564931 -18.984993
v -3.578159 11.483545 -19.609512
v 4.961742 -9.742485 -21.227798
v 3.750267 -3.374455 -18.984993
v 3.895397 6.564931 -18.984993
v 4.188389 11.483545 -19.609512
v 0.305119 -9.742485 -13.119302
v 9.704079 -11.441572 -13.061406
v 9.704079 -9.742485 -13.119302
v 4.782593 -11.441572 -4.972201
v 4.961742 -9.742485 -4.972201
v -4.787766 -11.441572 -4.972201
v -4.659184 -9.742485 -4.972201
v -9.504070 -11.441572 -13.061406
v -9.504070 -9.742485 -13.119302
v -4.787766 -11.441572 -21.227798
v -4.659184 -9.742485 -21.227798
v 4.782593 -11.441572 -21.227798
v 4.961742 -9.742485 -21.227798
v -0.002575 -11.441572 -13.061406
v 23.504070 -9.742485 13.080698
v 20.995388 -3.374455 13.080698
v 21.285641 6.564931 13.080698
v 21.871685 11.483545 13.080698
v 18.761753 -9.742485 21.227798
v 17.550278 -3.374455 18.946394
v 17.695404 6.564931 18.946394
v 17.988388 11.483545 19.570904
v 9.140823 -9.742485 21.227798
v 10.660000 -3.374455 18.946394
v 10.514866 6.564931 18.946394
v 10.221848 11.483545 19.570904
v 4.295937 -9.742485 13.080698
v 7.214863 -3.374455 13.080698
v 6.924599 6.564931 13.080698
v 6.338558 11.483545 13.080698
v 9.140823 -9.742485 4.972202
v 10.660000 -3.374455 7.215002
v 10.514866 6.564931 7.215002
v 10.221848 11.483545 6.590492
v 18.761753 -9.742485 4.972202
v 17.550278 -3.374455 7.215002
v 17.695404 6.564931 7.215002
v 17.988388 11.483545 6.590492
v 14.105122 -9.742485 13.080698
v 23.504070 -11.441572 13.138594
v 23.504070 -9.742485 13.080698
v 18.582600 -11.441572 21.227798
v 18.761753 -9.742485 21.227798
v 9.012241 -11.441572 21.227798
v 9.140823 -9.742485 21.227798
v 4.295937 -11.441572 13.138594
v 4.295937 -9.742485 13.080698
v 9.012241 -11.441572 4.972202
v 9.140823 -9.742485 4.972202
v 18.582600 -11.441572 4.972202
v 18.761753 -9.742485 4.972202
v 13.797428 -11.441572 13.138594
v -17.062138 4.840842 19.106537
v -10.603104 4.840842 19.106539
v -17.062138 -1.730159 19.106537
v -10.603104 -1.730159 19.106539
v 10.846954 4.840842 19.106537
v 17.305988 4.840842 19.106539
v 10.846954 -1.730159 19.106537
v 17.305988 -1.730159 19.106539
v -3.028046 4.840842 -7.164296
v 3.430988 4.840842 -7.164296
v -3.028046 -1.730159 -7.164296
v 3.430988 -1.730159 -7.164296
v 17.359024 4.840842 6.425982
v 10.899994 4.840842 6.425979
v 17.359024 -1.730159 6.425982
v 10.899994 -1.730159 6.425979
v -10.550079 4.840842 6.425980
v -17.009119 4.840842 6.425972
v -10.550079 -1.730159 6.425980
v -17.009119 -1.730159 6.425972
v 3.610626 4.840842 -19.731735
v -2.848389 4.840842 -19.731750
v 3.610626 -1.730159 -19.731735
v -2.848389 -1.730159 -19.731750
# 181 vertices

vt 0.150308 0.428506
vt 0.150308 0.509598
vt 0.128271 0.428506
vt 0.128271 0.509598
vt 0.084198 0.509598
vt 0.084198 0.428506
vt 0.062161 0.428506
vt 0.062161 0.509598
vt 0.105619 0.533664
vt 0.704670 0.525490
vt 0.704670 0.454142
vt 0.727440 0.525490
vt 0.727440 0.454142
vt 0.706132 0.525490
vt 0.706132 0.454142
vt 0.693936 0.525490
vt 0.693936 0.454142
vt 0.695926 0.525490
vt 0.695926 0.454142
vt 0.708122 0.525490
vt 0.708122 0.454142
vt 0.725252 0.525490
vt 0.737449 0.454142
vt 0.737449 0.525490
vt 0.725252 0.454142
vt 0.739439 0.525490
vt 0.739439 0.454142
vt 0.888513 0.445494
vt 0.880948 0.445494
vt 0.873519 0.445494
vt 0.884511 0.475536
vt 0.879015 0.475536
vt 0.884974 0.522425
vt 0.879246 0.522425
vt 0.885909 0.545629
vt 0.879714 0.545629
vt 0.865600 0.445494
vt 0.868023 0.475536
vt 0.867792 0.522425
vt 0.867324 0.545629
vt 0.857871 0.445494
vt 0.862527 0.475536
vt 0.862064 0.522425
vt 0.861129 0.545629
vt 0.888513 0.437478
vt 0.880662 0.437478
vt 0.873028 0.437478
vt 0.865395 0.437478
vt 0.857871 0.437478
vt 0.910846 0.445494
vt 0.903281 0.445494
vt 0.895852 0.445494
vt 0.906844 0.475536
vt 0.901348 0.475536
vt 0.907307 0.522425
vt 0.901580 0.522425
vt 0.908242 0.545629
vt 0.902047 0.545629
vt 0.890357 0.475536
vt 0.890125 0.522425
vt 0.889658 0.545629
vt 0.883463 0.545629
vt 0.910846 0.437478
vt 0.902995 0.437478
vt 0.895362 0.437478
vt 0.932861 0.445494
vt 0.925295 0.445494
vt 0.917867 0.445494
vt 0.928859 0.475536
vt 0.923363 0.475536
vt 0.929322 0.522425
vt 0.923594 0.522425
vt 0.930257 0.545629
vt 0.924062 0.545629
vt 0.912371 0.475536
vt 0.912140 0.522425
vt 0.911672 0.545629
vt 0.902219 0.445494
vt 0.905477 0.545629
vt 0.932861 0.437478
vt 0.925010 0.437478
vt 0.917376 0.437478
vt 0.909743 0.437478
vt 0.000000 1.000000
vt 0.000000 0.000000
vt 1.000000 0.000000
vt 1.000000 1.000000
# 87 texture coordinates

vn 1.000000 0.000000 -0.000000
vn 0.502631 0.000000 0.864501
vn -0.502632 0.000000 0.864501
vn -1.000000 0.000000 -0.000000
vn -0.502632 0.000000 -0.864501
vn 0.502631 0.000000 -0.864501
vn -0.003387 0.999994 -0.000000
vn 0.211046 0.907332 0.363604
vn 0.421668 0.906750 -0.000000
vn -0.215790 0.905062 0.366466
vn -0.431408 0.902157 -0.000000
vn -0.215790 0.905062 -0.366466
vn 0.211046 0.907332 -0.363604
vn 0.000000 0.000000 1.000000
vn 0.000000 0.000000 -1.000000
vn 0.000000 1.000000 0.000000
vn 0.000000 -1.000000 0.000000
vn -0.920299 0.000000 -0.391215
vn -0.438377 0.000000 0.898791
vn 0.920299 0.000000 0.391215
vn 0.438377 0.000000 -0.898791
vn -0.920299 0.000000 0.391215
vn -0.438376 0.000000 -0.898792
vn 0.920299 0.000000 -0.391215
vn 0.438377 0.000000 0.898791
vn 0.930403 0.366536 -0.000996
vn 0.983809 0.179217 -0.000324
vn 0.462455 0.374742 0.803557
vn 0.488226 0.189566 0.851881
vn 0.997268 -0.073864 0.000000
vn 0.490851 -0.072718 0.868203
vn 0.991987 -0.126340 0.000000
vn 0.488793 -0.138480 0.861339
vn -0.482960 0.198880 0.852758
vn -0.452088 0.394463 0.800010
vn -0.487678 -0.073070 0.869960
vn -0.487060 -0.134574 0.862938
vn -0.910436 0.413649 -0.000599
vn -0.979477 0.201557 0.000000
vn -0.997211 -0.074635 0.000000
vn -0.992977 -0.118310 -0.000000
vn -0.482760 0.197017 -0.853304
vn -0.451899 0.390321 -0.802145
vn -0.487678 -0.073070 -0.869960
vn -0.487060 -0.134574 -0.862938
vn 0.462457 0.371064 -0.805261
vn 0.488329 0.187288 -0.852325
vn 0.490851 -0.072718 -0.868203
vn 0.488793 -0.138480 -0.861339
vn 0.999998 0.000072 0.002103
vn 0.998607 -0.052761 0.000528
vn 0.493588 -0.021024 0.869442
vn 0.496750 -0.052377 0.866312
vn -0.495854 0.023808 0.868079
vn -0.497273 0.037633 0.866778
vn -0.999282 0.037887 0.000514
vn -0.999999 -0.000036 -0.001044
vn -0.496381 0.013810 -0.867995
vn -0.499051 0.037767 -0.865749
vn 0.493932 -0.031151 -0.868942
vn 0.495862 -0.052283 -0.866826
# 61 normals

g Regroup17
usemtl Material01
s 1
f 1/1/1 2/2/1 3/3/2
f 2/2/1 4/4/2 3/3/2
f 3/3/2 4/4/2 6/5/3
f 3/3/2 6/5/3 5/6/3
f 5/6/3 6/5/3 7/7/4
f 6/5/3 8/8/4 7/7/4
f 7/7/4 8/8/4 10/5/5
f 7/7/4 10/5/5 9/6/5
f 9/6/5 10/5/5 11/3/6
f 10/5/5 12/4/6 11/3/6
f 11/3/6 12/4/6 2/2/1
f 11/3/6 2/2/1 1/1/1
f 13/9/7 15/4/8 14/2/9
f 13/9/7 16/5/10 15/4/8
f 13/9/7 17/8/11 16/5/10
f 13/9/7 18/5/12 17/8/11
f 13/9/7 19/4/13 18/5/12
f 13/9/7 14/2/9 19/4/13
f 20/10/14 21/11/14 22/12/14
f 21/11/14 23/13/14 22/12/14
s 2
f 22/12/1 23/13/1 24/12/1
f 23/13/1 25/13/1 24/12/1
s 1
f 24/12/15 25/13/15 26/10/15
f 25/13/15 27/11/15 26/10/15
s 2
f 26/10/4 27/11/4 20/10/4
f 27/11/4 21/11/4 20/10/4
s 3
f 26/10/16 20/10/16 24/12/16
f 20/10/16 22/12/16 24/12/16
f 21/11/17 27/11/17 23/13/17
f 27/11/17 25/13/17 23/13/17
s 1
f 28/14/18 29/15/18 30/16/18
f 29/15/18 31/17/18 30/16/18
s 2
f 30/16/19 31/17/19 32/18/19
f 31/17/19 33/19/19 32/18/19
s 1
f 32/18/20 33/19/20 34/20/20
f 33/19/20 35/21/20 34/20/20
s 2
f 34/20/21 35/21/21 28/14/21
f 35/21/21 29/15/21 28/14/21
s 3
f 34/20/16 28/14/16 32/18/16
f 28/14/16 30/16/16 32/18/16
f 29/15/17 35/21/17 31/17/17
f 35/21/17 33/19/17 31/17/17
s 1
f 38/22/22 37/23/22 36/24/22
f 38/22/22 39/25/22 37/23/22
s 2
f 40/12/23 39/25/23 38/22/23
f 40/12/23 41/13/23 39/25/23
s 1
f 42/26/24 41/13/24 40/12/24
f 42/26/24 43/27/24 41/13/24
s 2
f 36/24/25 43/27/25 42/26/25
f 36/24/25 37/23/25 43/27/25
s 3
f 40/12/16 36/24/16 42/26/16
f 40/12/16 38/22/16 36/24/16
f 39/25/17 43/27/17 37/23/17
f 39/25/17 41/13/17 43/27/17
s 2
f 44/28/17 48/29/17 68/30/17
s 1
f 44/28/26 45/31/27 48/29/28
f 45/31/27 49/32/29 48/29/28
f 45/31/27 46/33/30 50/34/31
f 45/31/27 50/34/31 49/32/29
f 46/33/30 47/35/32 50/34/31
f 47/35/32 51/36/33 50/34/31
s 2
f 48/29/17 52/37/17 68/30/17
s 1
f 48/29/28 49/32/29 53/38/34
f 48/29/28 53/38/34 52/37/35
f 49/32/29 50/34/31 53/38/34
f 50/34/31 54/39/36 53/38/34
f 50/34/31 51/36/33 55/40/37
f 50/34/31 55/40/37 54/39/36
s 2
f 52/37/17 56/41/17 68/30/17
s 1
f 52/37/35 53/38/34 56/41/38
f 53/38/34 57/42/39 56/41/38
f 53/38/34 54/39/36 58/43/40
f 53/38/34 58/43/40 57/42/39
f 54/39/36 55/40/37 58/43/40
f 55/40/37 59/44/41 58/43/40
s 2
f 56/41/17 60/37/17 68/30/17
s 1
f 56/41/38 57/42/39 61/38/42
f 56/41/38 61/38/42 60/37/43
f 57/42/39 58/43/40 61/38/42
f 58/43/40 62/39/44 61/38/42
f 58/43/40 59/44/41 63/40/45
f 58/43/40 63/40/45 62/39/44
s 2
f 60/37/17 64/29/17 68/30/17
s 1
f 60/37/43 61/38/42 64/29/46
f 61/38/42 65/32/47 64/29/46
f 61/38/42 62/39/44 66/34/48
f 61/38/42 66/34/48 65/32/47
f 62/39/44 63/40/45 66/34/48
f 63/40/45 67/36/49 66/34/48
s 2
f 64/29/17 44/28/17 68/30/17
s 1
f 64/29/46 65/32/47 45/31/27
f 64/29/46 45/31/27 44/28/26
f 65/32/47 66/34/48 45/31/27
f 66/34/48 46/33/30 45/31/27
f 66/34/48 67/36/49 47/35/32
f 66/34/48 47/35/32 46/33/30
s 2
f 69/45/17 71/46/17 81/47/17
s 1
f 69/45/50 70/28/51 71/46/52
f 70/28/51 72/29/53 71/46/52
s 2
f 71/46/17 73/48/17 81/47/17
s 1
f 71/46/52 72/29/53 74/37/54
f 71/46/52 74/37/54 73/48/55
s 2
f 73/48/17 75/49/17 81/47/17
s 1
f 73/48/55 74/37/54 75/49/56
f 74/37/54 76/41/57 75/49/56
s 2
f 75/49/17 77/48/17 81/47/17
s 1
f 75/49/56 76/41/57 78/37/58
f 75/49/56 78/37/58 77/48/59
s 2
f 77/48/17 79/46/17 81/47/17
s 1
f 77/48/59 78/37/58 79/46/60
f 78/37/58 80/29/61 79/46/60
s 2
f 79/46/17 69/45/17 81/47/17
s 1
f 79/46/60 80/29/61 70/28/51
f 79/46/60 70/28/51 69/45/50
s 2
f 82/50/17 86/51/17 106/52/17
s 1
f 82/50/26 83/53/27 86/51/28
f 83/53/27 87/54/29 86/51/28
f 83/53/27 84/55/30 88/56/31
f 83/53/27 88/56/31 87/54/29
f 84/55/30 85/57/32 88/56/31
f 85/57/32 89/58/33 88/56/31
s 2
f 86/51/17 90/28/17 106/52/17
s 1
f 86/51/28 87/54/29 91/59/34
f 86/51/28 91/59/34 90/28/35
f 87/54/29 88/56/31 91/59/34
f 88/56/31 92/60/36 91/59/34
f 88/56/31 89/58/33 93/61/37
f 88/56/31 93/61/37 92/60/36
s 2
f 90/28/17 94/29/17 106/52/17
s 1
f 90/28/35 91/59/34 94/29/38
f 91/59/34 95/31/39 94/29/38
f 91/59/34 92/60/36 96/33/40
f 91/59/34 96/33/40 95/31/39
f 92/60/36 93/61/37 96/33/40
f 93/61/37 97/62/41 96/33/40
s 2
f 94/29/17 98/28/17 106/52/17
s 1
f 94/29/38 95/31/39 99/59/42
f 94/29/38 99/59/42 98/28/43
f 95/31/39 96/33/40 99/59/42
f 96/33/40 100/60/44 99/59/42
f 96/33/40 97/62/41 101/61/45
f 96/33/40 101/61/45 100/60/44
s 2
f 98/28/17 102/51/17 106/52/17
s 1
f 98/28/43 99/59/42 102/51/46
f 99/59/42 103/54/47 102/51/46
f 99/59/42 100/60/44 104/56/48
f 99/59/42 104/56/48 103/54/47
f 100/60/44 101/61/45 104/56/48
f 101/61/45 105/58/49 104/56/48
s 2
f 102/51/17 82/50/17 106/52/17
s 1
f 102/51/46 103/54/47 83/53/27
f 102/51/46 83/53/27 82/50/26
f 103/54/47 104/56/48 83/53/27
f 104/56/48 84/55/30 83/53/27
f 104/56/48 105/58/49 85/57/32
f 104/56/48 85/57/32 84/55/30
s 2
f 107/63/17 109/64/17 119/65/17
s 1
f 107/63/50 108/50/51 109/64/52
f 108/50/51 110/51/53 109/64/52
s 2
f 109/64/17 111/45/17 119/65/17
s 1
f 109/64/52 110/51/53 112/28/54
f 109/64/52 112/28/54 111/45/55
s 2
f 111/45/17 113/46/17 119/65/17
s 1
f 111/45/55 112/28/54 113/46/56
f 112/28/54 114/29/57 113/46/56
s 2
f 113/46/17 115/45/17 119/65/17
s 1
f 113/46/56 114/29/57 116/28/58
f 113/46/56 116/28/58 115/45/59
s 2
f 115/45/17 117/64/17 119/65/17
s 1
f 115/45/59 116/28/58 117/64/60
f 116/28/58 118/51/61 117/64/60
s 2
f 117/64/17 107/63/17 119/65/17
s 1
f 117/64/60 118/51/61 108/50/51
f 117/64/60 108/50/51 107/63/50
s 2
f 120/66/17 124/67/17 144/68/17
s 1
f 120/66/26 121/69/27 124/67/28
f 121/69/27 125/70/29 124/67/28
f 121/69/27 122/71/30 126/72/31
f 121/69/27 126/72/31 125/70/29
f 122/71/30 123/73/32 126/72/31
f 123/73/32 127/74/33 126/72/31
s 2
f 124/67/17 128/50/17 144/68/17
s 1
f 124/67/28 125/70/29 129/75/34
f 124/67/28 129/75/34 128/50/35
f 125/70/29 126/72/31 129/75/34
f 126/72/31 130/76/36 129/75/34
f 126/72/31 127/74/33 131/77/37
f 126/72/31 131/77/37 130/76/36
s 2
f 128/50/17 132/78/17 144/68/17
s 1
f 128/50/35 129/75/34 132/78/38
f 129/75/34 133/53/39 132/78/38
f 129/75/34 130/76/36 134/55/40
f 129/75/34 134/55/40 133/53/39
f 130/76/36 131/77/37 134/55/40
f 131/77/37 135/79/41 134/55/40
s 2
f 132/78/17 136/50/17 144/68/17
s 1
f 132/78/38 133/53/39 137/75/42
f 132/78/38 137/75/42 136/50/43
f 133/53/39 134/55/40 137/75/42
f 134/55/40 138/76/44 137/75/42
f 134/55/40 135/79/41 139/77/45
f 134/55/40 139/77/45 138/76/44
s 2
f 136/50/17 140/67/17 144/68/17
s 1
f 136/50/43 137/75/42 140/67/46
f 137/75/42 141/70/47 140/67/46
f 137/75/42 138/76/44 142/72/48
f 137/75/42 142/72/48 141/70/47
f 138/76/44 139/77/45 142/72/48
f 139/77/45 143/74/49 142/72/48
s 2
f 140/67/17 120/66/17 144/68/17
s 1
f 140/67/46 141/70/47 121/69/27
f 140/67/46 121/69/27 120/66/26
f 141/70/47 142/72/48 121/69/27
f 142/72/48 122/71/30 121/69/27
f 142/72/48 143/74/49 123/73/32
f 142/72/48 123/73/32 122/71/30
s 2
f 145/80/17 147/81/17 157/82/17
s 1
f 145/80/50 146/66/51 147/81/52
f 146/66/51 148/67/53 147/81/52
s 2
f 147/81/17 149/83/17 157/82/17
s 1
f 147/81/52 148/67/53 150/50/54
f 147/81/52 150/50/54 149/83/55
s 2
f 149/83/17 151/64/17 157/82/17
s 1
f 149/83/55 150/50/54 151/64/56
f 150/50/54 152/78/57 151/64/56
s 2
f 151/64/17 153/83/17 157/82/17
s 1
f 151/64/56 152/78/57 154/50/58
f 151/64/56 154/50/58 153/83/59
s 2
f 153/83/17 155/81/17 157/82/17
s 1
f 153/83/59 154/50/58 155/81/60
f 154/50/58 156/67/61 155/81/60
s 2
f 155/81/17 145/80/17 157/82/17
s 1
f 155/81/60 156/67/61 146/66/51
f 155/81/60 146/66/51 145/80/50
# 234 triangles in group

g Regroup19
usemtl Material02
f 158/84/14 160/85/14 161/86/14
f 158/84/14 161/86/14 159/87/14
f 162/84/14 164/85/14 165/86/14
f 162/84/14 165/86/14 163/87/14
f 166/84/14 168/85/14 169/86/14
f 166/84/14 169/86/14 167/87/14
f 170/84/15 172/85/15 173/86/15
f 170/84/15 173/86/15 171/87/15
f 174/84/15 176/85/15 177/86/15
f 174/84/15 177/86/15 175/87/15
f 178/84/15 180/85/15 181/86/15
f 178/84/15 181/86/15 179/87/15
# 12 triangles in group

# 246 triangles total

