# Wavefront OBJ exported by MilkShape 3D

mtllib Propeller Upright.mtl

v -38.257751 8.632206 10.616351
v -40.646835 8.623211 -7.118178
v -20.975708 8.697197 1.504680
v -34.402115 8.646706 -12.352122
v -3.029602 8.757545 -2.231637
v -2.851368 8.757797 3.901758
v -31.230637 8.658630 15.278594
v -38.280952 8.917873 10.616384
v -34.736282 8.931198 -4.763465
v -34.425392 8.932373 -12.352233
v -3.090397 9.043213 -2.231616
v -2.912834 9.043465 3.901831
v -31.253746 8.944305 15.278629
v -20.998871 8.982864 1.504680
v -40.670036 8.908894 -7.118178
v -38.280869 8.917858 10.616351
v -34.425240 8.932388 -12.352122
v -3.090881 9.043213 -2.231637
v -2.912598 9.043457 3.901758
v -31.253769 8.944305 15.278594
v 4.352932 8.792454 40.292061
v -11.703239 8.725792 39.900223
v -1.857197 8.769096 21.633034
v -15.846626 8.710213 32.854126
v -3.386940 8.756378 2.241730
v 2.421211 8.793949 3.409645
v 10.013180 8.813747 34.013954
v 4.329788 9.078129 40.292145
v -11.726334 9.011475 39.900101
v -15.869843 8.995880 32.854233
v -3.400322 9.042038 2.241577
v 2.473370 9.076809 2.257649
v 9.990086 9.099422 34.013966
v -1.880344 9.054771 21.633034
v -11.726410 9.011467 39.900223
v 4.329769 9.078129 40.292061
v -15.869751 8.995880 32.854126
v -3.400406 9.042046 2.241730
v 2.407787 9.079632 3.409645
v 9.990086 9.099407 34.013954
v -10.492332 8.736626 -37.570873
v 7.028622 8.802517 -40.292145
v -1.167362 8.771698 -20.284140
v 12.320885 8.822414 -34.079563
v 2.046391 8.795193 -1.832628
v -3.918827 8.757187 -3.321142
v -14.986797 8.719727 -30.395861
v -10.515491 9.022301 -37.570965
v 7.005424 9.088184 -40.292091
v 12.297832 9.108089 -34.079704
v 2.007431 9.080853 -1.832314
v -2.796810 9.045456 -0.851285
v -15.009941 9.005386 -30.395828
v -1.190521 9.057373 -20.284140
v 7.005489 9.088184 -40.292145
v -10.515453 9.022293 -37.570873
v 12.297752 9.108089 -34.079563
v 2.007500 9.080860 -1.832628
v -3.957733 9.042862 -3.321142
v -15.009930 9.005394 -30.395861
v 38.895439 8.922363 -7.677163
v 40.670036 8.929047 10.130717
v 21.308992 8.856220 0.819984
v 34.248184 8.904892 15.141472
v 1.636837 8.847691 3.927938
v 2.068623 8.848476 -1.788246
v 32.033783 8.896561 -12.584216
v 38.872429 9.208023 -7.677220
v 40.646812 9.214706 10.130629
v 36.472839 9.199013 13.469428
v 1.601460 9.054726 3.927891
v 2.033627 9.055504 -1.788305
v 32.010597 9.182228 -12.584224
v 21.285822 9.141888 0.819984
v 40.646828 9.214706 10.130717
v 38.872337 9.208038 -7.677163
v 34.225014 9.190559 15.141472
v 1.601856 9.054729 3.927938
v 2.033596 9.055519 -1.788246
v 32.010635 9.182236 -12.584216
v -4.203926 9.944939 0.915553
v -3.137878 9.944939 3.642347
v -0.564217 9.944939 0.915553
v -4.390759 -9.944942 0.915553
v -0.751059 -9.944942 0.915553
v -3.324718 -9.944942 3.642347
v -4.203926 9.632874 0.915553
v -3.137878 9.632874 3.642347
v -3.324718 -9.944942 3.642347
v -0.564217 9.944939 4.771824
v -0.751059 -9.944942 4.771824
v -0.751059 -9.944942 4.771824
v -0.564215 9.632874 4.771824
v 2.009441 9.944942 3.642347
v 1.822599 -9.944942 3.642347
v 2.009441 9.632877 3.642347
v 1.822599 -9.944942 3.642347
v 3.075489 9.944942 0.915553
v 2.888647 -9.944885 0.915553
v 2.888647 -9.944885 0.915553
v 3.075489 9.632877 0.915553
v 2.009441 9.944942 -1.811244
v 1.822599 -9.944942 -1.811244
v 2.009441 9.632877 -1.811244
v 1.822599 -9.944942 -1.811244
v -0.564217 9.944939 -2.940722
v -0.751059 -9.944942 -2.940722
v -0.751059 -9.944942 -2.940722
v -0.564215 9.632874 -2.940722
v -3.137878 9.944939 -1.811244
v -3.324718 -9.944942 -1.811244
v -3.137878 9.632874 -1.811244
v -3.324718 -9.944942 -1.811244
v -4.390759 -9.944942 0.915553
v -4.203926 9.632874 0.915553
# 115 vertices

vt 0.809493 0.039064
vt 0.701788 0.025578
vt 0.754156 0.136614
vt 0.670001 0.060827
vt 0.717569 0.227189
vt 0.779534 0.227569
vt 0.837808 0.078729
vt 0.716088 0.058941
vt 0.989721 0.279584
vt 0.987341 0.179546
vt 0.876401 0.244531
vt 0.944549 0.156158
vt 0.773496 0.225433
vt 0.782782 0.281833
vt 0.951593 0.311534
vt 0.773623 0.277479
vt 0.516841 0.195789
vt 0.500314 0.294688
vt 0.621827 0.248425
vt 0.538045 0.324561
vt 0.719566 0.283681
vt 0.721060 0.226654
vt 0.560417 0.170419
vt 0.729778 0.230420
vt 0.698393 0.474563
vt 0.806544 0.484580
vt 0.749998 0.375295
vt 0.836976 0.448331
vt 0.783130 0.283599
vt 0.721188 0.285210
vt 0.668591 0.435832
vt 0.826821 0.460889
vt 0.000000 1.000000
vt 0.000000 0.750000
vt 0.125000 0.750000
vt 0.125000 1.000000
vt 0.250000 1.000000
vt 0.250000 0.750000
vt 0.375000 0.750000
vt 0.375000 1.000000
vt 0.500000 1.000000
vt 0.500000 0.750000
vt 0.625000 0.750000
vt 0.625000 1.000000
vt 0.750000 1.000000
vt 0.750000 0.750000
vt 0.875000 0.750000
vt 0.875000 1.000000
vt 1.000000 1.000000
vt 1.000000 0.750000
# 50 texture coordinates

vn 0.003761 -0.999993 0.000000
vn -0.827849 0.458766 0.322798
vn -0.819624 -0.066565 0.569022
vn -0.487299 0.867598 -0.099061
vn -0.336999 0.876833 -0.342923
vn -0.191645 0.482686 -0.854568
vn -0.010509 0.013996 -0.999847
vn 0.631743 0.118308 -0.766096
vn 0.896626 0.191758 -0.399112
vn 0.918542 0.196643 0.342947
vn 0.680471 0.126528 0.721768
vn 0.070840 0.024065 0.997197
vn -0.271803 -0.022169 0.962097
vn -0.003577 0.999994 0.000004
vn 0.005446 -0.999985 0.000226
vn 0.251182 0.020328 0.967726
vn 0.528913 0.042615 0.847606
vn -0.340839 -0.027423 0.939722
vn -0.654220 -0.052855 0.754455
vn -0.969302 -0.078578 0.232980
vn -0.993478 -0.069149 -0.090667
vn -0.724367 -0.046642 -0.687835
vn -0.414986 -0.484424 -0.770143
vn 0.304848 -0.740083 -0.599454
vn 0.689999 -0.675587 -0.259777
vn 0.962411 -0.247317 0.112247
vn 0.910228 0.073552 0.407523
vn -0.005448 0.999985 -0.000229
vn -0.417517 -0.033964 -0.908034
vn -0.668265 -0.054314 -0.741938
vn 0.170076 0.013814 -0.985334
vn 0.513024 0.041509 -0.857370
vn 0.925373 0.074799 -0.371606
vn 0.994875 0.099814 -0.016135
vn 0.794551 0.087821 0.600813
vn 0.564206 -0.421842 0.709733
vn -0.400964 -0.372461 0.836959
vn -0.846298 -0.349732 0.401829
vn -0.994862 0.063217 0.079074
vn -0.964639 -0.078225 -0.251699
vn 0.002213 -0.999998 0.000017
vn 0.002305 -0.999996 0.001316
vn 0.000633 -0.999999 0.001263
vn 0.000574 -0.999999 -0.001265
vn 0.002246 -0.999997 -0.001213
vn 0.927792 0.074926 -0.365497
vn 0.779141 0.062816 -0.623693
vn 0.972921 0.078892 0.217257
vn 0.836082 -0.015686 0.548381
vn 0.533132 0.388796 0.751404
vn 0.121193 0.379508 0.917217
vn -0.730975 0.417399 0.539864
vn -0.932700 -0.158568 0.323924
vn -0.893777 -0.151903 -0.422005
vn -0.644366 -0.097490 -0.758477
vn -0.035603 -0.014032 -0.999268
vn 0.305381 0.024576 -0.951913
vn 0.000000 1.000000 0.000000
vn 0.000000 -1.000000 0.000000
vn -0.931317 0.008888 0.364101
vn -0.721386 0.006884 0.692499
vn 0.000000 -0.000000 1.000000
vn 0.721386 -0.006885 0.692499
vn 0.999954 -0.009543 0.000000
vn 0.721386 -0.006885 -0.692499
vn 0.000000 -0.000000 -1.000000
vn -0.721386 0.006884 -0.692499
vn -0.931318 0.008888 -0.364100
# 68 normals

g Propeller
usemtl Material01
s 1
f 1/1/1 2/2/1 3/3/1
f 2/2/1 4/4/1 3/3/1
f 3/3/1 4/4/1 5/5/1
f 3/3/1 5/5/1 6/6/1
f 7/7/1 3/3/1 6/6/1
f 1/1/1 3/3/1 7/7/1
s 2
f 1/1/2 8/1/3 9/8/4
f 1/1/2 9/8/4 2/2/5
f 2/2/5 9/8/4 10/4/6
f 2/2/5 10/4/6 4/4/7
f 4/4/7 10/4/6 11/5/8
f 4/4/7 11/5/8 5/5/9
f 5/5/9 11/5/8 12/6/10
f 5/5/9 12/6/10 6/6/11
f 6/6/11 12/6/10 13/7/12
f 6/6/11 13/7/12 7/7/13
f 7/7/13 13/7/12 8/1/3
f 7/7/13 8/1/3 1/1/2
s 1
f 14/3/14 15/2/14 16/1/14
f 14/3/14 17/4/14 15/2/14
f 18/5/14 17/4/14 14/3/14
f 19/6/14 18/5/14 14/3/14
f 19/6/14 14/3/14 20/7/14
f 20/7/14 14/3/14 16/1/14
f 21/9/1 22/10/1 23/11/1
f 22/10/1 24/12/1 23/11/1
f 23/11/1 24/12/1 25/13/15
f 23/11/1 25/13/15 26/14/15
f 27/15/1 23/11/1 26/14/15
f 21/9/1 23/11/1 27/15/1
s 2
f 21/9/16 28/9/17 29/10/18
f 21/9/16 29/10/18 22/10/19
f 22/10/19 29/10/18 30/12/20
f 22/10/19 30/12/20 24/12/21
f 24/12/21 30/12/20 31/13/22
f 24/12/21 31/13/22 25/13/23
f 25/13/23 31/13/22 32/16/24
f 25/13/23 32/16/24 26/14/25
f 26/14/25 32/16/24 33/15/26
f 26/14/25 33/15/26 27/15/27
f 27/15/27 33/15/26 28/9/17
f 27/15/27 28/9/17 21/9/16
s 1
f 34/11/14 35/10/14 36/9/14
f 34/11/14 37/12/14 35/10/14
f 38/13/28 37/12/14 34/11/14
f 39/14/28 38/13/28 34/11/14
f 39/14/28 34/11/14 40/15/14
f 40/15/14 34/11/14 36/9/14
f 41/17/1 42/18/1 43/19/1
f 42/18/1 44/20/1 43/19/1
f 43/19/1 44/20/1 45/21/15
f 43/19/1 45/21/15 46/22/15
f 47/23/1 43/19/1 46/22/15
f 41/17/1 43/19/1 47/23/1
s 2
f 41/17/29 48/17/30 49/18/31
f 41/17/29 49/18/31 42/18/32
f 42/18/32 49/18/31 50/20/33
f 42/18/32 50/20/33 44/20/34
f 44/20/34 50/20/33 51/21/35
f 44/20/34 51/21/35 45/21/36
f 45/21/36 51/21/35 52/24/37
f 45/21/36 52/24/37 46/22/38
f 46/22/38 52/24/37 53/23/39
f 46/22/38 53/23/39 47/23/40
f 47/23/40 53/23/39 48/17/30
f 47/23/40 48/17/30 41/17/29
s 1
f 54/19/14 55/18/14 56/17/14
f 54/19/14 57/20/14 55/18/14
f 58/21/28 57/20/14 54/19/14
f 59/22/28 58/21/28 54/19/14
f 59/22/28 54/19/14 60/23/14
f 60/23/14 54/19/14 56/17/14
f 61/25/1 62/26/1 63/27/41
f 62/26/1 64/28/42 63/27/41
f 63/27/41 64/28/42 65/29/43
f 63/27/41 65/29/43 66/30/44
f 67/31/45 63/27/41 66/30/44
f 61/25/1 63/27/41 67/31/45
s 2
f 61/25/46 68/25/47 69/26/48
f 61/25/46 69/26/48 62/26/49
f 62/26/49 69/26/48 70/32/50
f 62/26/49 70/32/50 64/28/51
f 64/28/51 70/32/50 71/29/52
f 64/28/51 71/29/52 65/29/53
f 65/29/53 71/29/52 72/30/54
f 65/29/53 72/30/54 66/30/55
f 66/30/55 72/30/54 73/31/56
f 66/30/55 73/31/56 67/31/57
f 67/31/57 73/31/56 68/25/47
f 67/31/57 68/25/47 61/25/46
s 1
f 74/27/14 75/26/14 76/25/14
f 74/27/14 77/28/14 75/26/14
f 78/29/14 77/28/14 74/27/14
f 79/30/14 78/29/14 74/27/14
f 79/30/14 74/27/14 80/31/14
f 80/31/14 74/27/14 76/25/14
# 96 triangles in group

g Cylinder03
s 2
f 81/33/58 82/33/58 83/33/58
f 84/33/59 85/33/59 86/33/59
s 1
f 87/34/60 84/33/60 88/35/61
f 84/33/60 89/36/61 88/35/61
s 2
f 82/33/58 90/33/58 83/33/58
f 86/33/59 85/33/59 91/33/59
s 1
f 88/35/61 89/36/61 92/37/62
f 88/35/61 92/37/62 93/38/62
s 2
f 90/33/58 94/33/58 83/33/58
f 91/33/59 85/33/59 95/33/59
s 1
f 93/38/62 92/37/62 96/39/63
f 92/37/62 97/40/63 96/39/63
s 2
f 94/33/58 98/33/58 83/33/58
f 95/33/59 85/33/59 99/33/59
s 1
f 96/39/63 97/40/63 100/41/64
f 96/39/63 100/41/64 101/42/64
s 2
f 98/33/58 102/33/58 83/33/58
f 99/33/59 85/33/59 103/33/59
s 1
f 101/42/64 100/41/64 104/43/65
f 100/41/64 105/44/65 104/43/65
s 2
f 102/33/58 106/33/58 83/33/58
f 103/33/59 85/33/59 107/33/59
s 1
f 104/43/65 105/44/65 108/45/66
f 104/43/65 108/45/66 109/46/66
s 2
f 106/33/58 110/33/58 83/33/58
f 107/33/59 85/33/59 111/33/59
s 1
f 109/46/66 108/45/66 112/47/67
f 108/45/66 113/48/67 112/47/67
s 2
f 110/33/58 81/33/58 83/33/58
f 111/33/59 85/33/59 84/33/59
s 1
f 112/47/67 113/48/67 114/49/68
f 112/47/67 114/49/68 115/50/68
# 32 triangles in group

# 128 triangles total

