# Wavefront OBJ exported by MilkShape 3D

mtllib Propeller.mtl

v -33.867748 -25.936148 -13.791247
v -33.866573 -26.247042 -6.202480
v -33.853252 -29.791712 9.177369
v -33.879681 -22.764502 13.839615
v -33.978588 5.398846 -3.670631
v -33.978840 5.576406 2.462817
v -33.567585 -29.768511 9.177337
v -33.558590 -32.157593 -8.557193
v -33.632572 -12.486465 0.065666
v -33.582081 -25.912870 -13.791137
v -33.692921 5.459641 -3.670651
v -33.693172 5.637875 2.462744
v -33.594006 -22.741392 13.839580
v -33.853237 -29.791628 9.177337
v -33.844273 -32.180790 -8.557193
v -33.918240 -12.509630 0.065666
v -33.867764 -25.935995 -13.791137
v -33.978588 5.398359 -3.670651
v -33.978832 5.576642 2.462744
v -33.879681 -22.764524 13.839580
v -33.931255 -7.380603 31.415216
v -33.946850 -3.237092 38.461086
v -34.013500 12.819029 38.853130
v -34.034794 18.479328 32.574951
v -33.977413 5.088920 0.802563
v -34.012180 10.962612 0.818635
v -33.727825 12.842173 38.853046
v -33.661167 -3.213999 38.461208
v -33.704472 6.632043 20.194019
v -33.645588 -7.357385 31.415113
v -33.691753 5.102303 0.802716
v -33.729321 10.910452 1.970631
v -33.749119 18.502422 32.574940
v -34.013500 12.819012 38.853046
v -33.946842 -3.237170 38.461208
v -33.990147 6.608898 20.194019
v -33.931255 -7.380509 31.415113
v -33.977421 5.088835 0.802716
v -34.015003 10.897030 1.970631
v -34.034779 18.479328 32.574940
v -34.043461 20.787075 -35.518719
v -34.023556 15.494666 -41.731106
v -33.957676 -2.026249 -39.009979
v -33.940762 -6.520698 -31.834843
v -34.016224 10.496672 -3.271328
v -33.980831 5.692431 -2.290299
v -33.672001 -2.003090 -39.009888
v -33.737888 15.517862 -41.731159
v -33.707073 7.321881 -21.723154
v -33.757786 20.810127 -35.518578
v -33.730564 10.535632 -3.271642
v -33.692562 4.570416 -4.760156
v -33.655102 -6.497556 -31.834875
v -33.957668 -2.026211 -39.009888
v -34.023556 15.494730 -41.731159
v -33.992748 7.298722 -21.723154
v -34.043461 20.786995 -35.518578
v -34.016232 10.496741 -3.271642
v -33.978237 4.531510 -4.760156
v -33.940769 -6.520690 -31.834875
v -34.134380 44.962086 12.030414
v -34.150074 49.136055 8.691614
v -34.143391 47.361671 -9.116235
v -34.117596 40.499840 -14.023238
v -33.990101 10.090700 2.488876
v -33.990875 10.522867 -3.227319
v -33.857731 47.384686 -9.116178
v -33.864414 49.159283 8.691703
v -33.791592 29.798231 -0.619030
v -33.840260 42.737431 13.702457
v -33.783066 10.126080 2.488924
v -33.783848 10.557863 -3.227260
v -33.831928 40.523029 -14.023231
v -34.143406 47.361580 -9.116178
v -34.150074 49.136074 8.691703
v -34.077259 29.775063 -0.619030
v -34.125927 42.714260 13.702457
v -33.990105 10.091097 2.488924
v -33.990891 10.522840 -3.227260
v -34.117603 40.499878 -14.023231
v -34.880314 4.285316 -0.523461
v -34.568249 4.285316 -0.523461
v -14.990430 4.098481 -0.523461
v -34.880314 5.351364 2.203333
v -34.568249 5.351364 2.203333
v -14.990430 5.164520 2.203333
v -34.880314 7.925025 3.332810
v -34.568249 7.925028 3.332810
v -14.990430 7.738181 3.332810
v -34.880314 10.498685 2.203333
v -34.568249 10.498685 2.203333
v -14.990430 10.311840 2.203333
v -34.880314 11.564730 -0.523461
v -34.568249 11.564730 -0.523461
v -14.990487 11.377886 -0.523461
v -34.880314 10.498685 -3.250258
v -34.568249 10.498685 -3.250258
v -14.990430 10.311840 -3.250258
v -34.880314 7.925025 -4.379736
v -34.568249 7.925028 -4.379736
v -14.990430 7.738181 -4.379736
v -34.880314 5.351364 -3.250258
v -34.568249 5.351364 -3.250258
v -14.990430 5.164520 -3.250258
v -14.990430 7.738181 -0.523461
v -34.880314 7.925025 -0.523461
# 106 vertices

vt 0.809493 0.039064
vt 0.701788 0.025578
vt 0.754156 0.136614
vt 0.670001 0.060827
vt 0.717569 0.227189
vt 0.779534 0.227569
vt 0.837808 0.078729
vt 0.716088 0.058941
vt 0.989721 0.279584
vt 0.987341 0.179546
vt 0.876401 0.244531
vt 0.944549 0.156158
vt 0.773496 0.225433
vt 0.782782 0.281833
vt 0.951593 0.311534
vt 0.773623 0.277479
vt 0.516841 0.195789
vt 0.500314 0.294688
vt 0.621827 0.248425
vt 0.538045 0.324561
vt 0.719566 0.283681
vt 0.721060 0.226654
vt 0.560417 0.170419
vt 0.729778 0.230420
vt 0.698393 0.474563
vt 0.806544 0.484580
vt 0.749998 0.375295
vt 0.836976 0.448331
vt 0.783130 0.283599
vt 0.721188 0.285210
vt 0.668591 0.435832
vt 0.826821 0.460889
vt 0.000000 1.000000
vt 0.000000 0.750000
vt 0.125000 0.750000
vt 0.125000 1.000000
vt 0.250000 1.000000
vt 0.250000 0.750000
vt 0.375000 0.750000
vt 0.375000 1.000000
vt 0.500000 1.000000
vt 0.500000 0.750000
vt 0.625000 0.750000
vt 0.625000 1.000000
vt 0.750000 1.000000
vt 0.750000 0.750000
vt 0.875000 0.750000
vt 0.875000 1.000000
vt 1.000000 1.000000
vt 1.000000 0.750000
# 50 texture coordinates

vn 0.999993 0.003760 0.000000
vn -0.458767 -0.827849 0.322798
vn 0.066565 -0.819624 0.569022
vn -0.867599 -0.487298 -0.099061
vn -0.876833 -0.336998 -0.342923
vn -0.482686 -0.191645 -0.854568
vn -0.013996 -0.010509 -0.999847
vn -0.118310 0.631743 -0.766096
vn -0.191763 0.896625 -0.399111
vn -0.196649 0.918541 0.342946
vn -0.126533 0.680471 0.721768
vn -0.024067 0.070840 0.997197
vn 0.022169 -0.271803 0.962098
vn -0.999994 -0.003577 0.000004
vn 0.999985 0.005446 0.000226
vn -0.020328 0.251182 0.967726
vn -0.042615 0.528913 0.847606
vn 0.027422 -0.340839 0.939722
vn 0.052854 -0.654220 0.754455
vn 0.078580 -0.969302 0.232980
vn 0.069153 -0.993477 -0.090666
vn 0.046647 -0.724366 -0.687835
vn 0.484425 -0.414986 -0.770142
vn 0.740083 0.304847 -0.599454
vn 0.675588 0.689998 -0.259777
vn 0.247318 0.962411 0.112247
vn -0.073552 0.910228 0.407524
vn -0.999985 -0.005448 -0.000229
vn 0.033964 -0.417517 -0.908034
vn 0.054312 -0.668266 -0.741938
vn -0.013814 0.170076 -0.985334
vn -0.041508 0.513024 -0.857370
vn -0.074798 0.925373 -0.371606
vn -0.099816 0.994875 -0.016135
vn -0.087823 0.794551 0.600813
vn 0.421840 0.564207 0.709734
vn 0.372461 -0.400964 0.836959
vn 0.349731 -0.846299 0.401829
vn -0.063219 -0.994862 0.079075
vn 0.078221 -0.964639 -0.251699
vn 0.999998 0.002213 0.000017
vn 0.999996 0.002305 0.001316
vn 0.999999 0.000633 0.001263
vn 0.999999 0.000574 -0.001265
vn 0.999997 0.002246 -0.001212
vn -0.074938 0.927791 -0.365497
vn -0.062826 0.779141 -0.623693
vn -0.078905 0.972920 0.217257
vn 0.015678 0.836082 0.548381
vn -0.388799 0.533131 0.751403
vn -0.379505 0.121193 0.917217
vn -0.417393 -0.730977 0.539867
vn 0.158574 -0.932699 0.323924
vn 0.151908 -0.893776 -0.422004
vn 0.097493 -0.644366 -0.758477
vn 0.014032 -0.035603 -0.999267
vn -0.024580 0.305381 -0.951913
vn -1.000000 0.000000 0.000000
vn 1.000000 0.000000 0.000000
vn -0.009543 -0.999954 0.000000
vn -0.006885 -0.721386 0.692499
vn 0.000000 0.000000 1.000000
vn 0.006885 0.721386 0.692499
vn 0.009543 0.999954 0.000000
vn 0.006885 0.721386 -0.692499
vn 0.000000 0.000000 -1.000000
vn -0.006885 -0.721386 -0.692499
# 67 normals

g Propeller
usemtl Material01
s 1
f 7/1/1 8/2/1 9/3/1
f 8/2/1 10/4/1 9/3/1
f 9/3/1 10/4/1 11/5/1
f 9/3/1 11/5/1 12/6/1
f 13/7/1 9/3/1 12/6/1
f 7/1/1 9/3/1 13/7/1
s 2
f 7/1/2 3/1/3 2/8/4
f 7/1/2 2/8/4 8/2/5
f 8/2/5 2/8/4 1/4/6
f 8/2/5 1/4/6 10/4/7
f 10/4/7 1/4/6 5/5/8
f 10/4/7 5/5/8 11/5/9
f 11/5/9 5/5/8 6/6/10
f 11/5/9 6/6/10 12/6/11
f 12/6/11 6/6/10 4/7/12
f 12/6/11 4/7/12 13/7/13
f 13/7/13 4/7/12 3/1/3
f 13/7/13 3/1/3 7/1/2
s 1
f 16/3/14 15/2/14 14/1/14
f 16/3/14 17/4/14 15/2/14
f 18/5/14 17/4/14 16/3/14
f 19/6/14 18/5/14 16/3/14
f 19/6/14 16/3/14 20/7/14
f 20/7/14 16/3/14 14/1/14
f 27/9/1 28/10/1 29/11/1
f 28/10/1 30/12/1 29/11/1
f 29/11/1 30/12/1 31/13/15
f 29/11/1 31/13/15 32/14/15
f 33/15/1 29/11/1 32/14/15
f 27/9/1 29/11/1 33/15/1
s 2
f 27/9/16 23/9/17 22/10/18
f 27/9/16 22/10/18 28/10/19
f 28/10/19 22/10/18 21/12/20
f 28/10/19 21/12/20 30/12/21
f 30/12/21 21/12/20 25/13/22
f 30/12/21 25/13/22 31/13/23
f 31/13/23 25/13/22 26/16/24
f 31/13/23 26/16/24 32/14/25
f 32/14/25 26/16/24 24/15/26
f 32/14/25 24/15/26 33/15/27
f 33/15/27 24/15/26 23/9/17
f 33/15/27 23/9/17 27/9/16
s 1
f 36/11/14 35/10/14 34/9/14
f 36/11/14 37/12/14 35/10/14
f 38/13/28 37/12/14 36/11/14
f 39/14/28 38/13/28 36/11/14
f 39/14/28 36/11/14 40/15/14
f 40/15/14 36/11/14 34/9/14
f 47/17/1 48/18/1 49/19/1
f 48/18/1 50/20/1 49/19/1
f 49/19/1 50/20/1 51/21/15
f 49/19/1 51/21/15 52/22/15
f 53/23/1 49/19/1 52/22/15
f 47/17/1 49/19/1 53/23/1
s 2
f 47/17/29 43/17/30 42/18/31
f 47/17/29 42/18/31 48/18/32
f 48/18/32 42/18/31 41/20/33
f 48/18/32 41/20/33 50/20/34
f 50/20/34 41/20/33 45/21/35
f 50/20/34 45/21/35 51/21/36
f 51/21/36 45/21/35 46/24/37
f 51/21/36 46/24/37 52/22/38
f 52/22/38 46/24/37 44/23/39
f 52/22/38 44/23/39 53/23/40
f 53/23/40 44/23/39 43/17/30
f 53/23/40 43/17/30 47/17/29
s 1
f 56/19/14 55/18/14 54/17/14
f 56/19/14 57/20/14 55/18/14
f 58/21/28 57/20/14 56/19/14
f 59/22/28 58/21/28 56/19/14
f 59/22/28 56/19/14 60/23/14
f 60/23/14 56/19/14 54/17/14
f 67/25/1 68/26/1 69/27/41
f 68/26/1 70/28/42 69/27/41
f 69/27/41 70/28/42 71/29/43
f 69/27/41 71/29/43 72/30/44
f 73/31/45 69/27/41 72/30/44
f 67/25/1 69/27/41 73/31/45
s 2
f 67/25/46 63/25/47 62/26/48
f 67/25/46 62/26/48 68/26/49
f 68/26/49 62/26/48 61/32/50
f 68/26/49 61/32/50 70/28/51
f 70/28/51 61/32/50 65/29/52
f 70/28/51 65/29/52 71/29/53
f 71/29/53 65/29/52 66/30/54
f 71/29/53 66/30/54 72/30/55
f 72/30/55 66/30/54 64/31/56
f 72/30/55 64/31/56 73/31/57
f 73/31/57 64/31/56 63/25/47
f 73/31/57 63/25/47 67/25/46
s 1
f 76/27/14 75/26/14 74/25/14
f 76/27/14 77/28/14 75/26/14
f 78/29/14 77/28/14 76/27/14
f 79/30/14 78/29/14 76/27/14
f 79/30/14 76/27/14 80/31/14
f 80/31/14 76/27/14 74/25/14
# 96 triangles in group

g Cylinder03
s 2
f 81/33/58 84/33/58 106/33/58
f 83/33/59 105/33/59 86/33/59
s 1
f 82/34/60 83/33/60 85/35/61
f 83/33/60 86/36/61 85/35/61
s 2
f 84/33/58 87/33/58 106/33/58
f 86/33/59 105/33/59 89/33/59
s 1
f 85/35/61 86/36/61 89/37/62
f 85/35/61 89/37/62 88/38/62
s 2
f 87/33/58 90/33/58 106/33/58
f 89/33/59 105/33/59 92/33/59
s 1
f 88/38/62 89/37/62 91/39/63
f 89/37/62 92/40/63 91/39/63
s 2
f 90/33/58 93/33/58 106/33/58
f 92/33/59 105/33/59 95/33/59
s 1
f 91/39/63 92/40/63 95/41/64
f 91/39/63 95/41/64 94/42/64
s 2
f 93/33/58 96/33/58 106/33/58
f 95/33/59 105/33/59 98/33/59
s 1
f 94/42/64 95/41/64 97/43/65
f 95/41/64 98/44/65 97/43/65
s 2
f 96/33/58 99/33/58 106/33/58
f 98/33/59 105/33/59 101/33/59
s 1
f 97/43/65 98/44/65 101/45/66
f 97/43/65 101/45/66 100/46/66
s 2
f 99/33/58 102/33/58 106/33/58
f 101/33/59 105/33/59 104/33/59
s 1
f 100/46/66 101/45/66 103/47/67
f 101/45/66 104/48/67 103/47/67
s 2
f 102/33/58 81/33/58 106/33/58
f 104/33/59 105/33/59 83/33/59
s 1
f 103/47/67 104/48/67 83/49/60
f 103/47/67 83/49/60 82/50/60
# 32 triangles in group

# 128 triangles total

