# Wavefront OBJ exported by MilkShape 3D

mtllib pumpkin.mtl

v 15.523719 -27.604038 1.605439
v 10.976310 -27.604038 11.616965
v 0.023723 -25.404037 20.163876
v -10.980518 -27.604038 11.616965
v -15.527927 -27.604038 1.605439
v -10.980518 -27.604038 -8.406088
v 0.023723 -27.604038 -12.552999
v 10.976310 -27.604038 -8.406088
v 24.674294 -17.610331 1.591201
v 16.897362 -10.260330 21.517258
v -19.997358 -10.260330 20.442287
v -24.674294 -17.610331 1.591201
v -17.447359 -17.610331 -14.687131
v 0.019685 -17.610331 -21.429836
v 17.447361 -17.610331 -14.687131
v 28.491417 -7.091816 1.591201
v 20.146475 -7.091816 20.387798
v -0.030314 -12.841816 24.588367
v -20.146475 -7.091816 20.442287
v -28.491417 -7.091816 1.591201
v -20.146475 -7.091816 -17.205395
v 0.019685 -7.091816 -24.991199
v 20.146475 -7.091816 -17.205395
v 24.674288 3.426701 1.591201
v 17.447351 3.426701 17.869530
v 0.019685 3.426701 24.588367
v -17.447359 3.426701 17.869530
v -24.674288 3.426701 1.591201
v -17.447359 3.426701 -14.687129
v 0.019685 3.426701 -21.429836
v 17.447351 3.426701 -14.687129
v 15.523721 13.407681 1.605439
v 10.976311 13.407681 11.616967
v 0.023723 13.407681 15.763881
v -10.980521 13.407681 11.616967
v -15.527929 13.407681 1.605439
v -10.980521 13.407681 -8.406089
v 0.023723 13.407681 -12.552999
v 10.976311 13.407681 -8.406089
v 0.023723 -27.604038 0.478296
v 15.527622 13.407681 1.605439
v 10.980213 13.407681 11.616965
v 0.023723 13.407681 15.763878
v -10.976614 13.407681 11.616965
v -15.524027 13.407681 1.605439
v -10.976614 13.407681 -8.406088
v 0.023723 13.407681 -12.552999
v 10.980213 13.407681 -8.406088
v 0.023723 13.407681 0.478296
v -0.045238 -19.444193 23.788368
v 16.897362 -10.260330 21.517258
v -19.997358 -10.260330 20.442287
v -0.030314 -12.841816 24.588367
v -0.045238 -19.444193 23.788368
v 0.288094 -1.412823 24.991199
v 0.288094 -1.412823 24.991199
v -3.878267 -8.725567 24.391197
v 4.254455 -8.725567 24.391201
v -11.295385 3.166470 20.398743
v -11.295385 3.166470 20.398743
v -16.908726 -6.704857 21.999695
v -5.748122 -6.704857 23.967617
v 10.448298 3.166470 20.495033
v 10.448298 3.166470 20.495033
v 5.906733 -6.704857 24.162025
v 16.949051 -6.704857 21.517258
v 0.512060 22.965191 2.724519
v 1.282199 13.153496 3.610462
v 2.021480 22.965191 1.412401
v 2.791618 13.153496 2.298344
v 0.951417 21.030430 0.181434
v 0.206175 13.209053 -0.675868
v -0.558003 21.030430 1.493553
v -1.303245 13.209053 0.636250
v -3.496487 27.604038 -1.886785
v 0.512060 22.965191 2.724519
v -1.987067 27.604038 -3.198905
v 2.021480 22.965191 1.412401
v -2.455358 26.846943 -3.737610
v 0.951417 21.030430 0.181434
v -3.964777 26.846943 -2.425492
v -0.558003 21.030430 1.493553
v 5.957517 12.189999 -3.167638
v 5.957517 14.576500 -3.167638
v 6.941909 12.189999 3.280865
v 6.941909 14.576500 3.280865
v 1.677553 12.189999 7.857100
v 1.677553 14.576500 7.857100
v -4.571191 12.189999 5.984828
v -4.571191 14.576500 5.984828
v -5.555587 12.189999 -0.463675
v -5.555587 14.576500 -0.463675
v -0.291232 12.189999 -5.039910
v -0.291232 14.576500 -5.039910
v 0.693161 14.576500 1.408595
# 95 vertices

vt 0.333746 0.128395
vt 0.356841 0.161835
vt 0.339232 0.187099
vt 0.322268 0.128395
vt 0.294625 0.128395
vt 0.251161 0.185760
vt 0.266852 0.128395
vt 0.255375 0.128395
vt 0.232290 0.161835
vt 0.250530 0.161835
vt 0.294615 0.161835
vt 0.338601 0.161835
vt 0.366475 0.197031
vt 0.345413 0.197031
vt 0.294489 0.177791
vt 0.243718 0.197031
vt 0.222656 0.197031
vt 0.294615 0.197031
vt 0.356841 0.232228
vt 0.338601 0.232228
vt 0.294615 0.232228
vt 0.250530 0.232228
vt 0.232290 0.232228
vt 0.333746 0.265625
vt 0.322268 0.265625
vt 0.294625 0.265625
vt 0.266852 0.265625
vt 0.255375 0.265625
vt 0.294451 0.150345
vt 0.711704 0.494091
vt 0.657822 0.505580
vt 0.711657 0.459342
vt 0.767346 0.507510
vt 0.686779 0.531703
vt 0.624475 0.429710
vt 0.746092 0.429710
vt 0.692558 0.732568
vt 0.692558 0.675771
vt 0.702872 0.732568
vt 0.702872 0.675771
vt 0.702872 0.721369
vt 0.692558 0.721369
vt 0.692558 0.759421
vt 0.702872 0.759421
vt 0.702872 0.755039
vt 0.692558 0.755039
vt 0.733687 0.684008
vt 0.697715 0.684008
vt 0.715701 0.684008
vt 0.733687 0.670194
vt 0.715701 0.670194
vt 0.679729 0.684008
vt 0.679729 0.670194
vt 0.661743 0.684008
vt 0.661743 0.670194
# 55 texture coordinates

vn 0.545497 -0.837147 0.040213
vn 0.853363 -0.517737 0.060990
vn 0.623965 -0.447224 0.640827
vn 0.328194 -0.879880 0.343655
vn 0.004320 -0.784767 0.619776
vn -0.662976 -0.412228 0.624925
vn -0.304686 -0.894064 0.328353
vn -0.533498 -0.845484 0.023164
vn -0.855185 -0.518103 0.015072
vn -0.590036 -0.512259 -0.624058
vn -0.270629 -0.917638 -0.291034
vn 0.000306 -0.844009 -0.536329
vn 0.000350 -0.504395 -0.863473
vn 0.590315 -0.512253 -0.623798
vn 0.270842 -0.917654 -0.290784
vn 0.999033 -0.043939 -0.001521
vn 0.575678 0.046794 0.816336
vn -0.009400 0.123431 0.992309
vn -0.604736 0.151840 0.781818
vn -0.999263 0.038251 -0.003301
vn -0.688740 0.000000 -0.725009
vn 0.000354 0.000000 -1.000000
vn 0.688983 0.000000 -0.724777
vn 0.853567 0.520983 0.000048
vn 0.579826 0.479781 0.658492
vn 0.000374 0.359293 0.933225
vn -0.579055 0.480819 0.658414
vn -0.853628 0.520882 0.000048
vn -0.589921 0.512539 -0.623937
vn 0.000350 0.504675 -0.863309
vn 0.590200 0.512533 -0.623677
vn 0.734054 0.679091 0.000095
vn 0.506451 0.669082 0.543909
vn 0.000428 0.659643 0.751579
vn -0.506086 0.668948 0.544413
vn -0.734208 0.678924 0.000095
vn -0.505640 0.669807 -0.543770
vn 0.000428 0.661352 -0.750075
vn 0.506005 0.669940 -0.543267
vn -0.000065 -0.999617 0.027667
vn 0.000000 1.000000 0.000000
vn 0.004790 -0.519562 0.854420
vn -0.011075 -0.120256 0.992681
vn -0.216388 -0.116957 0.969277
vn 0.194711 -0.118420 0.973686
vn -0.000000 -0.081774 0.996651
vn 0.000000 0.000000 0.000000
vn -0.168124 0.250240 0.953475
vn 0.225750 0.246273 0.942543
vn 0.651413 0.118794 0.749365
vn 0.754710 0.000000 -0.656059
vn -0.649247 0.143727 -0.746874
vn -0.754710 -0.000000 0.656059
vn -0.501600 0.644546 -0.577025
vn -0.009248 -0.999901 -0.010639
vn 0.396711 0.796462 0.456364
vn -0.489401 -0.665978 -0.562992
vn -0.477354 0.685993 -0.549133
vn 0.501600 -0.644546 0.577025
vn 0.938732 0.000000 0.344647
vn 0.210647 0.000000 0.977562
vn -0.938732 0.000000 -0.344647
vn -0.210647 0.000000 -0.977562
# 63 normals

g Regroup01
usemtl Material01
s 1
f 1/1/1 9/2/2 10/3/3
f 1/1/1 10/3/3 2/4/4
f 2/4/4 10/3/3 3/5/5
f 3/5/5 11/6/6 4/7/7
f 4/7/7 11/6/6 5/8/8
f 11/6/6 12/9/9 5/8/8
f 5/8/8 12/9/9 13/10/10
f 5/8/8 13/10/10 6/7/11
f 6/7/11 13/10/10 7/5/12
f 13/10/10 14/11/13 7/5/12
f 7/5/12 14/11/13 15/12/14
f 7/5/12 15/12/14 8/4/15
f 8/4/15 15/12/14 1/1/1
f 15/12/14 9/2/2 1/1/1
f 9/2/2 16/13/16 10/3/3
f 16/13/16 17/14/17 10/3/3
f 10/3/3 17/14/17 18/15/18
f 18/15/18 19/16/19 11/6/6
f 11/6/6 19/16/19 20/17/20
f 11/6/6 20/17/20 12/9/9
f 12/9/9 20/17/20 13/10/10
f 20/17/20 21/16/21 13/10/10
f 13/10/10 21/16/21 22/18/22
f 13/10/10 22/18/22 14/11/13
f 14/11/13 22/18/22 15/12/14
f 22/18/22 23/14/23 15/12/14
f 15/12/14 23/14/23 16/13/16
f 15/12/14 16/13/16 9/2/2
f 16/13/16 24/19/24 25/20/25
f 16/13/16 25/20/25 17/14/17
f 17/14/17 25/20/25 18/15/18
f 25/20/25 26/21/26 18/15/18
f 18/15/18 26/21/26 27/22/27
f 18/15/18 27/22/27 19/16/19
f 19/16/19 27/22/27 20/17/20
f 27/22/27 28/23/28 20/17/20
f 20/17/20 28/23/28 29/22/29
f 20/17/20 29/22/29 21/16/21
f 21/16/21 29/22/29 22/18/22
f 29/22/29 30/21/30 22/18/22
f 22/18/22 30/21/30 31/20/31
f 22/18/22 31/20/31 23/14/23
f 23/14/23 31/20/31 16/13/16
f 31/20/31 24/19/24 16/13/16
f 24/19/24 32/24/32 25/20/25
f 32/24/32 33/25/33 25/20/25
f 25/20/25 33/25/33 34/26/34
f 25/20/25 34/26/34 26/21/26
f 26/21/26 34/26/34 27/22/27
f 34/26/34 35/27/35 27/22/27
f 27/22/27 35/27/35 36/28/36
f 27/22/27 36/28/36 28/23/28
f 28/23/28 36/28/36 29/22/29
f 36/28/36 37/27/37 29/22/29
f 29/22/29 37/27/37 38/26/38
f 29/22/29 38/26/38 30/21/30
f 30/21/30 38/26/38 31/20/31
f 38/26/38 39/25/39 31/20/31
f 31/20/31 39/25/39 32/24/32
f 31/20/31 32/24/32 24/19/24
f 3/5/5 4/7/7 40/5/40
f 40/5/40 2/4/4 2/4/4
f 3/5/5 40/5/40 2/4/4
f 2/4/4 40/5/40 1/1/1
f 1/1/1 40/5/40 8/4/15
f 40/5/40 7/5/12 8/4/15
f 40/5/40 6/7/11 7/5/12
f 40/5/40 5/8/8 6/7/11
f 40/5/40 4/7/7 5/8/8
f 49/26/41 44/27/41 43/26/41
f 42/25/41 49/26/41 43/26/41
f 41/24/41 49/26/41 42/25/41
f 48/25/41 49/26/41 41/24/41
f 48/25/41 47/26/41 49/26/41
f 47/26/41 46/27/41 49/26/41
f 46/27/41 45/28/41 49/26/41
f 45/28/41 44/27/41 49/26/41
f 50/29/42 11/6/6 3/5/5
f 50/29/42 3/5/5 10/3/3
# 79 triangles in group

g Regroup03
usemtl Material02
f 53/30/43 52/31/44 54/32/43
f 51/33/45 53/30/43 54/32/43
f 55/34/46 57/35/46 58/36/46
f 55/34/46 58/36/46 56/34/47
f 59/34/48 61/35/48 62/36/48
f 59/34/48 62/36/48 60/34/47
f 63/34/49 65/35/49 66/36/49
f 63/34/49 66/36/49 64/34/47
f 67/37/50 68/38/50 69/39/50
f 68/38/50 70/40/50 69/39/50
s 2
f 69/39/51 70/40/51 71/41/51
f 70/40/51 72/40/51 71/41/51
s 1
f 71/41/52 72/40/52 73/42/52
f 72/40/52 74/38/52 73/42/52
s 2
f 73/42/53 74/38/53 67/37/53
f 74/38/53 68/38/53 67/37/53
s 3
f 73/42/54 67/37/54 71/41/54
f 67/37/54 69/39/54 71/41/54
f 68/38/55 74/38/55 70/40/55
f 74/38/55 72/40/55 70/40/55
s 1
f 75/43/56 76/37/56 77/44/56
f 76/37/56 78/39/56 77/44/56
s 2
f 77/44/51 78/39/51 79/45/51
f 78/39/51 80/41/51 79/45/51
s 1
f 79/45/57 80/41/57 81/46/57
f 80/41/57 82/42/57 81/46/57
s 2
f 81/46/53 82/42/53 75/43/53
f 82/42/53 76/37/53 75/43/53
s 3
f 81/46/58 75/43/58 79/45/58
f 75/43/58 77/44/58 79/45/58
f 76/37/59 82/42/59 78/39/59
f 82/42/59 80/41/59 78/39/59
s 2
f 84/47/41 95/48/41 86/49/41
s 1
f 83/50/51 84/47/51 85/51/60
f 84/47/51 86/49/60 85/51/60
s 2
f 86/49/41 95/48/41 88/52/41
s 1
f 85/51/60 86/49/60 88/52/61
f 85/51/60 88/52/61 87/53/61
s 2
f 88/52/41 95/48/41 90/54/41
s 1
f 87/53/61 88/52/61 89/55/53
f 88/52/61 90/54/53 89/55/53
s 2
f 90/54/41 95/48/41 92/52/41
s 1
f 89/55/53 90/54/53 92/52/62
f 89/55/53 92/52/62 91/53/62
s 2
f 92/52/41 95/48/41 94/49/41
s 1
f 91/53/62 92/52/62 93/51/63
f 92/52/62 94/49/63 93/51/63
s 2
f 94/49/41 95/48/41 84/47/41
s 1
f 93/51/63 94/49/63 84/47/51
f 93/51/63 84/47/51 83/50/51
# 50 triangles in group

# 129 triangles total

