# Wavefront OBJ exported by MilkShape 3D

mtllib Pyramid.mtl

v -0.000369 6.547793 1.073579
v -1.665630 3.993698 2.561589
v -0.000369 6.547793 1.073579
v 1.915262 3.993698 2.561589
v -0.000369 6.547793 1.073579
v 1.915262 3.993698 -0.248922
v -0.000369 6.547793 1.073579
v -1.665630 3.993698 -0.248922
v -1.964654 -2.328705 -3.682409
v -1.964654 -3.288721 -3.682409
v 2.249631 -2.328705 -3.682409
v 2.249631 -3.288721 -3.682409
v 2.249631 -2.328705 -8.563361
v 2.249631 -3.288721 -8.563361
v -1.964654 -2.328705 -8.563361
v -1.964654 -3.288721 -8.563361
v 2.126994 -4.463170 -8.168242
v 2.260381 -3.355388 -8.168242
v 1.945237 -4.463170 -7.740350
v 2.011931 -3.355388 -7.685171
v 1.581729 -4.463170 -7.740350
v 1.515036 -3.355388 -7.685171
v 1.399975 -4.463170 -8.168242
v 1.266584 -3.355388 -8.168242
v 1.581729 -4.463170 -8.596133
v 1.515036 -3.355388 -8.651312
v 1.945237 -4.463170 -8.596133
v 2.011931 -3.355388 -8.651312
v 2.126994 -5.499702 -8.168242
v 2.126994 -4.463170 -8.168242
v 1.945237 -5.499702 -7.740350
v 1.945237 -4.463170 -7.740350
v 1.581729 -5.499702 -7.740350
v 1.581729 -4.463170 -7.740350
v 1.399975 -5.499702 -8.168242
v 1.399975 -4.463170 -8.168242
v 1.581729 -5.499702 -8.596133
v 1.581729 -4.463170 -8.596133
v 1.945237 -5.499702 -8.596133
v 1.945237 -4.463170 -8.596133
v 2.259692 -6.547793 -8.168242
v 2.126994 -5.499702 -8.168242
v 2.011587 -6.547793 -7.659465
v 1.945237 -5.499702 -7.740350
v 1.515381 -6.547793 -7.659465
v 1.581729 -5.499702 -7.740350
v 1.267277 -6.547793 -8.168242
v 1.399975 -5.499702 -8.168242
v 1.515381 -6.547793 -8.677017
v 1.581729 -5.499702 -8.596133
v 2.011587 -6.547793 -8.677017
v 1.945237 -5.499702 -8.596133
v -1.206340 -4.463170 -8.168242
v -1.072952 -3.355388 -8.168242
v -1.388097 -4.463170 -7.740350
v -1.321403 -3.355388 -7.685171
v -1.751604 -4.463170 -7.740350
v -1.818297 -3.355388 -7.685171
v -1.933358 -4.463170 -8.168242
v -2.066750 -3.355388 -8.168242
v -1.751604 -4.463170 -8.596133
v -1.818297 -3.355388 -8.651312
v -1.388097 -4.463170 -8.596133
v -1.321403 -3.355388 -8.651312
v -1.206340 -5.499702 -8.168242
v -1.206340 -4.463170 -8.168242
v -1.388097 -5.499702 -7.740350
v -1.388097 -4.463170 -7.740350
v -1.751604 -5.499702 -7.740350
v -1.751604 -4.463170 -7.740350
v -1.933358 -5.499702 -8.168242
v -1.933358 -4.463170 -8.168242
v -1.751604 -5.499702 -8.596133
v -1.751604 -4.463170 -8.596133
v -1.388097 -5.499702 -8.596133
v -1.388097 -4.463170 -8.596133
v -1.073642 -6.547793 -8.168242
v -1.206340 -5.499702 -8.168242
v -1.321747 -6.547793 -7.659465
v -1.388097 -5.499702 -7.740350
v -1.817952 -6.547793 -7.659465
v -1.751604 -5.499702 -7.740350
v -2.066056 -6.547793 -8.168242
v -1.933358 -5.499702 -8.168242
v -1.817952 -6.547793 -8.677017
v -1.751604 -5.499702 -8.596133
v -1.321747 -6.547793 -8.677017
v -1.388097 -5.499702 -8.596133
v 0.745187 -4.087320 -6.867982
v -0.654813 -4.087320 -6.867982
v 0.745187 -6.547793 -6.867983
v -0.654813 -6.547793 -6.867983
v -1.665630 3.993698 2.561589
v -9.370040 -6.547793 8.677017
v 1.915262 3.993698 2.561589
v 9.370040 -6.547793 8.677017
v 1.915262 3.993698 -0.248922
v 9.370040 -6.547793 -6.530631
v -1.665630 3.993698 -0.248922
v -9.370040 -6.547793 -6.530631
# 100 vertices

vt 0.897027 0.171532
vt 0.863155 0.073085
vt 0.930899 0.073085
vt 0.887371 0.104456
vt 0.887371 0.097311
vt 0.905457 0.104456
vt 0.905457 0.097311
vt 0.904930 0.088570
vt 0.904437 0.096815
vt 0.902304 0.096815
vt 0.902591 0.088570
vt 0.901238 0.096815
vt 0.904930 0.080856
vt 0.902591 0.080856
vt 0.905500 0.073085
vt 0.904435 0.073085
vt 0.902306 0.073085
vt 0.901241 0.073085
vt 0.890626 0.088570
vt 0.891198 0.096815
vt 0.890132 0.096815
vt 0.888286 0.088570
vt 0.890626 0.080856
vt 0.888286 0.080856
vt 0.891195 0.073085
vt 0.890130 0.073085
vt 0.888001 0.073085
vt 0.886936 0.073085
vt 0.726467 0.546020
vt 0.726467 0.410015
vt 0.647441 0.410015
vt 0.647441 0.546020
vt 0.466038 0.178995
vt 0.414437 0.037471
vt 0.490021 0.178995
vt 0.539950 0.037471
# 36 texture coordinates

vn 0.000000 0.000000 0.000000
vn 0.000000 0.503397 0.864055
vn 0.799991 0.600012 0.000000
vn 0.000000 0.459812 -0.888017
vn -0.837679 0.546164 0.000000
vn 0.000000 -1.000000 0.000000
vn 0.000000 0.000000 1.000000
vn 1.000000 0.000000 0.000000
vn 0.000000 0.000000 -1.000000
vn -1.000000 0.000000 0.000000
vn 0.000000 1.000000 0.000000
vn 0.992829 -0.119546 0.000000
vn 0.994698 -0.102838 -0.000000
vn 0.533445 -0.084613 0.841592
vn 0.519032 -0.073665 0.851575
vn -0.533629 -0.083105 0.841626
vn -0.549870 -0.074542 0.831917
vn -0.994986 -0.100019 -0.000000
vn -0.992828 -0.119549 0.000000
vn -0.533629 -0.083105 -0.841626
vn -0.549870 -0.074542 -0.831917
vn 0.533445 -0.084613 -0.841592
vn 0.519032 -0.073665 -0.851575
vn 0.551832 0.000000 0.833956
vn -0.551834 0.000000 0.833954
vn -0.551834 0.000000 -0.833954
vn 0.551832 0.000000 -0.833956
vn 0.992080 0.125607 -0.000000
vn 0.993880 0.110467 -0.000000
vn 0.537255 0.105396 0.836809
vn 0.548877 0.098804 0.830043
vn -0.537075 0.106856 0.836739
vn -0.527073 0.098507 0.844092
vn -0.993575 0.113177 -0.000000
vn -0.992080 0.125607 0.000000
vn -0.537075 0.106856 -0.836739
vn -0.527072 0.098506 -0.844092
vn 0.537255 0.105395 -0.836809
vn 0.548877 0.098804 -0.830043
vn 0.000000 0.501802 0.864983
vn 0.816467 0.577393 0.000000
vn 0.000000 0.511906 -0.859042
vn -0.807354 0.590067 0.000000
# 43 normals

g Regroup10
usemtl Material03
s 1
f 1/1/1 2/2/2 3/1/2
f 2/2/2 4/3/2 3/1/2
s 2
f 3/1/1 4/3/3 5/1/3
f 4/3/3 6/3/3 5/1/3
s 1
f 5/1/1 6/3/4 7/1/4
f 6/3/4 8/2/4 7/1/4
s 2
f 7/1/1 8/2/5 1/1/5
f 8/2/5 2/2/5 1/1/5
s 3
f 7/1/1 1/1/1 5/1/1
f 1/1/1 3/1/1 5/1/1
f 2/2/6 8/2/6 4/3/6
f 8/2/6 6/3/6 4/3/6
s 1
f 9/4/7 10/5/7 11/6/7
f 10/5/7 12/7/7 11/6/7
s 2
f 11/6/8 12/7/8 13/6/8
f 12/7/8 14/7/8 13/6/8
s 1
f 13/6/9 14/7/9 15/4/9
f 14/7/9 16/5/9 15/4/9
s 2
f 15/4/10 16/5/10 9/4/10
f 16/5/10 10/5/10 9/4/10
s 3
f 15/4/11 9/4/11 13/6/11
f 9/4/11 11/6/11 13/6/11
f 10/5/6 16/5/6 12/7/6
f 16/5/6 14/7/6 12/7/6
s 1
f 17/8/12 18/7/13 19/8/14
f 18/7/13 20/9/15 19/8/14
f 19/8/14 20/9/15 22/10/16
f 19/8/14 22/10/16 21/11/17
f 21/11/17 22/10/16 23/11/18
f 22/10/16 24/12/19 23/11/18
f 23/11/18 24/12/19 26/10/20
f 23/11/18 26/10/20 25/11/21
f 25/11/21 26/10/20 27/8/22
f 26/10/20 28/9/23 27/8/22
f 27/8/22 28/9/23 18/7/13
f 27/8/22 18/7/13 17/8/12
f 29/13/8 30/8/8 31/13/24
f 30/8/8 32/8/24 31/13/24
f 31/13/24 32/8/24 34/11/25
f 31/13/24 34/11/25 33/14/25
f 33/14/25 34/11/25 35/14/10
f 34/11/25 36/11/10 35/14/10
f 35/14/10 36/11/10 38/11/26
f 35/14/10 38/11/26 37/14/26
f 37/14/26 38/11/26 39/13/27
f 38/11/26 40/8/27 39/13/27
f 39/13/27 40/8/27 30/8/8
f 39/13/27 30/8/8 29/13/8
f 41/15/28 42/13/29 43/16/30
f 42/13/29 44/13/31 43/16/30
f 43/16/30 44/13/31 46/14/32
f 43/16/30 46/14/32 45/17/33
f 45/17/33 46/14/32 47/18/34
f 46/14/32 48/14/35 47/18/34
f 47/18/34 48/14/35 50/14/36
f 47/18/34 50/14/36 49/17/37
f 49/17/37 50/14/36 51/16/38
f 50/14/36 52/13/39 51/16/38
f 51/16/38 52/13/39 42/13/29
f 51/16/38 42/13/29 41/15/28
f 53/19/12 54/20/13 55/19/14
f 54/20/13 56/21/15 55/19/14
f 55/19/14 56/21/15 58/5/16
f 55/19/14 58/5/16 57/22/17
f 57/22/17 58/5/16 59/22/18
f 58/5/16 60/5/19 59/22/18
f 59/22/18 60/5/19 62/5/20
f 59/22/18 62/5/20 61/22/21
f 61/22/21 62/5/20 63/19/22
f 62/5/20 64/21/23 63/19/22
f 63/19/22 64/21/23 54/20/13
f 63/19/22 54/20/13 53/19/12
f 65/23/8 66/19/8 67/23/24
f 66/19/8 68/19/24 67/23/24
f 67/23/24 68/19/24 70/22/25
f 67/23/24 70/22/25 69/24/25
f 69/24/25 70/22/25 71/24/10
f 70/22/25 72/22/10 71/24/10
f 71/24/10 72/22/10 74/22/26
f 71/24/10 74/22/26 73/24/26
f 73/24/26 74/22/26 75/23/27
f 74/22/26 76/19/27 75/23/27
f 75/23/27 76/19/27 66/19/8
f 75/23/27 66/19/8 65/23/8
f 77/25/28 78/23/29 79/26/30
f 78/23/29 80/23/31 79/26/30
f 79/26/30 80/23/31 82/24/32
f 79/26/30 82/24/32 81/27/33
f 81/27/33 82/24/32 83/28/34
f 82/24/32 84/24/35 83/28/34
f 83/28/34 84/24/35 86/24/36
f 83/28/34 86/24/36 85/27/37
f 85/27/37 86/24/36 87/26/38
f 86/24/36 88/23/39 87/26/38
f 87/26/38 88/23/39 78/23/29
f 87/26/38 78/23/29 77/25/28
f 89/29/9 91/30/9 92/31/9
f 89/29/9 92/31/9 90/32/9
f 93/33/40 94/34/40 95/35/40
f 94/34/40 96/36/40 95/35/40
s 2
f 95/35/41 96/36/41 97/35/41
f 96/36/41 98/36/41 97/35/41
s 1
f 97/35/42 98/36/42 99/33/42
f 98/36/42 100/34/42 99/33/42
s 2
f 99/33/43 100/34/43 93/33/43
f 100/34/43 94/34/43 93/33/43
s 3
f 99/33/11 93/33/11 97/35/11
f 93/33/11 95/35/11 97/35/11
f 94/34/6 100/34/6 96/36/6
f 100/34/6 98/36/6 96/36/6
# 110 triangles in group

# 110 triangles total

