# Wavefront OBJ exported by MilkShape 3D

mtllib Rock4.mtl

v 20.902185 -42.032463 -5.753654
v 0.150269 -42.032463 24.164930
v -23.934982 -42.032463 -5.753654
v 0.150269 -42.032463 -25.672239
v 20.902185 52.770126 -6.253654
v 1.816935 52.770126 13.664930
v -18.934982 52.770126 -6.253654
v 1.816935 52.770126 -26.172239
v 2.175414 65.729866 2.397608
v -8.791676 65.729866 -5.165071
v 11.869986 65.729866 -8.554373
v 0.902892 65.729866 -16.117054
v 28.774839 -42.032463 -15.318485
v 15.518139 -42.032463 -1.291777
v 3.326151 -42.032463 -15.318485
v 15.518139 -42.032463 -28.845201
v 22.489649 22.493952 -18.419506
v 16.576010 25.236557 -1.791777
v 3.659098 28.218662 -15.318485
v 15.996447 25.236557 -23.380554
v 7.953909 41.813286 -2.776744
v 4.244720 42.093559 -7.912562
v 11.232714 41.565514 -10.214237
v 7.523527 41.845802 -15.350056
v -27.226669 -42.032463 -16.892838
v -8.599466 -42.032463 -13.466574
v -12.995942 -42.032463 4.705083
v -31.027773 -42.032463 2.161510
v -26.282898 22.493952 -9.948106
v -9.191019 25.236557 -14.343589
v -13.182123 28.218662 3.929061
v -26.764835 25.236557 -1.790814
v -5.186179 41.813286 -6.644754
v -7.369812 42.093559 -0.697784
v -13.185623 41.565514 -5.204013
v -15.369259 41.845802 0.742956
v -7.042951 -42.032463 28.103348
v -10.844050 -42.032463 9.548994
v 7.187782 -42.032463 7.005417
v 11.584265 -42.032463 24.677088
v -0.957450 6.493952 24.626745
v -11.435608 9.236557 10.426012
v 7.001598 12.218662 7.281443
v 6.786385 9.236557 22.017817
v -5.797608 25.813284 3.828759
v 0.534329 26.093561 3.625611
v -1.465128 25.565516 10.706003
v 4.866812 25.845800 10.502859
v 42.919189 -42.496536 17.284061
v 34.824059 -7.382071 17.531952
v 38.464561 8.533953 11.705946
v 28.926630 44.379219 10.935841
v 26.363924 -42.496536 26.086647
v 22.936655 -6.485792 25.217911
v 26.611315 6.968088 19.337234
v 26.246706 44.104065 11.903753
v 10.463026 -42.496536 16.150669
v 12.746260 -6.485792 18.850243
v 16.420919 6.968088 12.969566
v 23.261923 44.104065 10.038654
v 11.117392 -42.496536 -2.587912
v 14.443264 -7.382071 4.796618
v 18.083754 8.533953 -1.029393
v 22.957067 44.379219 7.205643
v 27.672655 -42.496536 -11.390505
v 26.330641 -8.278353 -2.889322
v 29.936968 10.099810 -8.660641
v 25.636992 44.654381 6.237729
v 43.573555 -42.496536 -1.454520
v 36.521042 -8.278353 3.478349
v 40.127373 10.099810 -2.292977
v 28.621782 44.654381 8.102833
v 25.941854 44.379219 9.070745
v 27.018293 -42.496536 7.348076
v -17.446712 -15.229868 -30.416668
v -17.603506 -65.729866 -28.924891
v -17.603506 -65.729866 -28.924891
v -17.603506 -65.729866 -28.924891
v -17.603506 -65.729866 -28.924891
v -7.653214 -26.729868 -29.387333
v -18.803753 -26.729868 -17.505318
v -27.240215 -26.729868 -31.446009
v -16.089676 -26.729868 -43.328026
v -33.780048 22.770132 30.416664
v -33.936844 -27.729868 31.908440
v -33.936844 -27.729868 31.908440
v -33.936844 -27.729868 31.908440
v -33.936844 -27.729868 31.908440
v -23.986549 11.270132 31.445999
v -35.137085 11.270132 43.328026
v -43.573555 11.270132 29.387321
v -32.423012 11.270132 17.505306
# 92 vertices

vt 0.922767 0.427082
vt 0.922767 0.530750
vt 0.893727 0.530750
vt 0.891191 0.427082
vt 0.854542 0.427082
vt 0.862151 0.530750
vt 0.894273 0.544922
vt 0.909024 0.544922
vt 0.892336 0.544922
vt 0.877585 0.544922
vt 0.934747 0.427082
vt 0.925183 0.497643
vt 0.916185 0.500642
vt 0.914575 0.427082
vt 0.896023 0.427082
vt 0.896530 0.503903
vt 0.903065 0.518769
vt 0.908054 0.518498
vt 0.897421 0.519075
vt 0.849534 0.427082
vt 0.850970 0.497643
vt 0.876977 0.500642
vt 0.877877 0.427082
vt 0.871188 0.427082
vt 0.870904 0.503903
vt 0.850237 0.500642
vt 0.843750 0.427082
vt 0.883071 0.518769
vt 0.870899 0.518498
vt 0.867576 0.518804
vt 0.879748 0.519075
vt 0.880246 0.427082
vt 0.889505 0.480147
vt 0.873562 0.483146
vt 0.874462 0.427082
vt 0.901899 0.427082
vt 0.901616 0.486407
vt 0.901289 0.483146
vt 0.908589 0.427082
vt 0.882141 0.501273
vt 0.888733 0.501002
vt 0.898368 0.501308
vt 0.891775 0.501579
vt 0.956269 0.426575
vt 0.931078 0.426575
vt 0.934978 0.521575
vt 0.930436 0.521575
vt 0.943951 0.464973
vt 0.925863 0.465953
vt 0.949491 0.482377
vt 0.931455 0.480665
vt 0.906883 0.426575
vt 0.926358 0.521274
vt 0.910357 0.465953
vt 0.915949 0.480665
vt 0.912939 0.464973
vt 0.918479 0.482377
vt 0.933069 0.426575
vt 0.931027 0.463993
vt 0.936515 0.484090
vt 0.946533 0.463993
vt 0.952021 0.484090
vt 0.889616 0.520222
vt 0.886462 0.503591
vt 0.912383 0.503591
vt 0.866850 0.503591
vt 0.892771 0.503591
vt 0.889252 0.447189
# 68 texture coordinates

vn 0.998619 0.011024 -0.051360
vn 0.906276 0.418978 -0.055877
vn -0.079137 0.351369 0.932887
vn 0.036966 0.109366 0.993314
vn -0.996957 0.058085 -0.051984
vn -0.897484 0.414109 -0.151778
vn 0.021339 0.230515 -0.972835
vn 0.036906 -0.005919 -0.999301
vn 0.192455 0.877222 0.439820
vn 0.549417 0.828040 -0.111763
vn -0.016138 0.821713 -0.569673
vn -0.539339 0.807657 0.238336
vn 0.985535 0.057304 -0.159490
vn 0.896420 0.411408 -0.164845
vn -0.116000 -0.023111 0.992980
vn -0.020756 0.007757 0.999754
vn -0.997915 0.029705 -0.057294
vn -0.975082 0.028212 -0.220044
vn 0.035507 0.192341 -0.980686
vn -0.020582 0.081097 -0.996494
vn 0.380632 0.839142 0.388537
vn 0.638066 0.769268 -0.033143
vn 0.013666 0.849124 -0.528017
vn -0.923452 0.233138 0.304767
vn -0.681794 0.055644 -0.729425
vn -0.637935 0.411408 -0.650986
vn 0.887140 -0.025170 -0.460814
vn 0.838780 0.000278 -0.544471
vn 0.515780 0.033627 0.856061
vn 0.362596 0.030539 0.931446
vn -0.832179 0.194928 0.519115
vn -0.813003 0.085362 0.575968
vn 0.109265 0.839142 -0.532825
vn -0.384279 0.769268 -0.510448
vn -0.445388 0.849124 0.283933
vn 0.769052 0.233138 0.595152
vn -0.420371 0.073957 0.904333
vn -0.362504 0.418186 0.832893
vn -0.758346 -0.016181 -0.651652
vn -0.817182 0.000431 -0.576380
vn 0.601452 0.036680 -0.798066
vn 0.727678 0.028724 -0.685317
vn 0.791328 0.201741 0.577149
vn 0.835570 0.106154 0.539032
vn -0.534958 0.839142 0.098291
vn -0.329325 0.769268 0.547514
vn 0.430104 0.849124 0.306593
vn 0.263724 0.233138 -0.936000
vn 0.000000 -1.000000 0.000000
vn -0.064581 0.992546 0.103351
vn 0.829876 0.187606 0.525462
vn 0.845012 0.090425 0.527047
vn -0.013762 0.033303 0.999351
vn 0.026069 0.212749 0.976759
vn 0.834624 0.116395 0.538382
vn -0.013868 0.287685 0.957625
vn 0.797455 0.273390 0.537888
vn -0.113946 0.193922 0.974377
vn -0.881857 0.214716 0.419792
vn -0.882524 0.020736 0.469810
vn -0.861600 0.298218 0.410746
vn -0.858737 0.172432 0.482534
vn -0.835087 0.170846 -0.522916
vn -0.842392 0.095518 -0.530332
vn -0.848868 0.126086 -0.513347
vn -0.840300 0.227311 -0.492164
vn -0.002134 -0.024471 -0.999698
vn 0.032096 0.242172 -0.969702
vn -0.025386 0.050078 -0.998423
vn 0.021542 0.376396 -0.926208
vn 0.863759 0.249386 -0.437866
vn 0.905703 -0.026780 -0.423067
vn 0.896743 0.053647 -0.439288
vn 0.786996 0.402673 -0.467432
vn 0.000000 1.000000 0.000000
vn -0.098507 0.334508 0.937230
vn 0.963568 0.246802 0.103077
vn -0.963943 0.246803 -0.099513
vn 0.099657 0.301724 -0.948172
vn 0.963938 -0.244694 0.104636
vn 0.000000 0.000000 0.000000
vn -0.964628 -0.244694 -0.098065
# 82 normals

g Regroup00
usemtl Material01
s 1
f 1/1/1 5/2/2 6/3/3
f 1/1/1 6/3/3 2/4/4
f 2/4/4 6/3/3 3/5/5
f 6/3/3 7/6/6 3/5/5
f 3/5/5 7/6/6 8/3/7
f 3/5/5 8/3/7 4/4/8
f 4/4/8 8/3/7 1/1/1
f 8/3/7 5/2/2 1/1/1
f 9/7/9 11/8/10 12/9/11
f 9/7/9 12/9/11 10/10/12
f 8/3/7 7/6/6 12/9/11
f 8/3/7 12/9/11 5/2/2
f 5/2/2 12/9/11 11/8/10
f 12/9/11 7/6/6 10/10/12
f 10/10/12 7/6/6 6/3/3
f 9/7/9 10/10/12 6/3/3
f 9/7/9 6/3/3 5/2/2
f 5/2/2 11/8/10 9/7/9
f 13/11/13 17/12/14 18/13/15
f 13/11/13 18/13/15 14/14/16
f 14/14/16 18/13/15 15/15/17
f 18/13/15 19/16/18 15/15/17
f 15/15/17 19/16/18 20/13/19
f 15/15/17 20/13/19 16/14/20
f 16/14/20 20/13/19 13/11/13
f 20/13/19 17/12/14 13/11/13
f 21/17/21 23/18/22 24/17/23
f 21/17/21 24/17/23 22/19/24
f 20/13/19 19/16/18 24/17/23
f 20/13/19 24/17/23 17/12/14
f 17/12/14 24/17/23 23/18/22
f 24/17/23 19/16/18 22/19/24
f 22/19/24 19/16/18 18/13/15
f 21/17/21 22/19/24 18/13/15
f 21/17/21 18/13/15 17/12/14
f 17/12/14 23/18/22 21/17/21
f 25/20/25 29/21/26 30/22/27
f 25/20/25 30/22/27 26/23/28
f 26/23/28 30/22/27 27/24/29
f 30/22/27 31/25/30 27/24/29
f 27/24/29 31/25/30 32/26/31
f 27/24/29 32/26/31 28/27/32
f 28/27/32 32/26/31 25/20/25
f 32/26/31 29/21/26 25/20/25
f 33/28/33 35/29/34 36/30/35
f 33/28/33 36/30/35 34/31/36
f 32/26/31 31/25/30 36/30/35
f 32/26/31 36/30/35 29/21/26
f 29/21/26 36/30/35 35/29/34
f 36/30/35 31/25/30 34/31/36
f 34/31/36 31/25/30 30/22/27
f 33/28/33 34/31/36 30/22/27
f 33/28/33 30/22/27 29/21/26
f 29/21/26 35/29/34 33/28/33
f 37/32/37 41/33/38 42/34/39
f 37/32/37 42/34/39 38/35/40
f 38/35/40 42/34/39 39/36/41
f 42/34/39 43/37/42 39/36/41
f 39/36/41 43/37/42 44/38/43
f 39/36/41 44/38/43 40/39/44
f 40/39/44 44/38/43 37/32/37
f 44/38/43 41/33/38 37/32/37
f 45/40/45 47/41/46 48/42/47
f 45/40/45 48/42/47 46/43/48
f 44/38/43 43/37/42 48/42/47
f 44/38/43 48/42/47 41/33/38
f 41/33/38 48/42/47 47/41/46
f 48/42/47 43/37/42 46/43/48
f 46/43/48 43/37/42 42/34/39
f 45/40/45 46/43/48 42/34/39
f 45/40/45 42/34/39 41/33/38
f 41/33/38 47/41/46 45/40/45
s 2
f 49/44/49 53/45/49 74/45/49
f 52/46/50 73/47/50 56/47/50
s 1
f 49/44/51 50/48/52 53/45/53
f 50/48/52 54/49/54 53/45/53
f 50/48/52 51/50/55 55/51/56
f 50/48/52 55/51/56 54/49/54
f 51/50/55 52/46/57 55/51/56
f 52/46/57 56/47/58 55/51/56
s 2
f 53/45/49 57/52/49 74/45/49
f 56/47/50 73/47/50 60/53/50
s 1
f 53/45/53 54/49/54 58/54/59
f 53/45/53 58/54/59 57/52/60
f 54/49/54 55/51/56 58/54/59
f 55/51/56 59/55/61 58/54/59
f 55/51/56 56/47/58 60/53/62
f 55/51/56 60/53/62 59/55/61
s 2
f 57/52/49 61/39/49 74/45/49
f 60/53/50 73/47/50 64/53/50
s 1
f 57/52/60 58/54/59 61/39/63
f 58/54/59 62/56/64 61/39/63
f 58/54/59 59/55/61 63/57/65
f 58/54/59 63/57/65 62/56/64
f 59/55/61 60/53/62 63/57/65
f 60/53/62 64/53/66 63/57/65
s 2
f 61/39/49 65/58/49 74/45/49
f 64/53/50 73/47/50 68/47/50
s 1
f 61/39/63 62/56/64 66/59/67
f 61/39/63 66/59/67 65/58/68
f 62/56/64 63/57/65 66/59/67
f 63/57/65 67/60/69 66/59/67
f 63/57/65 64/53/66 68/47/70
f 63/57/65 68/47/70 67/60/69
s 2
f 65/58/49 69/44/49 74/45/49
f 68/47/50 73/47/50 72/46/50
s 1
f 65/58/68 66/59/67 69/44/71
f 66/59/67 70/61/72 69/44/71
f 66/59/67 67/60/69 71/62/73
f 66/59/67 71/62/73 70/61/72
f 67/60/69 68/47/70 71/62/73
f 68/47/70 72/46/74 71/62/73
s 2
f 69/44/49 49/44/49 74/45/49
f 72/46/50 73/47/50 52/46/50
s 1
f 69/44/71 70/61/72 50/48/52
f 69/44/71 50/48/52 49/44/51
f 70/61/72 71/62/73 50/48/52
f 71/62/73 51/50/55 50/48/52
f 71/62/73 72/46/74 52/46/57
f 71/62/73 52/46/57 51/50/55
# 120 triangles in group

g Sphere06
usemtl Material01
f 75/63/75 81/64/76 80/65/77
f 75/63/75 82/66/78 81/64/76
f 75/63/75 83/67/79 82/66/78
f 75/63/75 80/65/77 83/67/79
f 76/68/80 80/65/77 81/64/76
f 76/68/80 81/64/76 77/68/81
f 77/68/81 81/64/76 78/68/82
f 81/64/76 82/66/78 78/68/82
f 78/68/82 82/66/78 83/67/79
f 78/68/82 83/67/79 79/68/81
f 79/68/81 83/67/79 76/68/80
f 83/67/79 80/65/77 76/68/80
# 12 triangles in group

g Duplicate05
usemtl Material01
f 84/63/75 90/64/76 89/65/77
f 84/63/75 91/66/78 90/64/76
f 84/63/75 92/67/79 91/66/78
f 84/63/75 89/65/77 92/67/79
f 85/68/80 89/65/77 90/64/76
f 85/68/80 90/64/76 86/68/81
f 86/68/81 90/64/76 87/68/82
f 90/64/76 91/66/78 87/68/82
f 87/68/82 91/66/78 92/67/79
f 87/68/82 92/67/79 88/68/81
f 88/68/81 92/67/79 85/68/80
f 92/67/79 89/65/77 85/68/80
# 12 triangles in group

# 144 triangles total

