# Wavefront OBJ exported by MilkShape 3D

v 0.983349 -0.226981 0.986122
v 0.983349 0.558973 7.516472
v 0.983349 8.106348 1.087700
v 0.983349 -0.226981 0.986122
v 0.983349 1.558974 -5.368446
v 0.983349 8.106348 1.087700
v 0.983349 -0.226981 0.986122
v -2.008324 6.987061 -2.256008
v -5.741270 1.975640 0.986122
v 0.983349 -0.226981 0.986122
v 6.560478 1.475640 0.986122
v 6.560478 1.475640 0.986122
v -3.247505 4.439683 6.705933
v 0.983349 8.106348 1.087700
v 5.680893 6.987061 0.986122
v 5.680893 6.987061 0.986122
v 5.214226 4.439683 6.705933
v 0.983349 8.106348 1.087700
v -3.554029 0.808973 5.957394
v 0.983349 -0.226981 0.986122
v 0.983349 4.439683 8.605133
v 0.983349 8.106348 1.087700
v -3.354576 1.142307 -3.660934
v 0.983349 -0.226981 0.986122
v 3.975035 6.987061 -2.256008
v 0.983349 8.106348 1.087700
v -3.980838 6.987061 0.986122
v 0.983349 8.106348 1.087700
v 3.975035 0.892307 -3.877075
v 0.983349 -0.226981 0.986122
# 30 vertices

vt 0.902588 0.443172
vt 0.902588 0.464306
vt 0.917454 0.464306
vt 0.857988 0.464306
vt 0.872855 0.485440
vt 0.887721 0.464306
vt 0.887721 0.485440
vt 0.962054 0.464306
vt 0.962054 0.506573
vt 0.976563 0.464306
vt 0.947187 0.464306
vt 0.932321 0.506573
vt 0.902588 0.485440
vt 0.932321 0.464306
vt 0.917454 0.443172
vt 0.857988 0.443172
vt 0.962054 0.443172
vt 0.917454 0.506573
vt 0.902588 0.527707
vt 0.947187 0.527707
vt 0.872855 0.527707
vt 0.857988 0.506573
vt 0.857988 0.527707
vt 0.887721 0.443172
vt 0.887721 0.527707
vt 0.932321 0.443172
vt 0.976563 0.506573
vt 0.962054 0.527707
vt 0.917454 0.527707
vt 0.947187 0.443172
# 30 texture coordinates

vn -0.310127 -0.946820 -0.085753
vn -0.549509 -0.700977 0.454610
vn -0.967775 -0.234319 -0.092228
vn 0.771036 -0.564790 0.294134
vn 0.686765 0.301815 0.661257
vn 0.108796 -0.682112 0.723109
vn -0.000001 0.434534 0.900655
vn 0.566532 -0.568635 -0.596402
vn 0.499624 0.592959 -0.631487
vn 0.862209 -0.291485 -0.414285
vn 0.002073 -0.276140 -0.961115
vn -0.438244 0.648488 -0.622420
vn -0.621763 0.351159 0.700070
vn -0.590735 -0.508284 -0.626641
vn -0.311256 -0.950267 0.010548
vn 0.290068 -0.950149 0.114354
vn 0.291744 -0.955640 -0.040473
vn -0.658680 0.752265 0.015453
vn -0.207775 0.883388 0.420065
vn 0.000000 0.948281 -0.317432
vn 0.193085 0.881873 0.430138
vn 0.711342 0.618652 0.333560
vn 0.219634 0.884410 0.411801
vn -0.095325 -0.988314 0.118948
vn -0.193086 0.881873 0.430138
vn -0.014031 -0.962606 -0.270541
vn 0.662133 0.663483 -0.348383
vn 0.227661 0.966345 -0.119785
vn -0.215498 0.967663 -0.131109
vn -0.079397 -0.959662 -0.269713
# 30 normals

g Sphere03
s 1
f 4/1/1 19/2/2 9/3/3
f 11/4/4 17/5/5 2/6/6
f 17/5/5 21/7/7 2/6/6
f 29/8/8 25/9/9 12/10/10
f 5/11/11 8/12/12 25/9/9
f 9/3/3 19/2/2 13/13/13
f 23/14/14 9/3/3 8/12/12
f 23/14/14 10/15/15 9/3/3
f 1/16/16 11/4/4 2/6/6
f 7/17/17 29/8/8 12/10/10
f 27/18/18 13/13/13 14/19/19
f 27/18/18 9/3/3 13/13/13
f 6/20/20 25/9/9 8/12/12
f 3/21/21 21/7/7 17/5/5
f 16/22/22 17/5/5 11/4/4
f 16/22/22 18/23/23 17/5/5
f 2/6/6 19/2/2 20/24/24
f 2/6/6 13/13/13 19/2/2
f 13/13/13 21/7/7 22/25/25
f 13/13/13 2/6/6 21/7/7
f 5/11/11 23/14/14 8/12/12
f 5/11/11 24/26/26 23/14/14
f 15/27/27 25/9/9 26/28/28
f 15/27/27 12/10/10 25/9/9
f 8/12/12 27/18/18 28/29/29
f 8/12/12 9/3/3 27/18/18
f 5/11/11 29/8/8 30/30/30
f 5/11/11 25/9/9 29/8/8
# 28 triangles in group

# 28 triangles total

