# Wavefront OBJ exported by MilkShape 3D

mtllib Sail2.mtl

v -8.802671 18.192715 10.636658
v -8.802671 -16.104830 10.636658
v -8.708321 18.192715 10.636658
v -8.708321 -16.104830 10.636658
v -8.708321 18.192715 -10.774755
v -8.708321 -16.104830 -10.774755
v -8.802671 18.192715 -10.774755
v -8.802671 -16.104830 -10.774755
v -9.873029 20.872730 0.160528
v -9.881687 -26.222723 0.160528
v -8.858742 20.872730 0.160528
v -8.867400 -26.222723 0.160528
v -8.858742 20.872730 -0.798626
v -8.867400 -26.222723 -0.798626
v -9.873029 20.872730 -0.798626
v -9.881687 -26.222723 -0.798626
v -9.365886 25.472721 -0.314286
v -9.873029 20.872726 0.201268
v -9.365886 25.472721 -0.314286
v -8.858742 20.872726 0.201268
v -9.365886 25.472721 -0.314286
v -8.858742 20.872726 -0.829841
v -9.365886 25.472721 -0.314286
v -9.873029 20.872726 -0.829841
v -9.513384 12.260242 10.714285
v -9.513384 11.851448 10.714285
v -8.949989 12.260242 10.714285
v -8.949989 11.851448 10.714285
v -8.949989 12.260242 -10.857143
v -8.949989 11.851448 -10.857143
v -9.513384 12.260242 -10.857143
v -9.513384 11.851448 -10.857143
v -9.513384 2.403099 10.714285
v -9.513384 1.994305 10.714285
v -8.949989 2.403099 10.714285
v -8.949989 1.994305 10.714285
v -8.949989 2.403099 -10.857143
v -8.949989 1.994305 -10.857143
v -9.513384 2.403099 -10.857143
v -9.513384 1.994305 -10.857143
v -9.513384 -7.882618 10.714285
v -9.513384 -8.291412 10.714285
v -8.949989 -7.882618 10.714285
v -8.949989 -8.291412 10.714285
v -8.949989 -7.882618 -10.857143
v -8.949989 -8.291412 -10.857143
v -9.513384 -7.882618 -10.857143
v -9.513384 -8.291412 -10.857143
v -9.513384 -16.025475 10.714285
v -9.513384 -16.434269 10.714285
v -8.949989 -16.025475 10.714285
v -8.949989 -16.434269 10.714285
v -8.949989 -16.025475 -10.857143
v -8.949989 -16.434269 -10.857143
v -9.513384 -16.025475 -10.857143
v -9.513384 -16.434269 -10.857143
v -9.513384 18.545956 10.857143
v -9.513384 18.137157 10.857143
v -8.949989 18.545956 10.857143
v -8.949989 18.137157 10.857143
v -8.949989 18.545956 -10.714285
v -8.949989 18.137157 -10.714285
v -9.513384 18.545956 -10.714285
v -9.513384 18.137157 -10.714285
v 9.947330 18.942715 10.636658
v 9.947330 -15.354830 10.636658
v 10.041680 18.942715 10.636658
v 10.041680 -15.354830 10.636658
v 10.041680 18.942715 -10.774755
v 10.041680 -15.354830 -10.774755
v 9.947330 18.942715 -10.774755
v 9.947330 -15.354830 -10.774755
v 8.876971 21.622730 0.160528
v 8.868314 -25.472723 0.160528
v 9.891259 21.622730 0.160528
v 9.882600 -25.472723 0.160528
v 9.891259 21.622730 -0.798626
v 9.882600 -25.472723 -0.798626
v 8.876971 21.622730 -0.798626
v 8.868314 -25.472723 -0.798626
v 9.384114 26.222721 -0.314286
v 8.876971 21.622726 0.201268
v 9.384114 26.222721 -0.314286
v 9.891259 21.622726 0.201268
v 9.384114 26.222721 -0.314286
v 9.891259 21.622726 -0.829841
v 9.384114 26.222721 -0.314286
v 8.876971 21.622726 -0.829841
v 9.236615 13.010242 10.714285
v 9.236615 12.601448 10.714285
v 9.800012 13.010242 10.714285
v 9.800012 12.601448 10.714285
v 9.800012 13.010242 -10.857143
v 9.800012 12.601448 -10.857143
v 9.236615 13.010242 -10.857143
v 9.236615 12.601448 -10.857143
v 9.236615 3.153099 10.714285
v 9.236615 2.744305 10.714285
v 9.800012 3.153099 10.714285
v 9.800012 2.744305 10.714285
v 9.800012 3.153099 -10.857143
v 9.800012 2.744305 -10.857143
v 9.236615 3.153099 -10.857143
v 9.236615 2.744305 -10.857143
v 9.236615 -7.132618 10.714285
v 9.236615 -7.541412 10.714285
v 9.800012 -7.132618 10.714285
v 9.800012 -7.541412 10.714285
v 9.800012 -7.132618 -10.857143
v 9.800012 -7.541412 -10.857143
v 9.236615 -7.132618 -10.857143
v 9.236615 -7.541412 -10.857143
v 9.236615 -15.275475 10.714285
v 9.236615 -15.684269 10.714285
v 9.800012 -15.275475 10.714285
v 9.800012 -15.684269 10.714285
v 9.800012 -15.275475 -10.857143
v 9.800012 -15.684269 -10.857143
v 9.236615 -15.275475 -10.857143
v 9.236615 -15.684269 -10.857143
v 9.236615 19.295956 10.857143
v 9.236615 18.887157 10.857143
v 9.800012 19.295956 10.857143
v 9.800012 18.887157 10.857143
v 9.800012 19.295956 -10.714285
v 9.800012 18.887157 -10.714285
v 9.236615 19.295956 -10.714285
v 9.236615 18.887157 -10.714285
v -9.952966 23.168266 0.624766
v -10.023042 21.619602 0.361276
v -8.887261 23.168266 0.615371
v -8.803396 21.619602 0.356956
v -9.034996 23.089222 -0.561370
v -8.974534 22.098698 -0.561370
v -9.803308 23.089222 -0.575024
v -9.853828 22.098698 -0.575024
v -10.138201 22.137943 1.966173
v -10.138201 21.449955 1.966173
v -8.695132 22.137943 1.966173
v -8.695132 21.449955 1.966173
v -8.887261 23.168266 0.615371
v -8.803396 21.619602 0.356956
v -9.952966 23.168266 0.624766
v -10.023042 21.619602 0.361276
v -9.448581 20.760609 3.640544
v -9.448581 20.760609 3.640544
v -9.448581 20.760609 3.640544
v -9.448581 20.760609 3.640544
v -8.695132 22.137943 1.966173
v -8.695132 21.449955 1.966173
v -10.138201 22.137943 1.966173
v -10.138201 21.449955 1.966173
v 8.880367 23.168266 0.791433
v 8.810292 21.619602 0.527943
v 9.946072 23.168266 0.782038
v 10.029938 21.619602 0.523623
v 9.798338 23.089222 -0.394704
v 9.858799 22.098698 -0.394704
v 9.030025 23.089222 -0.408358
v 8.979506 22.098698 -0.408358
v 8.695132 22.137943 2.132839
v 8.695132 21.449955 2.132839
v 10.138201 22.137943 2.132839
v 10.138201 21.449955 2.132839
v 9.946072 23.168266 0.782038
v 10.029938 21.619602 0.523623
v 8.880367 23.168266 0.791433
v 8.810292 21.619602 0.527943
v 9.384752 20.760609 3.807210
v 9.384752 20.760609 3.807210
v 9.384752 20.760609 3.807210
v 9.384752 20.760609 3.807210
v 10.138201 22.137943 2.132839
v 10.138201 21.449955 2.132839
v 8.695132 22.137943 2.132839
v 8.695132 21.449955 2.132839
# 176 vertices

vt 0.053950 0.935550
vt 0.053950 0.841178
vt 0.115640 0.935550
vt 0.115640 0.841178
vt 0.846272 0.896146
vt 0.845775 0.812040
vt 0.904391 0.896146
vt 0.903894 0.812040
vt 0.875331 0.906235
vt 0.866879 0.877255
vt 0.899162 0.877255
vt 0.866879 0.855635
vt 0.899162 0.855635
vt 0.866879 0.833075
vt 0.899162 0.833075
vt 0.866879 0.815214
vt 0.899162 0.815214
vt 0.866879 0.891042
vt 0.899162 0.891042
vt 0.236337 0.974678
vt 0.229620 0.872720
vt 0.338493 0.974678
vt 0.346532 0.872720
vt 0.324332 0.969474
vt 0.330127 0.904262
vt 0.250683 0.969474
vt 0.245840 0.904262
vt 0.218581 0.906846
vt 0.218581 0.861551
vt 0.356910 0.906846
vt 0.356910 0.861551
vt 0.284686 0.816167
vt 0.462900 0.361397
vt 0.456182 0.259439
vt 0.565056 0.361397
vt 0.573095 0.259439
vt 0.550894 0.356193
vt 0.556690 0.290981
vt 0.477246 0.356193
vt 0.472403 0.290981
vt 0.445144 0.293564
vt 0.445144 0.248270
vt 0.583473 0.293564
vt 0.583473 0.248270
vt 0.511249 0.202886
# 45 texture coordinates

vn 0.000000 0.000000 1.000000
vn 1.000000 0.000000 0.000000
vn 0.000000 0.000000 -1.000000
vn -1.000000 0.000000 0.000000
vn 0.000000 1.000000 0.000000
vn 0.000000 -1.000000 0.000000
vn 0.000000 0.000000 0.000000
vn 0.000000 0.111380 0.993778
vn 0.993977 0.109585 0.000000
vn 0.000000 0.111380 -0.993778
vn -0.993977 0.109585 0.000000
vn 0.008690 -0.168106 0.985731
vn 0.006092 -0.166255 0.986064
vn 0.003494 -0.164402 0.986387
vn 0.988773 0.075101 -0.129181
vn 0.987721 0.067664 -0.140816
vn 0.986479 0.060215 -0.152424
vn 0.017769 0.001085 -0.999842
vn 0.016648 0.000146 -0.999861
vn 0.015527 -0.000792 -0.999879
vn -0.990628 0.050526 -0.126897
vn -0.989039 0.059779 -0.135014
vn -0.987297 0.069023 -0.143111
vn 0.001166 0.997846 -0.065594
vn -0.000590 0.997756 -0.066947
vn -0.001614 -0.890106 -0.455750
vn 0.002792 -0.888082 -0.459676
vn 0.007199 -0.886023 -0.463584
vn 0.990036 0.000000 -0.140816
vn 0.994403 0.032043 -0.100677
vn 0.996128 0.064000 -0.060270
vn -0.008696 0.164123 -0.986401
vn -0.006094 0.166004 -0.986106
vn -0.003492 0.167882 -0.985801
vn -0.994029 0.060436 -0.090846
vn -0.996235 0.030233 -0.081249
vn -0.997436 0.000000 -0.071571
vn 0.005374 0.792690 0.609601
vn 0.002687 0.793904 0.608038
vn 0.000000 0.795108 0.606468
vn 0.000000 -0.994460 -0.105120
vn 0.911925 0.000000 0.410356
vn -0.924644 0.000000 0.380832
vn 0.000000 0.772283 0.635279
vn 0.000000 -0.924698 -0.380702
# 45 normals

g Regroup05
usemtl Material01
s 1
f 1/1/1 2/2/1 3/3/1
f 2/2/1 4/4/1 3/3/1
s 2
f 3/3/2 4/4/2 5/3/2
f 4/4/2 6/4/2 5/3/2
s 1
f 5/3/3 6/4/3 7/1/3
f 6/4/3 8/2/3 7/1/3
s 2
f 7/1/4 8/2/4 1/1/4
f 8/2/4 2/2/4 1/1/4
s 3
f 7/1/5 1/1/5 5/3/5
f 1/1/5 3/3/5 5/3/5
f 2/2/6 8/2/6 4/4/6
f 8/2/6 6/4/6 4/4/6
s 1
f 9/5/1 10/6/1 11/7/1
f 10/6/1 12/8/1 11/7/1
s 2
f 11/7/2 12/8/2 13/7/2
f 12/8/2 14/8/2 13/7/2
s 1
f 13/7/3 14/8/3 15/5/3
f 14/8/3 16/6/3 15/5/3
s 2
f 15/5/4 16/6/4 9/5/4
f 16/6/4 10/6/4 9/5/4
s 3
f 15/5/5 9/5/5 13/7/5
f 9/5/5 11/7/5 13/7/5
f 10/6/6 16/6/6 12/8/6
f 16/6/6 14/8/6 12/8/6
s 1
f 17/9/7 18/5/8 19/9/8
f 18/5/8 20/7/8 19/9/8
s 2
f 19/9/7 20/7/9 21/9/9
f 20/7/9 22/7/9 21/9/9
s 1
f 21/9/7 22/7/10 23/9/10
f 22/7/10 24/5/10 23/9/10
s 2
f 23/9/7 24/5/11 17/9/11
f 24/5/11 18/5/11 17/9/11
s 3
f 23/9/7 17/9/7 21/9/7
f 17/9/7 19/9/7 21/9/7
f 18/5/6 24/5/6 20/7/6
f 24/5/6 22/7/6 20/7/6
s 1
f 25/10/1 26/10/1 27/11/1
f 26/10/1 28/11/1 27/11/1
s 2
f 27/11/2 28/11/2 29/11/2
f 28/11/2 30/11/2 29/11/2
s 1
f 29/11/3 30/11/3 31/10/3
f 30/11/3 32/10/3 31/10/3
s 2
f 31/10/4 32/10/4 25/10/4
f 32/10/4 26/10/4 25/10/4
s 3
f 31/10/5 25/10/5 29/11/5
f 25/10/5 27/11/5 29/11/5
f 26/10/6 32/10/6 28/11/6
f 32/10/6 30/11/6 28/11/6
s 1
f 33/12/1 34/12/1 35/13/1
f 34/12/1 36/13/1 35/13/1
s 2
f 35/13/2 36/13/2 37/13/2
f 36/13/2 38/13/2 37/13/2
s 1
f 37/13/3 38/13/3 39/12/3
f 38/13/3 40/12/3 39/12/3
s 2
f 39/12/4 40/12/4 33/12/4
f 40/12/4 34/12/4 33/12/4
s 3
f 39/12/5 33/12/5 37/13/5
f 33/12/5 35/13/5 37/13/5
f 34/12/6 40/12/6 36/13/6
f 40/12/6 38/13/6 36/13/6
s 1
f 41/14/1 42/14/1 43/15/1
f 42/14/1 44/15/1 43/15/1
s 2
f 43/15/2 44/15/2 45/15/2
f 44/15/2 46/15/2 45/15/2
s 1
f 45/15/3 46/15/3 47/14/3
f 46/15/3 48/14/3 47/14/3
s 2
f 47/14/4 48/14/4 41/14/4
f 48/14/4 42/14/4 41/14/4
s 3
f 47/14/5 41/14/5 45/15/5
f 41/14/5 43/15/5 45/15/5
f 42/14/6 48/14/6 44/15/6
f 48/14/6 46/15/6 44/15/6
s 1
f 49/16/1 50/16/1 51/17/1
f 50/16/1 52/17/1 51/17/1
s 2
f 51/17/2 52/17/2 53/17/2
f 52/17/2 54/17/2 53/17/2
s 1
f 53/17/3 54/17/3 55/16/3
f 54/17/3 56/16/3 55/16/3
s 2
f 55/16/4 56/16/4 49/16/4
f 56/16/4 50/16/4 49/16/4
s 3
f 55/16/5 49/16/5 53/17/5
f 49/16/5 51/17/5 53/17/5
f 50/16/6 56/16/6 52/17/6
f 56/16/6 54/17/6 52/17/6
s 1
f 57/18/1 58/18/1 59/19/1
f 58/18/1 60/19/1 59/19/1
s 2
f 59/19/2 60/19/2 61/19/2
f 60/19/2 62/19/2 61/19/2
s 1
f 61/19/3 62/19/3 63/18/3
f 62/19/3 64/18/3 63/18/3
s 2
f 63/18/4 64/18/4 57/18/4
f 64/18/4 58/18/4 57/18/4
s 3
f 63/18/5 57/18/5 61/19/5
f 57/18/5 59/19/5 61/19/5
f 58/18/6 64/18/6 60/19/6
f 64/18/6 62/19/6 60/19/6
s 1
f 65/1/1 66/2/1 67/3/1
f 66/2/1 68/4/1 67/3/1
s 2
f 67/3/2 68/4/2 69/3/2
f 68/4/2 70/4/2 69/3/2
s 1
f 69/3/3 70/4/3 71/1/3
f 70/4/3 72/2/3 71/1/3
s 2
f 71/1/4 72/2/4 65/1/4
f 72/2/4 66/2/4 65/1/4
s 3
f 71/1/5 65/1/5 69/3/5
f 65/1/5 67/3/5 69/3/5
f 66/2/6 72/2/6 68/4/6
f 72/2/6 70/4/6 68/4/6
s 1
f 73/5/1 74/6/1 75/7/1
f 74/6/1 76/8/1 75/7/1
s 2
f 75/7/2 76/8/2 77/7/2
f 76/8/2 78/8/2 77/7/2
s 1
f 77/7/3 78/8/3 79/5/3
f 78/8/3 80/6/3 79/5/3
s 2
f 79/5/4 80/6/4 73/5/4
f 80/6/4 74/6/4 73/5/4
s 3
f 79/5/5 73/5/5 77/7/5
f 73/5/5 75/7/5 77/7/5
f 74/6/6 80/6/6 76/8/6
f 80/6/6 78/8/6 76/8/6
s 1
f 81/9/7 82/5/8 83/9/8
f 82/5/8 84/7/8 83/9/8
s 2
f 83/9/7 84/7/9 85/9/9
f 84/7/9 86/7/9 85/9/9
s 1
f 85/9/7 86/7/10 87/9/10
f 86/7/10 88/5/10 87/9/10
s 2
f 87/9/7 88/5/11 81/9/11
f 88/5/11 82/5/11 81/9/11
s 3
f 87/9/7 81/9/7 85/9/7
f 81/9/7 83/9/7 85/9/7
f 82/5/6 88/5/6 84/7/6
f 88/5/6 86/7/6 84/7/6
s 1
f 89/10/1 90/10/1 91/11/1
f 90/10/1 92/11/1 91/11/1
s 2
f 91/11/2 92/11/2 93/11/2
f 92/11/2 94/11/2 93/11/2
s 1
f 93/11/3 94/11/3 95/10/3
f 94/11/3 96/10/3 95/10/3
s 2
f 95/10/4 96/10/4 89/10/4
f 96/10/4 90/10/4 89/10/4
s 3
f 95/10/5 89/10/5 93/11/5
f 89/10/5 91/11/5 93/11/5
f 90/10/6 96/10/6 92/11/6
f 96/10/6 94/11/6 92/11/6
s 1
f 97/12/1 98/12/1 99/13/1
f 98/12/1 100/13/1 99/13/1
s 2
f 99/13/2 100/13/2 101/13/2
f 100/13/2 102/13/2 101/13/2
s 1
f 101/13/3 102/13/3 103/12/3
f 102/13/3 104/12/3 103/12/3
s 2
f 103/12/4 104/12/4 97/12/4
f 104/12/4 98/12/4 97/12/4
s 3
f 103/12/5 97/12/5 101/13/5
f 97/12/5 99/13/5 101/13/5
f 98/12/6 104/12/6 100/13/6
f 104/12/6 102/13/6 100/13/6
s 1
f 105/14/1 106/14/1 107/15/1
f 106/14/1 108/15/1 107/15/1
s 2
f 107/15/2 108/15/2 109/15/2
f 108/15/2 110/15/2 109/15/2
s 1
f 109/15/3 110/15/3 111/14/3
f 110/15/3 112/14/3 111/14/3
s 2
f 111/14/4 112/14/4 105/14/4
f 112/14/4 106/14/4 105/14/4
s 3
f 111/14/5 105/14/5 109/15/5
f 105/14/5 107/15/5 109/15/5
f 106/14/6 112/14/6 108/15/6
f 112/14/6 110/15/6 108/15/6
s 1
f 113/16/1 114/16/1 115/17/1
f 114/16/1 116/17/1 115/17/1
s 2
f 115/17/2 116/17/2 117/17/2
f 116/17/2 118/17/2 117/17/2
s 1
f 117/17/3 118/17/3 119/16/3
f 118/17/3 120/16/3 119/16/3
s 2
f 119/16/4 120/16/4 113/16/4
f 120/16/4 114/16/4 113/16/4
s 3
f 119/16/5 113/16/5 117/17/5
f 113/16/5 115/17/5 117/17/5
f 114/16/6 120/16/6 116/17/6
f 120/16/6 118/17/6 116/17/6
s 1
f 121/18/1 122/18/1 123/19/1
f 122/18/1 124/19/1 123/19/1
s 2
f 123/19/2 124/19/2 125/19/2
f 124/19/2 126/19/2 125/19/2
s 1
f 125/19/3 126/19/3 127/18/3
f 126/19/3 128/18/3 127/18/3
s 2
f 127/18/4 128/18/4 121/18/4
f 128/18/4 122/18/4 121/18/4
s 3
f 127/18/5 121/18/5 125/19/5
f 121/18/5 123/19/5 125/19/5
f 122/18/6 128/18/6 124/19/6
f 128/18/6 126/19/6 124/19/6
s 1
f 129/20/12 130/21/13 131/22/13
f 130/21/13 132/23/14 131/22/13
s 2
f 131/22/15 132/23/16 133/24/16
f 132/23/16 134/25/17 133/24/16
s 1
f 133/24/18 134/25/19 135/26/19
f 134/25/19 136/27/20 135/26/19
s 2
f 135/26/21 136/27/22 129/20/22
f 136/27/22 130/21/23 129/20/22
s 3
f 135/26/24 129/20/24 133/24/24
f 129/20/24 131/22/25 133/24/24
f 130/21/26 136/27/27 132/23/27
f 136/27/27 134/25/28 132/23/27
s 1
f 137/28/1 138/29/1 139/30/1
f 138/29/1 140/31/1 139/30/1
s 2
f 139/30/29 140/31/30 141/22/30
f 140/31/30 142/23/31 141/22/30
s 1
f 141/22/32 142/23/33 143/20/33
f 142/23/33 144/21/34 143/20/33
s 2
f 143/20/35 144/21/36 137/28/36
f 144/21/36 138/29/37 137/28/36
s 3
f 143/20/38 137/28/39 141/22/39
f 137/28/39 139/30/40 141/22/39
f 138/29/41 144/21/41 140/31/41
f 144/21/41 142/23/41 140/31/41
s 1
f 145/32/7 146/32/7 147/32/7
f 146/32/7 148/32/7 147/32/7
s 2
f 147/32/7 148/32/42 149/30/42
f 148/32/42 150/31/42 149/30/42
s 1
f 149/30/3 150/31/3 151/28/3
f 150/31/3 152/29/3 151/28/3
s 2
f 151/28/43 152/29/43 145/32/43
f 152/29/43 146/32/7 145/32/43
s 3
f 151/28/44 145/32/44 149/30/44
f 145/32/44 147/32/7 149/30/44
f 146/32/7 152/29/45 148/32/45
f 152/29/45 150/31/45 148/32/45
s 1
f 153/33/12 154/34/13 155/35/13
f 154/34/13 156/36/14 155/35/13
s 2
f 155/35/15 156/36/16 157/37/16
f 156/36/16 158/38/17 157/37/16
s 1
f 157/37/18 158/38/19 159/39/19
f 158/38/19 160/40/20 159/39/19
s 2
f 159/39/21 160/40/22 153/33/22
f 160/40/22 154/34/23 153/33/22
s 3
f 159/39/24 153/33/24 157/37/24
f 153/33/24 155/35/25 157/37/24
f 154/34/26 160/40/27 156/36/27
f 160/40/27 158/38/28 156/36/27
s 1
f 161/41/1 162/42/1 163/43/1
f 162/42/1 164/44/1 163/43/1
s 2
f 163/43/29 164/44/30 165/35/30
f 164/44/30 166/36/31 165/35/30
s 1
f 165/35/32 166/36/33 167/33/33
f 166/36/33 168/34/34 167/33/33
s 2
f 167/33/35 168/34/36 161/41/36
f 168/34/36 162/42/37 161/41/36
s 3
f 167/33/38 161/41/39 165/35/39
f 161/41/39 163/43/40 165/35/39
f 162/42/41 168/34/41 164/44/41
f 168/34/41 166/36/41 164/44/41
s 1
f 169/45/7 170/45/7 171/45/7
f 170/45/7 172/45/7 171/45/7
s 2
f 171/45/7 172/45/42 173/43/42
f 172/45/42 174/44/42 173/43/42
s 1
f 173/43/3 174/44/3 175/41/3
f 174/44/3 176/42/3 175/41/3
s 2
f 175/41/43 176/42/43 169/45/43
f 176/42/43 170/45/7 169/45/43
s 3
f 175/41/44 169/45/44 173/43/44
f 169/45/44 171/45/7 173/43/44
f 170/45/7 176/42/45 172/45/45
f 176/42/45 174/44/45 172/45/45
# 264 triangles in group

# 264 triangles total

