# Wavefront OBJ exported by MilkShape 3D

mtllib Sakura.mtl

v -2.175940 3.356248 -1.781739
v -3.227535 2.920665 -1.781739
v -2.175940 2.920665 -0.730145
v -2.175940 2.920665 -2.833334
v -1.124346 0.817475 -1.781739
v -0.688761 1.869070 -1.781739
v -1.124346 1.869070 -0.730145
v -3.227535 1.869070 -0.730145
v -3.663119 1.869070 -1.781739
v -3.227535 0.817475 -1.781739
v 2.199934 0.330609 0.331898
v 2.199934 0.766193 1.383492
v 1.148339 0.766193 0.331898
v 2.199934 3.304966 0.331898
v 1.148339 2.869383 0.331898
v 2.199934 2.869383 1.383492
v 1.148339 1.817788 -0.719697
v 2.199934 0.766193 -0.719697
v 1.148339 1.817788 1.383492
v 0.712754 1.817788 0.331898
v -0.857759 0.245546 0.154090
v -0.857759 0.884740 1.844791
v -2.516430 0.884740 0.154090
v -0.857759 4.610239 0.154090
v -2.516430 3.971047 0.154090
v -0.857759 3.971047 1.844791
v 0.800912 2.427894 1.844791
v -0.857759 2.427894 2.545103
v -2.516430 2.427894 1.844791
v -2.095520 -0.190098 0.560412
v -0.970098 0.077213 1.055810
v -2.095520 -0.726284 1.659898
v -3.220942 0.077213 1.055810
v -2.095520 0.564391 4.051904
v -3.220942 -0.080954 2.855902
v -2.095520 0.880713 0.451722
v -2.095520 2.171393 2.843725
v -0.970098 1.526055 1.647722
v -0.254611 2.652820 -3.090476
v -0.254611 2.307593 -1.649725
v 0.870811 2.199446 -2.850821
v -1.380033 2.199446 -2.850821
v -1.380033 1.213052 -1.071149
v -0.254611 0.118506 -0.492582
v 0.870811 1.213052 -1.071149
v 0.870811 0.996753 -3.473351
v 0.870811 0.010357 -1.693680
v -0.254611 -0.097792 -2.894775
v -0.654058 1.769369 0.264559
v -0.254909 -1.010833 0.055171
v -0.388595 1.769369 0.264559
v 0.094341 -1.010833 0.055171
v -0.388595 1.769369 -0.034310
v 0.094341 -1.010833 -0.300236
v -0.654058 1.769369 -0.034310
v -0.254909 -1.010833 -0.300236
v -0.654058 1.769369 0.264559
v -1.327442 -2.795858 0.592823
v -0.778476 -2.795858 0.592823
v -0.778476 -2.795858 0.112722
v -1.327442 -2.795858 0.112722
v -1.101078 -4.610239 0.614774
v 0.058434 -4.610239 0.614774
v 0.058434 -4.610239 -0.226103
v -1.101078 -4.610239 -0.226103
v 2.250183 1.648548 0.264559
v -0.405982 0.513437 0.152042
v 2.336609 1.397549 0.264559
v -0.288939 0.183213 0.152042
v 2.336608 1.397549 0.089777
v -0.288939 0.183213 0.024989
v 2.250181 1.648548 0.089777
v -0.405982 0.513437 0.024989
v -2.383228 1.311765 -1.880451
v -0.469834 0.707474 0.032725
v -2.500632 1.375097 -1.789195
v -0.624288 0.790797 0.152788
v -2.385630 1.552851 -1.775523
v -0.487534 1.002177 0.169044
v -2.268228 1.489517 -1.866780
v -0.333079 0.918855 0.048983
v -0.183971 0.593603 -2.585440
v -0.157322 -0.541508 0.072974
v -0.188494 0.342604 -2.671748
v -0.163448 -0.871732 -0.043909
v -0.363038 0.342604 -2.662600
v -0.290327 -0.871732 -0.037260
v -0.358514 0.593603 -2.576292
v -0.284200 -0.541508 0.079624
v -2.083549 0.256820 2.153883
v -0.273133 -0.347471 0.142982
v -1.986272 0.320152 2.266350
v -0.145153 -0.264148 0.290940
v -1.978639 0.497906 2.150789
v -0.136075 -0.052767 0.153524
v -2.075916 0.434572 2.038325
v -0.264055 -0.136090 0.005564
v 0.785014 1.109152 0.956395
v 1.707310 1.109152 1.893727
v 0.785014 1.109152 2.831059
v 0.785014 2.944606 0.956395
v 0.785014 2.944606 2.831059
v 1.707310 2.944606 1.893727
v 1.707310 2.026879 2.831059
v -0.137276 2.026879 2.831059
v 0.800912 0.884740 0.154090
v -0.857759 0.884740 -1.536612
v -2.516430 2.427894 -1.536612
v -0.857759 2.427894 -2.236925
v 0.800912 3.971047 0.154090
v 0.800912 2.427894 -1.536612
v -3.203476 2.427894 0.154090
v -0.857759 3.971047 -1.536612
v 1.487955 2.427894 0.154090
v 3.687113 1.817788 0.331898
v 3.251528 2.869383 0.331898
v 3.251528 1.817788 1.383492
v 2.199934 2.869383 -0.719697
v 2.199934 1.817788 -1.155282
v 3.251528 1.817788 -0.719697
v 3.251528 0.766193 0.331898
v -0.254611 -0.443015 -1.454032
v 1.336978 1.104903 -2.272252
v -0.254611 2.091296 -4.051905
v -1.380033 0.010357 -1.693680
v -1.380033 0.996753 -3.473351
v -1.846204 1.104903 -2.272252
v -3.220942 1.526055 1.647722
v -3.687113 0.722551 2.251812
v -3.220942 1.367885 3.447815
v -0.970098 1.367885 3.447815
v -2.095520 1.635199 3.943212
v -0.970098 -0.080954 2.855902
v -0.503931 0.722551 2.251812
v 2.199934 1.817788 1.819077
v -2.175940 0.381891 -1.781739
v -2.175940 0.817475 -0.730145
v -3.227535 1.869070 -2.833334
v -2.175940 0.817475 -2.833334
v -1.124346 1.869070 -2.833334
v -2.175940 1.869070 -3.268919
v -1.124346 2.920665 -1.781739
v -2.175940 1.869070 -0.294559
v -0.137276 2.944606 1.893727
v 1.707310 2.026879 0.956395
v -0.137276 1.109152 1.893727
v -0.137276 2.026879 0.956395
# 147 vertices

vt 0.650836 0.330609
vt 0.635845 0.322760
vt 0.650836 0.322760
vt 0.665828 0.284864
vt 0.672038 0.303812
vt 0.665828 0.303812
vt 0.635845 0.303812
vt 0.629635 0.303812
vt 0.635845 0.284864
vt 0.713219 0.276092
vt 0.713219 0.283940
vt 0.698227 0.283940
vt 0.713219 0.329685
vt 0.698227 0.321836
vt 0.713219 0.321836
vt 0.698227 0.302888
vt 0.692017 0.302888
vt 0.669628 0.274559
vt 0.669628 0.286076
vt 0.645982 0.286076
vt 0.669628 0.353204
vt 0.645982 0.341687
vt 0.669628 0.341687
vt 0.693274 0.313881
vt 0.669628 0.313881
vt 0.645982 0.313881
vt 0.883043 0.277521
vt 0.917024 0.284931
vt 0.883043 0.262657
vt 0.849063 0.284931
vt 0.883043 0.298437
vt 0.849063 0.280547
vt 0.883043 0.307206
vt 0.883043 0.342986
vt 0.917024 0.325096
vt 0.938627 0.356332
vt 0.938627 0.346761
vt 0.972607 0.343763
vt 0.904646 0.343763
vt 0.904646 0.316419
vt 0.938627 0.286076
vt 0.972607 0.316419
vt 0.972607 0.310423
vt 0.972607 0.283078
vt 0.938627 0.280080
vt 0.900796 0.983302
vt 0.909325 0.908033
vt 0.906469 0.983302
vt 0.916788 0.908033
vt 0.886406 0.859707
vt 0.898137 0.859707
vt 0.891244 0.810586
vt 0.916021 0.810586
vt 0.962856 0.980031
vt 0.906097 0.949300
vt 0.964703 0.973236
vt 0.908598 0.940360
vt 0.863846 0.970913
vt 0.904733 0.954553
vt 0.861337 0.972628
vt 0.901432 0.956809
vt 0.863794 0.977440
vt 0.904354 0.962532
vt 0.866303 0.975726
vt 0.907655 0.960276
vt 0.910841 0.951470
vt 0.911411 0.920739
vt 0.910745 0.944675
vt 0.911280 0.911799
vt 0.907015 0.944675
vt 0.908568 0.911799
vt 0.907111 0.951470
vt 0.908699 0.920739
vt 0.870249 0.942353
vt 0.908936 0.925993
vt 0.872328 0.944067
vt 0.911671 0.928248
vt 0.872491 0.948880
vt 0.911865 0.933971
vt 0.870412 0.947165
vt 0.909130 0.931715
vt 0.898442 0.253373
vt 0.933443 0.253373
vt 0.898442 0.330409
vt 0.933443 0.330409
vt 0.933443 0.291891
vt 0.863441 0.291891
vt 0.693274 0.286076
vt 0.693274 0.341687
vt 0.636188 0.313881
vt 0.703069 0.313881
vt 0.734420 0.302888
vt 0.728210 0.321836
vt 0.728210 0.302888
vt 0.713219 0.302888
vt 0.728210 0.283940
vt 0.938627 0.270510
vt 0.986682 0.313421
vt 0.938627 0.340765
vt 0.904646 0.283078
vt 0.904646 0.310423
vt 0.890571 0.313421
vt 0.849063 0.325096
vt 0.834988 0.302821
vt 0.849063 0.320711
vt 0.917024 0.320711
vt 0.883043 0.328121
vt 0.917024 0.280547
vt 0.931099 0.302821
vt 0.650836 0.277016
vt 0.650836 0.284864
vt 0.650836 0.303812
vt 0.665828 0.322760
vt 0.863441 0.330409
vt 0.863441 0.253373
# 115 texture coordinates

vn 0.000000 1.000000 0.000000
vn -0.707107 0.707107 0.000000
vn 0.000000 0.707107 0.707106
vn 0.000000 0.707107 -0.707106
vn 0.707107 -0.707107 0.000000
vn 1.000000 0.000000 0.000000
vn 0.707107 0.000000 0.707107
vn -0.707107 0.000000 0.707107
vn -1.000000 0.000000 0.000000
vn -0.707107 -0.707107 0.000000
vn 0.000000 -1.000000 0.000000
vn 0.000000 -0.707107 0.707107
vn -0.707107 -0.000000 -0.707107
vn 0.000000 -0.707107 -0.707107
vn 0.000000 -0.733239 0.679971
vn -0.685753 -0.727834 0.000000
vn -0.685753 0.727835 -0.000000
vn 0.000000 0.733239 0.679971
vn 0.712694 0.000000 0.701475
vn 0.000000 0.000000 1.000000
vn -0.712693 0.000000 0.701476
vn -0.000000 -0.576753 -0.816919
vn 0.758646 -0.370752 -0.535723
vn -0.000000 -0.999999 -0.001619
vn -0.758645 -0.370753 -0.535724
vn -0.000000 -0.458012 0.888946
vn -0.679806 -0.639012 0.359900
vn -0.000000 0.458012 -0.888946
vn 0.000000 0.999999 0.001621
vn 0.679809 0.639009 -0.359899
vn 0.000000 0.990366 -0.138472
vn 0.000000 0.814888 0.579618
vn 0.719273 0.685390 -0.113525
vn -0.719272 0.685390 -0.113525
vn -0.714400 0.288935 0.637298
vn 0.000000 -0.312943 0.949772
vn 0.714401 0.288934 0.637297
vn 0.714400 -0.288932 -0.637300
vn 0.719273 -0.685390 0.113522
vn -0.000000 -0.814887 -0.579619
vn 0.000000 -0.075101 0.997176
vn -0.602699 0.451580 0.657898
vn 0.442898 0.009413 0.896522
vn 0.694461 -0.144098 0.704953
vn 0.875543 0.194393 -0.442308
vn 0.682847 0.063241 -0.727819
vn -0.445090 0.021727 -0.895222
vn -0.669029 -0.265256 -0.694291
vn -0.989851 -0.142111 0.000000
vn -0.635147 0.414895 0.651498
vn 0.648837 -0.275169 0.709431
vn 0.653719 0.272431 -0.705998
vn -0.677223 0.012013 -0.735680
vn -0.398738 -0.441854 0.803600
vn 0.766007 -0.485136 0.421754
vn 0.417278 -0.098342 -0.903442
vn -0.655548 -0.681781 -0.324702
vn -0.367570 0.815870 0.446371
vn -0.208476 0.399301 0.892803
vn 0.155013 -0.418049 0.895101
vn 0.359532 -0.818819 0.447519
vn 0.384631 -0.807790 -0.446693
vn 0.206541 -0.398920 -0.893422
vn -0.156849 0.418125 -0.894746
vn -0.342207 0.826298 -0.447354
vn 0.368316 -0.715028 -0.594204
vn -0.087069 -0.971647 -0.219822
vn -0.632779 -0.653970 0.414626
vn -0.730069 -0.095444 0.676676
vn -0.381256 0.722501 0.576747
vn 0.074984 0.976248 0.203267
vn 0.619139 0.657355 -0.429593
vn 0.714976 0.103058 -0.691512
vn 0.464997 0.815870 0.343706
vn 0.902490 0.399300 0.161465
vn 0.885762 -0.418049 -0.201646
vn 0.428089 -0.818819 -0.382460
vn -0.466211 -0.807790 -0.360726
vn -0.903008 -0.398920 -0.159499
vn -0.885310 0.418125 0.203462
vn -0.428831 0.826298 0.365150
vn -0.612667 -0.715027 -0.336714
vn -0.214964 -0.971647 0.098454
vn 0.447175 -0.653969 0.610212
vn 0.713957 -0.095446 0.693654
vn 0.595911 0.722499 0.350550
vn 0.199065 0.976248 -0.085518
vn -0.461408 0.657355 -0.595808
vn -0.727983 0.103060 -0.677805
vn -0.000000 -0.709834 -0.704369
vn 0.824902 -0.565275 0.000000
vn -0.000000 -0.709834 0.704369
vn -0.000000 0.709834 -0.704369
vn -0.000000 0.709834 0.704369
vn 0.824902 0.565275 0.000000
vn 0.710158 0.000000 0.704042
vn -0.710159 0.000000 0.704041
vn 0.685754 -0.727834 0.000000
vn 0.000000 -0.733239 -0.679971
vn -0.712693 0.000000 -0.701476
vn 0.000000 0.000000 -1.000000
vn 0.685753 0.727834 0.000000
vn 0.712694 0.000000 -0.701475
vn 0.000000 0.733239 -0.679971
vn 0.707107 0.707107 0.000000
vn 0.707107 -0.000000 -0.707107
vn 0.000000 -0.990367 0.138467
vn 0.000000 0.312941 -0.949772
vn -0.719272 -0.685391 0.113522
vn -0.714399 -0.288933 -0.637300
vn -0.679808 0.639010 -0.359900
vn -0.758646 0.370751 0.535724
vn 0.758646 0.370751 0.535723
vn 0.000000 0.576751 0.816920
vn 0.679807 -0.639011 0.359899
vn -0.824903 0.565274 0.000000
vn 0.710158 0.000000 -0.704042
vn -0.824903 -0.565274 0.000000
vn -0.710159 0.000000 -0.704041
# 119 normals

g Regroup04
usemtl Material01
s 1
f 1/1/1 2/2/2 3/3/3
f 1/1/1 4/3/4 2/2/2
f 5/4/5 6/5/6 7/6/7
f 8/7/8 9/8/9 10/9/10
f 11/10/11 12/11/12 13/12/10
f 14/13/1 15/14/2 16/15/3
f 13/12/10 17/16/13 18/11/14
f 19/16/8 15/14/2 20/17/9
f 21/18/11 22/19/15 23/20/16
f 24/21/1 25/22/17 26/23/18
f 27/24/19 28/25/20 22/19/15
f 22/19/15 28/25/20 29/26/21
f 30/27/22 31/28/23 32/29/24
f 30/27/22 32/29/24 33/30/25
f 32/29/24 34/31/26 35/32/27
f 36/33/28 37/34/29 38/35/30
f 39/36/31 40/37/32 41/38/33
f 42/39/34 43/40/35 40/37/32
f 40/37/32 44/41/36 45/42/37
f 46/43/38 47/44/39 48/45/40
f 49/46/41 50/47/42 51/48/43
f 50/47/42 52/49/44 51/48/43
f 51/48/43 52/49/44 53/48/45
f 52/49/44 54/49/46 53/48/45
f 53/48/45 54/49/46 55/46/47
f 54/49/46 56/47/48 55/46/47
f 55/46/47 56/47/48 57/46/49
f 56/47/48 50/47/42 57/46/49
f 50/47/42 56/47/48 52/49/44
f 56/47/48 54/49/46 52/49/44
f 50/47/42 58/50/50 52/49/44
f 58/50/50 59/51/51 52/49/44
f 52/49/44 59/51/51 54/49/46
f 59/51/51 60/51/52 54/49/46
f 54/49/46 60/51/52 56/47/48
f 60/51/52 61/50/53 56/47/48
f 56/47/48 61/50/53 50/47/42
f 61/50/53 58/50/50 50/47/42
f 56/47/48 50/47/42 54/49/46
f 50/47/42 52/49/44 54/49/46
f 58/50/50 61/50/53 59/51/51
f 61/50/53 60/51/52 59/51/51
f 58/50/50 62/52/54 59/51/51
f 62/52/54 63/53/55 59/51/51
f 59/51/51 63/53/55 60/51/52
f 63/53/55 64/53/56 60/51/52
f 60/51/52 64/53/56 61/50/53
f 64/53/56 65/52/57 61/50/53
f 61/50/53 65/52/57 58/50/50
f 65/52/57 62/52/54 58/50/50
f 61/50/53 58/50/50 60/51/52
f 58/50/50 59/51/51 60/51/52
f 62/52/54 65/52/57 63/53/55
f 65/52/57 64/53/56 63/53/55
f 66/54/58 67/55/59 68/56/60
f 67/55/59 69/57/61 68/56/60
f 68/56/60 69/57/61 70/56/62
f 69/57/61 71/57/63 70/56/62
f 70/56/62 71/57/63 72/54/64
f 71/57/63 73/55/65 72/54/64
f 72/54/64 73/55/65 66/54/58
f 73/55/65 67/55/59 66/54/58
f 74/58/66 75/59/67 76/60/68
f 75/59/67 77/61/69 76/60/68
f 76/60/68 77/61/69 78/62/70
f 77/61/69 79/63/71 78/62/70
f 78/62/70 79/63/71 80/64/72
f 79/63/71 81/65/73 80/64/72
f 80/64/72 81/65/73 74/58/66
f 81/65/73 75/59/67 74/58/66
f 82/66/74 83/67/75 84/68/76
f 83/67/75 85/69/77 84/68/76
f 84/68/76 85/69/77 86/70/78
f 85/69/77 87/71/79 86/70/78
f 86/70/78 87/71/79 88/72/80
f 87/71/79 89/73/81 88/72/80
f 88/72/80 89/73/81 82/66/74
f 89/73/81 83/67/75 82/66/74
f 90/74/82 91/75/83 92/76/84
f 91/75/83 93/77/85 92/76/84
f 92/76/84 93/77/85 94/78/86
f 93/77/85 95/79/87 94/78/86
f 94/78/86 95/79/87 96/80/88
f 95/79/87 97/81/89 96/80/88
f 96/80/88 97/81/89 90/74/82
f 97/81/89 91/75/83 90/74/82
f 98/82/90 99/83/91 100/82/92
f 101/84/93 102/84/94 103/85/95
f 104/86/96 102/84/94 100/82/92
f 100/82/92 102/84/94 105/87/97
f 21/18/11 106/88/98 22/19/15
f 107/19/99 108/26/100 109/25/101
f 110/89/102 24/21/1 26/23/18
f 111/24/103 107/19/99 109/25/101
f 25/22/17 29/26/21 26/23/18
f 108/26/100 107/19/99 23/20/16
f 23/20/16 29/26/21 112/90/9
f 23/20/16 22/19/15 29/26/21
f 108/26/100 25/22/17 113/23/104
f 108/26/100 23/20/16 112/90/9
f 111/24/103 106/88/98 107/19/99
f 110/89/102 26/23/18 27/24/19
f 106/88/98 27/24/19 22/19/15
f 106/88/98 114/91/6 27/24/19
f 111/24/103 114/91/6 106/88/98
f 111/24/103 113/23/104 110/89/102
f 113/23/104 109/25/101 108/26/100
f 113/23/104 111/24/103 109/25/101
f 26/23/18 28/25/20 27/24/19
f 26/23/18 29/26/21 28/25/20
f 25/22/17 112/90/9 29/26/21
f 25/22/17 108/26/100 112/90/9
f 110/89/102 114/91/6 111/24/103
f 110/89/102 27/24/19 114/91/6
f 115/92/6 116/93/105 117/94/7
f 11/10/11 13/12/10 18/11/14
f 118/15/4 119/95/101 17/16/13
f 120/94/106 121/96/5 18/11/14
f 122/97/107 48/45/40 47/44/39
f 44/41/36 40/37/32 43/40/35
f 47/44/39 45/42/37 44/41/36
f 47/44/39 46/43/38 123/98/6
f 45/42/37 41/38/33 40/37/32
f 45/42/37 47/44/39 123/98/6
f 124/99/108 46/43/38 48/45/40
f 124/99/108 41/38/33 46/43/38
f 125/100/109 48/45/40 122/97/107
f 125/100/109 126/101/110 48/45/40
f 39/36/31 42/39/34 40/37/32
f 124/99/108 48/45/40 126/101/110
f 125/100/109 43/40/35 127/102/9
f 125/100/109 44/41/36 43/40/35
f 126/101/110 42/39/34 124/99/108
f 126/101/110 125/100/109 127/102/9
f 33/30/25 128/103/111 36/33/28
f 33/30/25 32/29/24 35/32/27
f 35/32/27 129/104/9 33/30/25
f 35/32/27 34/31/26 130/105/112
f 34/31/26 131/106/113 132/107/114
f 34/31/26 32/29/24 133/108/115
f 38/35/30 31/28/23 36/33/28
f 131/106/113 34/31/26 133/108/115
f 133/108/115 31/28/23 134/109/6
f 133/108/115 32/29/24 31/28/23
f 107/19/99 21/18/11 23/20/16
f 107/19/99 106/88/98 21/18/11
f 113/23/104 24/21/1 110/89/102
f 113/23/104 25/22/17 24/21/1
f 120/94/106 116/93/105 115/92/6
f 118/15/4 15/14/2 14/13/1
f 17/16/13 15/14/2 118/15/4
f 17/16/13 20/17/9 15/14/2
f 120/94/106 118/15/4 116/93/105
f 120/94/106 119/95/101 118/15/4
f 16/15/3 117/94/7 116/93/105
f 19/16/8 13/12/10 12/11/12
f 135/95/20 19/16/8 12/11/12
f 16/15/3 15/14/2 19/16/8
f 117/94/7 12/11/12 121/96/5
f 117/94/7 135/95/20 12/11/12
f 10/9/10 136/110/11 137/111/12
f 10/9/10 9/8/9 138/7/13
f 139/111/14 136/110/11 10/9/10
f 140/6/106 6/5/6 5/4/5
f 139/111/14 140/6/106 5/4/5
f 138/7/13 2/2/2 4/3/4
f 139/111/14 138/7/13 141/112/101
f 139/111/14 10/9/10 138/7/13
f 140/6/106 4/3/4 142/113/105
f 140/6/106 139/111/14 141/112/101
f 8/7/8 3/3/3 2/2/2
f 137/111/12 5/4/5 7/6/7
f 137/111/12 8/7/8 10/9/10
f 137/111/12 143/112/20 8/7/8
f 7/6/7 143/112/20 137/111/12
f 7/6/7 142/113/105 3/3/3
f 101/84/93 144/114/116 102/84/94
f 101/84/93 145/86/117 98/82/90
f 146/115/118 98/82/90 100/82/92
f 147/87/119 101/84/93 98/82/90
f 99/83/91 104/86/96 100/82/92
f 145/86/117 101/84/93 103/85/95
f 103/85/95 104/86/96 99/83/91
f 103/85/95 102/84/94 104/86/96
f 145/86/117 99/83/91 98/82/90
f 145/86/117 103/85/95 99/83/91
f 144/114/116 105/87/97 102/84/94
f 147/87/119 98/82/90 146/115/118
f 146/115/118 105/87/97 144/114/116
f 146/115/118 100/82/92 105/87/97
f 147/87/119 144/114/116 101/84/93
f 147/87/119 146/115/118 144/114/116
f 36/33/28 30/27/22 33/30/25
f 36/33/28 31/28/23 30/27/22
f 42/39/34 127/102/9 43/40/35
f 42/39/34 126/101/110 127/102/9
f 41/38/33 123/98/6 46/43/38
f 41/38/33 45/42/37 123/98/6
f 128/103/111 37/34/29 36/33/28
f 130/105/112 34/31/26 132/107/114
f 132/107/114 37/34/29 130/105/112
f 132/107/114 131/106/113 37/34/29
f 131/106/113 38/35/30 37/34/29
f 131/106/113 133/108/115 134/109/6
f 134/109/6 38/35/30 131/106/113
f 134/109/6 31/28/23 38/35/30
f 130/105/112 129/104/9 35/32/27
f 130/105/112 37/34/29 128/103/111
f 129/104/9 128/103/111 33/30/25
f 129/104/9 130/105/112 128/103/111
f 121/96/5 11/10/11 18/11/14
f 121/96/5 12/11/12 11/10/11
f 5/4/5 136/110/11 139/111/14
f 5/4/5 137/111/12 136/110/11
f 116/93/105 14/13/1 16/15/3
f 116/93/105 118/15/4 14/13/1
f 142/113/105 1/1/1 3/3/3
f 142/113/105 4/3/4 1/1/1
f 18/11/14 119/95/101 120/94/106
f 18/11/14 17/16/13 119/95/101
f 16/15/3 135/95/20 117/94/7
f 16/15/3 19/16/8 135/95/20
f 4/3/4 141/112/101 138/7/13
f 4/3/4 140/6/106 141/112/101
f 142/113/105 6/5/6 140/6/106
f 142/113/105 7/6/7 6/5/6
f 3/3/3 143/112/20 7/6/7
f 3/3/3 8/7/8 143/112/20
f 121/96/5 115/92/6 117/94/7
f 121/96/5 120/94/106 115/92/6
f 13/12/10 20/17/9 17/16/13
f 13/12/10 19/16/8 20/17/9
f 2/2/2 9/8/9 8/7/8
f 2/2/2 138/7/13 9/8/9
f 44/41/36 122/97/107 47/44/39
f 44/41/36 125/100/109 122/97/107
f 124/99/108 39/36/31 41/38/33
f 124/99/108 42/39/34 39/36/31
# 238 triangles in group

# 238 triangles total

