# Wavefront OBJ exported by MilkShape 3D

mtllib Tent.mtl

v 11.395687 -8.899403 0.000000
v 7.491118 -3.594231 0.000000
v 2.338100 3.460949 0.000000
v 5.697843 -8.899403 10.467583
v 3.745558 -3.594231 6.783017
v 1.169048 3.460949 2.036980
v -5.697846 -8.899403 10.467583
v -3.745565 -3.594231 6.783017
v -1.169054 3.460949 2.036980
v -11.395687 -8.899403 0.000000
v -7.491125 -3.594231 0.000000
v -2.338102 3.460949 0.000000
v -5.697846 -8.899403 -10.467583
v -3.745565 -3.594231 -6.783017
v -1.169054 3.460949 -2.036980
v 5.697843 -8.899403 -10.467583
v 3.745558 -3.594231 -6.783017
v 1.169048 3.460949 -2.036980
v -0.000003 -8.899403 0.000000
v 2.338100 3.460949 0.000000
v -0.000003 7.016123 0.000000
v 1.169048 3.460949 2.036980
v -0.000003 7.016123 0.000000
v -1.169054 3.460949 2.036980
v -0.000003 7.016123 0.000000
v -2.338102 3.460949 0.000000
v -0.000003 7.016123 0.000000
v -1.169054 3.460949 -2.036980
v -0.000003 7.016123 0.000000
v 1.169048 3.460949 -2.036980
v -0.000003 7.016123 0.000000
v -0.000003 7.016123 0.000000
v -1.421542 8.663490 -0.576934
v -0.458354 6.592318 -0.043030
v -1.033480 8.899405 -0.361828
v -0.070295 6.828232 0.172075
v -0.790957 8.899405 -0.799349
v 0.172227 6.828232 -0.265447
v -1.179019 8.663490 -1.014456
v -0.215831 6.592318 -0.480552
v 1.304908 8.762230 -0.215660
v 0.225271 6.730751 0.242617
v 1.705499 8.510971 -0.385701
v 0.625863 6.479492 0.072578
v 1.510037 8.510971 -0.846177
v 0.430400 6.479492 -0.387899
v 1.109447 8.762230 -0.676136
v 0.029809 6.730751 -0.217858
v -0.085838 8.762230 1.203602
v -0.167656 6.730751 0.033584
v -0.055481 8.510971 1.637729
v -0.137300 6.479492 0.467710
v 0.443543 8.510971 1.602834
v 0.361728 6.479492 0.432815
v 0.413186 8.762230 1.168707
v 0.331371 6.730751 -0.001311
# 56 vertices

vt 0.987698 0.021810
vt 0.948293 0.021810
vt 0.908888 0.021810
vt 0.960695 0.087058
vt 0.934792 0.087058
vt 0.925058 0.173828
vt 0.916973 0.173828
vt 0.869483 0.021810
vt 0.882985 0.087058
vt 0.900803 0.173828
vt 0.830078 0.021810
vt 0.857081 0.087058
vt 0.892718 0.173828
vt 0.288501 0.951779
vt 0.336534 0.884444
vt 0.312518 0.884444
vt 0.264485 0.884444
vt 0.240468 0.884444
vt 0.057829 0.159127
vt 0.057829 0.100242
vt 0.113403 0.159127
vt 0.113403 0.100242
# 22 texture coordinates

vn 0.000000 -1.000000 0.000000
vn 0.805382 0.592756 0.000000
vn 0.804370 0.594128 -0.000000
vn 0.405259 0.616149 0.675371
vn 0.404729 0.612506 0.678993
vn 0.807538 0.589816 0.000000
vn 0.404948 0.604902 0.685647
vn -0.404714 0.611126 0.680244
vn -0.405504 0.617393 0.674087
vn -0.399927 0.607641 0.686172
vn -0.803452 0.595370 -0.000000
vn -0.806461 0.591287 -0.000000
vn -0.404714 0.611126 -0.680244
vn -0.405504 0.617393 -0.674087
vn -0.399927 0.607641 -0.686172
vn 0.405259 0.616149 -0.675371
vn 0.404729 0.612506 -0.678993
vn 0.404948 0.604902 -0.685647
vn 0.000000 0.000000 0.000000
vn 0.835506 0.549481 0.000000
vn 0.418350 0.551198 0.721917
vn -0.418351 0.551198 0.721917
vn -0.835507 0.549480 0.000000
vn -0.418351 0.551198 -0.721917
vn 0.418350 0.551198 -0.721917
vn -0.484809 0.000000 0.874620
vn 0.772243 0.469471 0.428063
vn 0.484811 0.000001 -0.874619
vn -0.772243 -0.469473 -0.428062
vn -0.410607 0.882949 -0.227604
vn 0.410609 -0.882947 0.227605
vn 0.390731 -0.000001 0.920505
vn 0.797180 -0.500000 -0.338384
vn -0.390732 0.000001 -0.920505
vn -0.797181 0.500000 0.338383
vn 0.460259 0.866022 -0.195368
vn -0.460257 -0.866022 0.195369
vn -0.997564 0.000001 0.069757
vn 0.060411 -0.500000 0.863916
vn 0.997564 0.000001 -0.069758
vn -0.060411 0.500000 -0.863916
vn 0.034878 0.866022 0.498787
vn -0.034878 -0.866022 -0.498788
# 43 normals

g Regroup01
usemtl Material01
s 2
f 1/1/1 4/2/1 19/3/1
s 1
f 1/1/2 2/4/3 4/2/4
f 2/4/3 5/5/5 4/2/4
f 2/4/3 3/6/6 6/7/7
f 2/4/3 6/7/7 5/5/5
s 2
f 4/2/1 7/8/1 19/3/1
s 1
f 4/2/4 5/5/5 8/9/8
f 4/2/4 8/9/8 7/8/9
f 5/5/5 6/7/7 8/9/8
f 6/7/7 9/10/10 8/9/8
s 2
f 7/8/1 10/11/1 19/3/1
s 1
f 7/8/9 8/9/8 10/11/11
f 8/9/8 11/12/12 10/11/11
f 8/9/8 9/10/10 12/13/11
f 8/9/8 12/13/11 11/12/12
s 2
f 10/11/1 13/8/1 19/3/1
s 1
f 10/11/11 11/12/12 14/9/13
f 10/11/11 14/9/13 13/8/14
f 11/12/12 12/13/11 14/9/13
f 12/13/11 15/10/15 14/9/13
s 2
f 13/8/1 16/2/1 19/3/1
s 1
f 13/8/14 14/9/13 16/2/16
f 14/9/13 17/5/17 16/2/16
f 14/9/13 15/10/15 18/7/18
f 14/9/13 18/7/18 17/5/17
s 2
f 16/2/1 1/1/1 19/3/1
s 1
f 16/2/16 17/5/17 2/4/3
f 16/2/16 2/4/3 1/1/2
f 17/5/17 18/7/18 2/4/3
f 18/7/18 3/6/6 2/4/3
s 2
f 21/14/19 32/14/19 23/14/19
s 1
f 20/15/20 21/14/20 22/16/21
f 21/14/20 23/14/19 22/16/21
s 2
f 23/14/19 32/14/19 25/14/19
s 1
f 22/16/21 23/14/19 25/14/22
f 22/16/21 25/14/22 24/17/22
s 2
f 25/14/19 32/14/19 27/14/19
s 1
f 24/17/22 25/14/22 26/18/23
f 25/14/22 27/14/19 26/18/23
s 2
f 27/14/19 32/14/19 29/14/19
s 1
f 26/18/23 27/14/19 29/14/24
f 26/18/23 29/14/24 28/17/24
s 2
f 29/14/19 32/14/19 31/14/19
s 1
f 28/17/24 29/14/24 30/16/25
f 29/14/24 31/14/19 30/16/25
s 2
f 31/14/19 32/14/19 21/14/19
s 1
f 30/16/25 31/14/19 21/14/20
f 30/16/25 21/14/20 20/15/20
f 33/19/26 34/20/26 35/21/26
f 34/20/26 36/22/26 35/21/26
s 2
f 35/21/27 36/22/27 37/21/27
f 36/22/27 38/22/27 37/21/27
s 1
f 37/21/28 38/22/28 39/19/28
f 38/22/28 40/20/28 39/19/28
s 2
f 39/19/29 40/20/29 33/19/29
f 40/20/29 34/20/29 33/19/29
s 3
f 39/19/30 33/19/30 37/21/30
f 33/19/30 35/21/30 37/21/30
f 34/20/31 40/20/31 36/22/31
f 40/20/31 38/22/31 36/22/31
s 1
f 41/19/32 42/20/32 43/21/32
f 42/20/32 44/22/32 43/21/32
s 2
f 43/21/33 44/22/33 45/21/33
f 44/22/33 46/22/33 45/21/33
s 1
f 45/21/34 46/22/34 47/19/34
f 46/22/34 48/20/34 47/19/34
s 2
f 47/19/35 48/20/35 41/19/35
f 48/20/35 42/20/35 41/19/35
s 3
f 47/19/36 41/19/36 45/21/36
f 41/19/36 43/21/36 45/21/36
f 42/20/37 48/20/37 44/22/37
f 48/20/37 46/22/37 44/22/37
s 1
f 49/19/38 50/20/38 51/21/38
f 50/20/38 52/22/38 51/21/38
s 2
f 51/21/39 52/22/39 53/21/39
f 52/22/39 54/22/39 53/21/39
s 1
f 53/21/40 54/22/40 55/19/40
f 54/22/40 56/20/40 55/19/40
s 2
f 55/19/41 56/20/41 49/19/41
f 56/20/41 50/20/41 49/19/41
s 3
f 55/19/42 49/19/42 53/21/42
f 49/19/42 51/21/42 53/21/42
f 50/20/43 56/20/43 52/22/43
f 56/20/43 54/22/43 52/22/43
# 84 triangles in group

# 84 triangles total

