# Wavefront OBJ exported by MilkShape 3D

mtllib Tomb.mtl

v -1.046943 0.469413 0.301520
v -1.046943 -1.312399 0.301520
v 1.047397 0.469413 0.301520
v 1.047397 -1.312399 0.301520
v 1.047397 0.469413 -0.301520
v 1.047397 -1.312399 -0.301520
v -1.046943 0.469413 -0.301520
v -1.046943 -1.312399 -0.301520
v 0.814917 0.905187 -0.301520
v 0.178686 1.312398 -0.301520
v 0.178686 0.905187 -0.301520
v 0.178686 0.469413 -0.301520
v -0.161258 1.312398 -0.301520
v -0.161258 0.469413 -0.301520
v -0.161258 0.905187 -0.301520
v -1.047377 0.469413 -0.301520
v -0.814897 0.905187 -0.301520
v -0.161258 1.312398 -0.301520
v -0.161258 0.905187 -0.301520
v -0.161258 0.469413 -0.301520
v 1.047397 0.469413 -0.301520
v 0.814917 0.905187 -0.301520
v 0.178686 1.312398 -0.301520
v 0.178686 0.469413 -0.301520
v -0.161258 1.312398 -0.301520
v -0.161258 0.469413 -0.301520
v -1.047377 0.469413 -0.301520
v -0.814897 0.905187 -0.301520
v -0.161258 1.312398 -0.301520
v -0.161258 0.469413 -0.301520
v 0.178677 0.905187 0.301520
v 0.814908 0.905187 0.301520
v 0.178677 1.312399 0.301520
v 1.047391 0.469413 0.301520
v 0.178677 0.469413 0.301520
v -0.161288 1.312399 0.301520
v -0.161288 0.905187 0.301520
v -0.161288 0.469413 0.301520
v -0.814914 0.905187 0.301520
v -1.047397 0.469413 0.301520
# 40 vertices

vt 0.853534 0.521180
vt 0.853534 0.450357
vt 0.936758 0.521180
vt 0.936758 0.450357
vt 0.902237 0.554688
vt 0.927520 0.538502
vt 0.902237 0.538502
vt 0.902237 0.521180
vt 0.888729 0.554688
vt 0.888729 0.538502
vt 0.888729 0.521180
vt 0.862755 0.538502
# 12 texture coordinates

vn 0.000000 0.000000 1.000000
vn 1.000000 0.000000 0.000000
vn 0.000000 0.000000 -1.000000
vn -1.000000 0.000000 0.000000
vn 0.000000 1.000000 0.000000
vn 0.000000 -1.000000 0.000000
vn 0.672891 0.739741 0.000010
vn 0.790696 0.612209 0.000010
vn 0.372686 0.927958 0.000005
vn 0.186343 0.982485 0.000002
vn 0.999449 -0.033195 0.000013
vn 0.499724 -0.866184 0.000005
vn -0.364998 0.931008 -0.000015
vn -0.528772 0.848764 -0.000027
vn -0.666769 0.745264 -0.000023
vn -0.788282 0.615314 -0.000024
vn -0.999449 -0.033195 -0.000031
vn -0.499724 -0.866184 -0.000016
# 18 normals

g Regroup00
usemtl Material01
s 1
f 1/1/1 2/2/1 3/3/1
f 2/2/1 4/4/1 3/3/1
s 2
f 3/3/2 4/4/2 5/3/2
f 4/4/2 6/4/2 5/3/2
s 1
f 5/3/3 6/4/3 7/1/3
f 6/4/3 8/2/3 7/1/3
s 2
f 7/1/4 8/2/4 1/1/4
f 8/2/4 2/2/4 1/1/4
s 3
f 7/1/5 1/1/5 5/3/5
f 1/1/5 3/3/5 5/3/5
f 2/2/6 8/2/6 4/4/6
f 8/2/6 6/4/6 4/4/6
s 1
f 10/5/3 9/6/3 11/7/3
f 9/6/3 5/3/3 11/7/3
f 11/7/3 5/3/3 12/8/3
f 13/9/3 10/5/3 11/7/3
f 13/9/3 11/7/3 15/10/3
f 15/10/3 11/7/3 12/8/3
f 15/10/3 12/8/3 14/11/3
f 19/10/3 17/12/3 18/9/3
f 19/10/3 16/1/3 17/12/3
f 20/11/3 16/1/3 19/10/3
f 31/7/1 32/6/1 33/5/1
f 31/7/1 34/3/1 32/6/1
f 35/8/1 34/3/1 31/7/1
f 31/7/1 33/5/1 36/9/1
f 37/10/1 31/7/1 36/9/1
f 35/8/1 31/7/1 37/10/1
f 38/11/1 35/8/1 37/10/1
f 36/9/1 39/12/1 37/10/1
f 39/12/1 40/1/1 37/10/1
f 37/10/1 40/1/1 38/11/1
s 2
f 32/6/7 22/6/8 23/5/9
f 32/6/7 23/5/9 33/5/10
f 34/3/11 21/3/12 22/6/8
f 34/3/11 22/6/8 32/6/7
f 35/8/6 24/8/6 21/3/12
f 35/8/6 21/3/12 34/3/11
f 33/5/10 23/5/9 25/9/5
f 33/5/10 25/9/5 36/9/13
f 38/11/6 26/11/6 24/8/6
f 38/11/6 24/8/6 35/8/6
f 36/9/13 29/9/14 28/12/15
f 36/9/13 28/12/15 39/12/16
f 39/12/16 28/12/15 27/1/17
f 39/12/16 27/1/17 40/1/18
f 40/1/18 27/1/17 30/11/6
f 40/1/18 30/11/6 38/11/6
# 48 triangles in group

# 48 triangles total

