# Wavefront OBJ exported by MilkShape 3D

mtllib Tree1.mtl

v 0.418415 19.853786 -0.242778
v 0.931278 15.487713 0.083829
v 0.854511 19.853786 -0.242778
v 1.505016 15.487713 0.083829
v 0.854511 19.853786 -0.242778
v 1.505016 15.487713 0.083829
v 0.854511 19.853786 -0.714375
v 1.505016 15.487713 -1.040983
v 0.854511 19.853786 -0.714375
v 1.505016 15.487713 -1.040983
v 0.418415 19.853786 -0.714375
v 0.931278 15.487713 -1.040983
v 0.418415 19.853786 -0.714375
v 0.931278 15.487713 -1.040983
v 0.418415 19.853786 -0.242778
v 0.931278 15.487713 0.083829
v 0.931278 15.487713 0.083829
v 0.931278 15.487713 -1.040983
v 1.505016 15.487713 0.083829
v 1.505016 15.487713 -1.040983
v 0.931278 15.487713 0.083829
v -0.259258 10.576180 0.281143
v 1.505016 15.487713 0.083829
v 0.642574 10.576180 0.281143
v 1.505016 15.487713 0.083829
v 0.642574 10.576180 0.281143
v 1.505016 15.487713 -1.040983
v 0.642574 10.576180 -1.238306
v 1.505016 15.487713 -1.040983
v 0.642574 10.576180 -1.238306
v 0.931278 15.487713 -1.040983
v -0.259258 10.576180 -1.238306
v 0.931278 15.487713 -1.040983
v -0.259258 10.576180 -1.238306
v 0.931278 15.487713 0.083829
v -0.259258 10.576180 0.281143
v 0.931278 15.487713 -1.040983
v 0.931278 15.487713 0.083829
v 1.505016 15.487713 -1.040983
v 1.505016 15.487713 0.083829
v -0.259258 10.576180 0.281143
v -0.259258 10.576180 -1.238306
v 0.642574 10.576180 0.281143
v 0.642574 10.576180 -1.238306
v -0.259258 10.576180 0.281143
v -0.315945 6.289619 0.852059
v 0.642574 10.576180 0.281143
v 1.588879 6.289619 0.852059
v 0.642574 10.576180 0.281143
v 1.588879 6.289619 0.852059
v 0.642574 10.576180 -1.238306
v 1.588879 6.289619 -1.809230
v 0.642574 10.576180 -1.238306
v 1.588879 6.289619 -1.809230
v -0.259258 10.576180 -1.238306
v -0.315945 6.289619 -1.809230
v -0.259258 10.576180 -1.238306
v -0.315945 6.289619 -1.809230
v -0.259258 10.576180 0.281143
v -0.315945 6.289619 0.852059
v -0.259258 10.576180 -1.238306
v -0.259258 10.576180 0.281143
v 0.642574 10.576180 -1.238306
v 0.642574 10.576180 0.281143
v -0.315945 6.289619 0.852059
v -0.315945 6.289619 -1.809230
v 1.588879 6.289619 0.852059
v 1.588879 6.289619 -1.809230
v 2.172024 27.182590 6.238304
v 0.395687 31.108364 -0.627345
v 7.053558 25.992615 -3.676942
v -5.851597 21.888363 -4.123224
v 0.418415 19.853786 -0.714375
v 0.418415 19.853786 -0.242778
v 0.854511 19.853786 -0.714375
v 0.854511 19.853786 -0.242778
v -5.760357 25.887207 3.463578
v -1.106922 20.620079 5.468681
v -1.517521 27.182590 -7.195472
v 2.445759 20.541023 -5.830806
v 4.091053 19.305820 1.675281
v -5.486622 25.887207 -3.974464
v 5.867386 25.887207 3.761098
v 0.669415 18.248352 -0.255443
v 3.130085 27.182590 -6.897951
v 2.445759 20.620079 5.468681
v 0.669415 24.414845 -7.619103
v 4.364788 29.418446 -2.186167
v -2.569729 29.945496 -2.186167
# 89 vertices

vt 0.903829 0.954823
vt 0.922567 0.814685
vt 0.919762 0.954823
vt 0.943528 0.814685
vt 0.879070 0.657039
vt 0.912019 0.657039
vt 0.876999 0.519453
vt 0.946592 0.519453
vt 0.125749 0.262922
vt 0.136645 0.189387
vt 0.145247 0.281354
vt 0.098952 0.330097
vt 0.116795 0.321180
vt 0.123764 0.215177
vt 0.111833 0.307986
vt 0.052325 0.193065
vt 0.054311 0.285033
vt 0.051664 0.286872
vt 0.097131 0.244724
vt 0.097131 0.238893
vt 0.100294 0.244724
vt 0.100294 0.238893
vt 0.086070 0.168273
vt 0.109848 0.158757
vt 0.096967 0.243647
vt 0.075463 0.262922
vt 0.098952 0.239049
vt 0.083093 0.324859
vt 0.111833 0.168273
# 29 texture coordinates

vn 0.000000 0.074597 0.997214
vn 0.989082 0.147364 0.000000
vn 0.000000 0.074597 -0.997214
vn -0.993172 -0.116663 0.000000
vn 0.000000 -1.000000 0.000000
vn 0.000000 0.040141 0.999194
vn 0.984931 -0.172949 0.000000
vn 0.000000 0.040143 -0.999194
vn -0.971856 0.235574 0.000000
vn 0.000000 1.000000 0.000000
vn 0.000000 0.132022 0.991247
vn 0.976488 0.215570 0.000000
vn 0.000000 0.132023 -0.991247
vn -0.999913 0.013223 0.000000
vn 0.569048 0.821940 -0.024477
vn 0.869985 0.150654 0.469500
vn 0.898661 -0.009597 -0.438539
vn 0.113064 -0.204331 -0.972350
vn 0.339382 0.547188 -0.765118
vn 0.700251 -0.705141 0.111466
vn 0.304330 -0.715625 -0.628700
vn -0.808542 0.389235 0.441312
vn -0.845351 0.392380 -0.362519
vn -0.720569 -0.515293 -0.463954
vn -0.413893 -0.588233 0.694748
vn 0.186465 0.483720 0.855129
vn -0.035722 0.997669 -0.058144
vn -0.549035 0.813305 -0.192602
vn -0.066273 -0.996319 0.054379
vn -0.322143 0.485145 -0.812932
vn 0.343481 -0.582691 0.736541
# 31 normals

g Regroup11
usemtl Material01
s 1
f 1/1/1 2/2/1 3/3/1
f 2/2/1 4/4/1 3/3/1
f 5/3/2 6/4/2 7/3/2
f 6/4/2 8/4/2 7/3/2
f 9/3/3 10/4/3 11/1/3
f 10/4/3 12/2/3 11/1/3
f 13/1/4 14/2/4 15/1/4
f 14/2/4 16/2/4 15/1/4
f 17/2/5 18/2/5 19/4/5
f 18/2/5 20/4/5 19/4/5
f 21/2/6 22/5/6 23/4/6
f 22/5/6 24/6/6 23/4/6
f 25/4/7 26/6/7 27/4/7
f 26/6/7 28/6/7 27/4/7
f 29/4/8 30/6/8 31/2/8
f 30/6/8 32/5/8 31/2/8
f 33/2/9 34/5/9 35/2/9
f 34/5/9 36/5/9 35/2/9
f 37/2/10 38/2/10 39/4/10
f 38/2/10 40/4/10 39/4/10
f 41/5/5 42/5/5 43/6/5
f 42/5/5 44/6/5 43/6/5
f 45/5/11 46/7/11 47/6/11
f 46/7/11 48/8/11 47/6/11
f 49/6/12 50/8/12 51/6/12
f 50/8/12 52/8/12 51/6/12
f 53/6/13 54/8/13 55/5/13
f 54/8/13 56/7/13 55/5/13
f 57/5/14 58/7/14 59/5/14
f 58/7/14 60/7/14 59/5/14
f 61/5/10 62/5/10 63/6/10
f 62/5/10 64/6/10 63/6/10
f 65/7/5 66/7/5 67/8/5
f 66/7/5 68/8/5 67/8/5
f 88/9/15 83/10/16 71/11/17
f 71/11/17 87/12/18 85/13/19
f 71/11/17 81/14/20 80/15/21
f 77/16/22 82/17/23 72/18/24
f 73/19/10 74/20/10 75/21/10
f 74/20/10 76/22/10 75/21/10
f 78/23/25 77/16/22 72/18/24
f 69/24/26 70/25/27 77/16/22
f 83/10/16 81/14/20 71/11/17
f 69/24/26 77/16/22 78/23/25
f 89/26/28 82/17/23 77/16/22
f 88/9/15 71/11/17 85/13/19
f 72/18/24 80/15/21 84/27/29
f 72/18/24 79/28/30 87/12/18
f 86/29/31 81/14/20 83/10/16
f 78/23/25 72/18/24 84/27/29
f 79/28/30 82/17/23 89/26/28
f 79/28/30 72/18/24 82/17/23
f 69/24/26 83/10/16 88/9/15
f 69/24/26 86/29/31 83/10/16
f 81/14/20 84/27/29 80/15/21
f 81/14/20 86/29/31 84/27/29
f 79/28/30 85/13/19 87/12/18
f 79/28/30 70/25/27 85/13/19
f 78/23/25 86/29/31 69/24/26
f 78/23/25 84/27/29 86/29/31
f 80/15/21 87/12/18 71/11/17
f 80/15/21 72/18/24 87/12/18
f 70/25/27 88/9/15 85/13/19
f 70/25/27 69/24/26 88/9/15
f 70/25/27 89/26/28 77/16/22
f 70/25/27 79/28/30 89/26/28
# 66 triangles in group

# 66 triangles total

