# Wavefront OBJ exported by MilkShape 3D

v 0.888948 7.935937 -11.203703
v 1.288097 5.155737 -11.413091
v 1.154411 7.935937 -11.203703
v 1.637347 5.155737 -11.413091
v 1.154411 7.935937 -11.203703
v 1.637347 5.155737 -11.413091
v 1.154411 7.935937 -11.502572
v 1.637347 5.155737 -11.768497
v 1.154411 7.935937 -11.502572
v 1.637347 5.155737 -11.768497
v 0.888948 7.935937 -11.502572
v 1.288097 5.155737 -11.768497
v 0.888948 7.935937 -11.502572
v 1.288097 5.155737 -11.768497
v 0.888948 7.935937 -11.203703
v 1.288097 5.155737 -11.413091
v 1.288097 5.155737 -11.413091
v 1.288097 5.155737 -11.768497
v 1.637347 5.155737 -11.413091
v 1.637347 5.155737 -11.768497
v 1.288097 5.155737 -11.413091
v 0.215564 3.370711 -10.875439
v 1.637347 5.155737 -11.413091
v 0.764530 3.370711 -10.875439
v 1.637347 5.155737 -11.413091
v 0.764530 3.370711 -10.875439
v 1.637347 5.155737 -11.768497
v 0.764530 3.370711 -11.355539
v 1.637347 5.155737 -11.768497
v 0.764530 3.370711 -11.355539
v 1.288097 5.155737 -11.768497
v 0.215564 3.370711 -11.355539
v 1.288097 5.155737 -11.768497
v 0.215564 3.370711 -11.355539
v 1.288097 5.155737 -11.413091
v 0.215564 3.370711 -10.875439
v 1.288097 5.155737 -11.768497
v 1.288097 5.155737 -11.413091
v 1.637347 5.155737 -11.768497
v 1.637347 5.155737 -11.413091
v 0.215564 3.370711 -10.875439
v 0.215564 3.370711 -11.355539
v 0.764530 3.370711 -10.875439
v 0.764530 3.370711 -11.355539
v 0.215564 3.370711 -10.875439
v 0.441928 1.556330 -10.853488
v 0.764530 3.370711 -10.875439
v 1.601439 1.556330 -10.853488
v 0.764530 3.370711 -10.875439
v 1.601439 1.556330 -10.853488
v 0.764530 3.370711 -11.355539
v 1.601439 1.556330 -11.694365
v 0.764530 3.370711 -11.355539
v 1.601439 1.556330 -11.694365
v 0.215564 3.370711 -11.355539
v 0.441928 1.556330 -11.694365
v 0.215564 3.370711 -11.355539
v 0.441928 1.556330 -11.694365
v 0.215564 3.370711 -10.875439
v 0.441928 1.556330 -10.853488
v 0.215564 3.370711 -11.355539
v 0.215564 3.370711 -10.875439
v 0.764530 3.370711 -11.355539
v 0.764530 3.370711 -10.875439
v 0.441928 1.556330 -10.853488
v 0.441928 1.556330 -11.694365
v 1.601439 1.556330 -10.853488
v 1.601439 1.556330 -11.694365
v 0.200835 11.115934 -8.750008
v 2.798381 12.146185 -12.141650
v -1.250171 10.083502 -12.778374
v 1.867196 8.560419 -13.587091
v 2.326483 7.992451 -10.543375
v -0.272766 8.113878 -10.543375
v 0.858266 11.162774 -13.894526
v 1.236803 12.961630 -11.592386
v 3.098919 8.956352 -12.772964
v -1.024689 10.032904 -10.291938
v 2.904997 11.670609 -10.885866
v 1.043959 7.586394 -11.223690
v -0.883265 9.077789 -12.982632
v 0.862744 10.053141 -13.357046
v 3.215324 10.659000 -12.508507
v 1.043959 7.967242 -10.066276
v 0.291969 10.053141 -8.596430
v 2.762339 10.113863 -10.748384
v 3.201521 9.523033 -10.519008
v 2.226804 8.590777 -9.602819
v 0.125287 12.348586 -12.141650
v -0.272766 8.113878 -11.903996
v 0.884378 11.115934 -8.750008
v 2.326483 7.992451 -11.903996
v 3.793188 7.815116 -11.203703
v 1.137023 6.680006 -11.316219
v 3.879615 7.564117 -11.203703
v 1.254067 6.349783 -11.316219
v 3.879615 7.564117 -11.203703
v 1.254067 6.349783 -11.316219
v 3.879614 7.564117 -11.378485
v 1.254067 6.349783 -11.443273
v 3.879614 7.564117 -11.378485
v 1.254067 6.349783 -11.443273
v 3.793187 7.815116 -11.378485
v 1.137023 6.680006 -11.443273
v 3.793187 7.815116 -11.378485
v 1.137023 6.680006 -11.443273
v 3.793188 7.815116 -11.203703
v 1.137023 6.680006 -11.316219
v -0.840222 7.478333 -13.348713
v 1.130864 7.207376 -11.435536
v -0.957626 7.541665 -13.257457
v 0.976410 7.290699 -11.315474
v -0.957626 7.541665 -13.257457
v 0.976410 7.290699 -11.315474
v -0.842624 7.719419 -13.243785
v 1.113164 7.502079 -11.299218
v -0.842624 7.719419 -13.243785
v 1.113164 7.502079 -11.299218
v -0.725222 7.656085 -13.335042
v 1.267619 7.418757 -11.419279
v -0.725222 7.656085 -13.335042
v 1.267619 7.418757 -11.419279
v -0.840222 7.478333 -13.348713
v 1.130864 7.207376 -11.435536
v 3.703359 8.683195 -10.360704
v 5.524225 8.233645 -11.130569
v 4.194956 8.798345 -12.402273
v 4.832003 7.437653 -12.449010
v 3.980208 7.134938 -11.230468
v 3.359575 7.927702 -11.649088
v 5.283817 8.505762 -12.325361
v 5.178252 8.930878 -11.040359
v -0.013811 8.624445 -15.749361
v -2.015074 8.728802 -13.878082
v 0.480556 8.423223 -12.874084
v -0.722946 7.376882 -12.566945
v -0.401699 7.309517 -15.222640
v 0.843315 7.455947 -14.301793
v -1.453888 8.468477 -12.613744
v -1.408780 9.273604 -14.130373
v 0.700257 8.352167 -14.526429
v -1.337549 7.368777 -13.262619
v 3.016392 5.733771 -10.032766
v 1.405900 5.555201 -11.405731
v 3.099059 5.772945 -10.073989
v 1.573835 5.638525 -11.506071
v 3.099059 5.772945 -10.073989
v 1.573835 5.638525 -11.506071
v 3.026218 5.882894 -10.088896
v 1.440081 5.849904 -11.538872
v 3.026218 5.882894 -10.088896
v 1.440081 5.849904 -11.538872
v 2.943552 5.843718 -10.047673
v 1.272147 5.766582 -11.438530
v 2.943552 5.843718 -10.047673
v 1.272147 5.766582 -11.438530
v 3.016392 5.733771 -10.032766
v 1.405900 5.555201 -11.405731
v 2.295730 6.442687 -8.799462
v 3.729778 6.507238 -9.671432
v 2.204888 6.318224 -10.374355
v 3.002710 5.671020 -10.459838
v 2.586626 5.629352 -9.056452
v 1.859037 5.719923 -9.632410
# 164 vertices

vt 0.879283 0.998822
vt 0.898774 0.786651
vt 0.895857 0.998822
vt 0.920579 0.786651
vt 0.853529 0.650426
vt 0.887802 0.650426
vt 0.851374 0.511961
vt 0.923766 0.511961
vt 0.097346 0.385005
vt 0.156083 0.285133
vt 0.168706 0.306035
vt 0.080201 0.083143
vt 0.138778 0.140483
vt 0.168288 0.192683
vt 0.063104 0.194071
vt 0.040340 0.179745
vt 0.044621 0.333049
vt 0.075155 0.285133
vt 0.033513 0.321411
vt 0.127891 0.367488
vt 0.102968 0.232832
vt 0.063104 0.271593
vt 0.165181 0.321103
vt 0.141796 0.271593
vt 0.102968 0.166888
vt 0.097482 0.354381
vt 0.159310 0.213585
vt 0.108806 0.253839
vt 0.098136 0.091893
vt 0.077442 0.091893
vt 0.141796 0.194071
vt 0.154991 0.205752
vt 0.125781 0.379309
# 33 texture coordinates

vn 0.000000 -0.075101 0.997176
vn 0.985246 0.171143 0.000000
vn 0.000000 0.095215 -0.995457
vn -0.989851 -0.142111 0.000000
vn 0.000000 -1.000000 0.000000
vn 0.000000 0.288403 0.957509
vn 0.898357 -0.439266 0.000000
vn 0.000000 -0.225393 -0.974268
vn -0.857171 0.515031 0.000000
vn 0.000000 1.000000 0.000000
vn 0.000000 0.012097 0.999927
vn 0.908054 0.418853 0.000000
vn 0.000000 0.183571 -0.983006
vn -0.992307 -0.123801 0.000000
vn 0.027875 0.348799 -0.936783
vn 0.666265 0.663574 -0.340237
vn 0.893196 0.035333 -0.448278
vn 0.053791 -0.086824 0.994770
vn 0.459643 -0.486287 0.743138
vn 0.930759 -0.036118 0.363846
vn -0.636325 -0.709586 0.302619
vn -0.896966 0.039336 0.440345
vn -0.801350 -0.487935 -0.346061
vn -0.649043 0.735720 -0.193546
vn -0.686367 0.077671 -0.723096
vn 0.030939 -0.541525 -0.840115
vn -0.032386 -0.999119 -0.026709
vn -0.443164 -0.856601 -0.264274
vn 0.883057 -0.082071 -0.462033
vn 0.569835 -0.809887 -0.139182
vn -0.161583 -0.762382 0.626630
vn 0.136250 -0.072138 -0.988045
vn 0.819427 0.408607 0.401969
vn -0.080385 0.987248 0.137404
vn 0.414724 0.356685 0.837126
vn -0.479216 0.512140 0.712787
vn 0.514504 -0.813006 0.272593
vn 0.887969 0.139698 0.438172
vn -0.036899 -0.012705 0.999238
vn 0.419783 -0.907625 -0.000002
vn 0.021281 0.007328 -0.999747
vn -0.392970 0.919551 0.000003
vn -0.331617 -0.919414 0.211441
vn -0.637384 0.359969 0.681295
vn 0.323326 0.919785 -0.222389
vn 0.626583 -0.351897 -0.695386
vn 0.840456 -0.295728 0.454070
vn -0.431272 0.341232 0.835204
vn -0.194796 -0.904372 0.379693
vn 0.740038 0.378626 -0.555865
vn 0.164042 -0.624235 -0.763819
vn -0.901155 -0.233092 -0.365497
vn -0.317907 0.691248 -0.648930
vn 0.488560 0.849779 0.197950
vn -0.956909 0.058373 -0.284462
vn -0.223728 -0.851513 -0.474206
vn -0.708462 -0.681143 0.184734
vn 0.273882 0.525023 -0.805816
vn -0.215353 0.975028 0.054249
vn 0.621021 0.597200 0.507628
vn -0.533359 0.299616 0.791049
vn 0.857695 -0.495582 -0.136963
vn 0.045345 -0.793082 0.607425
vn 0.877362 0.455682 -0.150298
vn 0.311895 -0.917580 -0.246513
vn 0.310999 -0.918217 -0.245269
vn 0.310102 -0.918852 -0.244024
vn 0.632376 0.323518 -0.703872
vn 0.636836 0.309705 -0.706061
vn 0.641159 0.295826 -0.708098
vn -0.286451 0.912324 0.292593
vn -0.284201 0.913750 0.290330
vn -0.281947 0.915164 0.288064
vn -0.602277 -0.298634 0.740324
vn -0.604983 -0.283567 0.744033
vn -0.607539 -0.268431 0.747557
vn 0.898614 0.429751 0.088364
vn 0.177780 -0.792033 0.584019
vn 0.167160 -0.781730 -0.600796
vn -0.499842 0.485063 0.717546
vn -0.474559 0.603448 -0.640816
vn -0.815108 -0.579154 -0.013448
# 82 normals

g Duplicate08
s 1
f 1/1/1 2/2/1 3/3/1
f 2/2/1 4/4/1 3/3/1
f 5/3/2 6/4/2 7/3/2
f 6/4/2 8/4/2 7/3/2
f 9/3/3 10/4/3 11/1/3
f 10/4/3 12/2/3 11/1/3
f 13/1/4 14/2/4 15/1/4
f 14/2/4 16/2/4 15/1/4
f 17/2/5 18/2/5 19/4/5
f 18/2/5 20/4/5 19/4/5
f 21/2/6 22/5/6 23/4/6
f 22/5/6 24/6/6 23/4/6
f 25/4/7 26/6/7 27/4/7
f 26/6/7 28/6/7 27/4/7
f 29/4/8 30/6/8 31/2/8
f 30/6/8 32/5/8 31/2/8
f 33/2/9 34/5/9 35/2/9
f 34/5/9 36/5/9 35/2/9
f 37/2/10 38/2/10 39/4/10
f 38/2/10 40/4/10 39/4/10
f 41/5/5 42/5/5 43/6/5
f 42/5/5 44/6/5 43/6/5
f 45/5/11 46/7/11 47/6/11
f 46/7/11 48/8/11 47/6/11
f 49/6/12 50/8/12 51/6/12
f 50/8/12 52/8/12 51/6/12
f 53/6/13 54/8/13 55/5/13
f 54/8/13 56/7/13 55/5/13
f 57/5/14 58/7/14 59/5/14
f 58/7/14 60/7/14 59/5/14
f 61/5/10 62/5/10 63/6/10
f 62/5/10 64/6/10 63/6/10
f 65/7/5 66/7/5 67/8/5
f 66/7/5 68/8/5 67/8/5
# 34 triangles in group

g Leaves2
f 75/9/15 70/10/16 83/11/17
f 85/12/18 88/13/19 87/14/20
f 74/15/21 78/16/22 81/17/23
f 78/16/22 89/18/24 71/19/25
f 72/20/26 80/21/27 90/22/28
f 77/23/29 87/14/20 92/24/30
f 92/24/30 80/21/27 72/20/26
f 88/13/19 85/12/18 84/25/31
f 71/19/25 82/26/32 72/20/26
f 71/19/25 89/18/24 75/9/15
f 79/27/33 76/28/34 91/29/35
f 70/10/16 75/9/15 76/28/34
f 72/20/26 77/23/29 92/24/30
f 72/20/26 82/26/32 77/23/29
f 85/12/18 78/16/22 84/25/31
f 69/30/36 76/28/34 78/16/22
f 70/10/16 79/27/33 83/11/17
f 70/10/16 76/28/34 79/27/33
f 84/25/31 80/21/27 73/31/37
f 74/15/21 90/22/28 80/21/27
f 71/19/25 81/17/23 78/16/22
f 71/19/25 72/20/26 81/17/23
f 75/9/15 82/26/32 71/19/25
f 75/9/15 83/11/17 82/26/32
f 77/23/29 83/11/17 86/32/38
f 77/23/29 82/26/32 83/11/17
f 74/15/21 84/25/31 78/16/22
f 74/15/21 80/21/27 84/25/31
f 91/29/35 85/12/18 86/32/38
f 69/30/36 78/16/22 85/12/18
f 79/27/33 86/32/38 83/11/17
f 79/27/33 91/29/35 86/32/38
f 86/32/38 87/14/20 77/23/29
f 86/32/38 85/12/18 87/14/20
f 73/31/37 88/13/19 84/25/31
f 73/31/37 87/14/20 88/13/19
f 76/28/34 89/18/24 78/16/22
f 76/28/34 75/9/15 89/18/24
f 81/17/23 90/22/28 74/15/21
f 81/17/23 72/20/26 90/22/28
f 69/30/36 91/29/35 76/28/34
f 69/30/36 85/12/18 91/29/35
f 73/31/37 92/24/30 87/14/20
f 73/31/37 80/21/27 92/24/30
# 44 triangles in group

g Duplicate31
f 93/1/39 94/2/39 95/3/39
f 94/2/39 96/4/39 95/3/39
f 97/3/40 98/4/40 99/3/40
f 98/4/40 100/4/40 99/3/40
f 101/3/41 102/4/41 103/1/41
f 102/4/41 104/2/41 103/1/41
f 105/1/42 106/2/42 107/1/42
f 106/2/42 108/2/42 107/1/42
# 8 triangles in group

g Duplicate32
f 109/1/43 110/2/43 111/3/43
f 110/2/43 112/4/43 111/3/43
f 113/3/44 114/4/44 115/3/44
f 114/4/44 116/4/44 115/3/44
f 117/3/45 118/4/45 119/1/45
f 118/4/45 120/2/45 119/1/45
f 121/1/46 122/2/46 123/1/46
f 122/2/46 124/2/46 123/1/46
# 8 triangles in group

g Duplicate34
f 126/10/47 125/30/48 129/31/49
f 131/9/50 126/10/47 128/20/51
f 130/15/52 125/30/48 127/19/53
f 125/30/48 132/28/54 127/19/53
f 128/20/51 130/15/52 127/19/53
f 128/20/51 126/10/47 129/31/49
f 129/31/49 130/15/52 128/20/51
f 129/31/49 125/30/48 130/15/52
f 127/19/53 131/9/50 128/20/51
f 127/19/53 132/28/54 131/9/50
f 126/10/47 132/28/54 125/30/48
f 126/10/47 131/9/50 132/28/54
# 12 triangles in group

g Duplicate35
f 134/10/55 137/13/56 142/23/57
f 133/30/58 140/28/59 135/19/60
f 135/19/60 140/28/59 139/33/61
f 138/15/62 135/19/60 136/20/63
f 133/30/58 137/13/56 134/10/55
f 133/30/58 135/19/60 141/16/64
f 137/13/56 138/15/62 136/20/63
f 137/13/56 133/30/58 138/15/62
f 142/23/57 139/33/61 134/10/55
f 136/20/63 135/19/60 139/33/61
f 134/10/55 140/28/59 133/30/58
f 134/10/55 139/33/61 140/28/59
f 138/15/62 141/16/64 135/19/60
f 138/15/62 133/30/58 141/16/64
f 136/20/63 142/23/57 137/13/56
f 136/20/63 139/33/61 142/23/57
# 16 triangles in group

g Duplicate36
f 143/1/65 144/2/66 145/3/66
f 144/2/66 146/4/67 145/3/66
f 147/3/68 148/4/69 149/3/69
f 148/4/69 150/4/70 149/3/69
f 151/3/71 152/4/72 153/1/72
f 152/4/72 154/2/73 153/1/72
f 155/1/74 156/2/75 157/1/75
f 156/2/75 158/2/76 157/1/75
f 160/10/77 163/13/78 162/20/79
f 159/30/80 160/10/77 161/19/81
f 161/19/81 160/10/77 162/20/79
f 164/15/82 161/19/81 162/20/79
f 159/30/80 163/13/78 160/10/77
f 159/30/80 161/19/81 164/15/82
f 163/13/78 164/15/82 162/20/79
f 163/13/78 159/30/80 164/15/82
# 16 triangles in group

# 138 triangles total

