# Wavefront OBJ exported by MilkShape 3D

mtllib Turtle head.mtl

v -19.166668 7.783412 -24.541668
v -16.784784 3.916746 -27.966669
v -8.166666 7.783412 -24.541668
v -8.166666 3.916746 -27.966669
v -8.166666 13.050080 -60.104176
v -8.166666 7.583414 -60.304180
v -19.166668 13.050080 -60.104176
v -16.500000 7.583414 -60.304180
v -8.166667 7.783412 -24.541668
v -8.166667 3.916746 -27.966669
v 4.101651 7.783412 -24.541668
v 1.184785 3.916746 -27.966669
v 3.971617 13.050080 -60.104176
v 1.166667 7.583414 -60.304180
v -8.166667 13.050080 -60.104176
v -8.166667 7.583414 -60.304180
v 3.971617 7.088343 -52.341862
v -8.332358 7.088343 -49.144169
v -20.570509 7.088343 -52.341862
v -20.570509 7.088343 -67.781662
v -8.332358 7.088343 -70.979355
v 3.971617 7.088343 -67.781662
v 4.101651 23.930647 -49.344166
v -8.332358 23.930647 -44.821949
v -20.570509 23.930647 -49.344166
v -20.570509 23.930647 -71.179359
v -8.332358 23.930647 -75.701576
v 3.971617 23.930647 -71.179359
v 3.971617 34.819168 -60.351303
v 0.290234 34.819168 -52.541862
v -8.332358 34.819168 -49.344166
v -16.954958 34.819168 -52.541862
v -20.570509 34.819168 -60.356941
v -16.954958 34.819168 -67.981667
v -8.332358 34.819168 -71.179359
v 0.290234 34.819168 -67.981667
v -8.468672 34.819168 -60.356941
v 3.971617 20.063978 -60.351303
v -20.570509 20.122292 -60.345680
v -1.416667 19.750076 -24.400000
v 0.000000 15.583411 -25.816666
v 1.416667 19.750076 -24.400000
v 0.000000 15.583411 -25.816666
v 1.416667 19.750076 -27.233334
v 0.000000 15.583411 -25.816666
v -1.416667 19.750076 -27.233334
v 0.000000 15.583411 -25.816666
v -1.416667 19.750076 -31.000000
v 0.000000 15.583411 -32.416668
v 1.416667 19.750076 -31.000000
v 0.000000 15.583411 -32.416668
v 1.416667 19.750076 -33.833332
v 0.000000 15.583411 -32.416668
v -1.416667 19.750076 -33.833332
v 0.000000 15.583411 -32.416668
v -1.416667 19.750076 -37.600002
v 0.000000 15.583411 -39.016666
v 1.416667 19.750076 -37.600002
v 0.000000 15.583411 -39.016666
v 1.416667 19.750076 -40.433331
v 0.000000 15.583411 -39.016666
v -1.416667 19.750076 -40.433331
v 0.000000 15.583411 -39.016666
v -1.416667 7.759151 -25.812080
v 0.000000 12.033436 -26.860197
v 1.416667 7.759151 -25.812080
v 0.000000 12.033436 -26.860197
v 1.416667 8.006093 -28.634626
v 0.000000 12.033436 -26.860197
v -1.416667 8.006093 -28.634626
v 0.000000 12.033436 -26.860197
v -1.416667 8.334378 -32.386967
v 0.000000 12.608663 -33.435093
v 1.416667 8.334378 -32.386967
v 0.000000 12.608663 -33.435093
v 1.416667 8.581322 -35.209522
v 0.000000 12.608663 -33.435093
v -1.416667 8.581322 -35.209522
v 0.000000 12.608663 -33.435093
v -1.416667 8.909607 -38.961857
v 0.000000 13.183892 -40.009983
v 1.416667 8.909607 -38.961857
v 0.000000 13.183892 -40.009983
v 1.416667 9.156549 -41.784405
v 0.000000 13.183892 -40.009983
v -1.416667 9.156549 -41.784405
v 0.000000 13.183892 -40.009983
v -18.166668 19.750080 -24.400000
v -16.750000 15.583415 -25.816666
v -15.333333 19.750080 -24.400000
v -16.750000 15.583415 -25.816666
v -15.333333 19.750080 -27.233334
v -16.750000 15.583415 -25.816666
v -18.166668 19.750080 -27.233334
v -16.750000 15.583415 -25.816666
v -18.166668 19.750080 -31.000000
v -16.750000 15.583415 -32.416668
v -15.333333 19.750080 -31.000000
v -16.750000 15.583415 -32.416668
v -15.333333 19.750080 -33.833332
v -16.750000 15.583415 -32.416668
v -18.166668 19.750080 -33.833332
v -16.750000 15.583415 -32.416668
v -18.166668 19.750080 -37.600002
v -16.750000 15.583415 -39.016666
v -15.333333 19.750080 -37.600002
v -16.750000 15.583415 -39.016666
v -15.333333 19.750080 -40.433331
v -16.750000 15.583415 -39.016666
v -18.166668 19.750080 -40.433331
v -16.750000 15.583415 -39.016666
v -18.166668 7.759151 -25.812080
v -16.750000 12.033436 -26.860197
v -15.333333 7.759151 -25.812080
v -16.750000 12.033436 -26.860197
v -15.333333 8.006093 -28.634626
v -16.750000 12.033436 -26.860197
v -18.166668 8.006093 -28.634626
v -16.750000 12.033436 -26.860197
v -18.166668 8.334378 -32.386967
v -16.750000 12.608663 -33.435093
v -15.333333 8.334378 -32.386967
v -16.750000 12.608663 -33.435093
v -15.333333 8.581322 -35.209522
v -16.750000 12.608663 -33.435093
v -18.166668 8.581322 -35.209522
v -16.750000 12.608663 -33.435093
v -18.166668 8.909607 -38.961857
v -16.750000 13.183892 -40.009983
v -15.333333 8.909607 -38.961857
v -16.750000 13.183892 -40.009983
v -15.333333 9.156549 -41.784405
v -16.750000 13.183892 -40.009983
v -18.166668 9.156549 -41.784405
v -16.750000 13.183892 -40.009983
v -17.166666 24.983660 -22.854168
v -20.500000 19.750078 -21.166668
v -8.166666 24.983660 -22.854168
v -8.166666 19.750078 -21.166668
v -8.166666 24.983660 -59.504177
v -8.166666 19.750078 -62.104176
v -17.166666 24.983660 -59.504177
v -20.570509 19.750078 -62.104176
v -8.166667 24.983660 -22.854168
v -8.166667 19.750078 -21.166668
v 0.833333 24.983660 -22.854168
v 4.101651 19.750078 -21.166668
v 0.833333 24.983660 -59.504177
v 3.971617 19.750078 -62.104176
v -8.166667 24.983660 -59.504177
v -8.166667 19.750078 -62.104176
v -1.599997 28.917912 -64.685547
v -1.599997 26.101023 -66.213333
v 0.900003 28.917912 -64.685547
v 0.900003 26.101023 -66.213333
v 0.900003 45.881638 -82.793045
v 0.900003 45.077606 -83.908051
v -1.599997 45.881638 -82.793045
v -1.599997 45.077606 -83.908051
v -17.099997 28.917912 -64.685547
v -17.099997 26.101023 -66.213333
v -14.599997 28.917912 -64.685547
v -14.599997 26.101023 -66.213333
v -14.599997 45.881638 -82.793045
v -14.599997 45.077606 -83.908051
v -17.099997 45.881638 -82.793045
v -17.099997 45.077606 -83.908051
v -16.784784 7.153406 -54.602375
v -16.784784 -14.696130 -54.602375
v 1.184785 7.153406 -54.602375
v 1.184785 -14.696130 -54.602375
v 1.184785 7.153406 -68.102386
v 1.184785 -14.696130 -68.102386
v -16.784784 7.153406 -68.102386
v -16.784784 -14.696130 -68.102386
v -13.883312 27.949568 -24.666670
v -15.935919 24.983660 -22.854168
v -8.341272 27.949568 -24.666670
v -8.341272 24.983660 -22.854168
v -8.341272 27.949568 -57.304180
v -8.341272 24.983660 -59.904182
v -13.883312 27.949568 -57.304180
v -15.979336 24.983660 -59.904182
v -8.341272 27.949568 -24.666670
v -8.341272 24.983660 -22.854168
v -2.799234 27.949568 -24.166670
v -0.786661 24.983660 -22.854168
v -2.799234 27.949568 -57.304180
v -0.866733 24.983660 -59.904182
v -8.341272 27.949568 -57.304180
v -8.341272 24.983660 -59.904182
v 4.316672 22.863609 -61.511383
v 4.316669 22.570946 -58.064243
v 4.316670 24.254105 -56.085201
v 4.316672 26.927107 -56.733528
v 4.316676 28.248142 -61.483593
v 4.316672 28.475231 -64.066147
v 4.316670 28.475231 -64.066147
v 4.316669 26.517540 -63.419350
v 4.316670 25.943882 -60.570415
v -20.849995 22.863609 -61.511383
v -20.849998 22.570946 -58.064243
v -20.849995 24.254105 -56.085201
v -20.849995 26.927107 -56.733528
v -20.849991 28.248142 -61.483593
v -20.849995 28.475231 -64.066147
v -20.849995 28.475231 -64.066147
v -20.849998 26.517540 -63.419350
v -20.849995 25.943882 -60.570415
# 209 vertices

vt 0.661613 0.061535
vt 0.670711 0.050534
vt 0.703631 0.061535
vt 0.703631 0.050534
vt 0.703631 0.076518
vt 0.661613 0.076518
vt 0.671799 0.060966
vt 0.750495 0.061535
vt 0.739353 0.050534
vt 0.749998 0.076518
vt 0.739283 0.060966
vt 0.749998 0.059557
vt 0.750495 0.107473
vt 0.702998 0.059557
vt 0.702998 0.107473
vt 0.656250 0.107473
vt 0.656250 0.059557
vt 0.749998 0.138450
vt 0.735936 0.138450
vt 0.702998 0.138450
vt 0.670061 0.138450
vt 0.656250 0.138450
vt 0.749998 0.096472
vt 0.656250 0.096638
vt 0.729415 0.095579
vt 0.734827 0.083725
vt 0.740238 0.095579
vt 0.734827 0.073626
vt 0.729415 0.061466
vt 0.740238 0.062168
vt 0.734827 0.075262
vt 0.729415 0.063102
vt 0.740238 0.063805
vt 0.734827 0.076899
vt 0.729415 0.064739
vt 0.740238 0.065441
vt 0.665432 0.095579
vt 0.670844 0.083725
vt 0.676255 0.095579
vt 0.676255 0.061466
vt 0.670844 0.073626
vt 0.665432 0.061466
vt 0.676255 0.063102
vt 0.670844 0.075262
vt 0.665432 0.063102
vt 0.676255 0.064739
vt 0.670844 0.076899
vt 0.665432 0.064739
vt 0.669252 0.110468
vt 0.656519 0.095579
vt 0.703631 0.110468
vt 0.703631 0.095579
vt 0.738010 0.110468
vt 0.728715 0.121661
vt 0.728715 0.113647
vt 0.738265 0.121661
vt 0.738265 0.113647
vt 0.738265 0.169922
vt 0.738265 0.167634
vt 0.728715 0.169922
vt 0.728715 0.167634
vt 0.669507 0.121661
vt 0.669507 0.113647
vt 0.679057 0.121661
vt 0.679057 0.113647
vt 0.679057 0.169922
vt 0.679057 0.167634
vt 0.669507 0.169922
vt 0.669507 0.167634
vt 0.670711 0.059742
vt 0.670711 -0.002418
vt 0.739353 0.059742
vt 0.739353 -0.002418
vt 0.681794 0.118906
vt 0.673954 0.110468
vt 0.702964 0.118906
vt 0.724134 0.118906
vt 0.731822 0.110468
vt 0.270332 0.090870
vt 0.295706 0.125560
vt 0.315585 0.074143
vt 0.349192 0.087535
vt 0.351469 0.123201
vt 0.321080 0.160249
vt 0.275827 0.176977
vt 0.242219 0.163584
vt 0.239943 0.127918
# 87 texture coordinates

vn 0.000000 -0.663061 0.748565
vn 1.000000 0.000000 0.000000
vn 0.000000 0.036562 -0.999331
vn -0.897824 -0.435603 -0.064511
vn -0.885980 -0.459356 -0.063495
vn -0.873511 -0.482784 -0.062434
vn 0.000000 0.989211 0.146498
vn 0.000000 -0.993633 -0.112666
vn 0.830077 -0.551185 -0.084664
vn 0.861182 -0.503665 -0.068461
vn 0.889283 -0.454389 -0.052020
vn -1.000000 0.000000 0.000000
vn 0.919584 -0.072664 0.386115
vn 0.707196 0.126583 0.695594
vn -0.001584 -0.212029 0.977262
vn -0.002591 0.072010 0.997401
vn -0.707614 0.124213 0.695596
vn -0.918470 -0.069303 0.389370
vn -0.918367 -0.078256 -0.387915
vn -0.707715 0.117252 -0.696701
vn -0.000743 -0.233521 -0.972351
vn -0.000880 0.060883 -0.998145
vn 0.706356 0.118432 -0.697879
vn 0.918240 -0.078315 -0.388204
vn 0.793664 0.608340 -0.004491
vn 0.353292 0.851555 0.387348
vn -0.001069 0.703584 0.710611
vn -0.357403 0.849360 0.388396
vn -0.796579 0.604532 -0.001679
vn -0.355895 0.849030 -0.390496
vn -0.000362 0.703171 -0.711021
vn 0.353826 0.849621 -0.391089
vn 0.000000 1.000000 0.000000
vn 0.999990 -0.001198 -0.004304
vn 0.000000 -0.321903 0.946773
vn 0.000000 0.000000 0.000000
vn 0.946773 -0.321903 0.000000
vn 0.000000 -0.321903 -0.946773
vn -0.946773 -0.321903 0.000000
vn 0.000000 0.238159 0.971226
vn 0.946773 0.320678 0.028056
vn 0.000000 0.403195 -0.915114
vn -0.946773 0.320678 0.028056
vn 0.000000 -0.996195 -0.087156
vn 0.000000 0.306879 0.951749
vn 0.000000 0.444913 -0.895574
vn -0.838296 0.545215 0.000000
vn -0.840776 0.541382 0.000726
vn -0.843239 0.537538 0.001452
vn 0.000000 -1.000000 0.000000
vn 0.848193 0.529688 0.000000
vn 0.852641 0.522495 -0.001361
vn 0.857027 0.515263 -0.002722
vn 0.000000 -0.476759 0.879034
vn 0.000000 0.811111 -0.584893
vn 0.000000 0.729780 0.683683
vn 0.000000 -0.681973 -0.731377
vn 0.000000 0.000000 1.000000
vn 0.000000 0.000000 -1.000000
vn 0.000000 0.521451 0.853281
vn 0.000000 0.659198 -0.751969
vn -0.816651 0.577132 0.000000
vn -0.819339 0.573309 0.000482
vn -0.822009 0.569474 0.000963
vn -0.076756 0.519912 0.850764
vn -0.038490 0.463642 0.885186
vn 0.000000 0.404676 0.914460
vn 0.827477 0.561500 0.000000
vn 0.832327 0.554284 -0.000905
vn 0.837114 0.547026 -0.001809
vn 0.989949 -0.114545 -0.082944
vn 0.707106 -0.572720 -0.414721
# 72 normals

g Regroup03
usemtl Material01
s 1
f 1/1/1 2/2/1 3/3/1
f 2/2/1 4/4/1 3/3/1
s 2
f 3/3/2 4/4/2 5/5/2
f 4/4/2 6/3/2 5/5/2
s 1
f 5/5/3 6/3/3 7/6/3
f 6/3/3 8/7/3 7/6/3
s 2
f 7/6/4 8/7/5 1/1/5
f 8/7/5 2/2/6 1/1/5
s 3
f 7/6/7 1/1/7 5/5/7
f 1/1/7 3/3/7 5/5/7
f 2/2/8 8/7/8 4/4/8
f 8/7/8 6/3/8 4/4/8
s 1
f 9/3/1 10/4/1 11/8/1
f 10/4/1 12/9/1 11/8/1
s 2
f 11/8/9 12/9/10 13/10/10
f 12/9/10 14/11/11 13/10/10
s 1
f 13/10/3 14/11/3 15/5/3
f 14/11/3 16/3/3 15/5/3
s 2
f 15/5/12 16/3/12 9/3/12
f 16/3/12 10/4/12 9/3/12
s 3
f 15/5/7 9/3/7 13/10/7
f 9/3/7 11/8/7 13/10/7
f 10/4/8 16/3/8 12/9/8
f 16/3/8 14/11/8 12/9/8
s 1
f 17/12/13 23/13/14 18/14/15
f 23/13/14 24/15/16 18/14/15
f 18/14/15 24/15/16 25/16/17
f 18/14/15 25/16/17 19/17/18
f 20/17/19 26/16/20 21/14/21
f 26/16/20 27/15/22 21/14/21
f 21/14/21 27/15/22 28/13/23
f 21/14/21 28/13/23 22/12/24
f 29/18/25 30/19/26 23/13/14
f 23/13/14 30/19/26 31/20/27
f 23/13/14 31/20/27 24/15/16
f 24/15/16 31/20/27 25/16/17
f 31/20/27 32/21/28 25/16/17
f 25/16/17 32/21/28 33/22/29
f 33/22/29 34/21/30 26/16/20
f 26/16/20 34/21/30 35/20/31
f 26/16/20 35/20/31 27/15/22
f 27/15/22 35/20/31 28/13/23
f 35/20/31 36/19/32 28/13/23
f 28/13/23 36/19/32 29/18/25
f 35/20/31 34/21/30 37/20/33
f 35/20/31 37/20/33 36/19/32
f 36/19/32 37/20/33 29/18/25
f 29/18/25 37/20/33 30/19/26
f 30/19/26 37/20/33 31/20/27
f 37/20/33 32/21/28 31/20/27
f 37/20/33 33/22/29 32/21/28
f 34/21/30 33/22/29 37/20/33
f 29/18/25 23/13/14 38/23/34
f 29/18/25 38/23/34 28/13/23
f 38/23/34 23/13/14 17/12/13
f 28/13/23 38/23/34 22/12/24
f 22/12/24 38/23/34 17/12/13
f 33/22/29 26/16/20 39/24/12
f 39/24/12 26/16/20 20/17/19
f 39/24/12 20/17/19 19/17/18
f 25/16/17 39/24/12 19/17/18
f 33/22/29 39/24/12 25/16/17
f 40/25/35 41/26/35 42/27/35
f 41/26/35 43/26/36 42/27/35
s 2
f 42/27/37 43/26/37 44/27/37
f 43/26/37 45/26/36 44/27/37
s 1
f 44/27/38 45/26/38 46/25/38
f 45/26/38 47/26/36 46/25/38
s 2
f 46/25/39 47/26/39 40/25/39
f 47/26/39 41/26/36 40/25/39
s 3
f 46/25/33 40/25/33 44/27/33
f 40/25/33 42/27/33 44/27/33
f 41/26/36 47/26/36 43/26/36
f 47/26/36 45/26/36 43/26/36
s 1
f 48/25/35 49/26/35 50/27/35
f 49/26/35 51/26/36 50/27/35
s 2
f 50/27/37 51/26/37 52/27/37
f 51/26/37 53/26/36 52/27/37
s 1
f 52/27/38 53/26/38 54/25/38
f 53/26/38 55/26/36 54/25/38
s 2
f 54/25/39 55/26/39 48/25/39
f 55/26/39 49/26/36 48/25/39
s 3
f 54/25/33 48/25/33 52/27/33
f 48/25/33 50/27/33 52/27/33
f 49/26/36 55/26/36 51/26/36
f 55/26/36 53/26/36 51/26/36
s 1
f 56/25/35 57/26/35 58/27/35
f 57/26/35 59/26/36 58/27/35
s 2
f 58/27/37 59/26/37 60/27/37
f 59/26/37 61/26/36 60/27/37
s 1
f 60/27/38 61/26/38 62/25/38
f 61/26/38 63/26/36 62/25/38
s 2
f 62/25/39 63/26/39 56/25/39
f 63/26/39 57/26/36 56/25/39
s 3
f 62/25/33 56/25/33 60/27/33
f 56/25/33 58/27/33 60/27/33
f 57/26/36 63/26/36 59/26/36
f 63/26/36 61/26/36 59/26/36
s 1
f 66/11/40 65/28/40 64/29/40
f 66/11/40 67/28/36 65/28/40
s 2
f 68/30/41 67/28/41 66/11/41
f 68/30/41 69/28/36 67/28/41
s 1
f 70/29/42 69/28/42 68/30/42
f 70/29/42 71/28/36 69/28/42
s 2
f 64/29/43 71/28/43 70/29/43
f 64/29/43 65/28/36 71/28/43
s 3
f 68/30/44 64/29/44 70/29/44
f 68/30/44 66/11/44 64/29/44
f 67/28/36 71/28/36 65/28/36
f 67/28/36 69/28/36 71/28/36
s 1
f 74/30/40 73/31/40 72/32/40
f 74/30/40 75/31/36 73/31/40
s 2
f 76/33/41 75/31/41 74/30/41
f 76/33/41 77/31/36 75/31/41
s 1
f 78/32/42 77/31/42 76/33/42
f 78/32/42 79/31/36 77/31/42
s 2
f 72/32/43 79/31/43 78/32/43
f 72/32/43 73/31/36 79/31/43
s 3
f 76/33/44 72/32/44 78/32/44
f 76/33/44 74/30/44 72/32/44
f 75/31/36 79/31/36 73/31/36
f 75/31/36 77/31/36 79/31/36
s 1
f 82/33/40 81/34/40 80/35/40
f 82/33/40 83/34/36 81/34/40
s 2
f 84/36/41 83/34/41 82/33/41
f 84/36/41 85/34/36 83/34/41
s 1
f 86/35/42 85/34/42 84/36/42
f 86/35/42 87/34/36 85/34/42
s 2
f 80/35/43 87/34/43 86/35/43
f 80/35/43 81/34/36 87/34/43
s 3
f 84/36/44 80/35/44 86/35/44
f 84/36/44 82/33/44 80/35/44
f 83/34/36 87/34/36 81/34/36
f 83/34/36 85/34/36 87/34/36
s 1
f 88/37/35 89/38/35 90/39/35
f 89/38/35 91/38/36 90/39/35
s 2
f 90/39/37 91/38/37 92/39/37
f 91/38/37 93/38/36 92/39/37
s 1
f 92/39/38 93/38/38 94/37/38
f 93/38/38 95/38/36 94/37/38
s 2
f 94/37/39 95/38/39 88/37/39
f 95/38/39 89/38/36 88/37/39
s 3
f 94/37/33 88/37/33 92/39/33
f 88/37/33 90/39/33 92/39/33
f 89/38/36 95/38/36 91/38/36
f 95/38/36 93/38/36 91/38/36
s 1
f 96/37/35 97/38/35 98/39/35
f 97/38/35 99/38/36 98/39/35
s 2
f 98/39/37 99/38/37 100/39/37
f 99/38/37 101/38/36 100/39/37
s 1
f 100/39/38 101/38/38 102/37/38
f 101/38/38 103/38/36 102/37/38
s 2
f 102/37/39 103/38/39 96/37/39
f 103/38/39 97/38/36 96/37/39
s 3
f 102/37/33 96/37/33 100/39/33
f 96/37/33 98/39/33 100/39/33
f 97/38/36 103/38/36 99/38/36
f 103/38/36 101/38/36 99/38/36
s 1
f 104/37/35 105/38/35 106/39/35
f 105/38/35 107/38/36 106/39/35
s 2
f 106/39/37 107/38/37 108/39/37
f 107/38/37 109/38/36 108/39/37
s 1
f 108/39/38 109/38/38 110/37/38
f 109/38/38 111/38/36 110/37/38
s 2
f 110/37/39 111/38/39 104/37/39
f 111/38/39 105/38/36 104/37/39
s 3
f 110/37/33 104/37/33 108/39/33
f 104/37/33 106/39/33 108/39/33
f 105/38/36 111/38/36 107/38/36
f 111/38/36 109/38/36 107/38/36
s 1
f 114/40/40 113/41/40 112/42/40
f 114/40/40 115/41/36 113/41/40
s 2
f 116/40/41 115/41/41 114/40/41
f 116/40/41 117/41/36 115/41/41
s 1
f 118/42/42 117/41/42 116/40/42
f 118/42/42 119/41/36 117/41/42
s 2
f 112/42/43 119/41/43 118/42/43
f 112/42/43 113/41/36 119/41/43
s 3
f 116/40/44 112/42/44 118/42/44
f 116/40/44 114/40/44 112/42/44
f 115/41/36 119/41/36 113/41/36
f 115/41/36 117/41/36 119/41/36
s 1
f 122/43/40 121/44/40 120/45/40
f 122/43/40 123/44/36 121/44/40
s 2
f 124/43/41 123/44/41 122/43/41
f 124/43/41 125/44/36 123/44/41
s 1
f 126/45/42 125/44/42 124/43/42
f 126/45/42 127/44/36 125/44/42
s 2
f 120/45/43 127/44/43 126/45/43
f 120/45/43 121/44/36 127/44/43
s 3
f 124/43/44 120/45/44 126/45/44
f 124/43/44 122/43/44 120/45/44
f 123/44/36 127/44/36 121/44/36
f 123/44/36 125/44/36 127/44/36
s 1
f 130/46/40 129/47/40 128/48/40
f 130/46/40 131/47/36 129/47/40
s 2
f 132/46/41 131/47/41 130/46/41
f 132/46/41 133/47/36 131/47/41
s 1
f 134/48/42 133/47/42 132/46/42
f 134/48/42 135/47/36 133/47/42
s 2
f 128/48/43 135/47/43 134/48/43
f 128/48/43 129/47/36 135/47/43
s 3
f 132/46/44 128/48/44 134/48/44
f 132/46/44 130/46/44 128/48/44
f 131/47/36 135/47/36 129/47/36
f 131/47/36 133/47/36 135/47/36
s 1
f 136/49/45 137/50/45 138/51/45
f 137/50/45 139/52/45 138/51/45
s 2
f 138/51/2 139/52/2 140/51/2
f 139/52/2 141/52/2 140/51/2
s 1
f 140/51/46 141/52/46 142/49/46
f 141/52/46 143/50/46 142/49/46
s 2
f 142/49/47 143/50/48 136/49/48
f 143/50/48 137/50/49 136/49/48
s 3
f 142/49/33 136/49/33 140/51/33
f 136/49/33 138/51/33 140/51/33
f 137/50/50 143/50/50 139/52/50
f 143/50/50 141/52/50 139/52/50
s 1
f 144/51/45 145/52/45 146/53/45
f 145/52/45 147/23/45 146/53/45
s 2
f 146/53/51 147/23/52 148/53/52
f 147/23/52 149/23/53 148/53/52
s 1
f 148/53/46 149/23/46 150/51/46
f 149/23/46 151/52/46 150/51/46
s 2
f 150/51/12 151/52/12 144/51/12
f 151/52/12 145/52/12 144/51/12
s 3
f 150/51/33 144/51/33 148/53/33
f 144/51/33 146/53/33 148/53/33
f 145/52/50 151/52/50 147/23/50
f 151/52/50 149/23/50 147/23/50
s 1
f 152/54/54 153/55/54 154/56/54
f 153/55/54 155/57/54 154/56/54
s 2
f 154/56/2 155/57/2 156/58/2
f 155/57/2 157/59/2 156/58/2
s 1
f 156/58/55 157/59/55 158/60/55
f 157/59/55 159/61/55 158/60/55
s 2
f 158/60/12 159/61/12 152/54/12
f 159/61/12 153/55/12 152/54/12
s 3
f 158/60/56 152/54/56 156/58/56
f 152/54/56 154/56/56 156/58/56
f 153/55/57 159/61/57 155/57/57
f 159/61/57 157/59/57 155/57/57
s 1
f 160/62/54 161/63/54 162/64/54
f 161/63/54 163/65/54 162/64/54
s 2
f 162/64/2 163/65/2 164/66/2
f 163/65/2 165/67/2 164/66/2
s 1
f 164/66/55 165/67/55 166/68/55
f 165/67/55 167/69/55 166/68/55
s 2
f 166/68/12 167/69/12 160/62/12
f 167/69/12 161/63/12 160/62/12
s 3
f 166/68/56 160/62/56 164/66/56
f 160/62/56 162/64/56 164/66/56
f 161/63/57 167/69/57 163/65/57
f 167/69/57 165/67/57 163/65/57
s 1
f 168/70/58 169/71/58 170/72/58
f 169/71/58 171/73/58 170/72/58
s 2
f 170/72/2 171/73/2 172/72/2
f 171/73/2 173/73/2 172/72/2
s 1
f 172/72/59 173/73/59 174/70/59
f 173/73/59 175/71/59 174/70/59
s 2
f 174/70/12 175/71/12 168/70/12
f 175/71/12 169/71/12 168/70/12
s 3
f 174/70/33 168/70/33 172/72/33
f 168/70/33 170/72/33 172/72/33
f 169/71/50 175/71/50 171/73/50
f 175/71/50 173/73/50 171/73/50
s 1
f 176/74/60 177/75/60 178/76/60
f 177/75/60 179/51/60 178/76/60
s 2
f 178/76/2 179/51/2 180/76/2
f 179/51/2 181/51/2 180/76/2
s 1
f 180/76/61 181/51/61 182/74/61
f 181/51/61 183/75/61 182/74/61
s 2
f 182/74/62 183/75/63 176/74/63
f 183/75/63 177/75/64 176/74/63
s 3
f 182/74/33 176/74/33 180/76/33
f 176/74/33 178/76/33 180/76/33
f 177/75/50 183/75/50 179/51/50
f 183/75/50 181/51/50 179/51/50
s 1
f 184/76/65 185/51/66 186/77/66
f 185/51/66 187/78/67 186/77/66
s 2
f 186/77/68 187/78/69 188/77/69
f 187/78/69 189/78/70 188/77/69
s 1
f 188/77/61 189/78/61 190/76/61
f 189/78/61 191/51/61 190/76/61
s 2
f 190/76/12 191/51/12 184/76/12
f 191/51/12 185/51/12 184/76/12
s 3
f 190/76/33 184/76/33 188/77/33
f 184/76/33 186/77/33 188/77/33
f 185/51/50 191/51/50 187/78/50
f 191/51/50 189/78/50 187/78/50
# 290 triangles in group

g Regroup04
usemtl Material01
s 2
f 192/79/2 200/80/71 193/81/2
f 193/81/2 200/80/71 194/82/2
f 194/82/2 200/80/71 195/83/2
f 195/83/2 200/80/71 196/84/2
f 196/84/2 200/80/71 197/85/72
f 197/85/72 200/80/71 198/86/72
f 198/86/72 200/80/71 199/87/2
f 199/87/2 200/80/71 192/79/2
f 202/81/12 209/80/12 201/79/12
f 203/82/12 209/80/12 202/81/12
f 204/83/12 209/80/12 203/82/12
f 205/84/12 209/80/12 204/83/12
f 206/85/12 209/80/12 205/84/12
f 207/86/12 209/80/12 206/85/12
f 208/87/12 209/80/12 207/86/12
f 201/79/12 209/80/12 208/87/12
# 16 triangles in group

# 306 triangles total

